%TF.GenerationSoftware,KiCad,Pcbnew,(6.0.0)*%
%TF.CreationDate,2022-05-10T23:47:17-04:00*%
%TF.ProjectId,WT32SC01 wifi poe,57543332-5343-4303-9120-776966692070,rev?*%
%TF.SameCoordinates,Original*%
%TF.FileFunction,Copper,L2,Bot*%
%TF.FilePolarity,Positive*%
%FSLAX46Y46*%
G04 Gerber Fmt 4.6, Leading zero omitted, Abs format (unit mm)*
G04 Created by KiCad (PCBNEW (6.0.0)) date 2022-05-10 23:47:17*
%MOMM*%
%LPD*%
G01*
G04 APERTURE LIST*
G04 Aperture macros list*
%AMOutline5P*
0 Free polygon, 5 corners , with rotation*
0 The origin of the aperture is its center*
0 number of corners: always 5*
0 $1 to $10 corner X, Y*
0 $11 Rotation angle, in degrees counterclockwise*
0 create outline with 5 corners*
4,1,5,$1,$2,$3,$4,$5,$6,$7,$8,$9,$10,$1,$2,$11*%
%AMOutline6P*
0 Free polygon, 6 corners , with rotation*
0 The origin of the aperture is its center*
0 number of corners: always 6*
0 $1 to $12 corner X, Y*
0 $13 Rotation angle, in degrees counterclockwise*
0 create outline with 6 corners*
4,1,6,$1,$2,$3,$4,$5,$6,$7,$8,$9,$10,$11,$12,$1,$2,$13*%
%AMOutline7P*
0 Free polygon, 7 corners , with rotation*
0 The origin of the aperture is its center*
0 number of corners: always 7*
0 $1 to $14 corner X, Y*
0 $15 Rotation angle, in degrees counterclockwise*
0 create outline with 7 corners*
4,1,7,$1,$2,$3,$4,$5,$6,$7,$8,$9,$10,$11,$12,$13,$14,$1,$2,$15*%
%AMOutline8P*
0 Free polygon, 8 corners , with rotation*
0 The origin of the aperture is its center*
0 number of corners: always 8*
0 $1 to $16 corner X, Y*
0 $17 Rotation angle, in degrees counterclockwise*
0 create outline with 8 corners*
4,1,8,$1,$2,$3,$4,$5,$6,$7,$8,$9,$10,$11,$12,$13,$14,$15,$16,$1,$2,$17*%
G04 Aperture macros list end*
%TA.AperFunction,ComponentPad*%
%ADD10C,1.422400*%
%TD*%
%TA.AperFunction,ComponentPad*%
%ADD11C,2.184400*%
%TD*%
%TA.AperFunction,ComponentPad*%
%ADD12Outline8P,-0.965200X0.482600X-0.482600X0.965200X0.482600X0.965200X0.965200X0.482600X0.965200X-0.482600X0.482600X-0.965200X-0.482600X-0.965200X-0.965200X-0.482600X270.000000*%
%TD*%
%TA.AperFunction,ComponentPad*%
%ADD13Outline8P,-0.600000X0.300000X-0.300000X0.600000X0.300000X0.600000X0.600000X0.300000X0.600000X-0.300000X0.300000X-0.600000X-0.300000X-0.600000X-0.600000X-0.300000X0.000000*%
%TD*%
%TA.AperFunction,ComponentPad*%
%ADD14C,1.200000*%
%TD*%
%TA.AperFunction,ComponentPad*%
%ADD15C,4.318000*%
%TD*%
%TA.AperFunction,ViaPad*%
%ADD16C,0.756400*%
%TD*%
%TA.AperFunction,ViaPad*%
%ADD17C,1.016000*%
%TD*%
%TA.AperFunction,Conductor*%
%ADD18C,0.304800*%
%TD*%
%TA.AperFunction,Conductor*%
%ADD19C,1.270000*%
%TD*%
G04 APERTURE END LIST*
D10*
%TO.P,U$2,1*%
%TO.N,N/C*%
X120556100Y-88403600D03*
%TO.P,U$2,2*%
X121826100Y-85863600D03*
%TO.P,U$2,3*%
X123096100Y-88403600D03*
%TO.P,U$2,4*%
%TO.N,DIYPOE*%
X124366100Y-85863600D03*
%TO.P,U$2,5*%
X125636100Y-88403600D03*
%TO.P,U$2,6*%
%TO.N,N/C*%
X126906100Y-85863600D03*
%TO.P,U$2,7*%
%TO.N,GND*%
X128176100Y-88403600D03*
%TO.P,U$2,8*%
X129446100Y-85863600D03*
D11*
%TO.P,U$2,MH1*%
%TO.N,N/C*%
X132916100Y-98253600D03*
%TO.P,U$2,MH2*%
X117086100Y-98253600D03*
%TD*%
D12*
%TO.P,JP1,1*%
%TO.N,N$1*%
X146541100Y-98253600D03*
%TO.P,JP1,2*%
%TO.N,RAW*%
X144001100Y-98253600D03*
%TO.P,JP1,3*%
%TO.N,DIYPOE*%
X141461100Y-98253600D03*
%TD*%
D13*
%TO.P,H2,1*%
%TO.N,VDD*%
X129436101Y-124633611D03*
D14*
%TO.P,H2,2*%
X129436101Y-122633611D03*
%TO.P,H2,3*%
%TO.N,VCC*%
X131436101Y-124633611D03*
%TO.P,H2,4*%
X131436101Y-122633611D03*
%TO.P,H2,5*%
%TO.N,GND*%
X133436101Y-124633611D03*
%TO.P,H2,6*%
X133436101Y-122633611D03*
%TO.P,H2,7*%
X135436101Y-124633611D03*
%TO.P,H2,8*%
X135436101Y-122633611D03*
%TO.P,H2,9*%
%TO.N,IO36*%
X137436101Y-124633611D03*
%TO.P,H2,10*%
%TO.N,IO4_IN2*%
X137436101Y-122633611D03*
%TO.P,H2,11*%
%TO.N,IO39_LIMIT*%
X139436101Y-124633611D03*
%TO.P,H2,12*%
%TO.N,IO2_IN1*%
X139436101Y-122633611D03*
%TO.P,H2,13*%
%TO.N,IO34*%
X141436101Y-124633611D03*
%TO.P,H2,14*%
%TO.N,IO15_LCD_CS*%
X141436101Y-122633611D03*
%TO.P,H2,15*%
%TO.N,IO19_I2C_SCL*%
X143436101Y-124633611D03*
%TO.P,H2,16*%
%TO.N,IO13_LCD_SDA*%
X143436101Y-122633611D03*
%TO.P,H2,17*%
%TO.N,IO18_I2C_SDA*%
X145436101Y-124633611D03*
%TO.P,H2,18*%
%TO.N,ESP_EN*%
X145436101Y-122633611D03*
%TO.P,H2,19*%
%TO.N,IO21_LCD_RS*%
X147436101Y-124633611D03*
%TO.P,H2,20*%
%TO.N,IO22_LCD_RST*%
X147436101Y-122633611D03*
%TO.P,H2,21*%
%TO.N,TXD*%
X149436101Y-124633611D03*
%TO.P,H2,22*%
%TO.N,IO23_LCD_BL*%
X149436101Y-122633611D03*
%TO.P,H2,23*%
%TO.N,IO12_IN4*%
X151436101Y-124633611D03*
%TO.P,H2,24*%
%TO.N,IO0*%
X151436101Y-122633611D03*
%TO.P,H2,25*%
%TO.N,IO14_LCD_SCL*%
X153436101Y-124633611D03*
%TO.P,H2,26*%
%TO.N,IO5_IN3*%
X153436101Y-122633611D03*
%TO.P,H2,27*%
%TO.N,IO27*%
X155436101Y-124633611D03*
%TO.P,H2,28*%
%TO.N,IO25_MOTOR_1*%
X155436101Y-122633611D03*
%TO.P,H2,29*%
%TO.N,IO32*%
X157436101Y-124633611D03*
%TO.P,H2,30*%
%TO.N,IO26_MOTOR_2*%
X157436101Y-122633611D03*
%TO.P,H2,31*%
%TO.N,IO33*%
X159436101Y-124633611D03*
%TO.P,H2,32*%
%TO.N,IO35*%
X159436101Y-122633611D03*
%TO.P,H2,33*%
%TO.N,GND*%
X161436101Y-124633611D03*
%TO.P,H2,34*%
X161436101Y-122633611D03*
%TO.P,H2,35*%
X163436101Y-124633611D03*
%TO.P,H2,36*%
X163436101Y-122633611D03*
%TO.P,H2,37*%
%TO.N,VCC*%
X165436101Y-124633611D03*
%TO.P,H2,38*%
X165436101Y-122633611D03*
%TO.P,H2,39*%
%TO.N,VDD*%
X167436101Y-124633611D03*
%TO.P,H2,40*%
X167436101Y-122633611D03*
%TD*%
D15*
%TO.P,J4,GND*%
%TO.N,GND*%
X141801098Y-91253589D03*
%TO.P,J4,GNDBREAK*%
X138801098Y-86553589D03*
%TO.P,J4,PWR*%
%TO.N,N$1*%
X135801098Y-91253589D03*
%TD*%
D16*
%TO.N,GND*%
X150501100Y-102253600D03*
X142501100Y-117753600D03*
X137501100Y-117753600D03*
X149501100Y-120253600D03*
X167001100Y-100253600D03*
X163001100Y-100253600D03*
X154501100Y-102253600D03*
X159001100Y-100253600D03*
%TO.N,ESP_EN*%
X129201100Y-119753600D03*
X135845000Y-120020000D03*
D17*
%TO.N,VCC*%
X152001100Y-116753600D03*
%TD*%
D18*
%TO.N,ESP_EN*%
X135778600Y-119953600D02*
X129401100Y-119953600D01*
X135845000Y-120020000D02*
X135778600Y-119953600D01*
X129401100Y-119953600D02*
X129201100Y-119753600D01*
D19*
%TO.N,VCC*%
X161701100Y-116753600D02*
X152001100Y-116753600D01*
X165436100Y-124633600D02*
X165436100Y-122633600D01*
X165436100Y-122633600D02*
X165436100Y-120488600D01*
X165436100Y-120488600D02*
X161701100Y-116753600D01*
%TD*%
%TA.AperFunction,Conductor*%
%TO.N,GND*%
G36*
X138672622Y-84143606D02*
G01*
X138681628Y-84165350D01*
X138672622Y-84187094D01*
X138652889Y-84196034D01*
X138493114Y-84206506D01*
X138491118Y-84206769D01*
X138189392Y-84266787D01*
X138187450Y-84267307D01*
X137896139Y-84366193D01*
X137894279Y-84366964D01*
X137618366Y-84503029D01*
X137616631Y-84504031D01*
X137360833Y-84674949D01*
X137359237Y-84676174D01*
X137284887Y-84741378D01*
X137283078Y-84745045D01*
X137284983Y-84750106D01*
X138796773Y-86261896D01*
X138801098Y-86263687D01*
X138805423Y-86261896D01*
X140317583Y-84749736D01*
X140319147Y-84745959D01*
X140316915Y-84741032D01*
X140242959Y-84676174D01*
X140241363Y-84674949D01*
X139985566Y-84504031D01*
X139983831Y-84503029D01*
X139707917Y-84366964D01*
X139706057Y-84366193D01*
X139414746Y-84267307D01*
X139412804Y-84266787D01*
X139111078Y-84206769D01*
X139109082Y-84206506D01*
X138949307Y-84196034D01*
X138928199Y-84185625D01*
X138920634Y-84163339D01*
X138931043Y-84142231D01*
X138951318Y-84134600D01*
X180468699Y-84134600D01*
X180473509Y-84134979D01*
X180501100Y-84139349D01*
X180503493Y-84138970D01*
X180503494Y-84138970D01*
X180518269Y-84136630D01*
X180525273Y-84136329D01*
X180621635Y-84143221D01*
X180729327Y-84150923D01*
X180733654Y-84151546D01*
X180955079Y-84199714D01*
X180959281Y-84200948D01*
X181135803Y-84266787D01*
X181171593Y-84280136D01*
X181175584Y-84281958D01*
X181374467Y-84390556D01*
X181378158Y-84392928D01*
X181559558Y-84528722D01*
X181562874Y-84531595D01*
X181723105Y-84691826D01*
X181725978Y-84695142D01*
X181861772Y-84876542D01*
X181864144Y-84880233D01*
X181966832Y-85068292D01*
X181972742Y-85079116D01*
X181974563Y-85083105D01*
X182043217Y-85267171D01*
X182053751Y-85295415D01*
X182054986Y-85299621D01*
X182103154Y-85521046D01*
X182103777Y-85525373D01*
X182111479Y-85633065D01*
X182118371Y-85729427D01*
X182118070Y-85736431D01*
X182115993Y-85749545D01*
X182115351Y-85753600D01*
X182115730Y-85755993D01*
X182119721Y-85781191D01*
X182120100Y-85786001D01*
X182120100Y-124221199D01*
X182119721Y-124226009D01*
X182116773Y-124244625D01*
X182115351Y-124253600D01*
X182115730Y-124255993D01*
X182115730Y-124255994D01*
X182118070Y-124270769D01*
X182118371Y-124277773D01*
X182111479Y-124374135D01*
X182103777Y-124481827D01*
X182103154Y-124486154D01*
X182054987Y-124707575D01*
X182053752Y-124711781D01*
X181974780Y-124923513D01*
X181974564Y-124924093D01*
X181972743Y-124928082D01*
X181944926Y-124979025D01*
X181864144Y-125126967D01*
X181861772Y-125130658D01*
X181725978Y-125312058D01*
X181723105Y-125315374D01*
X181562874Y-125475605D01*
X181559558Y-125478478D01*
X181378158Y-125614272D01*
X181374467Y-125616644D01*
X181175584Y-125725242D01*
X181171595Y-125727063D01*
X180959281Y-125806252D01*
X180955079Y-125807486D01*
X180733654Y-125855654D01*
X180729327Y-125856277D01*
X180621635Y-125863979D01*
X180525273Y-125870871D01*
X180518269Y-125870570D01*
X180503494Y-125868230D01*
X180503493Y-125868230D01*
X180501100Y-125867851D01*
X180482033Y-125870871D01*
X180473509Y-125872221D01*
X180468699Y-125872600D01*
X116533501Y-125872600D01*
X116528691Y-125872221D01*
X116520168Y-125870871D01*
X116501100Y-125867851D01*
X116498707Y-125868230D01*
X116498706Y-125868230D01*
X116483931Y-125870570D01*
X116476927Y-125870871D01*
X116380565Y-125863979D01*
X116272873Y-125856277D01*
X116268546Y-125855654D01*
X116047121Y-125807486D01*
X116042919Y-125806252D01*
X115830605Y-125727063D01*
X115826616Y-125725242D01*
X115627733Y-125616644D01*
X115624042Y-125614272D01*
X115442642Y-125478478D01*
X115439326Y-125475605D01*
X115279095Y-125315374D01*
X115276222Y-125312058D01*
X115140428Y-125130658D01*
X115138056Y-125126967D01*
X115057274Y-124979025D01*
X115029457Y-124928082D01*
X115027636Y-124924093D01*
X115027420Y-124923513D01*
X114948448Y-124711781D01*
X114947213Y-124707575D01*
X114899046Y-124486154D01*
X114898423Y-124481827D01*
X114890721Y-124374135D01*
X114883829Y-124277773D01*
X114884130Y-124270769D01*
X114886470Y-124255994D01*
X114886470Y-124255993D01*
X114886849Y-124253600D01*
X114885428Y-124244625D01*
X114882479Y-124226009D01*
X114882100Y-124221199D01*
X114882100Y-122619841D01*
X128449948Y-122619841D01*
X128450074Y-122621342D01*
X128465233Y-122801854D01*
X128466055Y-122811648D01*
X128466469Y-122813091D01*
X128515340Y-122983524D01*
X128519110Y-122996673D01*
X128607093Y-123167870D01*
X128608027Y-123169048D01*
X128608028Y-123169050D01*
X128725721Y-123317542D01*
X128725725Y-123317546D01*
X128726653Y-123318717D01*
X128873235Y-123443469D01*
X128874541Y-123444199D01*
X128874544Y-123444201D01*
X129039943Y-123536639D01*
X129039946Y-123536640D01*
X129041257Y-123537373D01*
X129042688Y-123537838D01*
X129209742Y-123592117D01*
X129227638Y-123607402D01*
X129229485Y-123630864D01*
X129214200Y-123648760D01*
X129200241Y-123652112D01*
X129089800Y-123652112D01*
X129082494Y-123652958D01*
X129050567Y-123656655D01*
X129050564Y-123656656D01*
X129048438Y-123656902D01*
X129046459Y-123657724D01*
X129046458Y-123657724D01*
X128933123Y-123704784D01*
X128933121Y-123704785D01*
X128931142Y-123705607D01*
X128899078Y-123731112D01*
X128533601Y-124096589D01*
X128507740Y-124129224D01*
X128506921Y-124131206D01*
X128460057Y-124244625D01*
X128460056Y-124244628D01*
X128459239Y-124246606D01*
X128458996Y-124248739D01*
X128454702Y-124286430D01*
X128454601Y-124287313D01*
X128454602Y-124979912D01*
X128454704Y-124980792D01*
X128459069Y-125018483D01*
X128459392Y-125021274D01*
X128460214Y-125023253D01*
X128460214Y-125023254D01*
X128504812Y-125130658D01*
X128508097Y-125138570D01*
X128533602Y-125170634D01*
X128899079Y-125536111D01*
X128899782Y-125536668D01*
X128899783Y-125536669D01*
X128901258Y-125537838D01*
X128931714Y-125561972D01*
X128933696Y-125562791D01*
X129047115Y-125609655D01*
X129047118Y-125609656D01*
X129049096Y-125610473D01*
X129051229Y-125610716D01*
X129088939Y-125615013D01*
X129088947Y-125615013D01*
X129089803Y-125615111D01*
X129432154Y-125615111D01*
X129782402Y-125615110D01*
X129789708Y-125614264D01*
X129821635Y-125610567D01*
X129821638Y-125610566D01*
X129823764Y-125610320D01*
X129836593Y-125604993D01*
X129939079Y-125562438D01*
X129939081Y-125562437D01*
X129941060Y-125561615D01*
X129951240Y-125553518D01*
X129972444Y-125536651D01*
X129972445Y-125536650D01*
X129973124Y-125536110D01*
X130338601Y-125170633D01*
X130339856Y-125169050D01*
X130363128Y-125139681D01*
X130364462Y-125137998D01*
X130369020Y-125126967D01*
X130412145Y-125022597D01*
X130412146Y-125022594D01*
X130412963Y-125020616D01*
X130415691Y-124996673D01*
X130417503Y-124980773D01*
X130417503Y-124980765D01*
X130417601Y-124979909D01*
X130417601Y-124861467D01*
X130426607Y-124839723D01*
X130448351Y-124830717D01*
X130470095Y-124839723D01*
X130477910Y-124852991D01*
X130514050Y-124979025D01*
X130519110Y-124996673D01*
X130607093Y-125167870D01*
X130608027Y-125169048D01*
X130608028Y-125169050D01*
X130725721Y-125317542D01*
X130725725Y-125317546D01*
X130726653Y-125318717D01*
X130873235Y-125443469D01*
X130874541Y-125444199D01*
X130874544Y-125444201D01*
X131039943Y-125536639D01*
X131039946Y-125536640D01*
X131041257Y-125537373D01*
X131224318Y-125596853D01*
X131319882Y-125608248D01*
X131413959Y-125619467D01*
X131413963Y-125619467D01*
X131415447Y-125619644D01*
X131416942Y-125619529D01*
X131416945Y-125619529D01*
X131605857Y-125604993D01*
X131605860Y-125604993D01*
X131607361Y-125604877D01*
X131608809Y-125604473D01*
X131608813Y-125604472D01*
X131758094Y-125562791D01*
X131792753Y-125553114D01*
X131943120Y-125477159D01*
X131963212Y-125467010D01*
X131963213Y-125467010D01*
X131964560Y-125466329D01*
X132116238Y-125347825D01*
X132131666Y-125329952D01*
X132133765Y-125327520D01*
X133032095Y-125327520D01*
X133033037Y-125329794D01*
X133070228Y-125354132D01*
X133073278Y-125355672D01*
X133238948Y-125417284D01*
X133242263Y-125418111D01*
X133417473Y-125441489D01*
X133420886Y-125441560D01*
X133596917Y-125425540D01*
X133600262Y-125424853D01*
X133768374Y-125370230D01*
X133771480Y-125368821D01*
X133836685Y-125329952D01*
X133838497Y-125327520D01*
X135032095Y-125327520D01*
X135033037Y-125329794D01*
X135070228Y-125354132D01*
X135073278Y-125355672D01*
X135238948Y-125417284D01*
X135242263Y-125418111D01*
X135417473Y-125441489D01*
X135420886Y-125441560D01*
X135596917Y-125425540D01*
X135600262Y-125424853D01*
X135768374Y-125370230D01*
X135771480Y-125368821D01*
X135836685Y-125329952D01*
X135839483Y-125326197D01*
X135839170Y-125324049D01*
X135440426Y-124925304D01*
X135436101Y-124923513D01*
X135431776Y-124925304D01*
X135033886Y-125323195D01*
X135032095Y-125327520D01*
X133838497Y-125327520D01*
X133839483Y-125326197D01*
X133839170Y-125324049D01*
X133440426Y-124925304D01*
X133436101Y-124923513D01*
X133431776Y-124925304D01*
X133033886Y-125323195D01*
X133032095Y-125327520D01*
X132133765Y-125327520D01*
X132241030Y-125203251D01*
X132242009Y-125202117D01*
X132243869Y-125198844D01*
X132336342Y-125036061D01*
X132337084Y-125034755D01*
X132337559Y-125033328D01*
X132397368Y-124853536D01*
X132397369Y-124853532D01*
X132397841Y-124852113D01*
X132399848Y-124836230D01*
X132421859Y-124661988D01*
X132421965Y-124661149D01*
X132422350Y-124633611D01*
X132421411Y-124624037D01*
X132628066Y-124624037D01*
X132645314Y-124799953D01*
X132646024Y-124803291D01*
X132701818Y-124971013D01*
X132703253Y-124974120D01*
X132739678Y-125034264D01*
X132743452Y-125037035D01*
X132745643Y-125036700D01*
X133144408Y-124637936D01*
X133146199Y-124633611D01*
X133726003Y-124633611D01*
X133727794Y-124637936D01*
X134125899Y-125036040D01*
X134130224Y-125037831D01*
X134132547Y-125036869D01*
X134154046Y-125004511D01*
X134155612Y-125001465D01*
X134218378Y-124836230D01*
X134219228Y-124832921D01*
X134243933Y-124657141D01*
X134244082Y-124655207D01*
X134244370Y-124634576D01*
X134244275Y-124632649D01*
X134243309Y-124624037D01*
X134628066Y-124624037D01*
X134645314Y-124799953D01*
X134646024Y-124803291D01*
X134701818Y-124971013D01*
X134703253Y-124974120D01*
X134739678Y-125034264D01*
X134743452Y-125037035D01*
X134745643Y-125036700D01*
X135144408Y-124637936D01*
X135146199Y-124633611D01*
X135726003Y-124633611D01*
X135727794Y-124637936D01*
X136125899Y-125036040D01*
X136130224Y-125037831D01*
X136132547Y-125036869D01*
X136154046Y-125004511D01*
X136155612Y-125001465D01*
X136218378Y-124836230D01*
X136219228Y-124832921D01*
X136243933Y-124657141D01*
X136244082Y-124655207D01*
X136244370Y-124634576D01*
X136244275Y-124632649D01*
X136242838Y-124619841D01*
X136449948Y-124619841D01*
X136450074Y-124621342D01*
X136465233Y-124801854D01*
X136466055Y-124811648D01*
X136475895Y-124845965D01*
X136514050Y-124979025D01*
X136519110Y-124996673D01*
X136607093Y-125167870D01*
X136608027Y-125169048D01*
X136608028Y-125169050D01*
X136725721Y-125317542D01*
X136725725Y-125317546D01*
X136726653Y-125318717D01*
X136873235Y-125443469D01*
X136874541Y-125444199D01*
X136874544Y-125444201D01*
X137039943Y-125536639D01*
X137039946Y-125536640D01*
X137041257Y-125537373D01*
X137224318Y-125596853D01*
X137319882Y-125608248D01*
X137413959Y-125619467D01*
X137413963Y-125619467D01*
X137415447Y-125619644D01*
X137416942Y-125619529D01*
X137416945Y-125619529D01*
X137605857Y-125604993D01*
X137605860Y-125604993D01*
X137607361Y-125604877D01*
X137608809Y-125604473D01*
X137608813Y-125604472D01*
X137758094Y-125562791D01*
X137792753Y-125553114D01*
X137943120Y-125477159D01*
X137963212Y-125467010D01*
X137963213Y-125467010D01*
X137964560Y-125466329D01*
X138116238Y-125347825D01*
X138131666Y-125329952D01*
X138241030Y-125203251D01*
X138242009Y-125202117D01*
X138243869Y-125198844D01*
X138336342Y-125036061D01*
X138337084Y-125034755D01*
X138337559Y-125033328D01*
X138397368Y-124853536D01*
X138397369Y-124853532D01*
X138397841Y-124852113D01*
X138399848Y-124836230D01*
X138403142Y-124810150D01*
X138404190Y-124801854D01*
X138415851Y-124781411D01*
X138438552Y-124775200D01*
X138458995Y-124786861D01*
X138465340Y-124803134D01*
X138466055Y-124811648D01*
X138475895Y-124845965D01*
X138514050Y-124979025D01*
X138519110Y-124996673D01*
X138607093Y-125167870D01*
X138608027Y-125169048D01*
X138608028Y-125169050D01*
X138725721Y-125317542D01*
X138725725Y-125317546D01*
X138726653Y-125318717D01*
X138873235Y-125443469D01*
X138874541Y-125444199D01*
X138874544Y-125444201D01*
X139039943Y-125536639D01*
X139039946Y-125536640D01*
X139041257Y-125537373D01*
X139224318Y-125596853D01*
X139319882Y-125608248D01*
X139413959Y-125619467D01*
X139413963Y-125619467D01*
X139415447Y-125619644D01*
X139416942Y-125619529D01*
X139416945Y-125619529D01*
X139605857Y-125604993D01*
X139605860Y-125604993D01*
X139607361Y-125604877D01*
X139608809Y-125604473D01*
X139608813Y-125604472D01*
X139758094Y-125562791D01*
X139792753Y-125553114D01*
X139943120Y-125477159D01*
X139963212Y-125467010D01*
X139963213Y-125467010D01*
X139964560Y-125466329D01*
X140116238Y-125347825D01*
X140131666Y-125329952D01*
X140241030Y-125203251D01*
X140242009Y-125202117D01*
X140243869Y-125198844D01*
X140336342Y-125036061D01*
X140337084Y-125034755D01*
X140337559Y-125033328D01*
X140397368Y-124853536D01*
X140397369Y-124853532D01*
X140397841Y-124852113D01*
X140399848Y-124836230D01*
X140403142Y-124810150D01*
X140404190Y-124801854D01*
X140415851Y-124781411D01*
X140438552Y-124775200D01*
X140458995Y-124786861D01*
X140465340Y-124803134D01*
X140466055Y-124811648D01*
X140475895Y-124845965D01*
X140514050Y-124979025D01*
X140519110Y-124996673D01*
X140607093Y-125167870D01*
X140608027Y-125169048D01*
X140608028Y-125169050D01*
X140725721Y-125317542D01*
X140725725Y-125317546D01*
X140726653Y-125318717D01*
X140873235Y-125443469D01*
X140874541Y-125444199D01*
X140874544Y-125444201D01*
X141039943Y-125536639D01*
X141039946Y-125536640D01*
X141041257Y-125537373D01*
X141224318Y-125596853D01*
X141319882Y-125608248D01*
X141413959Y-125619467D01*
X141413963Y-125619467D01*
X141415447Y-125619644D01*
X141416942Y-125619529D01*
X141416945Y-125619529D01*
X141605857Y-125604993D01*
X141605860Y-125604993D01*
X141607361Y-125604877D01*
X141608809Y-125604473D01*
X141608813Y-125604472D01*
X141758094Y-125562791D01*
X141792753Y-125553114D01*
X141943120Y-125477159D01*
X141963212Y-125467010D01*
X141963213Y-125467010D01*
X141964560Y-125466329D01*
X142116238Y-125347825D01*
X142131666Y-125329952D01*
X142241030Y-125203251D01*
X142242009Y-125202117D01*
X142243869Y-125198844D01*
X142336342Y-125036061D01*
X142337084Y-125034755D01*
X142337559Y-125033328D01*
X142397368Y-124853536D01*
X142397369Y-124853532D01*
X142397841Y-124852113D01*
X142399848Y-124836230D01*
X142403142Y-124810150D01*
X142404190Y-124801854D01*
X142415851Y-124781411D01*
X142438552Y-124775200D01*
X142458995Y-124786861D01*
X142465340Y-124803134D01*
X142466055Y-124811648D01*
X142475895Y-124845965D01*
X142514050Y-124979025D01*
X142519110Y-124996673D01*
X142607093Y-125167870D01*
X142608027Y-125169048D01*
X142608028Y-125169050D01*
X142725721Y-125317542D01*
X142725725Y-125317546D01*
X142726653Y-125318717D01*
X142873235Y-125443469D01*
X142874541Y-125444199D01*
X142874544Y-125444201D01*
X143039943Y-125536639D01*
X143039946Y-125536640D01*
X143041257Y-125537373D01*
X143224318Y-125596853D01*
X143319882Y-125608248D01*
X143413959Y-125619467D01*
X143413963Y-125619467D01*
X143415447Y-125619644D01*
X143416942Y-125619529D01*
X143416945Y-125619529D01*
X143605857Y-125604993D01*
X143605860Y-125604993D01*
X143607361Y-125604877D01*
X143608809Y-125604473D01*
X143608813Y-125604472D01*
X143758094Y-125562791D01*
X143792753Y-125553114D01*
X143943120Y-125477159D01*
X143963212Y-125467010D01*
X143963213Y-125467010D01*
X143964560Y-125466329D01*
X144116238Y-125347825D01*
X144131666Y-125329952D01*
X144241030Y-125203251D01*
X144242009Y-125202117D01*
X144243869Y-125198844D01*
X144336342Y-125036061D01*
X144337084Y-125034755D01*
X144337559Y-125033328D01*
X144397368Y-124853536D01*
X144397369Y-124853532D01*
X144397841Y-124852113D01*
X144399848Y-124836230D01*
X144403142Y-124810150D01*
X144404190Y-124801854D01*
X144415851Y-124781411D01*
X144438552Y-124775200D01*
X144458995Y-124786861D01*
X144465340Y-124803134D01*
X144466055Y-124811648D01*
X144475895Y-124845965D01*
X144514050Y-124979025D01*
X144519110Y-124996673D01*
X144607093Y-125167870D01*
X144608027Y-125169048D01*
X144608028Y-125169050D01*
X144725721Y-125317542D01*
X144725725Y-125317546D01*
X144726653Y-125318717D01*
X144873235Y-125443469D01*
X144874541Y-125444199D01*
X144874544Y-125444201D01*
X145039943Y-125536639D01*
X145039946Y-125536640D01*
X145041257Y-125537373D01*
X145224318Y-125596853D01*
X145319882Y-125608248D01*
X145413959Y-125619467D01*
X145413963Y-125619467D01*
X145415447Y-125619644D01*
X145416942Y-125619529D01*
X145416945Y-125619529D01*
X145605857Y-125604993D01*
X145605860Y-125604993D01*
X145607361Y-125604877D01*
X145608809Y-125604473D01*
X145608813Y-125604472D01*
X145758094Y-125562791D01*
X145792753Y-125553114D01*
X145943120Y-125477159D01*
X145963212Y-125467010D01*
X145963213Y-125467010D01*
X145964560Y-125466329D01*
X146116238Y-125347825D01*
X146131666Y-125329952D01*
X146241030Y-125203251D01*
X146242009Y-125202117D01*
X146243869Y-125198844D01*
X146336342Y-125036061D01*
X146337084Y-125034755D01*
X146337559Y-125033328D01*
X146397368Y-124853536D01*
X146397369Y-124853532D01*
X146397841Y-124852113D01*
X146399848Y-124836230D01*
X146403142Y-124810150D01*
X146404190Y-124801854D01*
X146415851Y-124781411D01*
X146438552Y-124775200D01*
X146458995Y-124786861D01*
X146465340Y-124803134D01*
X146466055Y-124811648D01*
X146475895Y-124845965D01*
X146514050Y-124979025D01*
X146519110Y-124996673D01*
X146607093Y-125167870D01*
X146608027Y-125169048D01*
X146608028Y-125169050D01*
X146725721Y-125317542D01*
X146725725Y-125317546D01*
X146726653Y-125318717D01*
X146873235Y-125443469D01*
X146874541Y-125444199D01*
X146874544Y-125444201D01*
X147039943Y-125536639D01*
X147039946Y-125536640D01*
X147041257Y-125537373D01*
X147224318Y-125596853D01*
X147319882Y-125608248D01*
X147413959Y-125619467D01*
X147413963Y-125619467D01*
X147415447Y-125619644D01*
X147416942Y-125619529D01*
X147416945Y-125619529D01*
X147605857Y-125604993D01*
X147605860Y-125604993D01*
X147607361Y-125604877D01*
X147608809Y-125604473D01*
X147608813Y-125604472D01*
X147758094Y-125562791D01*
X147792753Y-125553114D01*
X147943120Y-125477159D01*
X147963212Y-125467010D01*
X147963213Y-125467010D01*
X147964560Y-125466329D01*
X148116238Y-125347825D01*
X148131666Y-125329952D01*
X148241030Y-125203251D01*
X148242009Y-125202117D01*
X148243869Y-125198844D01*
X148336342Y-125036061D01*
X148337084Y-125034755D01*
X148337559Y-125033328D01*
X148397368Y-124853536D01*
X148397369Y-124853532D01*
X148397841Y-124852113D01*
X148399848Y-124836230D01*
X148403142Y-124810150D01*
X148404190Y-124801854D01*
X148415851Y-124781411D01*
X148438552Y-124775200D01*
X148458995Y-124786861D01*
X148465340Y-124803134D01*
X148466055Y-124811648D01*
X148475895Y-124845965D01*
X148514050Y-124979025D01*
X148519110Y-124996673D01*
X148607093Y-125167870D01*
X148608027Y-125169048D01*
X148608028Y-125169050D01*
X148725721Y-125317542D01*
X148725725Y-125317546D01*
X148726653Y-125318717D01*
X148873235Y-125443469D01*
X148874541Y-125444199D01*
X148874544Y-125444201D01*
X149039943Y-125536639D01*
X149039946Y-125536640D01*
X149041257Y-125537373D01*
X149224318Y-125596853D01*
X149319882Y-125608248D01*
X149413959Y-125619467D01*
X149413963Y-125619467D01*
X149415447Y-125619644D01*
X149416942Y-125619529D01*
X149416945Y-125619529D01*
X149605857Y-125604993D01*
X149605860Y-125604993D01*
X149607361Y-125604877D01*
X149608809Y-125604473D01*
X149608813Y-125604472D01*
X149758094Y-125562791D01*
X149792753Y-125553114D01*
X149943120Y-125477159D01*
X149963212Y-125467010D01*
X149963213Y-125467010D01*
X149964560Y-125466329D01*
X150116238Y-125347825D01*
X150131666Y-125329952D01*
X150241030Y-125203251D01*
X150242009Y-125202117D01*
X150243869Y-125198844D01*
X150336342Y-125036061D01*
X150337084Y-125034755D01*
X150337559Y-125033328D01*
X150397368Y-124853536D01*
X150397369Y-124853532D01*
X150397841Y-124852113D01*
X150399848Y-124836230D01*
X150403142Y-124810150D01*
X150404190Y-124801854D01*
X150415851Y-124781411D01*
X150438552Y-124775200D01*
X150458995Y-124786861D01*
X150465340Y-124803134D01*
X150466055Y-124811648D01*
X150475895Y-124845965D01*
X150514050Y-124979025D01*
X150519110Y-124996673D01*
X150607093Y-125167870D01*
X150608027Y-125169048D01*
X150608028Y-125169050D01*
X150725721Y-125317542D01*
X150725725Y-125317546D01*
X150726653Y-125318717D01*
X150873235Y-125443469D01*
X150874541Y-125444199D01*
X150874544Y-125444201D01*
X151039943Y-125536639D01*
X151039946Y-125536640D01*
X151041257Y-125537373D01*
X151224318Y-125596853D01*
X151319882Y-125608248D01*
X151413959Y-125619467D01*
X151413963Y-125619467D01*
X151415447Y-125619644D01*
X151416942Y-125619529D01*
X151416945Y-125619529D01*
X151605857Y-125604993D01*
X151605860Y-125604993D01*
X151607361Y-125604877D01*
X151608809Y-125604473D01*
X151608813Y-125604472D01*
X151758094Y-125562791D01*
X151792753Y-125553114D01*
X151943120Y-125477159D01*
X151963212Y-125467010D01*
X151963213Y-125467010D01*
X151964560Y-125466329D01*
X152116238Y-125347825D01*
X152131666Y-125329952D01*
X152241030Y-125203251D01*
X152242009Y-125202117D01*
X152243869Y-125198844D01*
X152336342Y-125036061D01*
X152337084Y-125034755D01*
X152337559Y-125033328D01*
X152397368Y-124853536D01*
X152397369Y-124853532D01*
X152397841Y-124852113D01*
X152399848Y-124836230D01*
X152403142Y-124810150D01*
X152404190Y-124801854D01*
X152415851Y-124781411D01*
X152438552Y-124775200D01*
X152458995Y-124786861D01*
X152465340Y-124803134D01*
X152466055Y-124811648D01*
X152475895Y-124845965D01*
X152514050Y-124979025D01*
X152519110Y-124996673D01*
X152607093Y-125167870D01*
X152608027Y-125169048D01*
X152608028Y-125169050D01*
X152725721Y-125317542D01*
X152725725Y-125317546D01*
X152726653Y-125318717D01*
X152873235Y-125443469D01*
X152874541Y-125444199D01*
X152874544Y-125444201D01*
X153039943Y-125536639D01*
X153039946Y-125536640D01*
X153041257Y-125537373D01*
X153224318Y-125596853D01*
X153319882Y-125608248D01*
X153413959Y-125619467D01*
X153413963Y-125619467D01*
X153415447Y-125619644D01*
X153416942Y-125619529D01*
X153416945Y-125619529D01*
X153605857Y-125604993D01*
X153605860Y-125604993D01*
X153607361Y-125604877D01*
X153608809Y-125604473D01*
X153608813Y-125604472D01*
X153758094Y-125562791D01*
X153792753Y-125553114D01*
X153943120Y-125477159D01*
X153963212Y-125467010D01*
X153963213Y-125467010D01*
X153964560Y-125466329D01*
X154116238Y-125347825D01*
X154131666Y-125329952D01*
X154241030Y-125203251D01*
X154242009Y-125202117D01*
X154243869Y-125198844D01*
X154336342Y-125036061D01*
X154337084Y-125034755D01*
X154337559Y-125033328D01*
X154397368Y-124853536D01*
X154397369Y-124853532D01*
X154397841Y-124852113D01*
X154399848Y-124836230D01*
X154403142Y-124810150D01*
X154404190Y-124801854D01*
X154415851Y-124781411D01*
X154438552Y-124775200D01*
X154458995Y-124786861D01*
X154465340Y-124803134D01*
X154466055Y-124811648D01*
X154475895Y-124845965D01*
X154514050Y-124979025D01*
X154519110Y-124996673D01*
X154607093Y-125167870D01*
X154608027Y-125169048D01*
X154608028Y-125169050D01*
X154725721Y-125317542D01*
X154725725Y-125317546D01*
X154726653Y-125318717D01*
X154873235Y-125443469D01*
X154874541Y-125444199D01*
X154874544Y-125444201D01*
X155039943Y-125536639D01*
X155039946Y-125536640D01*
X155041257Y-125537373D01*
X155224318Y-125596853D01*
X155319882Y-125608248D01*
X155413959Y-125619467D01*
X155413963Y-125619467D01*
X155415447Y-125619644D01*
X155416942Y-125619529D01*
X155416945Y-125619529D01*
X155605857Y-125604993D01*
X155605860Y-125604993D01*
X155607361Y-125604877D01*
X155608809Y-125604473D01*
X155608813Y-125604472D01*
X155758094Y-125562791D01*
X155792753Y-125553114D01*
X155943120Y-125477159D01*
X155963212Y-125467010D01*
X155963213Y-125467010D01*
X155964560Y-125466329D01*
X156116238Y-125347825D01*
X156131666Y-125329952D01*
X156241030Y-125203251D01*
X156242009Y-125202117D01*
X156243869Y-125198844D01*
X156336342Y-125036061D01*
X156337084Y-125034755D01*
X156337559Y-125033328D01*
X156397368Y-124853536D01*
X156397369Y-124853532D01*
X156397841Y-124852113D01*
X156399848Y-124836230D01*
X156403142Y-124810150D01*
X156404190Y-124801854D01*
X156415851Y-124781411D01*
X156438552Y-124775200D01*
X156458995Y-124786861D01*
X156465340Y-124803134D01*
X156466055Y-124811648D01*
X156475895Y-124845965D01*
X156514050Y-124979025D01*
X156519110Y-124996673D01*
X156607093Y-125167870D01*
X156608027Y-125169048D01*
X156608028Y-125169050D01*
X156725721Y-125317542D01*
X156725725Y-125317546D01*
X156726653Y-125318717D01*
X156873235Y-125443469D01*
X156874541Y-125444199D01*
X156874544Y-125444201D01*
X157039943Y-125536639D01*
X157039946Y-125536640D01*
X157041257Y-125537373D01*
X157224318Y-125596853D01*
X157319882Y-125608248D01*
X157413959Y-125619467D01*
X157413963Y-125619467D01*
X157415447Y-125619644D01*
X157416942Y-125619529D01*
X157416945Y-125619529D01*
X157605857Y-125604993D01*
X157605860Y-125604993D01*
X157607361Y-125604877D01*
X157608809Y-125604473D01*
X157608813Y-125604472D01*
X157758094Y-125562791D01*
X157792753Y-125553114D01*
X157943120Y-125477159D01*
X157963212Y-125467010D01*
X157963213Y-125467010D01*
X157964560Y-125466329D01*
X158116238Y-125347825D01*
X158131666Y-125329952D01*
X158241030Y-125203251D01*
X158242009Y-125202117D01*
X158243869Y-125198844D01*
X158336342Y-125036061D01*
X158337084Y-125034755D01*
X158337559Y-125033328D01*
X158397368Y-124853536D01*
X158397369Y-124853532D01*
X158397841Y-124852113D01*
X158399848Y-124836230D01*
X158403142Y-124810150D01*
X158404190Y-124801854D01*
X158415851Y-124781411D01*
X158438552Y-124775200D01*
X158458995Y-124786861D01*
X158465340Y-124803134D01*
X158466055Y-124811648D01*
X158475895Y-124845965D01*
X158514050Y-124979025D01*
X158519110Y-124996673D01*
X158607093Y-125167870D01*
X158608027Y-125169048D01*
X158608028Y-125169050D01*
X158725721Y-125317542D01*
X158725725Y-125317546D01*
X158726653Y-125318717D01*
X158873235Y-125443469D01*
X158874541Y-125444199D01*
X158874544Y-125444201D01*
X159039943Y-125536639D01*
X159039946Y-125536640D01*
X159041257Y-125537373D01*
X159224318Y-125596853D01*
X159319882Y-125608248D01*
X159413959Y-125619467D01*
X159413963Y-125619467D01*
X159415447Y-125619644D01*
X159416942Y-125619529D01*
X159416945Y-125619529D01*
X159605857Y-125604993D01*
X159605860Y-125604993D01*
X159607361Y-125604877D01*
X159608809Y-125604473D01*
X159608813Y-125604472D01*
X159758094Y-125562791D01*
X159792753Y-125553114D01*
X159943120Y-125477159D01*
X159963212Y-125467010D01*
X159963213Y-125467010D01*
X159964560Y-125466329D01*
X160116238Y-125347825D01*
X160131666Y-125329952D01*
X160133765Y-125327520D01*
X161032095Y-125327520D01*
X161033037Y-125329794D01*
X161070228Y-125354132D01*
X161073278Y-125355672D01*
X161238948Y-125417284D01*
X161242263Y-125418111D01*
X161417473Y-125441489D01*
X161420886Y-125441560D01*
X161596917Y-125425540D01*
X161600262Y-125424853D01*
X161768374Y-125370230D01*
X161771480Y-125368821D01*
X161836685Y-125329952D01*
X161838497Y-125327520D01*
X163032095Y-125327520D01*
X163033037Y-125329794D01*
X163070228Y-125354132D01*
X163073278Y-125355672D01*
X163238948Y-125417284D01*
X163242263Y-125418111D01*
X163417473Y-125441489D01*
X163420886Y-125441560D01*
X163596917Y-125425540D01*
X163600262Y-125424853D01*
X163768374Y-125370230D01*
X163771480Y-125368821D01*
X163836685Y-125329952D01*
X163839483Y-125326197D01*
X163839170Y-125324049D01*
X163440426Y-124925304D01*
X163436101Y-124923513D01*
X163431776Y-124925304D01*
X163033886Y-125323195D01*
X163032095Y-125327520D01*
X161838497Y-125327520D01*
X161839483Y-125326197D01*
X161839170Y-125324049D01*
X161440426Y-124925304D01*
X161436101Y-124923513D01*
X161431776Y-124925304D01*
X161033886Y-125323195D01*
X161032095Y-125327520D01*
X160133765Y-125327520D01*
X160241030Y-125203251D01*
X160242009Y-125202117D01*
X160243869Y-125198844D01*
X160336342Y-125036061D01*
X160337084Y-125034755D01*
X160337559Y-125033328D01*
X160397368Y-124853536D01*
X160397369Y-124853532D01*
X160397841Y-124852113D01*
X160399848Y-124836230D01*
X160421859Y-124661988D01*
X160421965Y-124661149D01*
X160422350Y-124633611D01*
X160421411Y-124624037D01*
X160628066Y-124624037D01*
X160645314Y-124799953D01*
X160646024Y-124803291D01*
X160701818Y-124971013D01*
X160703253Y-124974120D01*
X160739678Y-125034264D01*
X160743452Y-125037035D01*
X160745643Y-125036700D01*
X161144408Y-124637936D01*
X161146199Y-124633611D01*
X161726003Y-124633611D01*
X161727794Y-124637936D01*
X162125899Y-125036040D01*
X162130224Y-125037831D01*
X162132547Y-125036869D01*
X162154046Y-125004511D01*
X162155612Y-125001465D01*
X162218378Y-124836230D01*
X162219228Y-124832921D01*
X162243933Y-124657141D01*
X162244082Y-124655207D01*
X162244370Y-124634576D01*
X162244275Y-124632649D01*
X162243309Y-124624037D01*
X162628066Y-124624037D01*
X162645314Y-124799953D01*
X162646024Y-124803291D01*
X162701818Y-124971013D01*
X162703253Y-124974120D01*
X162739678Y-125034264D01*
X162743452Y-125037035D01*
X162745643Y-125036700D01*
X163144408Y-124637936D01*
X163146199Y-124633611D01*
X163726003Y-124633611D01*
X163727794Y-124637936D01*
X164125899Y-125036040D01*
X164130224Y-125037831D01*
X164132547Y-125036869D01*
X164154046Y-125004511D01*
X164155612Y-125001465D01*
X164218378Y-124836230D01*
X164219228Y-124832921D01*
X164243933Y-124657141D01*
X164244082Y-124655207D01*
X164244370Y-124634576D01*
X164244275Y-124632649D01*
X164224489Y-124456249D01*
X164223732Y-124452913D01*
X164165600Y-124285983D01*
X164164125Y-124282906D01*
X164132775Y-124232736D01*
X164128963Y-124230017D01*
X164126683Y-124230398D01*
X163727794Y-124629286D01*
X163726003Y-124633611D01*
X163146199Y-124633611D01*
X163144408Y-124629286D01*
X162746703Y-124231582D01*
X162742378Y-124229791D01*
X162740151Y-124230713D01*
X162713043Y-124272776D01*
X162711526Y-124275833D01*
X162651070Y-124441936D01*
X162650267Y-124445254D01*
X162628113Y-124620623D01*
X162628066Y-124624037D01*
X162243309Y-124624037D01*
X162224489Y-124456249D01*
X162223732Y-124452913D01*
X162165600Y-124285983D01*
X162164125Y-124282906D01*
X162132775Y-124232736D01*
X162128963Y-124230017D01*
X162126683Y-124230398D01*
X161727794Y-124629286D01*
X161726003Y-124633611D01*
X161146199Y-124633611D01*
X161144408Y-124629286D01*
X160746703Y-124231582D01*
X160742378Y-124229791D01*
X160740151Y-124230713D01*
X160713043Y-124272776D01*
X160711526Y-124275833D01*
X160651070Y-124441936D01*
X160650267Y-124445254D01*
X160628113Y-124620623D01*
X160628066Y-124624037D01*
X160421411Y-124624037D01*
X160418682Y-124596198D01*
X160403714Y-124443544D01*
X160403713Y-124443541D01*
X160403567Y-124442048D01*
X160403135Y-124440617D01*
X160403134Y-124440612D01*
X160356589Y-124286449D01*
X160347934Y-124257781D01*
X160280633Y-124131206D01*
X160258276Y-124089158D01*
X160258274Y-124089155D01*
X160257569Y-124087829D01*
X160137711Y-123940869D01*
X161032605Y-123940869D01*
X161032963Y-123943104D01*
X161431776Y-124341918D01*
X161436101Y-124343709D01*
X161440426Y-124341918D01*
X161837971Y-123944372D01*
X161839422Y-123940869D01*
X163032605Y-123940869D01*
X163032963Y-123943104D01*
X163431776Y-124341918D01*
X163436101Y-124343709D01*
X163440426Y-124341918D01*
X163837971Y-123944372D01*
X163839762Y-123940047D01*
X163838859Y-123937866D01*
X163791884Y-123908056D01*
X163788806Y-123906554D01*
X163622294Y-123847262D01*
X163618968Y-123846482D01*
X163443446Y-123825552D01*
X163440040Y-123825528D01*
X163264242Y-123844005D01*
X163260905Y-123844738D01*
X163093578Y-123901702D01*
X163090491Y-123903154D01*
X163035349Y-123937078D01*
X163032605Y-123940869D01*
X161839422Y-123940869D01*
X161839762Y-123940047D01*
X161838859Y-123937866D01*
X161791884Y-123908056D01*
X161788806Y-123906554D01*
X161622294Y-123847262D01*
X161618968Y-123846482D01*
X161443446Y-123825552D01*
X161440040Y-123825528D01*
X161264242Y-123844005D01*
X161260905Y-123844738D01*
X161093578Y-123901702D01*
X161090491Y-123903154D01*
X161035349Y-123937078D01*
X161032605Y-123940869D01*
X160137711Y-123940869D01*
X160135914Y-123938666D01*
X159987604Y-123815974D01*
X159986284Y-123815260D01*
X159819611Y-123725139D01*
X159819608Y-123725138D01*
X159818288Y-123724424D01*
X159816856Y-123723981D01*
X159816852Y-123723979D01*
X159684283Y-123682943D01*
X159634414Y-123667506D01*
X159611997Y-123665150D01*
X159591314Y-123653920D01*
X159584629Y-123631354D01*
X159595859Y-123610671D01*
X159607497Y-123605365D01*
X159607361Y-123604877D01*
X159637761Y-123596389D01*
X159792753Y-123553114D01*
X159964560Y-123466329D01*
X160116238Y-123347825D01*
X160131666Y-123329952D01*
X160133765Y-123327520D01*
X161032095Y-123327520D01*
X161033037Y-123329794D01*
X161070228Y-123354132D01*
X161073278Y-123355672D01*
X161238948Y-123417284D01*
X161242263Y-123418111D01*
X161417473Y-123441489D01*
X161420886Y-123441560D01*
X161596917Y-123425540D01*
X161600262Y-123424853D01*
X161768374Y-123370230D01*
X161771480Y-123368821D01*
X161836685Y-123329952D01*
X161838497Y-123327520D01*
X163032095Y-123327520D01*
X163033037Y-123329794D01*
X163070228Y-123354132D01*
X163073278Y-123355672D01*
X163238948Y-123417284D01*
X163242263Y-123418111D01*
X163417473Y-123441489D01*
X163420886Y-123441560D01*
X163596917Y-123425540D01*
X163600262Y-123424853D01*
X163768374Y-123370230D01*
X163771480Y-123368821D01*
X163836685Y-123329952D01*
X163839483Y-123326197D01*
X163839170Y-123324049D01*
X163440426Y-122925304D01*
X163436101Y-122923513D01*
X163431776Y-122925304D01*
X163033886Y-123323195D01*
X163032095Y-123327520D01*
X161838497Y-123327520D01*
X161839483Y-123326197D01*
X161839170Y-123324049D01*
X161440426Y-122925304D01*
X161436101Y-122923513D01*
X161431776Y-122925304D01*
X161033886Y-123323195D01*
X161032095Y-123327520D01*
X160133765Y-123327520D01*
X160241030Y-123203251D01*
X160242009Y-123202117D01*
X160337084Y-123034755D01*
X160348158Y-123001465D01*
X160397368Y-122853536D01*
X160397369Y-122853532D01*
X160397841Y-122852113D01*
X160399848Y-122836230D01*
X160421859Y-122661988D01*
X160421965Y-122661149D01*
X160422350Y-122633611D01*
X160421411Y-122624037D01*
X160628066Y-122624037D01*
X160645314Y-122799953D01*
X160646024Y-122803291D01*
X160701818Y-122971013D01*
X160703253Y-122974120D01*
X160739678Y-123034264D01*
X160743452Y-123037035D01*
X160745643Y-123036700D01*
X161144408Y-122637936D01*
X161146199Y-122633611D01*
X161726003Y-122633611D01*
X161727794Y-122637936D01*
X162125899Y-123036040D01*
X162130224Y-123037831D01*
X162132547Y-123036869D01*
X162154046Y-123004511D01*
X162155612Y-123001465D01*
X162218378Y-122836230D01*
X162219228Y-122832921D01*
X162243933Y-122657141D01*
X162244082Y-122655207D01*
X162244370Y-122634576D01*
X162244275Y-122632649D01*
X162243309Y-122624037D01*
X162628066Y-122624037D01*
X162645314Y-122799953D01*
X162646024Y-122803291D01*
X162701818Y-122971013D01*
X162703253Y-122974120D01*
X162739678Y-123034264D01*
X162743452Y-123037035D01*
X162745643Y-123036700D01*
X163144408Y-122637936D01*
X163146199Y-122633611D01*
X163726003Y-122633611D01*
X163727794Y-122637936D01*
X164125899Y-123036040D01*
X164130224Y-123037831D01*
X164132547Y-123036869D01*
X164154046Y-123004511D01*
X164155612Y-123001465D01*
X164218378Y-122836230D01*
X164219228Y-122832921D01*
X164243933Y-122657141D01*
X164244082Y-122655207D01*
X164244370Y-122634576D01*
X164244275Y-122632649D01*
X164224489Y-122456249D01*
X164223732Y-122452913D01*
X164165600Y-122285983D01*
X164164125Y-122282906D01*
X164132775Y-122232736D01*
X164128963Y-122230017D01*
X164126683Y-122230398D01*
X163727794Y-122629286D01*
X163726003Y-122633611D01*
X163146199Y-122633611D01*
X163144408Y-122629286D01*
X162746703Y-122231582D01*
X162742378Y-122229791D01*
X162740151Y-122230713D01*
X162713043Y-122272776D01*
X162711526Y-122275833D01*
X162651070Y-122441936D01*
X162650267Y-122445254D01*
X162628113Y-122620623D01*
X162628066Y-122624037D01*
X162243309Y-122624037D01*
X162224489Y-122456249D01*
X162223732Y-122452913D01*
X162165600Y-122285983D01*
X162164125Y-122282906D01*
X162132775Y-122232736D01*
X162128963Y-122230017D01*
X162126683Y-122230398D01*
X161727794Y-122629286D01*
X161726003Y-122633611D01*
X161146199Y-122633611D01*
X161144408Y-122629286D01*
X160746703Y-122231582D01*
X160742378Y-122229791D01*
X160740151Y-122230713D01*
X160713043Y-122272776D01*
X160711526Y-122275833D01*
X160651070Y-122441936D01*
X160650267Y-122445254D01*
X160628113Y-122620623D01*
X160628066Y-122624037D01*
X160421411Y-122624037D01*
X160408015Y-122487410D01*
X160403714Y-122443544D01*
X160403713Y-122443541D01*
X160403567Y-122442048D01*
X160403135Y-122440617D01*
X160403134Y-122440612D01*
X160357420Y-122289202D01*
X160347934Y-122257781D01*
X160257569Y-122087829D01*
X160137711Y-121940869D01*
X161032605Y-121940869D01*
X161032963Y-121943104D01*
X161431776Y-122341918D01*
X161436101Y-122343709D01*
X161440426Y-122341918D01*
X161837971Y-121944372D01*
X161839422Y-121940869D01*
X163032605Y-121940869D01*
X163032963Y-121943104D01*
X163431776Y-122341918D01*
X163436101Y-122343709D01*
X163440426Y-122341918D01*
X163837971Y-121944372D01*
X163839762Y-121940047D01*
X163838859Y-121937866D01*
X163791884Y-121908056D01*
X163788806Y-121906554D01*
X163622294Y-121847262D01*
X163618968Y-121846482D01*
X163443446Y-121825552D01*
X163440040Y-121825528D01*
X163264242Y-121844005D01*
X163260905Y-121844738D01*
X163093578Y-121901702D01*
X163090491Y-121903154D01*
X163035349Y-121937078D01*
X163032605Y-121940869D01*
X161839422Y-121940869D01*
X161839762Y-121940047D01*
X161838859Y-121937866D01*
X161791884Y-121908056D01*
X161788806Y-121906554D01*
X161622294Y-121847262D01*
X161618968Y-121846482D01*
X161443446Y-121825552D01*
X161440040Y-121825528D01*
X161264242Y-121844005D01*
X161260905Y-121844738D01*
X161093578Y-121901702D01*
X161090491Y-121903154D01*
X161035349Y-121937078D01*
X161032605Y-121940869D01*
X160137711Y-121940869D01*
X160135914Y-121938666D01*
X159987604Y-121815974D01*
X159986284Y-121815260D01*
X159819611Y-121725139D01*
X159819608Y-121725138D01*
X159818288Y-121724424D01*
X159816856Y-121723981D01*
X159816852Y-121723979D01*
X159684283Y-121682943D01*
X159634414Y-121667506D01*
X159442986Y-121647386D01*
X159441491Y-121647522D01*
X159441489Y-121647522D01*
X159252798Y-121664694D01*
X159252795Y-121664695D01*
X159251296Y-121664831D01*
X159066646Y-121719177D01*
X158896067Y-121808353D01*
X158894902Y-121809290D01*
X158894900Y-121809291D01*
X158747225Y-121928025D01*
X158747222Y-121928028D01*
X158746059Y-121928963D01*
X158745099Y-121930107D01*
X158745097Y-121930109D01*
X158734193Y-121943104D01*
X158622334Y-122076413D01*
X158621609Y-122077732D01*
X158538014Y-122229791D01*
X158529605Y-122245086D01*
X158471404Y-122428558D01*
X158469904Y-122441936D01*
X158467114Y-122466806D01*
X158455740Y-122487410D01*
X158433128Y-122493936D01*
X158412524Y-122482562D01*
X158405953Y-122466379D01*
X158403714Y-122443544D01*
X158403713Y-122443541D01*
X158403567Y-122442048D01*
X158403135Y-122440617D01*
X158403134Y-122440612D01*
X158357420Y-122289202D01*
X158347934Y-122257781D01*
X158257569Y-122087829D01*
X158135914Y-121938666D01*
X157987604Y-121815974D01*
X157986284Y-121815260D01*
X157819611Y-121725139D01*
X157819608Y-121725138D01*
X157818288Y-121724424D01*
X157816856Y-121723981D01*
X157816852Y-121723979D01*
X157684283Y-121682943D01*
X157634414Y-121667506D01*
X157442986Y-121647386D01*
X157441491Y-121647522D01*
X157441489Y-121647522D01*
X157252798Y-121664694D01*
X157252795Y-121664695D01*
X157251296Y-121664831D01*
X157066646Y-121719177D01*
X156896067Y-121808353D01*
X156894902Y-121809290D01*
X156894900Y-121809291D01*
X156747225Y-121928025D01*
X156747222Y-121928028D01*
X156746059Y-121928963D01*
X156745099Y-121930107D01*
X156745097Y-121930109D01*
X156734193Y-121943104D01*
X156622334Y-122076413D01*
X156621609Y-122077732D01*
X156538014Y-122229791D01*
X156529605Y-122245086D01*
X156471404Y-122428558D01*
X156469904Y-122441936D01*
X156467114Y-122466806D01*
X156455740Y-122487410D01*
X156433128Y-122493936D01*
X156412524Y-122482562D01*
X156405953Y-122466379D01*
X156403714Y-122443544D01*
X156403713Y-122443541D01*
X156403567Y-122442048D01*
X156403135Y-122440617D01*
X156403134Y-122440612D01*
X156357420Y-122289202D01*
X156347934Y-122257781D01*
X156257569Y-122087829D01*
X156135914Y-121938666D01*
X155987604Y-121815974D01*
X155986284Y-121815260D01*
X155819611Y-121725139D01*
X155819608Y-121725138D01*
X155818288Y-121724424D01*
X155816856Y-121723981D01*
X155816852Y-121723979D01*
X155684283Y-121682943D01*
X155634414Y-121667506D01*
X155442986Y-121647386D01*
X155441491Y-121647522D01*
X155441489Y-121647522D01*
X155252798Y-121664694D01*
X155252795Y-121664695D01*
X155251296Y-121664831D01*
X155066646Y-121719177D01*
X154896067Y-121808353D01*
X154894902Y-121809290D01*
X154894900Y-121809291D01*
X154747225Y-121928025D01*
X154747222Y-121928028D01*
X154746059Y-121928963D01*
X154745099Y-121930107D01*
X154745097Y-121930109D01*
X154734193Y-121943104D01*
X154622334Y-122076413D01*
X154621609Y-122077732D01*
X154538014Y-122229791D01*
X154529605Y-122245086D01*
X154471404Y-122428558D01*
X154469904Y-122441936D01*
X154467114Y-122466806D01*
X154455740Y-122487410D01*
X154433128Y-122493936D01*
X154412524Y-122482562D01*
X154405953Y-122466379D01*
X154403714Y-122443544D01*
X154403713Y-122443541D01*
X154403567Y-122442048D01*
X154403135Y-122440617D01*
X154403134Y-122440612D01*
X154357420Y-122289202D01*
X154347934Y-122257781D01*
X154257569Y-122087829D01*
X154135914Y-121938666D01*
X153987604Y-121815974D01*
X153986284Y-121815260D01*
X153819611Y-121725139D01*
X153819608Y-121725138D01*
X153818288Y-121724424D01*
X153816856Y-121723981D01*
X153816852Y-121723979D01*
X153684283Y-121682943D01*
X153634414Y-121667506D01*
X153442986Y-121647386D01*
X153441491Y-121647522D01*
X153441489Y-121647522D01*
X153252798Y-121664694D01*
X153252795Y-121664695D01*
X153251296Y-121664831D01*
X153066646Y-121719177D01*
X152896067Y-121808353D01*
X152894902Y-121809290D01*
X152894900Y-121809291D01*
X152747225Y-121928025D01*
X152747222Y-121928028D01*
X152746059Y-121928963D01*
X152745099Y-121930107D01*
X152745097Y-121930109D01*
X152734193Y-121943104D01*
X152622334Y-122076413D01*
X152621609Y-122077732D01*
X152538014Y-122229791D01*
X152529605Y-122245086D01*
X152471404Y-122428558D01*
X152469904Y-122441936D01*
X152467114Y-122466806D01*
X152455740Y-122487410D01*
X152433128Y-122493936D01*
X152412524Y-122482562D01*
X152405953Y-122466379D01*
X152403714Y-122443544D01*
X152403713Y-122443541D01*
X152403567Y-122442048D01*
X152403135Y-122440617D01*
X152403134Y-122440612D01*
X152357420Y-122289202D01*
X152347934Y-122257781D01*
X152257569Y-122087829D01*
X152135914Y-121938666D01*
X151987604Y-121815974D01*
X151986284Y-121815260D01*
X151819611Y-121725139D01*
X151819608Y-121725138D01*
X151818288Y-121724424D01*
X151816856Y-121723981D01*
X151816852Y-121723979D01*
X151684283Y-121682943D01*
X151634414Y-121667506D01*
X151442986Y-121647386D01*
X151441491Y-121647522D01*
X151441489Y-121647522D01*
X151252798Y-121664694D01*
X151252795Y-121664695D01*
X151251296Y-121664831D01*
X151066646Y-121719177D01*
X150896067Y-121808353D01*
X150894902Y-121809290D01*
X150894900Y-121809291D01*
X150747225Y-121928025D01*
X150747222Y-121928028D01*
X150746059Y-121928963D01*
X150745099Y-121930107D01*
X150745097Y-121930109D01*
X150734193Y-121943104D01*
X150622334Y-122076413D01*
X150621609Y-122077732D01*
X150538014Y-122229791D01*
X150529605Y-122245086D01*
X150471404Y-122428558D01*
X150469904Y-122441936D01*
X150467114Y-122466806D01*
X150455740Y-122487410D01*
X150433128Y-122493936D01*
X150412524Y-122482562D01*
X150405953Y-122466379D01*
X150403714Y-122443544D01*
X150403713Y-122443541D01*
X150403567Y-122442048D01*
X150403135Y-122440617D01*
X150403134Y-122440612D01*
X150357420Y-122289202D01*
X150347934Y-122257781D01*
X150257569Y-122087829D01*
X150135914Y-121938666D01*
X149987604Y-121815974D01*
X149986284Y-121815260D01*
X149819611Y-121725139D01*
X149819608Y-121725138D01*
X149818288Y-121724424D01*
X149816856Y-121723981D01*
X149816852Y-121723979D01*
X149684283Y-121682943D01*
X149634414Y-121667506D01*
X149442986Y-121647386D01*
X149441491Y-121647522D01*
X149441489Y-121647522D01*
X149252798Y-121664694D01*
X149252795Y-121664695D01*
X149251296Y-121664831D01*
X149066646Y-121719177D01*
X148896067Y-121808353D01*
X148894902Y-121809290D01*
X148894900Y-121809291D01*
X148747225Y-121928025D01*
X148747222Y-121928028D01*
X148746059Y-121928963D01*
X148745099Y-121930107D01*
X148745097Y-121930109D01*
X148734193Y-121943104D01*
X148622334Y-122076413D01*
X148621609Y-122077732D01*
X148538014Y-122229791D01*
X148529605Y-122245086D01*
X148471404Y-122428558D01*
X148469904Y-122441936D01*
X148467114Y-122466806D01*
X148455740Y-122487410D01*
X148433128Y-122493936D01*
X148412524Y-122482562D01*
X148405953Y-122466379D01*
X148403714Y-122443544D01*
X148403713Y-122443541D01*
X148403567Y-122442048D01*
X148403135Y-122440617D01*
X148403134Y-122440612D01*
X148357420Y-122289202D01*
X148347934Y-122257781D01*
X148257569Y-122087829D01*
X148135914Y-121938666D01*
X147987604Y-121815974D01*
X147986284Y-121815260D01*
X147819611Y-121725139D01*
X147819608Y-121725138D01*
X147818288Y-121724424D01*
X147816856Y-121723981D01*
X147816852Y-121723979D01*
X147684283Y-121682943D01*
X147634414Y-121667506D01*
X147442986Y-121647386D01*
X147441491Y-121647522D01*
X147441489Y-121647522D01*
X147252798Y-121664694D01*
X147252795Y-121664695D01*
X147251296Y-121664831D01*
X147066646Y-121719177D01*
X146896067Y-121808353D01*
X146894902Y-121809290D01*
X146894900Y-121809291D01*
X146747225Y-121928025D01*
X146747222Y-121928028D01*
X146746059Y-121928963D01*
X146745099Y-121930107D01*
X146745097Y-121930109D01*
X146734193Y-121943104D01*
X146622334Y-122076413D01*
X146621609Y-122077732D01*
X146538014Y-122229791D01*
X146529605Y-122245086D01*
X146471404Y-122428558D01*
X146469904Y-122441936D01*
X146467114Y-122466806D01*
X146455740Y-122487410D01*
X146433128Y-122493936D01*
X146412524Y-122482562D01*
X146405953Y-122466379D01*
X146403714Y-122443544D01*
X146403713Y-122443541D01*
X146403567Y-122442048D01*
X146403135Y-122440617D01*
X146403134Y-122440612D01*
X146357420Y-122289202D01*
X146347934Y-122257781D01*
X146257569Y-122087829D01*
X146135914Y-121938666D01*
X145987604Y-121815974D01*
X145986284Y-121815260D01*
X145819611Y-121725139D01*
X145819608Y-121725138D01*
X145818288Y-121724424D01*
X145816856Y-121723981D01*
X145816852Y-121723979D01*
X145684283Y-121682943D01*
X145634414Y-121667506D01*
X145442986Y-121647386D01*
X145441491Y-121647522D01*
X145441489Y-121647522D01*
X145252798Y-121664694D01*
X145252795Y-121664695D01*
X145251296Y-121664831D01*
X145066646Y-121719177D01*
X144896067Y-121808353D01*
X144894902Y-121809290D01*
X144894900Y-121809291D01*
X144747225Y-121928025D01*
X144747222Y-121928028D01*
X144746059Y-121928963D01*
X144745099Y-121930107D01*
X144745097Y-121930109D01*
X144734193Y-121943104D01*
X144622334Y-122076413D01*
X144621609Y-122077732D01*
X144538014Y-122229791D01*
X144529605Y-122245086D01*
X144471404Y-122428558D01*
X144469904Y-122441936D01*
X144467114Y-122466806D01*
X144455740Y-122487410D01*
X144433128Y-122493936D01*
X144412524Y-122482562D01*
X144405953Y-122466379D01*
X144403714Y-122443544D01*
X144403713Y-122443541D01*
X144403567Y-122442048D01*
X144403135Y-122440617D01*
X144403134Y-122440612D01*
X144357420Y-122289202D01*
X144347934Y-122257781D01*
X144257569Y-122087829D01*
X144135914Y-121938666D01*
X143987604Y-121815974D01*
X143986284Y-121815260D01*
X143819611Y-121725139D01*
X143819608Y-121725138D01*
X143818288Y-121724424D01*
X143816856Y-121723981D01*
X143816852Y-121723979D01*
X143684283Y-121682943D01*
X143634414Y-121667506D01*
X143442986Y-121647386D01*
X143441491Y-121647522D01*
X143441489Y-121647522D01*
X143252798Y-121664694D01*
X143252795Y-121664695D01*
X143251296Y-121664831D01*
X143066646Y-121719177D01*
X142896067Y-121808353D01*
X142894902Y-121809290D01*
X142894900Y-121809291D01*
X142747225Y-121928025D01*
X142747222Y-121928028D01*
X142746059Y-121928963D01*
X142745099Y-121930107D01*
X142745097Y-121930109D01*
X142734193Y-121943104D01*
X142622334Y-122076413D01*
X142621609Y-122077732D01*
X142538014Y-122229791D01*
X142529605Y-122245086D01*
X142471404Y-122428558D01*
X142469904Y-122441936D01*
X142467114Y-122466806D01*
X142455740Y-122487410D01*
X142433128Y-122493936D01*
X142412524Y-122482562D01*
X142405953Y-122466379D01*
X142403714Y-122443544D01*
X142403713Y-122443541D01*
X142403567Y-122442048D01*
X142403135Y-122440617D01*
X142403134Y-122440612D01*
X142357420Y-122289202D01*
X142347934Y-122257781D01*
X142257569Y-122087829D01*
X142135914Y-121938666D01*
X141987604Y-121815974D01*
X141986284Y-121815260D01*
X141819611Y-121725139D01*
X141819608Y-121725138D01*
X141818288Y-121724424D01*
X141816856Y-121723981D01*
X141816852Y-121723979D01*
X141684283Y-121682943D01*
X141634414Y-121667506D01*
X141442986Y-121647386D01*
X141441491Y-121647522D01*
X141441489Y-121647522D01*
X141252798Y-121664694D01*
X141252795Y-121664695D01*
X141251296Y-121664831D01*
X141066646Y-121719177D01*
X140896067Y-121808353D01*
X140894902Y-121809290D01*
X140894900Y-121809291D01*
X140747225Y-121928025D01*
X140747222Y-121928028D01*
X140746059Y-121928963D01*
X140745099Y-121930107D01*
X140745097Y-121930109D01*
X140734193Y-121943104D01*
X140622334Y-122076413D01*
X140621609Y-122077732D01*
X140538014Y-122229791D01*
X140529605Y-122245086D01*
X140471404Y-122428558D01*
X140469904Y-122441936D01*
X140467114Y-122466806D01*
X140455740Y-122487410D01*
X140433128Y-122493936D01*
X140412524Y-122482562D01*
X140405953Y-122466379D01*
X140403714Y-122443544D01*
X140403713Y-122443541D01*
X140403567Y-122442048D01*
X140403135Y-122440617D01*
X140403134Y-122440612D01*
X140357420Y-122289202D01*
X140347934Y-122257781D01*
X140257569Y-122087829D01*
X140135914Y-121938666D01*
X139987604Y-121815974D01*
X139986284Y-121815260D01*
X139819611Y-121725139D01*
X139819608Y-121725138D01*
X139818288Y-121724424D01*
X139816856Y-121723981D01*
X139816852Y-121723979D01*
X139684283Y-121682943D01*
X139634414Y-121667506D01*
X139442986Y-121647386D01*
X139441491Y-121647522D01*
X139441489Y-121647522D01*
X139252798Y-121664694D01*
X139252795Y-121664695D01*
X139251296Y-121664831D01*
X139066646Y-121719177D01*
X138896067Y-121808353D01*
X138894902Y-121809290D01*
X138894900Y-121809291D01*
X138747225Y-121928025D01*
X138747222Y-121928028D01*
X138746059Y-121928963D01*
X138745099Y-121930107D01*
X138745097Y-121930109D01*
X138734193Y-121943104D01*
X138622334Y-122076413D01*
X138621609Y-122077732D01*
X138538014Y-122229791D01*
X138529605Y-122245086D01*
X138471404Y-122428558D01*
X138469904Y-122441936D01*
X138467114Y-122466806D01*
X138455740Y-122487410D01*
X138433128Y-122493936D01*
X138412524Y-122482562D01*
X138405953Y-122466379D01*
X138403714Y-122443544D01*
X138403713Y-122443541D01*
X138403567Y-122442048D01*
X138403135Y-122440617D01*
X138403134Y-122440612D01*
X138357420Y-122289202D01*
X138347934Y-122257781D01*
X138257569Y-122087829D01*
X138135914Y-121938666D01*
X137987604Y-121815974D01*
X137986284Y-121815260D01*
X137819611Y-121725139D01*
X137819608Y-121725138D01*
X137818288Y-121724424D01*
X137816856Y-121723981D01*
X137816852Y-121723979D01*
X137684283Y-121682943D01*
X137634414Y-121667506D01*
X137442986Y-121647386D01*
X137441491Y-121647522D01*
X137441489Y-121647522D01*
X137252798Y-121664694D01*
X137252795Y-121664695D01*
X137251296Y-121664831D01*
X137066646Y-121719177D01*
X136896067Y-121808353D01*
X136894902Y-121809290D01*
X136894900Y-121809291D01*
X136747225Y-121928025D01*
X136747222Y-121928028D01*
X136746059Y-121928963D01*
X136745099Y-121930107D01*
X136745097Y-121930109D01*
X136734193Y-121943104D01*
X136622334Y-122076413D01*
X136621609Y-122077732D01*
X136538014Y-122229791D01*
X136529605Y-122245086D01*
X136471404Y-122428558D01*
X136449948Y-122619841D01*
X136450074Y-122621342D01*
X136465233Y-122801854D01*
X136466055Y-122811648D01*
X136466469Y-122813091D01*
X136515340Y-122983524D01*
X136519110Y-122996673D01*
X136607093Y-123167870D01*
X136608027Y-123169048D01*
X136608028Y-123169050D01*
X136725721Y-123317542D01*
X136725725Y-123317546D01*
X136726653Y-123318717D01*
X136873235Y-123443469D01*
X136874541Y-123444199D01*
X136874544Y-123444201D01*
X137039943Y-123536639D01*
X137039946Y-123536640D01*
X137041257Y-123537373D01*
X137224318Y-123596853D01*
X137268807Y-123602158D01*
X137289331Y-123613676D01*
X137295700Y-123636333D01*
X137284182Y-123656857D01*
X137267953Y-123663315D01*
X137252798Y-123664694D01*
X137252795Y-123664695D01*
X137251296Y-123664831D01*
X137066646Y-123719177D01*
X136896067Y-123808353D01*
X136894902Y-123809290D01*
X136894900Y-123809291D01*
X136747225Y-123928025D01*
X136747222Y-123928028D01*
X136746059Y-123928963D01*
X136745099Y-123930107D01*
X136745097Y-123930109D01*
X136734193Y-123943104D01*
X136622334Y-124076413D01*
X136621609Y-124077732D01*
X136538014Y-124229791D01*
X136529605Y-124245086D01*
X136471404Y-124428558D01*
X136449948Y-124619841D01*
X136242838Y-124619841D01*
X136224489Y-124456249D01*
X136223732Y-124452913D01*
X136165600Y-124285983D01*
X136164125Y-124282906D01*
X136132775Y-124232736D01*
X136128963Y-124230017D01*
X136126683Y-124230398D01*
X135727794Y-124629286D01*
X135726003Y-124633611D01*
X135146199Y-124633611D01*
X135144408Y-124629286D01*
X134746703Y-124231582D01*
X134742378Y-124229791D01*
X134740151Y-124230713D01*
X134713043Y-124272776D01*
X134711526Y-124275833D01*
X134651070Y-124441936D01*
X134650267Y-124445254D01*
X134628113Y-124620623D01*
X134628066Y-124624037D01*
X134243309Y-124624037D01*
X134224489Y-124456249D01*
X134223732Y-124452913D01*
X134165600Y-124285983D01*
X134164125Y-124282906D01*
X134132775Y-124232736D01*
X134128963Y-124230017D01*
X134126683Y-124230398D01*
X133727794Y-124629286D01*
X133726003Y-124633611D01*
X133146199Y-124633611D01*
X133144408Y-124629286D01*
X132746703Y-124231582D01*
X132742378Y-124229791D01*
X132740151Y-124230713D01*
X132713043Y-124272776D01*
X132711526Y-124275833D01*
X132651070Y-124441936D01*
X132650267Y-124445254D01*
X132628113Y-124620623D01*
X132628066Y-124624037D01*
X132421411Y-124624037D01*
X132418682Y-124596198D01*
X132403714Y-124443544D01*
X132403713Y-124443541D01*
X132403567Y-124442048D01*
X132403135Y-124440617D01*
X132403134Y-124440612D01*
X132356589Y-124286449D01*
X132347934Y-124257781D01*
X132280633Y-124131206D01*
X132258276Y-124089158D01*
X132258274Y-124089155D01*
X132257569Y-124087829D01*
X132137711Y-123940869D01*
X133032605Y-123940869D01*
X133032963Y-123943104D01*
X133431776Y-124341918D01*
X133436101Y-124343709D01*
X133440426Y-124341918D01*
X133837971Y-123944372D01*
X133839422Y-123940869D01*
X135032605Y-123940869D01*
X135032963Y-123943104D01*
X135431776Y-124341918D01*
X135436101Y-124343709D01*
X135440426Y-124341918D01*
X135837971Y-123944372D01*
X135839762Y-123940047D01*
X135838859Y-123937866D01*
X135791884Y-123908056D01*
X135788806Y-123906554D01*
X135622294Y-123847262D01*
X135618968Y-123846482D01*
X135443446Y-123825552D01*
X135440040Y-123825528D01*
X135264242Y-123844005D01*
X135260905Y-123844738D01*
X135093578Y-123901702D01*
X135090491Y-123903154D01*
X135035349Y-123937078D01*
X135032605Y-123940869D01*
X133839422Y-123940869D01*
X133839762Y-123940047D01*
X133838859Y-123937866D01*
X133791884Y-123908056D01*
X133788806Y-123906554D01*
X133622294Y-123847262D01*
X133618968Y-123846482D01*
X133443446Y-123825552D01*
X133440040Y-123825528D01*
X133264242Y-123844005D01*
X133260905Y-123844738D01*
X133093578Y-123901702D01*
X133090491Y-123903154D01*
X133035349Y-123937078D01*
X133032605Y-123940869D01*
X132137711Y-123940869D01*
X132135914Y-123938666D01*
X131987604Y-123815974D01*
X131986284Y-123815260D01*
X131819611Y-123725139D01*
X131819608Y-123725138D01*
X131818288Y-123724424D01*
X131816856Y-123723981D01*
X131816852Y-123723979D01*
X131684283Y-123682943D01*
X131634414Y-123667506D01*
X131611997Y-123665150D01*
X131591314Y-123653920D01*
X131584629Y-123631354D01*
X131595859Y-123610671D01*
X131607497Y-123605365D01*
X131607361Y-123604877D01*
X131637761Y-123596389D01*
X131792753Y-123553114D01*
X131964560Y-123466329D01*
X132116238Y-123347825D01*
X132131666Y-123329952D01*
X132133765Y-123327520D01*
X133032095Y-123327520D01*
X133033037Y-123329794D01*
X133070228Y-123354132D01*
X133073278Y-123355672D01*
X133238948Y-123417284D01*
X133242263Y-123418111D01*
X133417473Y-123441489D01*
X133420886Y-123441560D01*
X133596917Y-123425540D01*
X133600262Y-123424853D01*
X133768374Y-123370230D01*
X133771480Y-123368821D01*
X133836685Y-123329952D01*
X133838497Y-123327520D01*
X135032095Y-123327520D01*
X135033037Y-123329794D01*
X135070228Y-123354132D01*
X135073278Y-123355672D01*
X135238948Y-123417284D01*
X135242263Y-123418111D01*
X135417473Y-123441489D01*
X135420886Y-123441560D01*
X135596917Y-123425540D01*
X135600262Y-123424853D01*
X135768374Y-123370230D01*
X135771480Y-123368821D01*
X135836685Y-123329952D01*
X135839483Y-123326197D01*
X135839170Y-123324049D01*
X135440426Y-122925304D01*
X135436101Y-122923513D01*
X135431776Y-122925304D01*
X135033886Y-123323195D01*
X135032095Y-123327520D01*
X133838497Y-123327520D01*
X133839483Y-123326197D01*
X133839170Y-123324049D01*
X133440426Y-122925304D01*
X133436101Y-122923513D01*
X133431776Y-122925304D01*
X133033886Y-123323195D01*
X133032095Y-123327520D01*
X132133765Y-123327520D01*
X132241030Y-123203251D01*
X132242009Y-123202117D01*
X132337084Y-123034755D01*
X132348158Y-123001465D01*
X132397368Y-122853536D01*
X132397369Y-122853532D01*
X132397841Y-122852113D01*
X132399848Y-122836230D01*
X132421859Y-122661988D01*
X132421965Y-122661149D01*
X132422350Y-122633611D01*
X132421411Y-122624037D01*
X132628066Y-122624037D01*
X132645314Y-122799953D01*
X132646024Y-122803291D01*
X132701818Y-122971013D01*
X132703253Y-122974120D01*
X132739678Y-123034264D01*
X132743452Y-123037035D01*
X132745643Y-123036700D01*
X133144408Y-122637936D01*
X133146199Y-122633611D01*
X133726003Y-122633611D01*
X133727794Y-122637936D01*
X134125899Y-123036040D01*
X134130224Y-123037831D01*
X134132547Y-123036869D01*
X134154046Y-123004511D01*
X134155612Y-123001465D01*
X134218378Y-122836230D01*
X134219228Y-122832921D01*
X134243933Y-122657141D01*
X134244082Y-122655207D01*
X134244370Y-122634576D01*
X134244275Y-122632649D01*
X134243309Y-122624037D01*
X134628066Y-122624037D01*
X134645314Y-122799953D01*
X134646024Y-122803291D01*
X134701818Y-122971013D01*
X134703253Y-122974120D01*
X134739678Y-123034264D01*
X134743452Y-123037035D01*
X134745643Y-123036700D01*
X135144408Y-122637936D01*
X135146199Y-122633611D01*
X135726003Y-122633611D01*
X135727794Y-122637936D01*
X136125899Y-123036040D01*
X136130224Y-123037831D01*
X136132547Y-123036869D01*
X136154046Y-123004511D01*
X136155612Y-123001465D01*
X136218378Y-122836230D01*
X136219228Y-122832921D01*
X136243933Y-122657141D01*
X136244082Y-122655207D01*
X136244370Y-122634576D01*
X136244275Y-122632649D01*
X136224489Y-122456249D01*
X136223732Y-122452913D01*
X136165600Y-122285983D01*
X136164125Y-122282906D01*
X136132775Y-122232736D01*
X136128963Y-122230017D01*
X136126683Y-122230398D01*
X135727794Y-122629286D01*
X135726003Y-122633611D01*
X135146199Y-122633611D01*
X135144408Y-122629286D01*
X134746703Y-122231582D01*
X134742378Y-122229791D01*
X134740151Y-122230713D01*
X134713043Y-122272776D01*
X134711526Y-122275833D01*
X134651070Y-122441936D01*
X134650267Y-122445254D01*
X134628113Y-122620623D01*
X134628066Y-122624037D01*
X134243309Y-122624037D01*
X134224489Y-122456249D01*
X134223732Y-122452913D01*
X134165600Y-122285983D01*
X134164125Y-122282906D01*
X134132775Y-122232736D01*
X134128963Y-122230017D01*
X134126683Y-122230398D01*
X133727794Y-122629286D01*
X133726003Y-122633611D01*
X133146199Y-122633611D01*
X133144408Y-122629286D01*
X132746703Y-122231582D01*
X132742378Y-122229791D01*
X132740151Y-122230713D01*
X132713043Y-122272776D01*
X132711526Y-122275833D01*
X132651070Y-122441936D01*
X132650267Y-122445254D01*
X132628113Y-122620623D01*
X132628066Y-122624037D01*
X132421411Y-122624037D01*
X132408015Y-122487410D01*
X132403714Y-122443544D01*
X132403713Y-122443541D01*
X132403567Y-122442048D01*
X132403135Y-122440617D01*
X132403134Y-122440612D01*
X132357420Y-122289202D01*
X132347934Y-122257781D01*
X132257569Y-122087829D01*
X132137711Y-121940869D01*
X133032605Y-121940869D01*
X133032963Y-121943104D01*
X133431776Y-122341918D01*
X133436101Y-122343709D01*
X133440426Y-122341918D01*
X133837971Y-121944372D01*
X133839422Y-121940869D01*
X135032605Y-121940869D01*
X135032963Y-121943104D01*
X135431776Y-122341918D01*
X135436101Y-122343709D01*
X135440426Y-122341918D01*
X135837971Y-121944372D01*
X135839762Y-121940047D01*
X135838859Y-121937866D01*
X135791884Y-121908056D01*
X135788806Y-121906554D01*
X135622294Y-121847262D01*
X135618968Y-121846482D01*
X135443446Y-121825552D01*
X135440040Y-121825528D01*
X135264242Y-121844005D01*
X135260905Y-121844738D01*
X135093578Y-121901702D01*
X135090491Y-121903154D01*
X135035349Y-121937078D01*
X135032605Y-121940869D01*
X133839422Y-121940869D01*
X133839762Y-121940047D01*
X133838859Y-121937866D01*
X133791884Y-121908056D01*
X133788806Y-121906554D01*
X133622294Y-121847262D01*
X133618968Y-121846482D01*
X133443446Y-121825552D01*
X133440040Y-121825528D01*
X133264242Y-121844005D01*
X133260905Y-121844738D01*
X133093578Y-121901702D01*
X133090491Y-121903154D01*
X133035349Y-121937078D01*
X133032605Y-121940869D01*
X132137711Y-121940869D01*
X132135914Y-121938666D01*
X131987604Y-121815974D01*
X131986284Y-121815260D01*
X131819611Y-121725139D01*
X131819608Y-121725138D01*
X131818288Y-121724424D01*
X131816856Y-121723981D01*
X131816852Y-121723979D01*
X131684283Y-121682943D01*
X131634414Y-121667506D01*
X131442986Y-121647386D01*
X131441491Y-121647522D01*
X131441489Y-121647522D01*
X131252798Y-121664694D01*
X131252795Y-121664695D01*
X131251296Y-121664831D01*
X131066646Y-121719177D01*
X130896067Y-121808353D01*
X130894902Y-121809290D01*
X130894900Y-121809291D01*
X130747225Y-121928025D01*
X130747222Y-121928028D01*
X130746059Y-121928963D01*
X130745099Y-121930107D01*
X130745097Y-121930109D01*
X130734193Y-121943104D01*
X130622334Y-122076413D01*
X130621609Y-122077732D01*
X130538014Y-122229791D01*
X130529605Y-122245086D01*
X130471404Y-122428558D01*
X130469904Y-122441936D01*
X130467114Y-122466806D01*
X130455740Y-122487410D01*
X130433128Y-122493936D01*
X130412524Y-122482562D01*
X130405953Y-122466379D01*
X130403714Y-122443544D01*
X130403713Y-122443541D01*
X130403567Y-122442048D01*
X130403135Y-122440617D01*
X130403134Y-122440612D01*
X130357420Y-122289202D01*
X130347934Y-122257781D01*
X130257569Y-122087829D01*
X130135914Y-121938666D01*
X129987604Y-121815974D01*
X129986284Y-121815260D01*
X129819611Y-121725139D01*
X129819608Y-121725138D01*
X129818288Y-121724424D01*
X129816856Y-121723981D01*
X129816852Y-121723979D01*
X129684283Y-121682943D01*
X129634414Y-121667506D01*
X129442986Y-121647386D01*
X129441491Y-121647522D01*
X129441489Y-121647522D01*
X129252798Y-121664694D01*
X129252795Y-121664695D01*
X129251296Y-121664831D01*
X129066646Y-121719177D01*
X128896067Y-121808353D01*
X128894902Y-121809290D01*
X128894900Y-121809291D01*
X128747225Y-121928025D01*
X128747222Y-121928028D01*
X128746059Y-121928963D01*
X128745099Y-121930107D01*
X128745097Y-121930109D01*
X128734193Y-121943104D01*
X128622334Y-122076413D01*
X128621609Y-122077732D01*
X128538014Y-122229791D01*
X128529605Y-122245086D01*
X128471404Y-122428558D01*
X128449948Y-122619841D01*
X114882100Y-122619841D01*
X114882100Y-119742926D01*
X128436668Y-119742926D01*
X128453299Y-119912550D01*
X128507098Y-120074274D01*
X128507987Y-120075743D01*
X128507989Y-120075746D01*
X128528297Y-120109278D01*
X128595389Y-120220060D01*
X128596584Y-120221298D01*
X128596586Y-120221300D01*
X128674718Y-120302208D01*
X128713785Y-120342663D01*
X128715223Y-120343604D01*
X128854964Y-120435048D01*
X128854966Y-120435049D01*
X128856401Y-120435988D01*
X128858013Y-120436588D01*
X128858014Y-120436588D01*
X128863002Y-120438443D01*
X129016149Y-120495398D01*
X129185089Y-120517939D01*
X129272479Y-120509986D01*
X129353113Y-120502648D01*
X129353115Y-120502648D01*
X129354825Y-120502492D01*
X129387864Y-120491757D01*
X129400580Y-120490420D01*
X129406426Y-120491035D01*
X129415943Y-120492035D01*
X129415944Y-120492035D01*
X129418028Y-120492254D01*
X129420097Y-120491904D01*
X129420098Y-120491904D01*
X129443587Y-120487931D01*
X129448715Y-120487500D01*
X135227240Y-120487500D01*
X135249360Y-120496889D01*
X135263388Y-120511416D01*
X135296512Y-120545716D01*
X135357685Y-120609063D01*
X135359123Y-120610004D01*
X135498864Y-120701448D01*
X135498866Y-120701449D01*
X135500301Y-120702388D01*
X135660049Y-120761798D01*
X135828989Y-120784339D01*
X135913857Y-120776616D01*
X135997013Y-120769048D01*
X135997015Y-120769048D01*
X135998725Y-120768892D01*
X136160821Y-120716224D01*
X136205618Y-120689520D01*
X136305740Y-120629836D01*
X136305745Y-120629833D01*
X136307220Y-120628953D01*
X136327119Y-120610004D01*
X136429403Y-120512600D01*
X136429404Y-120512598D01*
X136430646Y-120511416D01*
X136524965Y-120369455D01*
X136535143Y-120342663D01*
X136582276Y-120218582D01*
X136585489Y-120210125D01*
X136609209Y-120041346D01*
X136609507Y-120020000D01*
X136590509Y-119850625D01*
X136589945Y-119849005D01*
X136589944Y-119849001D01*
X136535021Y-119691286D01*
X136535020Y-119691284D01*
X136534457Y-119689667D01*
X136463140Y-119575536D01*
X136445053Y-119546590D01*
X136445051Y-119546587D01*
X136444139Y-119545128D01*
X136324043Y-119424191D01*
X136322594Y-119423272D01*
X136322591Y-119423269D01*
X136181591Y-119333788D01*
X136181590Y-119333788D01*
X136180138Y-119332866D01*
X136165628Y-119327699D01*
X136125341Y-119313353D01*
X136019576Y-119275692D01*
X135850337Y-119255512D01*
X135848634Y-119255691D01*
X135848633Y-119255691D01*
X135823408Y-119258342D01*
X135680833Y-119273327D01*
X135679209Y-119273880D01*
X135679204Y-119273881D01*
X135521116Y-119327699D01*
X135519489Y-119328253D01*
X135518028Y-119329152D01*
X135378254Y-119415141D01*
X135362141Y-119419700D01*
X129905373Y-119419700D01*
X129883629Y-119410694D01*
X129879296Y-119405245D01*
X129801153Y-119280190D01*
X129801151Y-119280187D01*
X129800239Y-119278728D01*
X129680143Y-119157791D01*
X129678694Y-119156872D01*
X129678691Y-119156869D01*
X129537691Y-119067388D01*
X129537690Y-119067388D01*
X129536238Y-119066466D01*
X129521728Y-119061299D01*
X129377296Y-119009869D01*
X129377297Y-119009869D01*
X129375676Y-119009292D01*
X129206437Y-118989112D01*
X129204734Y-118989291D01*
X129204733Y-118989291D01*
X129179508Y-118991942D01*
X129036933Y-119006927D01*
X129035309Y-119007480D01*
X129035304Y-119007481D01*
X128877216Y-119061299D01*
X128875589Y-119061853D01*
X128780681Y-119120241D01*
X128731881Y-119150262D01*
X128731878Y-119150264D01*
X128730422Y-119151160D01*
X128608650Y-119270409D01*
X128607720Y-119271852D01*
X128582131Y-119311558D01*
X128516322Y-119413673D01*
X128515736Y-119415283D01*
X128515734Y-119415287D01*
X128487176Y-119493752D01*
X128458029Y-119573832D01*
X128436668Y-119742926D01*
X114882100Y-119742926D01*
X114882100Y-116746469D01*
X150979707Y-116746469D01*
X150997774Y-116944995D01*
X151054058Y-117136230D01*
X151146414Y-117312891D01*
X151147351Y-117314056D01*
X151147352Y-117314058D01*
X151270387Y-117467083D01*
X151270390Y-117467086D01*
X151271325Y-117468249D01*
X151424033Y-117596386D01*
X151598721Y-117692421D01*
X151788735Y-117752698D01*
X151943884Y-117770100D01*
X161267314Y-117770100D01*
X161289058Y-117779106D01*
X164410594Y-120900642D01*
X164419600Y-120922386D01*
X164419600Y-124683757D01*
X164419673Y-124684499D01*
X164419673Y-124684504D01*
X164432282Y-124813091D01*
X164434135Y-124831994D01*
X164434567Y-124833425D01*
X164434568Y-124833430D01*
X164461766Y-124923513D01*
X164491752Y-125022832D01*
X164497981Y-125034547D01*
X164570663Y-125171242D01*
X164585339Y-125198844D01*
X164593906Y-125209348D01*
X164710382Y-125352162D01*
X164710386Y-125352166D01*
X164711332Y-125353326D01*
X164712490Y-125354284D01*
X164712491Y-125354285D01*
X164861020Y-125477159D01*
X164864930Y-125480394D01*
X165040285Y-125575208D01*
X165230715Y-125634156D01*
X165428969Y-125654993D01*
X165430464Y-125654857D01*
X165430466Y-125654857D01*
X165625993Y-125637063D01*
X165625996Y-125637062D01*
X165627495Y-125636926D01*
X165818730Y-125580642D01*
X165820059Y-125579947D01*
X165820062Y-125579946D01*
X165994063Y-125488980D01*
X165995391Y-125488286D01*
X166007590Y-125478478D01*
X166149583Y-125364313D01*
X166149586Y-125364310D01*
X166150749Y-125363375D01*
X166151796Y-125362128D01*
X166277921Y-125211817D01*
X166278886Y-125210667D01*
X166374921Y-125035979D01*
X166425777Y-124875664D01*
X166440937Y-124857662D01*
X166464386Y-124855651D01*
X166482388Y-124870811D01*
X166484647Y-124876486D01*
X166514050Y-124979025D01*
X166519110Y-124996673D01*
X166607093Y-125167870D01*
X166608027Y-125169048D01*
X166608028Y-125169050D01*
X166725721Y-125317542D01*
X166725725Y-125317546D01*
X166726653Y-125318717D01*
X166873235Y-125443469D01*
X166874541Y-125444199D01*
X166874544Y-125444201D01*
X167039943Y-125536639D01*
X167039946Y-125536640D01*
X167041257Y-125537373D01*
X167224318Y-125596853D01*
X167319882Y-125608248D01*
X167413959Y-125619467D01*
X167413963Y-125619467D01*
X167415447Y-125619644D01*
X167416942Y-125619529D01*
X167416945Y-125619529D01*
X167605857Y-125604993D01*
X167605860Y-125604993D01*
X167607361Y-125604877D01*
X167608809Y-125604473D01*
X167608813Y-125604472D01*
X167758094Y-125562791D01*
X167792753Y-125553114D01*
X167943120Y-125477159D01*
X167963212Y-125467010D01*
X167963213Y-125467010D01*
X167964560Y-125466329D01*
X168116238Y-125347825D01*
X168131666Y-125329952D01*
X168241030Y-125203251D01*
X168242009Y-125202117D01*
X168243869Y-125198844D01*
X168336342Y-125036061D01*
X168337084Y-125034755D01*
X168337559Y-125033328D01*
X168397368Y-124853536D01*
X168397369Y-124853532D01*
X168397841Y-124852113D01*
X168399848Y-124836230D01*
X168421859Y-124661988D01*
X168421965Y-124661149D01*
X168422350Y-124633611D01*
X168418682Y-124596198D01*
X168403714Y-124443544D01*
X168403713Y-124443541D01*
X168403567Y-124442048D01*
X168403135Y-124440617D01*
X168403134Y-124440612D01*
X168356589Y-124286449D01*
X168347934Y-124257781D01*
X168280633Y-124131206D01*
X168258276Y-124089158D01*
X168258274Y-124089155D01*
X168257569Y-124087829D01*
X168135914Y-123938666D01*
X167987604Y-123815974D01*
X167986284Y-123815260D01*
X167819611Y-123725139D01*
X167819608Y-123725138D01*
X167818288Y-123724424D01*
X167816856Y-123723981D01*
X167816852Y-123723979D01*
X167684283Y-123682943D01*
X167634414Y-123667506D01*
X167611997Y-123665150D01*
X167591314Y-123653920D01*
X167584629Y-123631354D01*
X167595859Y-123610671D01*
X167607497Y-123605365D01*
X167607361Y-123604877D01*
X167637761Y-123596389D01*
X167792753Y-123553114D01*
X167964560Y-123466329D01*
X168116238Y-123347825D01*
X168131666Y-123329952D01*
X168241030Y-123203251D01*
X168242009Y-123202117D01*
X168337084Y-123034755D01*
X168348158Y-123001465D01*
X168397368Y-122853536D01*
X168397369Y-122853532D01*
X168397841Y-122852113D01*
X168399848Y-122836230D01*
X168421859Y-122661988D01*
X168421965Y-122661149D01*
X168422350Y-122633611D01*
X168408015Y-122487410D01*
X168403714Y-122443544D01*
X168403713Y-122443541D01*
X168403567Y-122442048D01*
X168403135Y-122440617D01*
X168403134Y-122440612D01*
X168357420Y-122289202D01*
X168347934Y-122257781D01*
X168257569Y-122087829D01*
X168135914Y-121938666D01*
X167987604Y-121815974D01*
X167986284Y-121815260D01*
X167819611Y-121725139D01*
X167819608Y-121725138D01*
X167818288Y-121724424D01*
X167816856Y-121723981D01*
X167816852Y-121723979D01*
X167684283Y-121682943D01*
X167634414Y-121667506D01*
X167442986Y-121647386D01*
X167441491Y-121647522D01*
X167441489Y-121647522D01*
X167252798Y-121664694D01*
X167252795Y-121664695D01*
X167251296Y-121664831D01*
X167066646Y-121719177D01*
X166896067Y-121808353D01*
X166894902Y-121809290D01*
X166894900Y-121809291D01*
X166747225Y-121928025D01*
X166747222Y-121928028D01*
X166746059Y-121928963D01*
X166745099Y-121930107D01*
X166745097Y-121930109D01*
X166734193Y-121943104D01*
X166622334Y-122076413D01*
X166621609Y-122077732D01*
X166538014Y-122229791D01*
X166529605Y-122245086D01*
X166529151Y-122246516D01*
X166529151Y-122246517D01*
X166512661Y-122298500D01*
X166497501Y-122316502D01*
X166474052Y-122318513D01*
X166456050Y-122303353D01*
X166452600Y-122289202D01*
X166452600Y-120545716D01*
X166452780Y-120542395D01*
X166457300Y-120500789D01*
X166457300Y-120500787D01*
X166457462Y-120499296D01*
X166452717Y-120445060D01*
X166452600Y-120442380D01*
X166452600Y-120438443D01*
X166452528Y-120437704D01*
X166452527Y-120437693D01*
X166448331Y-120394899D01*
X166448301Y-120394579D01*
X166440219Y-120302208D01*
X166440088Y-120300709D01*
X166439384Y-120298285D01*
X166438311Y-120292715D01*
X166438065Y-120290206D01*
X166437633Y-120288775D01*
X166437632Y-120288770D01*
X166410833Y-120200008D01*
X166410742Y-120199699D01*
X166384892Y-120110724D01*
X166384472Y-120109278D01*
X166383780Y-120107944D01*
X166383778Y-120107938D01*
X166383313Y-120107042D01*
X166381178Y-120101786D01*
X166380448Y-120099368D01*
X166365471Y-120071200D01*
X166336216Y-120016178D01*
X166336067Y-120015893D01*
X166293427Y-119933632D01*
X166293425Y-119933628D01*
X166292734Y-119932296D01*
X166291161Y-119930326D01*
X166288044Y-119925580D01*
X166286861Y-119923356D01*
X166227354Y-119850394D01*
X166227151Y-119850143D01*
X166195860Y-119810945D01*
X166195857Y-119810942D01*
X166195332Y-119810284D01*
X166192681Y-119807633D01*
X166190606Y-119805336D01*
X166160868Y-119768874D01*
X166121776Y-119736534D01*
X166119633Y-119734585D01*
X162460259Y-116075211D01*
X162458038Y-116072735D01*
X162431813Y-116040117D01*
X162431810Y-116040114D01*
X162430875Y-116038951D01*
X162417684Y-116027882D01*
X162389173Y-116003959D01*
X162387195Y-116002147D01*
X162384408Y-115999360D01*
X162350576Y-115971569D01*
X162350376Y-115971404D01*
X162279315Y-115911777D01*
X162279313Y-115911776D01*
X162278167Y-115910814D01*
X162276771Y-115910047D01*
X162275953Y-115909596D01*
X162271261Y-115906419D01*
X162270482Y-115905779D01*
X162270476Y-115905775D01*
X162269311Y-115904818D01*
X162255634Y-115897485D01*
X162186280Y-115860297D01*
X162185997Y-115860144D01*
X162103479Y-115814779D01*
X162101078Y-115814017D01*
X162095850Y-115811809D01*
X162094950Y-115811326D01*
X162094942Y-115811323D01*
X162093626Y-115810617D01*
X162003589Y-115783090D01*
X162003337Y-115783012D01*
X161914900Y-115754957D01*
X161914898Y-115754957D01*
X161913465Y-115754502D01*
X161910959Y-115754221D01*
X161905406Y-115753071D01*
X161905011Y-115752951D01*
X161902991Y-115752333D01*
X161864210Y-115748394D01*
X161809166Y-115742802D01*
X161808847Y-115742767D01*
X161778030Y-115739311D01*
X161758316Y-115737100D01*
X161754584Y-115737100D01*
X161751477Y-115736943D01*
X161704665Y-115732188D01*
X161703173Y-115732329D01*
X161703170Y-115732329D01*
X161654140Y-115736964D01*
X161651246Y-115737100D01*
X151950943Y-115737100D01*
X151950201Y-115737173D01*
X151950196Y-115737173D01*
X151804202Y-115751488D01*
X151804199Y-115751489D01*
X151802706Y-115751635D01*
X151801275Y-115752067D01*
X151801270Y-115752068D01*
X151698703Y-115783035D01*
X151611868Y-115809252D01*
X151582436Y-115824901D01*
X151437183Y-115902133D01*
X151437180Y-115902135D01*
X151435856Y-115902839D01*
X151426967Y-115910089D01*
X151282538Y-116027882D01*
X151282534Y-116027886D01*
X151281374Y-116028832D01*
X151280416Y-116029990D01*
X151280415Y-116029991D01*
X151273799Y-116037989D01*
X151154306Y-116182430D01*
X151059492Y-116357785D01*
X151000544Y-116548215D01*
X150979707Y-116746469D01*
X114882100Y-116746469D01*
X114882100Y-98217471D01*
X115607790Y-98217471D01*
X115621740Y-98459402D01*
X115675016Y-98695807D01*
X115675487Y-98696968D01*
X115675489Y-98696973D01*
X115710219Y-98782501D01*
X115766188Y-98920336D01*
X115892807Y-99126959D01*
X116051472Y-99310127D01*
X116237923Y-99464922D01*
X116447153Y-99587186D01*
X116448325Y-99587633D01*
X116448328Y-99587635D01*
X116481495Y-99600300D01*
X116673542Y-99673635D01*
X116911010Y-99721949D01*
X117153181Y-99730829D01*
X117224460Y-99721698D01*
X117392296Y-99700198D01*
X117392300Y-99700197D01*
X117393550Y-99700037D01*
X117480716Y-99673886D01*
X117624457Y-99630762D01*
X117624462Y-99630760D01*
X117625662Y-99630400D01*
X117843284Y-99523788D01*
X117846774Y-99521299D01*
X117925811Y-99464922D01*
X118040571Y-99383064D01*
X118212226Y-99212008D01*
X118212954Y-99210995D01*
X118212959Y-99210989D01*
X118352902Y-99016236D01*
X118352902Y-99016235D01*
X118353637Y-99015213D01*
X118354194Y-99014086D01*
X118354197Y-99014081D01*
X118460451Y-98799092D01*
X118461008Y-98797965D01*
X118531455Y-98566097D01*
X118563086Y-98325837D01*
X118564851Y-98253600D01*
X118561881Y-98217471D01*
X131437790Y-98217471D01*
X131451740Y-98459402D01*
X131505016Y-98695807D01*
X131505487Y-98696968D01*
X131505489Y-98696973D01*
X131540219Y-98782501D01*
X131596188Y-98920336D01*
X131722807Y-99126959D01*
X131881472Y-99310127D01*
X132067923Y-99464922D01*
X132277153Y-99587186D01*
X132278325Y-99587633D01*
X132278328Y-99587635D01*
X132311495Y-99600300D01*
X132503542Y-99673635D01*
X132741010Y-99721949D01*
X132983181Y-99730829D01*
X133054460Y-99721698D01*
X133222296Y-99700198D01*
X133222300Y-99700197D01*
X133223550Y-99700037D01*
X133310716Y-99673886D01*
X133454457Y-99630762D01*
X133454462Y-99630760D01*
X133455662Y-99630400D01*
X133673284Y-99523788D01*
X133676774Y-99521299D01*
X133755811Y-99464922D01*
X133870571Y-99383064D01*
X134042226Y-99212008D01*
X134042954Y-99210995D01*
X134042959Y-99210989D01*
X134182902Y-99016236D01*
X134182902Y-99016235D01*
X134183637Y-99015213D01*
X134184194Y-99014086D01*
X134184197Y-99014081D01*
X134290451Y-98799092D01*
X134291008Y-98797965D01*
X134361455Y-98566097D01*
X134393086Y-98325837D01*
X134394851Y-98253600D01*
X134374995Y-98012082D01*
X134315959Y-97777049D01*
X134293198Y-97724702D01*
X140114400Y-97724702D01*
X140114401Y-98782501D01*
X140114503Y-98783381D01*
X140118868Y-98821072D01*
X140119191Y-98823863D01*
X140120013Y-98825842D01*
X140120013Y-98825843D01*
X140159250Y-98920336D01*
X140167896Y-98941159D01*
X140193401Y-98973223D01*
X140741478Y-99521300D01*
X140774113Y-99547161D01*
X140776095Y-99547980D01*
X140889514Y-99594844D01*
X140889517Y-99594845D01*
X140891495Y-99595662D01*
X140893628Y-99595905D01*
X140931338Y-99600202D01*
X140931346Y-99600202D01*
X140932202Y-99600300D01*
X141455071Y-99600300D01*
X141990001Y-99600299D01*
X141997307Y-99599453D01*
X142029234Y-99595756D01*
X142029237Y-99595755D01*
X142031363Y-99595509D01*
X142050326Y-99587635D01*
X142146678Y-99547627D01*
X142146680Y-99547626D01*
X142148659Y-99546804D01*
X142180723Y-99521299D01*
X142709356Y-98992666D01*
X142731100Y-98983660D01*
X142752844Y-98992666D01*
X143281478Y-99521300D01*
X143314113Y-99547161D01*
X143316095Y-99547980D01*
X143429514Y-99594844D01*
X143429517Y-99594845D01*
X143431495Y-99595662D01*
X143433628Y-99595905D01*
X143471338Y-99600202D01*
X143471346Y-99600202D01*
X143472202Y-99600300D01*
X143995071Y-99600300D01*
X144530001Y-99600299D01*
X144537307Y-99599453D01*
X144569234Y-99595756D01*
X144569237Y-99595755D01*
X144571363Y-99595509D01*
X144590326Y-99587635D01*
X144686678Y-99547627D01*
X144686680Y-99547626D01*
X144688659Y-99546804D01*
X144720723Y-99521299D01*
X145249356Y-98992666D01*
X145271100Y-98983660D01*
X145292844Y-98992666D01*
X145821478Y-99521300D01*
X145854113Y-99547161D01*
X145856095Y-99547980D01*
X145969514Y-99594844D01*
X145969517Y-99594845D01*
X145971495Y-99595662D01*
X145973628Y-99595905D01*
X146011338Y-99600202D01*
X146011346Y-99600202D01*
X146012202Y-99600300D01*
X146535071Y-99600300D01*
X147070001Y-99600299D01*
X147077307Y-99599453D01*
X147109234Y-99595756D01*
X147109237Y-99595755D01*
X147111363Y-99595509D01*
X147130326Y-99587635D01*
X147226678Y-99547627D01*
X147226680Y-99547626D01*
X147228659Y-99546804D01*
X147260723Y-99521299D01*
X147808800Y-98973222D01*
X147834661Y-98940587D01*
X147835480Y-98938605D01*
X147882344Y-98825186D01*
X147882345Y-98825183D01*
X147883162Y-98823205D01*
X147883643Y-98818982D01*
X147887702Y-98783362D01*
X147887702Y-98783354D01*
X147887800Y-98782498D01*
X147887799Y-97724699D01*
X147886953Y-97717393D01*
X147883256Y-97685466D01*
X147883255Y-97685463D01*
X147883009Y-97683337D01*
X147834304Y-97566041D01*
X147826293Y-97555969D01*
X147809340Y-97534657D01*
X147809339Y-97534656D01*
X147808799Y-97533977D01*
X147260722Y-96985900D01*
X147228087Y-96960039D01*
X147226105Y-96959220D01*
X147112686Y-96912356D01*
X147112683Y-96912355D01*
X147110705Y-96911538D01*
X147106482Y-96911057D01*
X147070862Y-96906998D01*
X147070854Y-96906998D01*
X147069998Y-96906900D01*
X146547129Y-96906900D01*
X146012199Y-96906901D01*
X146004893Y-96907747D01*
X145972966Y-96911444D01*
X145972963Y-96911445D01*
X145970837Y-96911691D01*
X145968858Y-96912513D01*
X145968857Y-96912513D01*
X145855522Y-96959573D01*
X145855520Y-96959574D01*
X145853541Y-96960396D01*
X145821477Y-96985901D01*
X145292844Y-97514534D01*
X145271100Y-97523540D01*
X145249356Y-97514534D01*
X144720722Y-96985900D01*
X144688087Y-96960039D01*
X144686105Y-96959220D01*
X144572686Y-96912356D01*
X144572683Y-96912355D01*
X144570705Y-96911538D01*
X144566482Y-96911057D01*
X144530862Y-96906998D01*
X144530854Y-96906998D01*
X144529998Y-96906900D01*
X144007129Y-96906900D01*
X143472199Y-96906901D01*
X143464893Y-96907747D01*
X143432966Y-96911444D01*
X143432963Y-96911445D01*
X143430837Y-96911691D01*
X143428858Y-96912513D01*
X143428857Y-96912513D01*
X143315522Y-96959573D01*
X143315520Y-96959574D01*
X143313541Y-96960396D01*
X143281477Y-96985901D01*
X142752844Y-97514534D01*
X142731100Y-97523540D01*
X142709356Y-97514534D01*
X142180722Y-96985900D01*
X142148087Y-96960039D01*
X142146105Y-96959220D01*
X142032686Y-96912356D01*
X142032683Y-96912355D01*
X142030705Y-96911538D01*
X142026482Y-96911057D01*
X141990862Y-96906998D01*
X141990854Y-96906998D01*
X141989998Y-96906900D01*
X141467129Y-96906900D01*
X140932199Y-96906901D01*
X140924893Y-96907747D01*
X140892966Y-96911444D01*
X140892963Y-96911445D01*
X140890837Y-96911691D01*
X140888858Y-96912513D01*
X140888857Y-96912513D01*
X140775522Y-96959573D01*
X140775520Y-96959574D01*
X140773541Y-96960396D01*
X140741477Y-96985901D01*
X140193400Y-97533978D01*
X140167539Y-97566613D01*
X140166720Y-97568595D01*
X140119856Y-97682014D01*
X140119855Y-97682017D01*
X140119038Y-97683995D01*
X140118795Y-97686128D01*
X140114501Y-97723819D01*
X140114400Y-97724702D01*
X134293198Y-97724702D01*
X134219830Y-97555969D01*
X134219829Y-97555967D01*
X134219328Y-97554815D01*
X134087699Y-97351347D01*
X134086853Y-97350418D01*
X134086849Y-97350412D01*
X133959720Y-97210700D01*
X133924606Y-97172110D01*
X133734428Y-97021917D01*
X133712997Y-97010086D01*
X133523388Y-96905416D01*
X133522274Y-96904801D01*
X133516000Y-96902579D01*
X133416111Y-96867207D01*
X133293841Y-96823909D01*
X133292599Y-96823688D01*
X133292596Y-96823687D01*
X133207211Y-96808478D01*
X133055263Y-96781412D01*
X132937799Y-96779977D01*
X132814209Y-96778466D01*
X132814204Y-96778466D01*
X132812948Y-96778451D01*
X132811701Y-96778642D01*
X132811698Y-96778642D01*
X132607182Y-96809938D01*
X132573403Y-96815107D01*
X132343061Y-96890394D01*
X132314204Y-96905416D01*
X132129226Y-97001709D01*
X132129221Y-97001712D01*
X132128109Y-97002291D01*
X132127099Y-97003050D01*
X132127098Y-97003050D01*
X132081836Y-97037034D01*
X131934318Y-97147793D01*
X131766895Y-97322992D01*
X131766185Y-97324032D01*
X131766184Y-97324034D01*
X131746828Y-97352409D01*
X131630334Y-97523183D01*
X131528303Y-97742990D01*
X131463542Y-97976510D01*
X131437790Y-98217471D01*
X118561881Y-98217471D01*
X118544995Y-98012082D01*
X118485959Y-97777049D01*
X118463198Y-97724702D01*
X118389830Y-97555969D01*
X118389829Y-97555967D01*
X118389328Y-97554815D01*
X118257699Y-97351347D01*
X118256853Y-97350418D01*
X118256849Y-97350412D01*
X118129720Y-97210700D01*
X118094606Y-97172110D01*
X117904428Y-97021917D01*
X117882997Y-97010086D01*
X117693388Y-96905416D01*
X117692274Y-96904801D01*
X117686000Y-96902579D01*
X117586111Y-96867207D01*
X117463841Y-96823909D01*
X117462599Y-96823688D01*
X117462596Y-96823687D01*
X117377211Y-96808478D01*
X117225263Y-96781412D01*
X117107799Y-96779977D01*
X116984209Y-96778466D01*
X116984204Y-96778466D01*
X116982948Y-96778451D01*
X116981701Y-96778642D01*
X116981698Y-96778642D01*
X116777182Y-96809938D01*
X116743403Y-96815107D01*
X116513061Y-96890394D01*
X116484204Y-96905416D01*
X116299226Y-97001709D01*
X116299221Y-97001712D01*
X116298109Y-97002291D01*
X116297099Y-97003050D01*
X116297098Y-97003050D01*
X116251836Y-97037034D01*
X116104318Y-97147793D01*
X115936895Y-97322992D01*
X115936185Y-97324032D01*
X115936184Y-97324034D01*
X115916828Y-97352409D01*
X115800334Y-97523183D01*
X115698303Y-97742990D01*
X115633542Y-97976510D01*
X115607790Y-98217471D01*
X114882100Y-98217471D01*
X114882100Y-95171993D01*
X117274121Y-95171993D01*
X117274180Y-95173067D01*
X117274180Y-95173073D01*
X117288700Y-95436896D01*
X117289740Y-95455799D01*
X117289951Y-95456861D01*
X117289952Y-95456867D01*
X117328610Y-95651210D01*
X117345192Y-95734572D01*
X117345552Y-95735596D01*
X117345553Y-95735601D01*
X117366139Y-95794221D01*
X117439369Y-96002752D01*
X117570394Y-96254986D01*
X117571027Y-96255872D01*
X117571029Y-96255875D01*
X117607853Y-96307405D01*
X117735652Y-96486242D01*
X117931846Y-96691906D01*
X117932695Y-96692575D01*
X117932698Y-96692578D01*
X117984873Y-96733709D01*
X118155061Y-96867874D01*
X118155986Y-96868412D01*
X118155993Y-96868416D01*
X118231913Y-96912513D01*
X118400843Y-97010635D01*
X118664288Y-97117342D01*
X118665336Y-97117602D01*
X118665338Y-97117603D01*
X118737589Y-97135550D01*
X118940140Y-97185864D01*
X118941220Y-97185975D01*
X118941222Y-97185975D01*
X119034414Y-97195523D01*
X119182545Y-97210700D01*
X119358510Y-97210700D01*
X119359057Y-97210661D01*
X119359065Y-97210661D01*
X119568540Y-97195829D01*
X119568542Y-97195829D01*
X119569625Y-97195752D01*
X119847493Y-97135929D01*
X119848518Y-97135551D01*
X119848521Y-97135550D01*
X119949513Y-97098292D01*
X120114160Y-97037550D01*
X120115113Y-97037036D01*
X120115117Y-97037034D01*
X120363345Y-96903097D01*
X120364305Y-96902579D01*
X120592937Y-96733709D01*
X120795494Y-96534310D01*
X120967934Y-96308359D01*
X121106817Y-96060365D01*
X121209373Y-95795276D01*
X121210286Y-95791341D01*
X121273307Y-95519442D01*
X121273553Y-95518382D01*
X121298079Y-95235207D01*
X121298020Y-95234127D01*
X121294601Y-95171993D01*
X128704121Y-95171993D01*
X128704180Y-95173067D01*
X128704180Y-95173073D01*
X128718700Y-95436896D01*
X128719740Y-95455799D01*
X128719951Y-95456861D01*
X128719952Y-95456867D01*
X128758610Y-95651210D01*
X128775192Y-95734572D01*
X128775552Y-95735596D01*
X128775553Y-95735601D01*
X128796139Y-95794221D01*
X128869369Y-96002752D01*
X129000394Y-96254986D01*
X129001027Y-96255872D01*
X129001029Y-96255875D01*
X129037853Y-96307405D01*
X129165652Y-96486242D01*
X129361846Y-96691906D01*
X129362695Y-96692575D01*
X129362698Y-96692578D01*
X129414873Y-96733709D01*
X129585061Y-96867874D01*
X129585986Y-96868412D01*
X129585993Y-96868416D01*
X129661913Y-96912513D01*
X129830843Y-97010635D01*
X130094288Y-97117342D01*
X130095336Y-97117602D01*
X130095338Y-97117603D01*
X130167589Y-97135550D01*
X130370140Y-97185864D01*
X130371220Y-97185975D01*
X130371222Y-97185975D01*
X130464414Y-97195523D01*
X130612545Y-97210700D01*
X130788510Y-97210700D01*
X130789057Y-97210661D01*
X130789065Y-97210661D01*
X130998540Y-97195829D01*
X130998542Y-97195829D01*
X130999625Y-97195752D01*
X131277493Y-97135929D01*
X131278518Y-97135551D01*
X131278521Y-97135550D01*
X131379513Y-97098292D01*
X131544160Y-97037550D01*
X131545113Y-97037036D01*
X131545117Y-97037034D01*
X131793345Y-96903097D01*
X131794305Y-96902579D01*
X132022937Y-96733709D01*
X132225494Y-96534310D01*
X132397934Y-96308359D01*
X132536817Y-96060365D01*
X132639373Y-95795276D01*
X132640286Y-95791341D01*
X132672212Y-95653600D01*
X158115351Y-95653600D01*
X158115730Y-95655990D01*
X158116114Y-95658416D01*
X158116397Y-95660811D01*
X158126670Y-95791341D01*
X158132885Y-95870304D01*
X158183630Y-96081672D01*
X158184093Y-96082789D01*
X158184094Y-96082793D01*
X158248916Y-96239288D01*
X158266815Y-96282499D01*
X158380393Y-96467841D01*
X158521566Y-96633134D01*
X158686859Y-96774307D01*
X158687883Y-96774934D01*
X158687885Y-96774936D01*
X158838458Y-96867207D01*
X158872201Y-96887885D01*
X158878258Y-96890394D01*
X159071907Y-96970606D01*
X159071911Y-96970607D01*
X159073028Y-96971070D01*
X159284396Y-97021815D01*
X159285599Y-97021910D01*
X159285601Y-97021910D01*
X159430994Y-97033353D01*
X159433600Y-97033734D01*
X159434689Y-97034116D01*
X159440277Y-97034600D01*
X159445638Y-97034600D01*
X159448051Y-97034695D01*
X159493889Y-97038303D01*
X159496278Y-97038585D01*
X159501100Y-97039349D01*
X159528691Y-97034979D01*
X159533501Y-97034600D01*
X163468699Y-97034600D01*
X163473509Y-97034979D01*
X163501100Y-97039349D01*
X163505922Y-97038585D01*
X163508311Y-97038303D01*
X163716599Y-97021910D01*
X163716601Y-97021910D01*
X163717804Y-97021815D01*
X163929172Y-96971070D01*
X163930289Y-96970607D01*
X163930293Y-96970606D01*
X164123942Y-96890394D01*
X164129999Y-96887885D01*
X164163742Y-96867207D01*
X164314315Y-96774936D01*
X164314317Y-96774934D01*
X164315341Y-96774307D01*
X164480634Y-96633134D01*
X164621807Y-96467841D01*
X164735385Y-96282499D01*
X164753284Y-96239288D01*
X164818106Y-96082793D01*
X164818107Y-96082789D01*
X164818570Y-96081672D01*
X164869315Y-95870304D01*
X164875530Y-95791341D01*
X164885803Y-95660811D01*
X164886086Y-95658416D01*
X164886470Y-95655990D01*
X164886849Y-95653600D01*
X164886085Y-95648778D01*
X164885803Y-95646389D01*
X164869410Y-95438101D01*
X164869410Y-95438099D01*
X164869315Y-95436896D01*
X164818570Y-95225528D01*
X164796843Y-95173073D01*
X164735848Y-95025819D01*
X164735385Y-95024701D01*
X164621807Y-94839359D01*
X164480634Y-94674066D01*
X164315341Y-94532893D01*
X164129999Y-94419315D01*
X164086788Y-94401416D01*
X163930293Y-94336594D01*
X163930289Y-94336593D01*
X163929172Y-94336130D01*
X163717804Y-94285385D01*
X163716601Y-94285290D01*
X163716599Y-94285290D01*
X163571206Y-94273847D01*
X163568600Y-94273466D01*
X163567511Y-94273084D01*
X163561923Y-94272600D01*
X163556562Y-94272600D01*
X163554149Y-94272505D01*
X163508311Y-94268897D01*
X163505922Y-94268615D01*
X163501100Y-94267851D01*
X163498707Y-94268230D01*
X163473509Y-94272221D01*
X163468699Y-94272600D01*
X159533501Y-94272600D01*
X159528691Y-94272221D01*
X159503493Y-94268230D01*
X159501100Y-94267851D01*
X159496278Y-94268615D01*
X159493889Y-94268897D01*
X159285601Y-94285290D01*
X159285599Y-94285290D01*
X159284396Y-94285385D01*
X159073028Y-94336130D01*
X159071911Y-94336593D01*
X159071907Y-94336594D01*
X158915412Y-94401416D01*
X158872201Y-94419315D01*
X158686859Y-94532893D01*
X158521566Y-94674066D01*
X158380393Y-94839359D01*
X158266815Y-95024701D01*
X158266352Y-95025819D01*
X158205358Y-95173073D01*
X158183630Y-95225528D01*
X158132885Y-95436896D01*
X158132790Y-95438099D01*
X158132790Y-95438101D01*
X158116397Y-95646389D01*
X158116115Y-95648778D01*
X158115351Y-95653600D01*
X132672212Y-95653600D01*
X132703307Y-95519442D01*
X132703553Y-95518382D01*
X132728079Y-95235207D01*
X132728020Y-95234127D01*
X132712520Y-94952483D01*
X132712519Y-94952477D01*
X132712460Y-94951401D01*
X132700012Y-94888818D01*
X132657221Y-94673699D01*
X132657008Y-94672628D01*
X132562831Y-94404448D01*
X132431806Y-94152214D01*
X132266548Y-93920958D01*
X132070354Y-93715294D01*
X132018293Y-93674252D01*
X131847985Y-93539993D01*
X131847986Y-93539993D01*
X131847139Y-93539326D01*
X131846214Y-93538788D01*
X131846207Y-93538784D01*
X131726979Y-93469532D01*
X131601357Y-93396565D01*
X131337912Y-93289858D01*
X131336864Y-93289598D01*
X131336862Y-93289597D01*
X131257797Y-93269957D01*
X131062060Y-93221336D01*
X131060980Y-93221225D01*
X131060978Y-93221225D01*
X130956962Y-93210568D01*
X130819655Y-93196500D01*
X130643690Y-93196500D01*
X130643143Y-93196539D01*
X130643135Y-93196539D01*
X130433660Y-93211371D01*
X130433658Y-93211371D01*
X130432575Y-93211448D01*
X130154707Y-93271271D01*
X130153682Y-93271649D01*
X130153679Y-93271650D01*
X130105032Y-93289597D01*
X129888040Y-93369650D01*
X129887087Y-93370164D01*
X129887083Y-93370166D01*
X129757262Y-93440214D01*
X129637895Y-93504621D01*
X129409263Y-93673491D01*
X129206706Y-93872890D01*
X129034266Y-94098841D01*
X128895383Y-94346835D01*
X128792827Y-94611924D01*
X128792584Y-94612973D01*
X128792582Y-94612979D01*
X128778606Y-94673276D01*
X128728647Y-94888818D01*
X128704121Y-95171993D01*
X121294601Y-95171993D01*
X121282520Y-94952483D01*
X121282519Y-94952477D01*
X121282460Y-94951401D01*
X121270012Y-94888818D01*
X121227221Y-94673699D01*
X121227008Y-94672628D01*
X121132831Y-94404448D01*
X121001806Y-94152214D01*
X120836548Y-93920958D01*
X120640354Y-93715294D01*
X120588293Y-93674252D01*
X120417985Y-93539993D01*
X120417986Y-93539993D01*
X120417139Y-93539326D01*
X120416214Y-93538788D01*
X120416207Y-93538784D01*
X120296979Y-93469532D01*
X120171357Y-93396565D01*
X119907912Y-93289858D01*
X119906864Y-93289598D01*
X119906862Y-93289597D01*
X119827797Y-93269957D01*
X119632060Y-93221336D01*
X119630980Y-93221225D01*
X119630978Y-93221225D01*
X119526962Y-93210568D01*
X119389655Y-93196500D01*
X119213690Y-93196500D01*
X119213143Y-93196539D01*
X119213135Y-93196539D01*
X119003660Y-93211371D01*
X119003658Y-93211371D01*
X119002575Y-93211448D01*
X118724707Y-93271271D01*
X118723682Y-93271649D01*
X118723679Y-93271650D01*
X118675032Y-93289597D01*
X118458040Y-93369650D01*
X118457087Y-93370164D01*
X118457083Y-93370166D01*
X118327262Y-93440214D01*
X118207895Y-93504621D01*
X117979263Y-93673491D01*
X117776706Y-93872890D01*
X117604266Y-94098841D01*
X117465383Y-94346835D01*
X117362827Y-94611924D01*
X117362584Y-94612973D01*
X117362582Y-94612979D01*
X117348606Y-94673276D01*
X117298647Y-94888818D01*
X117274121Y-95171993D01*
X114882100Y-95171993D01*
X114882100Y-91253589D01*
X133255575Y-91253589D01*
X133275647Y-91572628D01*
X133335547Y-91886635D01*
X133335844Y-91887549D01*
X133424502Y-92160408D01*
X133434331Y-92190659D01*
X133434742Y-92191532D01*
X133434743Y-92191535D01*
X133550747Y-92438056D01*
X133570439Y-92479904D01*
X133741727Y-92749810D01*
X133945492Y-92996119D01*
X133946198Y-92996782D01*
X134175038Y-93211677D01*
X134178521Y-93214948D01*
X134179303Y-93215516D01*
X134179304Y-93215517D01*
X134187313Y-93221336D01*
X134437139Y-93402845D01*
X134437991Y-93403314D01*
X134437992Y-93403314D01*
X134716417Y-93556380D01*
X134716421Y-93556382D01*
X134717267Y-93556847D01*
X134718160Y-93557200D01*
X134718163Y-93557202D01*
X134825415Y-93599666D01*
X135014488Y-93674525D01*
X135015419Y-93674764D01*
X135015422Y-93674765D01*
X135170655Y-93714622D01*
X135324115Y-93754024D01*
X135325070Y-93754145D01*
X135325072Y-93754145D01*
X135640303Y-93793968D01*
X135640307Y-93793968D01*
X135641263Y-93794089D01*
X135960933Y-93794089D01*
X135961889Y-93793968D01*
X135961893Y-93793968D01*
X136277124Y-93754145D01*
X136277126Y-93754145D01*
X136278081Y-93754024D01*
X136431541Y-93714622D01*
X136586774Y-93674765D01*
X136586777Y-93674764D01*
X136587708Y-93674525D01*
X136776781Y-93599666D01*
X136884033Y-93557202D01*
X136884036Y-93557200D01*
X136884929Y-93556847D01*
X136885775Y-93556382D01*
X136885779Y-93556380D01*
X137164204Y-93403314D01*
X137164205Y-93403314D01*
X137165057Y-93402845D01*
X137414883Y-93221336D01*
X137422892Y-93215517D01*
X137422893Y-93215516D01*
X137423675Y-93214948D01*
X137427159Y-93211677D01*
X137587380Y-93061219D01*
X140283049Y-93061219D01*
X140285281Y-93066146D01*
X140359237Y-93131004D01*
X140360833Y-93132229D01*
X140616630Y-93303147D01*
X140618365Y-93304149D01*
X140894279Y-93440214D01*
X140896139Y-93440985D01*
X141187450Y-93539871D01*
X141189392Y-93540391D01*
X141491118Y-93600409D01*
X141493114Y-93600672D01*
X141800091Y-93620792D01*
X141802105Y-93620792D01*
X142109082Y-93600672D01*
X142111078Y-93600409D01*
X142412804Y-93540391D01*
X142414746Y-93539871D01*
X142706057Y-93440985D01*
X142707917Y-93440214D01*
X142983831Y-93304149D01*
X142985566Y-93303147D01*
X143241363Y-93132229D01*
X143242959Y-93131004D01*
X143317309Y-93065800D01*
X143319118Y-93062133D01*
X143317213Y-93057072D01*
X141805423Y-91545282D01*
X141801098Y-91543491D01*
X141796773Y-91545282D01*
X140284613Y-93057442D01*
X140283049Y-93061219D01*
X137587380Y-93061219D01*
X137655998Y-92996782D01*
X137656704Y-92996119D01*
X137860469Y-92749810D01*
X138031757Y-92479904D01*
X138051450Y-92438056D01*
X138167453Y-92191535D01*
X138167454Y-92191532D01*
X138167865Y-92190659D01*
X138177695Y-92160408D01*
X138266352Y-91887549D01*
X138266649Y-91886635D01*
X138326549Y-91572628D01*
X138346558Y-91254596D01*
X139433895Y-91254596D01*
X139454015Y-91561573D01*
X139454278Y-91563569D01*
X139514296Y-91865295D01*
X139514816Y-91867237D01*
X139613702Y-92158548D01*
X139614473Y-92160408D01*
X139750538Y-92436321D01*
X139751540Y-92438056D01*
X139922458Y-92693854D01*
X139923683Y-92695450D01*
X139988887Y-92769800D01*
X139992554Y-92771609D01*
X139997615Y-92769704D01*
X141509405Y-91257914D01*
X141511196Y-91253589D01*
X142091000Y-91253589D01*
X142092791Y-91257914D01*
X143604951Y-92770074D01*
X143608728Y-92771638D01*
X143613655Y-92769406D01*
X143678513Y-92695450D01*
X143679738Y-92693854D01*
X143850656Y-92438056D01*
X143851658Y-92436321D01*
X143987723Y-92160408D01*
X143988494Y-92158548D01*
X144087380Y-91867237D01*
X144087900Y-91865295D01*
X144147918Y-91563569D01*
X144148181Y-91561573D01*
X144168301Y-91254596D01*
X144168301Y-91252582D01*
X144148181Y-90945605D01*
X144147918Y-90943609D01*
X144087900Y-90641883D01*
X144087380Y-90639941D01*
X143988494Y-90348630D01*
X143987723Y-90346770D01*
X143851658Y-90070857D01*
X143850656Y-90069122D01*
X143679738Y-89813324D01*
X143678513Y-89811728D01*
X143613309Y-89737378D01*
X143609642Y-89735569D01*
X143604581Y-89737474D01*
X142092791Y-91249264D01*
X142091000Y-91253589D01*
X141511196Y-91253589D01*
X141509405Y-91249264D01*
X139997245Y-89737104D01*
X139993468Y-89735540D01*
X139988541Y-89737772D01*
X139923683Y-89811728D01*
X139922458Y-89813324D01*
X139751540Y-90069122D01*
X139750538Y-90070857D01*
X139614473Y-90346770D01*
X139613702Y-90348630D01*
X139514816Y-90639941D01*
X139514296Y-90641883D01*
X139454278Y-90943609D01*
X139454015Y-90945605D01*
X139433895Y-91252582D01*
X139433895Y-91254596D01*
X138346558Y-91254596D01*
X138346621Y-91253589D01*
X138326549Y-90934550D01*
X138266649Y-90620543D01*
X138178299Y-90348630D01*
X138168164Y-90317438D01*
X138168162Y-90317432D01*
X138167865Y-90316519D01*
X138052266Y-90070857D01*
X138032173Y-90028157D01*
X138032170Y-90028151D01*
X138031757Y-90027274D01*
X137860469Y-89757368D01*
X137656704Y-89511059D01*
X137613899Y-89470862D01*
X137586407Y-89445045D01*
X140283078Y-89445045D01*
X140284983Y-89450106D01*
X141796773Y-90961896D01*
X141801098Y-90963687D01*
X141805423Y-90961896D01*
X143317583Y-89449736D01*
X143319147Y-89445959D01*
X143316915Y-89441032D01*
X143242959Y-89376174D01*
X143241363Y-89374949D01*
X142985566Y-89204031D01*
X142983831Y-89203029D01*
X142707917Y-89066964D01*
X142706057Y-89066193D01*
X142414746Y-88967307D01*
X142412804Y-88966787D01*
X142111078Y-88906769D01*
X142109082Y-88906506D01*
X141802105Y-88886386D01*
X141800091Y-88886386D01*
X141493114Y-88906506D01*
X141491118Y-88906769D01*
X141189392Y-88966787D01*
X141187450Y-88967307D01*
X140896139Y-89066193D01*
X140894279Y-89066964D01*
X140618366Y-89203029D01*
X140616631Y-89204031D01*
X140360833Y-89374949D01*
X140359237Y-89376174D01*
X140284887Y-89441378D01*
X140283078Y-89445045D01*
X137586407Y-89445045D01*
X137424376Y-89292888D01*
X137424373Y-89292886D01*
X137423675Y-89292230D01*
X137404603Y-89278373D01*
X137372842Y-89255298D01*
X137165057Y-89104333D01*
X137018812Y-89023934D01*
X136885779Y-88950798D01*
X136885775Y-88950796D01*
X136884929Y-88950331D01*
X136884036Y-88949978D01*
X136884033Y-88949976D01*
X136774240Y-88906506D01*
X136587708Y-88832653D01*
X136586777Y-88832414D01*
X136586774Y-88832413D01*
X136348369Y-88771201D01*
X136278081Y-88753154D01*
X136277126Y-88753033D01*
X136277124Y-88753033D01*
X135961893Y-88713210D01*
X135961889Y-88713210D01*
X135960933Y-88713089D01*
X135641263Y-88713089D01*
X135640307Y-88713210D01*
X135640303Y-88713210D01*
X135325072Y-88753033D01*
X135325070Y-88753033D01*
X135324115Y-88753154D01*
X135253827Y-88771201D01*
X135015422Y-88832413D01*
X135015419Y-88832414D01*
X135014488Y-88832653D01*
X134827956Y-88906506D01*
X134718163Y-88949976D01*
X134718160Y-88949978D01*
X134717267Y-88950331D01*
X134716421Y-88950796D01*
X134716417Y-88950798D01*
X134583384Y-89023934D01*
X134437139Y-89104333D01*
X134229354Y-89255298D01*
X134197594Y-89278373D01*
X134178521Y-89292230D01*
X134177823Y-89292886D01*
X134177820Y-89292888D01*
X133988297Y-89470862D01*
X133945492Y-89511059D01*
X133741727Y-89757368D01*
X133570439Y-90027274D01*
X133570026Y-90028151D01*
X133570023Y-90028157D01*
X133549930Y-90070857D01*
X133434331Y-90316519D01*
X133434034Y-90317432D01*
X133434032Y-90317438D01*
X133423897Y-90348630D01*
X133335547Y-90620543D01*
X133275647Y-90934550D01*
X133255575Y-91253589D01*
X114882100Y-91253589D01*
X114882100Y-88374874D01*
X119459095Y-88374874D01*
X119464683Y-88460125D01*
X119469408Y-88532209D01*
X119472230Y-88575268D01*
X119472578Y-88576638D01*
X119507232Y-88713089D01*
X119521663Y-88769913D01*
X119605740Y-88952290D01*
X119606550Y-88953435D01*
X119606551Y-88953438D01*
X119686783Y-89066964D01*
X119721645Y-89116292D01*
X119865496Y-89256425D01*
X119866660Y-89257203D01*
X119866664Y-89257206D01*
X120031301Y-89367213D01*
X120031305Y-89367215D01*
X120032475Y-89367997D01*
X120033775Y-89368555D01*
X120033774Y-89368555D01*
X120215701Y-89446717D01*
X120215703Y-89446718D01*
X120216991Y-89447271D01*
X120412863Y-89491593D01*
X120484444Y-89494405D01*
X120612121Y-89499422D01*
X120612126Y-89499422D01*
X120613532Y-89499477D01*
X120614924Y-89499275D01*
X120614927Y-89499275D01*
X120712905Y-89485069D01*
X120812279Y-89470660D01*
X120813610Y-89470208D01*
X120813615Y-89470207D01*
X120907362Y-89438383D01*
X121002445Y-89406107D01*
X121003673Y-89405420D01*
X121003676Y-89405418D01*
X121176434Y-89308669D01*
X121176440Y-89308665D01*
X121177663Y-89307980D01*
X121332066Y-89179566D01*
X121460480Y-89025163D01*
X121461165Y-89023940D01*
X121461169Y-89023934D01*
X121557918Y-88851176D01*
X121557920Y-88851173D01*
X121558607Y-88849945D01*
X121618015Y-88674936D01*
X121622707Y-88661115D01*
X121622708Y-88661110D01*
X121623160Y-88659779D01*
X121651977Y-88461032D01*
X121653481Y-88403600D01*
X121650841Y-88374874D01*
X121999095Y-88374874D01*
X122004683Y-88460125D01*
X122009408Y-88532209D01*
X122012230Y-88575268D01*
X122012578Y-88576638D01*
X122047232Y-88713089D01*
X122061663Y-88769913D01*
X122145740Y-88952290D01*
X122146550Y-88953435D01*
X122146551Y-88953438D01*
X122226783Y-89066964D01*
X122261645Y-89116292D01*
X122405496Y-89256425D01*
X122406660Y-89257203D01*
X122406664Y-89257206D01*
X122571301Y-89367213D01*
X122571305Y-89367215D01*
X122572475Y-89367997D01*
X122573775Y-89368555D01*
X122573774Y-89368555D01*
X122755701Y-89446717D01*
X122755703Y-89446718D01*
X122756991Y-89447271D01*
X122952863Y-89491593D01*
X123024444Y-89494405D01*
X123152121Y-89499422D01*
X123152126Y-89499422D01*
X123153532Y-89499477D01*
X123154924Y-89499275D01*
X123154927Y-89499275D01*
X123252905Y-89485069D01*
X123352279Y-89470660D01*
X123353610Y-89470208D01*
X123353615Y-89470207D01*
X123447362Y-89438383D01*
X123542445Y-89406107D01*
X123543673Y-89405420D01*
X123543676Y-89405418D01*
X123716434Y-89308669D01*
X123716440Y-89308665D01*
X123717663Y-89307980D01*
X123872066Y-89179566D01*
X124000480Y-89025163D01*
X124001165Y-89023940D01*
X124001169Y-89023934D01*
X124097918Y-88851176D01*
X124097920Y-88851173D01*
X124098607Y-88849945D01*
X124158015Y-88674936D01*
X124162707Y-88661115D01*
X124162708Y-88661110D01*
X124163160Y-88659779D01*
X124191977Y-88461032D01*
X124193481Y-88403600D01*
X124190841Y-88374874D01*
X124539095Y-88374874D01*
X124544683Y-88460125D01*
X124549408Y-88532209D01*
X124552230Y-88575268D01*
X124552578Y-88576638D01*
X124587232Y-88713089D01*
X124601663Y-88769913D01*
X124685740Y-88952290D01*
X124686550Y-88953435D01*
X124686551Y-88953438D01*
X124766783Y-89066964D01*
X124801645Y-89116292D01*
X124945496Y-89256425D01*
X124946660Y-89257203D01*
X124946664Y-89257206D01*
X125111301Y-89367213D01*
X125111305Y-89367215D01*
X125112475Y-89367997D01*
X125113775Y-89368555D01*
X125113774Y-89368555D01*
X125295701Y-89446717D01*
X125295703Y-89446718D01*
X125296991Y-89447271D01*
X125492863Y-89491593D01*
X125564444Y-89494405D01*
X125692121Y-89499422D01*
X125692126Y-89499422D01*
X125693532Y-89499477D01*
X125694924Y-89499275D01*
X125694927Y-89499275D01*
X125792905Y-89485069D01*
X125892279Y-89470660D01*
X125893610Y-89470208D01*
X125893615Y-89470207D01*
X125987362Y-89438383D01*
X126082445Y-89406107D01*
X126083673Y-89405420D01*
X126083676Y-89405418D01*
X126256434Y-89308669D01*
X126256440Y-89308665D01*
X126257663Y-89307980D01*
X126412066Y-89179566D01*
X126412400Y-89179165D01*
X127690437Y-89179165D01*
X127691527Y-89181798D01*
X127715076Y-89198908D01*
X127717853Y-89200511D01*
X127890506Y-89277382D01*
X127893557Y-89278373D01*
X128078411Y-89317664D01*
X128081610Y-89318000D01*
X128270590Y-89318000D01*
X128273789Y-89317664D01*
X128458643Y-89278373D01*
X128461694Y-89277382D01*
X128634347Y-89200511D01*
X128637124Y-89198908D01*
X128659349Y-89182760D01*
X128661795Y-89178769D01*
X128661130Y-89175998D01*
X128180425Y-88695293D01*
X128176100Y-88693502D01*
X128171775Y-88695293D01*
X127692228Y-89174840D01*
X127690437Y-89179165D01*
X126412400Y-89179165D01*
X126540480Y-89025163D01*
X126541165Y-89023940D01*
X126541169Y-89023934D01*
X126637918Y-88851176D01*
X126637920Y-88851173D01*
X126638607Y-88849945D01*
X126698015Y-88674936D01*
X126702707Y-88661115D01*
X126702708Y-88661110D01*
X126703160Y-88659779D01*
X126731977Y-88461032D01*
X126733439Y-88405198D01*
X127256831Y-88405198D01*
X127276587Y-88593159D01*
X127277254Y-88596297D01*
X127335655Y-88776036D01*
X127336959Y-88778965D01*
X127398471Y-88885506D01*
X127402184Y-88888355D01*
X127404248Y-88888084D01*
X127884407Y-88407925D01*
X127886198Y-88403600D01*
X128466002Y-88403600D01*
X128467793Y-88407925D01*
X128946346Y-88886478D01*
X128950671Y-88888269D01*
X128952594Y-88887473D01*
X129015241Y-88778965D01*
X129016545Y-88776036D01*
X129074946Y-88596297D01*
X129075613Y-88593159D01*
X129095369Y-88405198D01*
X129095369Y-88402002D01*
X129091082Y-88361219D01*
X137283049Y-88361219D01*
X137285281Y-88366146D01*
X137359237Y-88431004D01*
X137360833Y-88432229D01*
X137616630Y-88603147D01*
X137618365Y-88604149D01*
X137894279Y-88740214D01*
X137896139Y-88740985D01*
X138187450Y-88839871D01*
X138189392Y-88840391D01*
X138491118Y-88900409D01*
X138493114Y-88900672D01*
X138800091Y-88920792D01*
X138802105Y-88920792D01*
X139109082Y-88900672D01*
X139111078Y-88900409D01*
X139412804Y-88840391D01*
X139414746Y-88839871D01*
X139706057Y-88740985D01*
X139707917Y-88740214D01*
X139983831Y-88604149D01*
X139985566Y-88603147D01*
X140241363Y-88432229D01*
X140242959Y-88431004D01*
X140317309Y-88365800D01*
X140319118Y-88362133D01*
X140317213Y-88357072D01*
X138805423Y-86845282D01*
X138801098Y-86843491D01*
X138796773Y-86845282D01*
X137284613Y-88357442D01*
X137283049Y-88361219D01*
X129091082Y-88361219D01*
X129075613Y-88214041D01*
X129074946Y-88210903D01*
X129016545Y-88031164D01*
X129015241Y-88028235D01*
X128953729Y-87921694D01*
X128950016Y-87918845D01*
X128947952Y-87919116D01*
X128467793Y-88399275D01*
X128466002Y-88403600D01*
X127886198Y-88403600D01*
X127884407Y-88399275D01*
X127405854Y-87920722D01*
X127401529Y-87918931D01*
X127399606Y-87919727D01*
X127336959Y-88028235D01*
X127335655Y-88031164D01*
X127277254Y-88210903D01*
X127276587Y-88214041D01*
X127256831Y-88402002D01*
X127256831Y-88405198D01*
X126733439Y-88405198D01*
X126733481Y-88403600D01*
X126715105Y-88203618D01*
X126677883Y-88071638D01*
X126660976Y-88011691D01*
X126660975Y-88011688D01*
X126660593Y-88010334D01*
X126571771Y-87830220D01*
X126451613Y-87669309D01*
X126450579Y-87668353D01*
X126407392Y-87628431D01*
X127690405Y-87628431D01*
X127691071Y-87631203D01*
X128171775Y-88111907D01*
X128176100Y-88113698D01*
X128180425Y-88111907D01*
X128659972Y-87632360D01*
X128661763Y-87628035D01*
X128660673Y-87625402D01*
X128637124Y-87608292D01*
X128634347Y-87606689D01*
X128461694Y-87529818D01*
X128458643Y-87528827D01*
X128273789Y-87489536D01*
X128270590Y-87489200D01*
X128081610Y-87489200D01*
X128078411Y-87489536D01*
X127893553Y-87528828D01*
X127890506Y-87529819D01*
X127717864Y-87606684D01*
X127715070Y-87608297D01*
X127692851Y-87624440D01*
X127690405Y-87628431D01*
X126407392Y-87628431D01*
X126305183Y-87533950D01*
X126305181Y-87533948D01*
X126304143Y-87532989D01*
X126186162Y-87458548D01*
X126135492Y-87426577D01*
X126135488Y-87426575D01*
X126134301Y-87425826D01*
X126041037Y-87388617D01*
X125949080Y-87351930D01*
X125949076Y-87351929D01*
X125947773Y-87351409D01*
X125946392Y-87351134D01*
X125946391Y-87351134D01*
X125752196Y-87312507D01*
X125752195Y-87312507D01*
X125750808Y-87312231D01*
X125749397Y-87312213D01*
X125749392Y-87312212D01*
X125551408Y-87309620D01*
X125551403Y-87309620D01*
X125550000Y-87309602D01*
X125548615Y-87309840D01*
X125353472Y-87343371D01*
X125353469Y-87343372D01*
X125352077Y-87343611D01*
X125163665Y-87413120D01*
X124991076Y-87515800D01*
X124990018Y-87516728D01*
X124990015Y-87516730D01*
X124841148Y-87647283D01*
X124840088Y-87648213D01*
X124839213Y-87649323D01*
X124806089Y-87691341D01*
X124715759Y-87805923D01*
X124622252Y-87983650D01*
X124621836Y-87984989D01*
X124621835Y-87984992D01*
X124582616Y-88111300D01*
X124562699Y-88175442D01*
X124539095Y-88374874D01*
X124190841Y-88374874D01*
X124175105Y-88203618D01*
X124137883Y-88071638D01*
X124120976Y-88011691D01*
X124120975Y-88011688D01*
X124120593Y-88010334D01*
X124031771Y-87830220D01*
X123911613Y-87669309D01*
X123910579Y-87668353D01*
X123765183Y-87533950D01*
X123765181Y-87533948D01*
X123764143Y-87532989D01*
X123646162Y-87458548D01*
X123595492Y-87426577D01*
X123595488Y-87426575D01*
X123594301Y-87425826D01*
X123501037Y-87388617D01*
X123409080Y-87351930D01*
X123409076Y-87351929D01*
X123407773Y-87351409D01*
X123406392Y-87351134D01*
X123406391Y-87351134D01*
X123212196Y-87312507D01*
X123212195Y-87312507D01*
X123210808Y-87312231D01*
X123209397Y-87312213D01*
X123209392Y-87312212D01*
X123011408Y-87309620D01*
X123011403Y-87309620D01*
X123010000Y-87309602D01*
X123008615Y-87309840D01*
X122813472Y-87343371D01*
X122813469Y-87343372D01*
X122812077Y-87343611D01*
X122623665Y-87413120D01*
X122451076Y-87515800D01*
X122450018Y-87516728D01*
X122450015Y-87516730D01*
X122301148Y-87647283D01*
X122300088Y-87648213D01*
X122299213Y-87649323D01*
X122266089Y-87691341D01*
X122175759Y-87805923D01*
X122082252Y-87983650D01*
X122081836Y-87984989D01*
X122081835Y-87984992D01*
X122042616Y-88111300D01*
X122022699Y-88175442D01*
X121999095Y-88374874D01*
X121650841Y-88374874D01*
X121635105Y-88203618D01*
X121597883Y-88071638D01*
X121580976Y-88011691D01*
X121580975Y-88011688D01*
X121580593Y-88010334D01*
X121491771Y-87830220D01*
X121371613Y-87669309D01*
X121370579Y-87668353D01*
X121225183Y-87533950D01*
X121225181Y-87533948D01*
X121224143Y-87532989D01*
X121106162Y-87458548D01*
X121055492Y-87426577D01*
X121055488Y-87426575D01*
X121054301Y-87425826D01*
X120961037Y-87388617D01*
X120869080Y-87351930D01*
X120869076Y-87351929D01*
X120867773Y-87351409D01*
X120866392Y-87351134D01*
X120866391Y-87351134D01*
X120672196Y-87312507D01*
X120672195Y-87312507D01*
X120670808Y-87312231D01*
X120669397Y-87312213D01*
X120669392Y-87312212D01*
X120471408Y-87309620D01*
X120471403Y-87309620D01*
X120470000Y-87309602D01*
X120468615Y-87309840D01*
X120273472Y-87343371D01*
X120273469Y-87343372D01*
X120272077Y-87343611D01*
X120083665Y-87413120D01*
X119911076Y-87515800D01*
X119910018Y-87516728D01*
X119910015Y-87516730D01*
X119761148Y-87647283D01*
X119760088Y-87648213D01*
X119759213Y-87649323D01*
X119726089Y-87691341D01*
X119635759Y-87805923D01*
X119542252Y-87983650D01*
X119541836Y-87984989D01*
X119541835Y-87984992D01*
X119502616Y-88111300D01*
X119482699Y-88175442D01*
X119459095Y-88374874D01*
X114882100Y-88374874D01*
X114882100Y-85834874D01*
X120729095Y-85834874D01*
X120742230Y-86035268D01*
X120742578Y-86036638D01*
X120777108Y-86172600D01*
X120791663Y-86229913D01*
X120875740Y-86412290D01*
X120876550Y-86413435D01*
X120876551Y-86413438D01*
X120990832Y-86575142D01*
X120991645Y-86576292D01*
X121135496Y-86716425D01*
X121136660Y-86717203D01*
X121136664Y-86717206D01*
X121301301Y-86827213D01*
X121301305Y-86827215D01*
X121302475Y-86827997D01*
X121303775Y-86828555D01*
X121303774Y-86828555D01*
X121485701Y-86906717D01*
X121485703Y-86906718D01*
X121486991Y-86907271D01*
X121682863Y-86951593D01*
X121754444Y-86954405D01*
X121882121Y-86959422D01*
X121882126Y-86959422D01*
X121883532Y-86959477D01*
X121884924Y-86959275D01*
X121884927Y-86959275D01*
X121982906Y-86945068D01*
X122082279Y-86930660D01*
X122083610Y-86930208D01*
X122083615Y-86930207D01*
X122177362Y-86898383D01*
X122272445Y-86866107D01*
X122273673Y-86865420D01*
X122273676Y-86865418D01*
X122446434Y-86768669D01*
X122446440Y-86768665D01*
X122447663Y-86767980D01*
X122602066Y-86639566D01*
X122730480Y-86485163D01*
X122731165Y-86483940D01*
X122731169Y-86483934D01*
X122827918Y-86311176D01*
X122827920Y-86311173D01*
X122828607Y-86309945D01*
X122870922Y-86185290D01*
X122892707Y-86121115D01*
X122892708Y-86121110D01*
X122893160Y-86119779D01*
X122918954Y-85941883D01*
X122921848Y-85921925D01*
X122921849Y-85921917D01*
X122921977Y-85921032D01*
X122923481Y-85863600D01*
X122920841Y-85834874D01*
X123269095Y-85834874D01*
X123282230Y-86035268D01*
X123282578Y-86036638D01*
X123317108Y-86172600D01*
X123331663Y-86229913D01*
X123415740Y-86412290D01*
X123416550Y-86413435D01*
X123416551Y-86413438D01*
X123530832Y-86575142D01*
X123531645Y-86576292D01*
X123675496Y-86716425D01*
X123676660Y-86717203D01*
X123676664Y-86717206D01*
X123841301Y-86827213D01*
X123841305Y-86827215D01*
X123842475Y-86827997D01*
X123843775Y-86828555D01*
X123843774Y-86828555D01*
X124025701Y-86906717D01*
X124025703Y-86906718D01*
X124026991Y-86907271D01*
X124222863Y-86951593D01*
X124294444Y-86954405D01*
X124422121Y-86959422D01*
X124422126Y-86959422D01*
X124423532Y-86959477D01*
X124424924Y-86959275D01*
X124424927Y-86959275D01*
X124522906Y-86945068D01*
X124622279Y-86930660D01*
X124623610Y-86930208D01*
X124623615Y-86930207D01*
X124717362Y-86898383D01*
X124812445Y-86866107D01*
X124813673Y-86865420D01*
X124813676Y-86865418D01*
X124986434Y-86768669D01*
X124986440Y-86768665D01*
X124987663Y-86767980D01*
X125142066Y-86639566D01*
X125270480Y-86485163D01*
X125271165Y-86483940D01*
X125271169Y-86483934D01*
X125367918Y-86311176D01*
X125367920Y-86311173D01*
X125368607Y-86309945D01*
X125410922Y-86185290D01*
X125432707Y-86121115D01*
X125432708Y-86121110D01*
X125433160Y-86119779D01*
X125458954Y-85941883D01*
X125461848Y-85921925D01*
X125461849Y-85921917D01*
X125461977Y-85921032D01*
X125463481Y-85863600D01*
X125460841Y-85834874D01*
X125809095Y-85834874D01*
X125822230Y-86035268D01*
X125822578Y-86036638D01*
X125857108Y-86172600D01*
X125871663Y-86229913D01*
X125955740Y-86412290D01*
X125956550Y-86413435D01*
X125956551Y-86413438D01*
X126070832Y-86575142D01*
X126071645Y-86576292D01*
X126215496Y-86716425D01*
X126216660Y-86717203D01*
X126216664Y-86717206D01*
X126381301Y-86827213D01*
X126381305Y-86827215D01*
X126382475Y-86827997D01*
X126383775Y-86828555D01*
X126383774Y-86828555D01*
X126565701Y-86906717D01*
X126565703Y-86906718D01*
X126566991Y-86907271D01*
X126762863Y-86951593D01*
X126834444Y-86954405D01*
X126962121Y-86959422D01*
X126962126Y-86959422D01*
X126963532Y-86959477D01*
X126964924Y-86959275D01*
X126964927Y-86959275D01*
X127062906Y-86945068D01*
X127162279Y-86930660D01*
X127163610Y-86930208D01*
X127163615Y-86930207D01*
X127257362Y-86898383D01*
X127352445Y-86866107D01*
X127353673Y-86865420D01*
X127353676Y-86865418D01*
X127526434Y-86768669D01*
X127526440Y-86768665D01*
X127527663Y-86767980D01*
X127682066Y-86639566D01*
X127682400Y-86639165D01*
X128960437Y-86639165D01*
X128961527Y-86641798D01*
X128985076Y-86658908D01*
X128987853Y-86660511D01*
X129160506Y-86737382D01*
X129163557Y-86738373D01*
X129348411Y-86777664D01*
X129351610Y-86778000D01*
X129540590Y-86778000D01*
X129543789Y-86777664D01*
X129728643Y-86738373D01*
X129731694Y-86737382D01*
X129904347Y-86660511D01*
X129907124Y-86658908D01*
X129929349Y-86642760D01*
X129931795Y-86638769D01*
X129931130Y-86635998D01*
X129849728Y-86554596D01*
X136433895Y-86554596D01*
X136454015Y-86861573D01*
X136454278Y-86863569D01*
X136514296Y-87165295D01*
X136514816Y-87167237D01*
X136613702Y-87458548D01*
X136614473Y-87460408D01*
X136750538Y-87736321D01*
X136751540Y-87738056D01*
X136922458Y-87993854D01*
X136923683Y-87995450D01*
X136988887Y-88069800D01*
X136992554Y-88071609D01*
X136997615Y-88069704D01*
X138509405Y-86557914D01*
X138511196Y-86553589D01*
X139091000Y-86553589D01*
X139092791Y-86557914D01*
X140604951Y-88070074D01*
X140608728Y-88071638D01*
X140613655Y-88069406D01*
X140678513Y-87995450D01*
X140679738Y-87993854D01*
X140850656Y-87738056D01*
X140851658Y-87736321D01*
X140941766Y-87553600D01*
X158115351Y-87553600D01*
X158115730Y-87555990D01*
X158116114Y-87558416D01*
X158116397Y-87560811D01*
X158124861Y-87668353D01*
X158132885Y-87770304D01*
X158183630Y-87981672D01*
X158184093Y-87982789D01*
X158184094Y-87982793D01*
X158237575Y-88111907D01*
X158266815Y-88182499D01*
X158267445Y-88183527D01*
X158373794Y-88357072D01*
X158380393Y-88367841D01*
X158521566Y-88533134D01*
X158686859Y-88674307D01*
X158687883Y-88674934D01*
X158687885Y-88674936D01*
X158840633Y-88768540D01*
X158872201Y-88787885D01*
X158873320Y-88788348D01*
X158873319Y-88788348D01*
X159071907Y-88870606D01*
X159071911Y-88870607D01*
X159073028Y-88871070D01*
X159284396Y-88921815D01*
X159285599Y-88921910D01*
X159285601Y-88921910D01*
X159430994Y-88933353D01*
X159433600Y-88933734D01*
X159434689Y-88934116D01*
X159440277Y-88934600D01*
X159445638Y-88934600D01*
X159448051Y-88934695D01*
X159493889Y-88938303D01*
X159496278Y-88938585D01*
X159501100Y-88939349D01*
X159528691Y-88934979D01*
X159533501Y-88934600D01*
X163468699Y-88934600D01*
X163473509Y-88934979D01*
X163501100Y-88939349D01*
X163505922Y-88938585D01*
X163508311Y-88938303D01*
X163716599Y-88921910D01*
X163716601Y-88921910D01*
X163717804Y-88921815D01*
X163929172Y-88871070D01*
X163930289Y-88870607D01*
X163930293Y-88870606D01*
X164128881Y-88788348D01*
X164128880Y-88788348D01*
X164129999Y-88787885D01*
X164161567Y-88768540D01*
X164314315Y-88674936D01*
X164314317Y-88674934D01*
X164315341Y-88674307D01*
X164480634Y-88533134D01*
X164621807Y-88367841D01*
X164628407Y-88357072D01*
X164734755Y-88183527D01*
X164735385Y-88182499D01*
X164764625Y-88111907D01*
X164818106Y-87982793D01*
X164818107Y-87982789D01*
X164818570Y-87981672D01*
X164869315Y-87770304D01*
X164877339Y-87668353D01*
X164885803Y-87560811D01*
X164886086Y-87558416D01*
X164886470Y-87555990D01*
X164886849Y-87553600D01*
X164886085Y-87548778D01*
X164885803Y-87546389D01*
X164869410Y-87338101D01*
X164869410Y-87338099D01*
X164869315Y-87336896D01*
X164818570Y-87125528D01*
X164764877Y-86995900D01*
X164735848Y-86925819D01*
X164735385Y-86924701D01*
X164699756Y-86866560D01*
X164622436Y-86740385D01*
X164622434Y-86740383D01*
X164621807Y-86739359D01*
X164480634Y-86574066D01*
X164315341Y-86432893D01*
X164283594Y-86413438D01*
X164131027Y-86319945D01*
X164129999Y-86319315D01*
X163952047Y-86245605D01*
X163930293Y-86236594D01*
X163930289Y-86236593D01*
X163929172Y-86236130D01*
X163717804Y-86185385D01*
X163716601Y-86185290D01*
X163716599Y-86185290D01*
X163571206Y-86173847D01*
X163568600Y-86173466D01*
X163567511Y-86173084D01*
X163561923Y-86172600D01*
X163556562Y-86172600D01*
X163554149Y-86172505D01*
X163508311Y-86168897D01*
X163505922Y-86168615D01*
X163501100Y-86167851D01*
X163498707Y-86168230D01*
X163473509Y-86172221D01*
X163468699Y-86172600D01*
X159533501Y-86172600D01*
X159528691Y-86172221D01*
X159503493Y-86168230D01*
X159501100Y-86167851D01*
X159496278Y-86168615D01*
X159493889Y-86168897D01*
X159285601Y-86185290D01*
X159285599Y-86185290D01*
X159284396Y-86185385D01*
X159073028Y-86236130D01*
X159071911Y-86236593D01*
X159071907Y-86236594D01*
X159050153Y-86245605D01*
X158872201Y-86319315D01*
X158871173Y-86319945D01*
X158718607Y-86413438D01*
X158686859Y-86432893D01*
X158521566Y-86574066D01*
X158380393Y-86739359D01*
X158379766Y-86740383D01*
X158379764Y-86740385D01*
X158302444Y-86866560D01*
X158266815Y-86924701D01*
X158266352Y-86925819D01*
X158237324Y-86995900D01*
X158183630Y-87125528D01*
X158132885Y-87336896D01*
X158132790Y-87338099D01*
X158132790Y-87338101D01*
X158116397Y-87546389D01*
X158116115Y-87548778D01*
X158115351Y-87553600D01*
X140941766Y-87553600D01*
X140987723Y-87460408D01*
X140988494Y-87458548D01*
X141087380Y-87167237D01*
X141087900Y-87165295D01*
X141147918Y-86863569D01*
X141148181Y-86861573D01*
X141168301Y-86554596D01*
X141168301Y-86552582D01*
X141148181Y-86245605D01*
X141147918Y-86243609D01*
X141087900Y-85941883D01*
X141087380Y-85939941D01*
X140988494Y-85648630D01*
X140987723Y-85646770D01*
X140851658Y-85370857D01*
X140850656Y-85369122D01*
X140679738Y-85113324D01*
X140678513Y-85111728D01*
X140613309Y-85037378D01*
X140609642Y-85035569D01*
X140604581Y-85037474D01*
X139092791Y-86549264D01*
X139091000Y-86553589D01*
X138511196Y-86553589D01*
X138509405Y-86549264D01*
X136997245Y-85037104D01*
X136993468Y-85035540D01*
X136988541Y-85037772D01*
X136923683Y-85111728D01*
X136922458Y-85113324D01*
X136751540Y-85369122D01*
X136750538Y-85370857D01*
X136614473Y-85646770D01*
X136613702Y-85648630D01*
X136514816Y-85939941D01*
X136514296Y-85941883D01*
X136454278Y-86243609D01*
X136454015Y-86245605D01*
X136433895Y-86552582D01*
X136433895Y-86554596D01*
X129849728Y-86554596D01*
X129450425Y-86155293D01*
X129446100Y-86153502D01*
X129441775Y-86155293D01*
X128962228Y-86634840D01*
X128960437Y-86639165D01*
X127682400Y-86639165D01*
X127810480Y-86485163D01*
X127811165Y-86483940D01*
X127811169Y-86483934D01*
X127907918Y-86311176D01*
X127907920Y-86311173D01*
X127908607Y-86309945D01*
X127950922Y-86185290D01*
X127972707Y-86121115D01*
X127972708Y-86121110D01*
X127973160Y-86119779D01*
X127998954Y-85941883D01*
X128001848Y-85921925D01*
X128001849Y-85921917D01*
X128001977Y-85921032D01*
X128003439Y-85865198D01*
X128526831Y-85865198D01*
X128546587Y-86053159D01*
X128547254Y-86056297D01*
X128605655Y-86236036D01*
X128606959Y-86238965D01*
X128668471Y-86345506D01*
X128672184Y-86348355D01*
X128674248Y-86348084D01*
X129154407Y-85867925D01*
X129156198Y-85863600D01*
X129736002Y-85863600D01*
X129737793Y-85867925D01*
X130216346Y-86346478D01*
X130220671Y-86348269D01*
X130222594Y-86347473D01*
X130285241Y-86238965D01*
X130286545Y-86236036D01*
X130344946Y-86056297D01*
X130345613Y-86053159D01*
X130365369Y-85865198D01*
X130365369Y-85862002D01*
X130345613Y-85674041D01*
X130344946Y-85670903D01*
X130286545Y-85491164D01*
X130285241Y-85488235D01*
X130223729Y-85381694D01*
X130220016Y-85378845D01*
X130217952Y-85379116D01*
X129737793Y-85859275D01*
X129736002Y-85863600D01*
X129156198Y-85863600D01*
X129154407Y-85859275D01*
X128675854Y-85380722D01*
X128671529Y-85378931D01*
X128669606Y-85379727D01*
X128606959Y-85488235D01*
X128605655Y-85491164D01*
X128547254Y-85670903D01*
X128546587Y-85674041D01*
X128526831Y-85862002D01*
X128526831Y-85865198D01*
X128003439Y-85865198D01*
X128003481Y-85863600D01*
X127985105Y-85663618D01*
X127930593Y-85470334D01*
X127841771Y-85290220D01*
X127721613Y-85129309D01*
X127702594Y-85111728D01*
X127677392Y-85088431D01*
X128960405Y-85088431D01*
X128961071Y-85091203D01*
X129441775Y-85571907D01*
X129446100Y-85573698D01*
X129450425Y-85571907D01*
X129929972Y-85092360D01*
X129931763Y-85088035D01*
X129930673Y-85085402D01*
X129907124Y-85068292D01*
X129904347Y-85066689D01*
X129731694Y-84989818D01*
X129728643Y-84988827D01*
X129543789Y-84949536D01*
X129540590Y-84949200D01*
X129351610Y-84949200D01*
X129348411Y-84949536D01*
X129163553Y-84988828D01*
X129160506Y-84989819D01*
X128987864Y-85066684D01*
X128985070Y-85068297D01*
X128962851Y-85084440D01*
X128960405Y-85088431D01*
X127677392Y-85088431D01*
X127575183Y-84993950D01*
X127575181Y-84993948D01*
X127574143Y-84992989D01*
X127439036Y-84907742D01*
X127405492Y-84886577D01*
X127405488Y-84886575D01*
X127404301Y-84885826D01*
X127311037Y-84848618D01*
X127219080Y-84811930D01*
X127219076Y-84811929D01*
X127217773Y-84811409D01*
X127216392Y-84811134D01*
X127216391Y-84811134D01*
X127022196Y-84772507D01*
X127022195Y-84772507D01*
X127020808Y-84772231D01*
X127019397Y-84772213D01*
X127019392Y-84772212D01*
X126821408Y-84769620D01*
X126821403Y-84769620D01*
X126820000Y-84769602D01*
X126818615Y-84769840D01*
X126623472Y-84803371D01*
X126623469Y-84803372D01*
X126622077Y-84803611D01*
X126433665Y-84873120D01*
X126261076Y-84975800D01*
X126260018Y-84976728D01*
X126260015Y-84976730D01*
X126111148Y-85107283D01*
X126110088Y-85108213D01*
X125985759Y-85265923D01*
X125892252Y-85443650D01*
X125891836Y-85444989D01*
X125891835Y-85444992D01*
X125867554Y-85523192D01*
X125832699Y-85635442D01*
X125809095Y-85834874D01*
X125460841Y-85834874D01*
X125445105Y-85663618D01*
X125390593Y-85470334D01*
X125301771Y-85290220D01*
X125181613Y-85129309D01*
X125162594Y-85111728D01*
X125035183Y-84993950D01*
X125035181Y-84993948D01*
X125034143Y-84992989D01*
X124899036Y-84907742D01*
X124865492Y-84886577D01*
X124865488Y-84886575D01*
X124864301Y-84885826D01*
X124771037Y-84848618D01*
X124679080Y-84811930D01*
X124679076Y-84811929D01*
X124677773Y-84811409D01*
X124676392Y-84811134D01*
X124676391Y-84811134D01*
X124482196Y-84772507D01*
X124482195Y-84772507D01*
X124480808Y-84772231D01*
X124479397Y-84772213D01*
X124479392Y-84772212D01*
X124281408Y-84769620D01*
X124281403Y-84769620D01*
X124280000Y-84769602D01*
X124278615Y-84769840D01*
X124083472Y-84803371D01*
X124083469Y-84803372D01*
X124082077Y-84803611D01*
X123893665Y-84873120D01*
X123721076Y-84975800D01*
X123720018Y-84976728D01*
X123720015Y-84976730D01*
X123571148Y-85107283D01*
X123570088Y-85108213D01*
X123445759Y-85265923D01*
X123352252Y-85443650D01*
X123351836Y-85444989D01*
X123351835Y-85444992D01*
X123327554Y-85523192D01*
X123292699Y-85635442D01*
X123269095Y-85834874D01*
X122920841Y-85834874D01*
X122905105Y-85663618D01*
X122850593Y-85470334D01*
X122761771Y-85290220D01*
X122641613Y-85129309D01*
X122622594Y-85111728D01*
X122495183Y-84993950D01*
X122495181Y-84993948D01*
X122494143Y-84992989D01*
X122359036Y-84907742D01*
X122325492Y-84886577D01*
X122325488Y-84886575D01*
X122324301Y-84885826D01*
X122231037Y-84848618D01*
X122139080Y-84811930D01*
X122139076Y-84811929D01*
X122137773Y-84811409D01*
X122136392Y-84811134D01*
X122136391Y-84811134D01*
X121942196Y-84772507D01*
X121942195Y-84772507D01*
X121940808Y-84772231D01*
X121939397Y-84772213D01*
X121939392Y-84772212D01*
X121741408Y-84769620D01*
X121741403Y-84769620D01*
X121740000Y-84769602D01*
X121738615Y-84769840D01*
X121543472Y-84803371D01*
X121543469Y-84803372D01*
X121542077Y-84803611D01*
X121353665Y-84873120D01*
X121181076Y-84975800D01*
X121180018Y-84976728D01*
X121180015Y-84976730D01*
X121031148Y-85107283D01*
X121030088Y-85108213D01*
X120905759Y-85265923D01*
X120812252Y-85443650D01*
X120811836Y-85444989D01*
X120811835Y-85444992D01*
X120787554Y-85523192D01*
X120752699Y-85635442D01*
X120729095Y-85834874D01*
X114882100Y-85834874D01*
X114882100Y-85786001D01*
X114882479Y-85781191D01*
X114886470Y-85755993D01*
X114886849Y-85753600D01*
X114886207Y-85749545D01*
X114884130Y-85736431D01*
X114883829Y-85729427D01*
X114890721Y-85633065D01*
X114898423Y-85525373D01*
X114899046Y-85521046D01*
X114947214Y-85299621D01*
X114948449Y-85295415D01*
X114958984Y-85267171D01*
X115027637Y-85083105D01*
X115029458Y-85079116D01*
X115035369Y-85068292D01*
X115138056Y-84880233D01*
X115140428Y-84876542D01*
X115276222Y-84695142D01*
X115279095Y-84691826D01*
X115439326Y-84531595D01*
X115442642Y-84528722D01*
X115624042Y-84392928D01*
X115627733Y-84390556D01*
X115826616Y-84281958D01*
X115830607Y-84280136D01*
X115866397Y-84266787D01*
X116042919Y-84200948D01*
X116047121Y-84199714D01*
X116268546Y-84151546D01*
X116272873Y-84150923D01*
X116380565Y-84143221D01*
X116476927Y-84136329D01*
X116483931Y-84136630D01*
X116498706Y-84138970D01*
X116498707Y-84138970D01*
X116501100Y-84139349D01*
X116528691Y-84134979D01*
X116533501Y-84134600D01*
X138650878Y-84134600D01*
X138672622Y-84143606D01*
G37*
%TD.AperFunction*%
%TD*%
M02*
