%TF.GenerationSoftware,KiCad,Pcbnew,(6.0.0)*%
%TF.CreationDate,2022-05-10T23:47:17-04:00*%
%TF.ProjectId,WT32SC01 wifi poe,57543332-5343-4303-9120-776966692070,rev?*%
%TF.SameCoordinates,Original*%
%TF.FileFunction,Profile,NP*%
%FSLAX46Y46*%
G04 Gerber Fmt 4.6, Leading zero omitted, Abs format (unit mm)*
G04 Created by KiCad (PCBNEW (6.0.0)) date 2022-05-10 23:47:17*
%MOMM*%
%LPD*%
G01*
G04 APERTURE LIST*
%TA.AperFunction,Profile*%
%ADD10C,0.050000*%
%TD*%
G04 APERTURE END LIST*
D10*
X159501100Y-86553600D02*
G75*
G03*
X158501100Y-87553600I-1J-999999D01*
G01*
X182501100Y-85753600D02*
G75*
G03*
X180501100Y-83753600I-1999999J1D01*
G01*
X164501100Y-87553600D02*
G75*
G03*
X163501100Y-86553600I-999999J1D01*
G01*
X163501100Y-88553600D02*
G75*
G03*
X164501100Y-87553600I1J999999D01*
G01*
X180501100Y-126253600D02*
G75*
G03*
X182501100Y-124253600I1J1999999D01*
G01*
X163501100Y-86553600D02*
X159501100Y-86553600D01*
X116501100Y-126253600D02*
X180501100Y-126253600D01*
X182501100Y-85753600D02*
X182501100Y-124253600D01*
X163501100Y-94653600D02*
X159501100Y-94653600D01*
X114501100Y-124253600D02*
G75*
G03*
X116501100Y-126253600I1999999J-1D01*
G01*
X159501100Y-94653600D02*
G75*
G03*
X158501100Y-95653600I-1J-999999D01*
G01*
X163501100Y-96653600D02*
G75*
G03*
X164501100Y-95653600I1J999999D01*
G01*
X116501100Y-83753600D02*
X180501100Y-83753600D01*
X158501100Y-95653600D02*
G75*
G03*
X159501100Y-96653600I999999J-1D01*
G01*
X114501100Y-124253600D02*
X114501100Y-85753600D01*
X159501100Y-88553600D02*
X163501100Y-88553600D01*
X159501100Y-96653600D02*
X163501100Y-96653600D01*
X164501100Y-95653600D02*
G75*
G03*
X163501100Y-94653600I-999999J1D01*
G01*
X158501100Y-87553600D02*
G75*
G03*
X159501100Y-88553600I999999J-1D01*
G01*
X116501100Y-83753600D02*
G75*
G03*
X114501100Y-85753600I-1J-1999999D01*
G01*
M02*
