%TF.GenerationSoftware,KiCad,Pcbnew,(6.0.0)*%
%TF.CreationDate,2022-05-10T23:47:17-04:00*%
%TF.ProjectId,WT32SC01 wifi poe,57543332-5343-4303-9120-776966692070,rev?*%
%TF.SameCoordinates,Original*%
%TF.FileFunction,Copper,L1,Top*%
%TF.FilePolarity,Positive*%
%FSLAX46Y46*%
G04 Gerber Fmt 4.6, Leading zero omitted, Abs format (unit mm)*
G04 Created by KiCad (PCBNEW (6.0.0)) date 2022-05-10 23:47:17*
%MOMM*%
%LPD*%
G01*
G04 APERTURE LIST*
G04 Aperture macros list*
%AMOutline5P*
0 Free polygon, 5 corners , with rotation*
0 The origin of the aperture is its center*
0 number of corners: always 5*
0 $1 to $10 corner X, Y*
0 $11 Rotation angle, in degrees counterclockwise*
0 create outline with 5 corners*
4,1,5,$1,$2,$3,$4,$5,$6,$7,$8,$9,$10,$1,$2,$11*%
%AMOutline6P*
0 Free polygon, 6 corners , with rotation*
0 The origin of the aperture is its center*
0 number of corners: always 6*
0 $1 to $12 corner X, Y*
0 $13 Rotation angle, in degrees counterclockwise*
0 create outline with 6 corners*
4,1,6,$1,$2,$3,$4,$5,$6,$7,$8,$9,$10,$11,$12,$1,$2,$13*%
%AMOutline7P*
0 Free polygon, 7 corners , with rotation*
0 The origin of the aperture is its center*
0 number of corners: always 7*
0 $1 to $14 corner X, Y*
0 $15 Rotation angle, in degrees counterclockwise*
0 create outline with 7 corners*
4,1,7,$1,$2,$3,$4,$5,$6,$7,$8,$9,$10,$11,$12,$13,$14,$1,$2,$15*%
%AMOutline8P*
0 Free polygon, 8 corners , with rotation*
0 The origin of the aperture is its center*
0 number of corners: always 8*
0 $1 to $16 corner X, Y*
0 $17 Rotation angle, in degrees counterclockwise*
0 create outline with 8 corners*
4,1,8,$1,$2,$3,$4,$5,$6,$7,$8,$9,$10,$11,$12,$13,$14,$15,$16,$1,$2,$17*%
G04 Aperture macros list end*
%TA.AperFunction,SMDPad,CuDef*%
%ADD10R,2.100000X2.400000*%
%TD*%
%TA.AperFunction,ComponentPad*%
%ADD11C,1.422400*%
%TD*%
%TA.AperFunction,ComponentPad*%
%ADD12C,2.184400*%
%TD*%
%TA.AperFunction,ComponentPad*%
%ADD13Outline8P,-0.965200X0.482600X-0.482600X0.965200X0.482600X0.965200X0.965200X0.482600X0.965200X-0.482600X0.482600X-0.965200X-0.482600X-0.965200X-0.965200X-0.482600X270.000000*%
%TD*%
%TA.AperFunction,ComponentPad*%
%ADD14Outline8P,-0.600000X0.300000X-0.300000X0.600000X0.300000X0.600000X0.600000X0.300000X0.600000X-0.300000X0.300000X-0.600000X-0.300000X-0.600000X-0.600000X-0.300000X0.000000*%
%TD*%
%TA.AperFunction,ComponentPad*%
%ADD15C,1.200000*%
%TD*%
%TA.AperFunction,SMDPad,CuDef*%
%ADD16R,1.050000X2.800000*%
%TD*%
%TA.AperFunction,SMDPad,CuDef*%
%ADD17R,10.500000X6.850000*%
%TD*%
%TA.AperFunction,SMDPad,CuDef*%
%ADD18R,1.800000X4.200000*%
%TD*%
%TA.AperFunction,SMDPad,CuDef*%
%ADD19R,0.600000X1.550000*%
%TD*%
%TA.AperFunction,SMDPad,CuDef*%
%ADD20R,1.200000X1.800000*%
%TD*%
%TA.AperFunction,ComponentPad*%
%ADD21C,4.318000*%
%TD*%
%TA.AperFunction,SMDPad,CuDef*%
%ADD22R,2.200000X5.500000*%
%TD*%
%TA.AperFunction,SMDPad,CuDef*%
%ADD23R,5.100000X3.200000*%
%TD*%
%TA.AperFunction,SMDPad,CuDef*%
%ADD24R,1.400000X2.100000*%
%TD*%
%TA.AperFunction,ViaPad*%
%ADD25C,0.756400*%
%TD*%
%TA.AperFunction,ViaPad*%
%ADD26C,1.016000*%
%TD*%
%TA.AperFunction,Conductor*%
%ADD27C,0.304800*%
%TD*%
%TA.AperFunction,Conductor*%
%ADD28C,0.609600*%
%TD*%
%TA.AperFunction,Conductor*%
%ADD29C,0.812800*%
%TD*%
%TA.AperFunction,Conductor*%
%ADD30C,1.270000*%
%TD*%
%TA.AperFunction,Conductor*%
%ADD31C,1.905000*%
%TD*%
G04 APERTURE END LIST*
D10*
%TO.P,J1,1*%
%TO.N,GND*%
X125901094Y-112953590D03*
%TO.P,J1,2*%
%TO.N,ESP_EN*%
X125901094Y-119553590D03*
%TD*%
D11*
%TO.P,U$2,1*%
%TO.N,N/C*%
X120556100Y-88403600D03*
%TO.P,U$2,2*%
X121826100Y-85863600D03*
%TO.P,U$2,3*%
X123096100Y-88403600D03*
%TO.P,U$2,4*%
%TO.N,DIYPOE*%
X124366100Y-85863600D03*
%TO.P,U$2,5*%
X125636100Y-88403600D03*
%TO.P,U$2,6*%
%TO.N,N/C*%
X126906100Y-85863600D03*
%TO.P,U$2,7*%
%TO.N,GND*%
X128176100Y-88403600D03*
%TO.P,U$2,8*%
X129446100Y-85863600D03*
D12*
%TO.P,U$2,MH1*%
%TO.N,N/C*%
X132916100Y-98253600D03*
%TO.P,U$2,MH2*%
X117086100Y-98253600D03*
%TD*%
D13*
%TO.P,JP1,1*%
%TO.N,N$1*%
X146541100Y-98253600D03*
%TO.P,JP1,2*%
%TO.N,RAW*%
X144001100Y-98253600D03*
%TO.P,JP1,3*%
%TO.N,DIYPOE*%
X141461100Y-98253600D03*
%TD*%
D14*
%TO.P,H2,1*%
%TO.N,VDD*%
X129436101Y-124633611D03*
D15*
%TO.P,H2,2*%
X129436101Y-122633611D03*
%TO.P,H2,3*%
%TO.N,VCC*%
X131436101Y-124633611D03*
%TO.P,H2,4*%
X131436101Y-122633611D03*
%TO.P,H2,5*%
%TO.N,GND*%
X133436101Y-124633611D03*
%TO.P,H2,6*%
X133436101Y-122633611D03*
%TO.P,H2,7*%
X135436101Y-124633611D03*
%TO.P,H2,8*%
X135436101Y-122633611D03*
%TO.P,H2,9*%
%TO.N,IO36*%
X137436101Y-124633611D03*
%TO.P,H2,10*%
%TO.N,IO4_IN2*%
X137436101Y-122633611D03*
%TO.P,H2,11*%
%TO.N,IO39_LIMIT*%
X139436101Y-124633611D03*
%TO.P,H2,12*%
%TO.N,IO2_IN1*%
X139436101Y-122633611D03*
%TO.P,H2,13*%
%TO.N,IO34*%
X141436101Y-124633611D03*
%TO.P,H2,14*%
%TO.N,IO15_LCD_CS*%
X141436101Y-122633611D03*
%TO.P,H2,15*%
%TO.N,IO19_I2C_SCL*%
X143436101Y-124633611D03*
%TO.P,H2,16*%
%TO.N,IO13_LCD_SDA*%
X143436101Y-122633611D03*
%TO.P,H2,17*%
%TO.N,IO18_I2C_SDA*%
X145436101Y-124633611D03*
%TO.P,H2,18*%
%TO.N,ESP_EN*%
X145436101Y-122633611D03*
%TO.P,H2,19*%
%TO.N,IO21_LCD_RS*%
X147436101Y-124633611D03*
%TO.P,H2,20*%
%TO.N,IO22_LCD_RST*%
X147436101Y-122633611D03*
%TO.P,H2,21*%
%TO.N,TXD*%
X149436101Y-124633611D03*
%TO.P,H2,22*%
%TO.N,IO23_LCD_BL*%
X149436101Y-122633611D03*
%TO.P,H2,23*%
%TO.N,IO12_IN4*%
X151436101Y-124633611D03*
%TO.P,H2,24*%
%TO.N,IO0*%
X151436101Y-122633611D03*
%TO.P,H2,25*%
%TO.N,IO14_LCD_SCL*%
X153436101Y-124633611D03*
%TO.P,H2,26*%
%TO.N,IO5_IN3*%
X153436101Y-122633611D03*
%TO.P,H2,27*%
%TO.N,IO27*%
X155436101Y-124633611D03*
%TO.P,H2,28*%
%TO.N,IO25_MOTOR_1*%
X155436101Y-122633611D03*
%TO.P,H2,29*%
%TO.N,IO32*%
X157436101Y-124633611D03*
%TO.P,H2,30*%
%TO.N,IO26_MOTOR_2*%
X157436101Y-122633611D03*
%TO.P,H2,31*%
%TO.N,IO33*%
X159436101Y-124633611D03*
%TO.P,H2,32*%
%TO.N,IO35*%
X159436101Y-122633611D03*
%TO.P,H2,33*%
%TO.N,GND*%
X161436101Y-124633611D03*
%TO.P,H2,34*%
X161436101Y-122633611D03*
%TO.P,H2,35*%
X163436101Y-124633611D03*
%TO.P,H2,36*%
X163436101Y-122633611D03*
%TO.P,H2,37*%
%TO.N,VCC*%
X165436101Y-124633611D03*
%TO.P,H2,38*%
X165436101Y-122633611D03*
%TO.P,H2,39*%
%TO.N,VDD*%
X167436101Y-124633611D03*
%TO.P,H2,40*%
X167436101Y-122633611D03*
%TD*%
D16*
%TO.P,IC2,1*%
%TO.N,RAW*%
X159601096Y-114953605D03*
%TO.P,IC2,2*%
%TO.N,N$20*%
X161301096Y-114953605D03*
%TO.P,IC2,3*%
%TO.N,GND*%
X163001096Y-114953605D03*
%TO.P,IC2,4*%
%TO.N,VDD*%
X164701096Y-114953605D03*
%TO.P,IC2,5*%
%TO.N,GND*%
X166401096Y-114953605D03*
D17*
%TO.P,IC2,6*%
X163001096Y-104603605D03*
%TD*%
D18*
%TO.P,C6,1*%
%TO.N,VDD*%
X152501092Y-110703608D03*
%TO.P,C6,2*%
%TO.N,GND*%
X152501092Y-103803608D03*
%TD*%
D19*
%TO.P,QWIIC1,1*%
%TO.N,GND*%
X151001092Y-119753609D03*
%TO.P,QWIIC1,2*%
%TO.N,VCC*%
X152001092Y-119753609D03*
%TO.P,QWIIC1,3*%
%TO.N,IO18_I2C_SDA*%
X153001092Y-119753609D03*
%TO.P,QWIIC1,4*%
%TO.N,IO19_I2C_SCL*%
X154001092Y-119753609D03*
D20*
%TO.P,QWIIC1,M1*%
%TO.N,N/C*%
X149701092Y-117228609D03*
%TO.P,QWIIC1,M2*%
X155301092Y-117228609D03*
%TD*%
D21*
%TO.P,J4,GND*%
%TO.N,GND*%
X141801098Y-91253589D03*
%TO.P,J4,GNDBREAK*%
X138801098Y-86553589D03*
%TO.P,J4,PWR*%
%TO.N,N$1*%
X135801098Y-91253589D03*
%TD*%
D22*
%TO.P,C5,1*%
%TO.N,RAW*%
X140001092Y-104703602D03*
%TO.P,C5,2*%
%TO.N,GND*%
X140001092Y-115803602D03*
%TD*%
D23*
%TO.P,L1,1*%
%TO.N,N$20*%
X175501100Y-102703600D03*
%TO.P,L1,2*%
%TO.N,VDD*%
X175501100Y-112803600D03*
%TD*%
D24*
%TO.P,D8,1*%
%TO.N,N$20*%
X161801094Y-118753611D03*
%TO.P,D8,2*%
%TO.N,GND*%
X166201094Y-118753611D03*
%TD*%
D25*
%TO.N,GND*%
X150501100Y-102253600D03*
X142501100Y-117753600D03*
X137501100Y-117753600D03*
X149501100Y-120253600D03*
X167001100Y-100253600D03*
X163001100Y-100253600D03*
X154501100Y-102253600D03*
X159001100Y-100253600D03*
%TO.N,ESP_EN*%
X129201100Y-119753600D03*
X135845000Y-120020000D03*
D26*
%TO.N,VCC*%
X152001100Y-116753600D03*
%TD*%
D27*
%TO.N,ESP_EN*%
X144172500Y-121370000D02*
X145436100Y-122633600D01*
X135870000Y-120020000D02*
X137220000Y-121370000D01*
X137220000Y-121370000D02*
X144172500Y-121370000D01*
X135845000Y-120020000D02*
X135870000Y-120020000D01*
D28*
%TO.N,GND*%
X150501100Y-120253600D02*
X149501100Y-120253600D01*
D29*
X166201100Y-118753600D02*
X166201100Y-115153600D01*
X163001100Y-114953600D02*
X163001100Y-104603600D01*
X166401100Y-108003600D02*
X163001100Y-104603600D01*
D28*
X151001100Y-119753600D02*
X150501100Y-120253600D01*
D29*
X166401100Y-114953600D02*
X166401100Y-108003600D01*
X166201100Y-115153600D02*
X166401100Y-114953600D01*
D27*
%TO.N,IO19_I2C_SCL*%
X145901100Y-123653600D02*
X146401100Y-123153600D01*
X154001100Y-120753600D02*
X153601100Y-121153600D01*
X143436100Y-124633600D02*
X144416100Y-123653600D01*
X154001100Y-119753600D02*
X154001100Y-120753600D01*
X146401100Y-121953600D02*
X147201100Y-121153600D01*
X146401100Y-123153600D02*
X146401100Y-121953600D01*
X144416100Y-123653600D02*
X145901100Y-123653600D01*
X147201100Y-121153600D02*
X153601100Y-121153600D01*
%TO.N,IO18_I2C_SDA*%
X153993100Y-121661600D02*
X154801100Y-120853600D01*
X154401100Y-118553600D02*
X153301100Y-118553600D01*
X154801100Y-118953600D02*
X154401100Y-118553600D01*
X154801100Y-120853600D02*
X154801100Y-118953600D01*
X148480500Y-122974200D02*
X148480500Y-122237775D01*
X153001100Y-118853600D02*
X153001100Y-119753600D01*
X146819525Y-123653600D02*
X145839525Y-124633600D01*
X147801100Y-123653600D02*
X148480500Y-122974200D01*
X146819525Y-123653600D02*
X147801100Y-123653600D01*
X145436100Y-124633600D02*
X145839525Y-124633600D01*
X149056675Y-121661600D02*
X153993100Y-121661600D01*
X153301100Y-118553600D02*
X153001100Y-118853600D01*
X148480500Y-122237775D02*
X149056675Y-121661600D01*
%TO.N,ESP_EN*%
X129201100Y-119753600D02*
X126101100Y-119753600D01*
X126101100Y-119753600D02*
X125901100Y-119553600D01*
D30*
%TO.N,VCC*%
X146827500Y-111580000D02*
X152001100Y-116753600D01*
X131436100Y-117818600D02*
X137674700Y-111580000D01*
D28*
X152001100Y-119753600D02*
X152001100Y-116753600D01*
D30*
X131436100Y-124633600D02*
X131436100Y-117818600D01*
X137674700Y-111580000D02*
X146827500Y-111580000D01*
%TO.N,VDD*%
X123201100Y-122653600D02*
X129416100Y-122653600D01*
X129416100Y-122653600D02*
X129436100Y-122633600D01*
X164001100Y-117753600D02*
X164001100Y-120253600D01*
X127501100Y-116253600D02*
X124001100Y-116253600D01*
X157901100Y-118153600D02*
X157901100Y-114903600D01*
X167551100Y-120753600D02*
X175501100Y-112803600D01*
X160501100Y-120753600D02*
X157901100Y-118153600D01*
X167436100Y-122633600D02*
X167436100Y-120868600D01*
X124001100Y-116253600D02*
X122501100Y-117753600D01*
X134719700Y-109035000D02*
X127501100Y-116253600D01*
X164001100Y-120253600D02*
X164501100Y-120753600D01*
X153701100Y-110703600D02*
X152501100Y-110703600D01*
X167551100Y-120753600D02*
X164501100Y-120753600D01*
X152501100Y-110703600D02*
X150832500Y-109035000D01*
X157901100Y-114903600D02*
X153701100Y-110703600D01*
X164701100Y-117053600D02*
X164001100Y-117753600D01*
X122501100Y-117753600D02*
X122501100Y-121953600D01*
X150832500Y-109035000D02*
X134719700Y-109035000D01*
X167436100Y-120868600D02*
X167551100Y-120753600D01*
X164701100Y-114953600D02*
X164701100Y-117053600D01*
X122501100Y-121953600D02*
X123201100Y-122653600D01*
X167436100Y-124633600D02*
X167436100Y-122633600D01*
X129436100Y-122633600D02*
X129436100Y-124633600D01*
X164501100Y-120753600D02*
X160501100Y-120753600D01*
D31*
%TO.N,N$1*%
X145501100Y-95253600D02*
X146541100Y-96293600D01*
X146541100Y-96293600D02*
X146541100Y-98253600D01*
X135801100Y-91253600D02*
X139801100Y-95253600D01*
X139801100Y-95253600D02*
X145501100Y-95253600D01*
D29*
%TO.N,N$20*%
X171551100Y-98753600D02*
X175501100Y-102703600D01*
X161301100Y-114953600D02*
X161301100Y-113593469D01*
X161301100Y-113593469D02*
X156001100Y-108293469D01*
X158001100Y-98753600D02*
X171551100Y-98753600D01*
X156001100Y-100753600D02*
X158001100Y-98753600D01*
X161801100Y-118753600D02*
X161301100Y-118253600D01*
X161301100Y-118253600D02*
X161301100Y-114953600D01*
X156001100Y-108293469D02*
X156001100Y-100753600D01*
D31*
%TO.N,RAW*%
X144901100Y-106453600D02*
X144001100Y-105553600D01*
X144001100Y-98253600D02*
X144001100Y-105553600D01*
D30*
X154501100Y-108053600D02*
X154501100Y-108653600D01*
X145501100Y-107503600D02*
X144901100Y-106903600D01*
X159601100Y-113753600D02*
X154501100Y-108653600D01*
X142701100Y-104703600D02*
X140001100Y-104703600D01*
X154501100Y-108053600D02*
X153951100Y-107503600D01*
X144901100Y-106903600D02*
X142701100Y-104703600D01*
X159601100Y-113753600D02*
X159601100Y-114953600D01*
D31*
X144901100Y-106453600D02*
X144901100Y-106903600D01*
D30*
X153951100Y-107503600D02*
X145501100Y-107503600D01*
D31*
%TO.N,DIYPOE*%
X124366100Y-85863600D02*
X125636100Y-88403600D01*
X125636100Y-88403600D02*
X125636100Y-89888600D01*
X127001100Y-91253600D02*
X131113406Y-91253600D01*
X138113406Y-98253600D02*
X131113406Y-91253600D01*
X138113406Y-98253600D02*
X141461100Y-98253600D01*
X125636100Y-89888600D02*
X127001100Y-91253600D01*
%TD*%
%TA.AperFunction,Conductor*%
%TO.N,GND*%
G36*
X138672622Y-84143606D02*
G01*
X138681628Y-84165350D01*
X138672622Y-84187094D01*
X138652889Y-84196034D01*
X138493114Y-84206506D01*
X138491118Y-84206769D01*
X138189392Y-84266787D01*
X138187450Y-84267307D01*
X137896139Y-84366193D01*
X137894279Y-84366964D01*
X137618366Y-84503029D01*
X137616631Y-84504031D01*
X137360833Y-84674949D01*
X137359237Y-84676174D01*
X137284887Y-84741378D01*
X137283078Y-84745045D01*
X137284983Y-84750106D01*
X138796773Y-86261896D01*
X138801098Y-86263687D01*
X138805423Y-86261896D01*
X140317583Y-84749736D01*
X140319147Y-84745959D01*
X140316915Y-84741032D01*
X140242959Y-84676174D01*
X140241363Y-84674949D01*
X139985566Y-84504031D01*
X139983831Y-84503029D01*
X139707917Y-84366964D01*
X139706057Y-84366193D01*
X139414746Y-84267307D01*
X139412804Y-84266787D01*
X139111078Y-84206769D01*
X139109082Y-84206506D01*
X138949307Y-84196034D01*
X138928199Y-84185625D01*
X138920634Y-84163339D01*
X138931043Y-84142231D01*
X138951318Y-84134600D01*
X180468699Y-84134600D01*
X180473509Y-84134979D01*
X180501100Y-84139349D01*
X180503493Y-84138970D01*
X180503494Y-84138970D01*
X180518269Y-84136630D01*
X180525273Y-84136329D01*
X180621635Y-84143221D01*
X180729327Y-84150923D01*
X180733654Y-84151546D01*
X180955079Y-84199714D01*
X180959281Y-84200948D01*
X181135803Y-84266787D01*
X181171593Y-84280136D01*
X181175584Y-84281958D01*
X181374467Y-84390556D01*
X181378158Y-84392928D01*
X181559558Y-84528722D01*
X181562874Y-84531595D01*
X181723105Y-84691826D01*
X181725978Y-84695142D01*
X181861772Y-84876542D01*
X181864144Y-84880233D01*
X181901803Y-84949200D01*
X181966832Y-85068292D01*
X181972742Y-85079116D01*
X181974563Y-85083105D01*
X182043217Y-85267171D01*
X182053751Y-85295415D01*
X182054986Y-85299621D01*
X182103154Y-85521046D01*
X182103777Y-85525373D01*
X182111479Y-85633065D01*
X182118371Y-85729427D01*
X182118070Y-85736431D01*
X182115993Y-85749545D01*
X182115351Y-85753600D01*
X182115730Y-85755993D01*
X182119721Y-85781191D01*
X182120100Y-85786001D01*
X182120100Y-124221199D01*
X182119721Y-124226009D01*
X182115351Y-124253600D01*
X182115730Y-124255993D01*
X182115730Y-124255994D01*
X182118070Y-124270769D01*
X182118371Y-124277773D01*
X182111479Y-124374135D01*
X182103777Y-124481827D01*
X182103154Y-124486154D01*
X182058445Y-124691677D01*
X182054987Y-124707575D01*
X182053752Y-124711781D01*
X182007335Y-124836230D01*
X181974564Y-124924093D01*
X181972743Y-124928082D01*
X181946831Y-124975537D01*
X181864144Y-125126967D01*
X181861772Y-125130658D01*
X181725978Y-125312058D01*
X181723105Y-125315374D01*
X181562874Y-125475605D01*
X181559558Y-125478478D01*
X181378158Y-125614272D01*
X181374467Y-125616644D01*
X181175584Y-125725242D01*
X181171595Y-125727063D01*
X180959281Y-125806252D01*
X180955079Y-125807486D01*
X180733654Y-125855654D01*
X180729327Y-125856277D01*
X180621635Y-125863979D01*
X180525273Y-125870871D01*
X180518269Y-125870570D01*
X180503494Y-125868230D01*
X180503493Y-125868230D01*
X180501100Y-125867851D01*
X180482033Y-125870871D01*
X180473509Y-125872221D01*
X180468699Y-125872600D01*
X116533501Y-125872600D01*
X116528691Y-125872221D01*
X116520168Y-125870871D01*
X116501100Y-125867851D01*
X116498707Y-125868230D01*
X116498706Y-125868230D01*
X116483931Y-125870570D01*
X116476927Y-125870871D01*
X116380565Y-125863979D01*
X116272873Y-125856277D01*
X116268546Y-125855654D01*
X116047121Y-125807486D01*
X116042919Y-125806252D01*
X115830605Y-125727063D01*
X115826616Y-125725242D01*
X115627733Y-125616644D01*
X115624042Y-125614272D01*
X115442642Y-125478478D01*
X115439326Y-125475605D01*
X115279095Y-125315374D01*
X115276222Y-125312058D01*
X115140428Y-125130658D01*
X115138056Y-125126967D01*
X115055369Y-124975537D01*
X115029457Y-124928082D01*
X115027636Y-124924093D01*
X114994865Y-124836230D01*
X114948448Y-124711781D01*
X114947213Y-124707575D01*
X114943755Y-124691677D01*
X114899046Y-124486154D01*
X114898423Y-124481827D01*
X114890721Y-124374135D01*
X114883829Y-124277773D01*
X114884130Y-124270769D01*
X114886470Y-124255994D01*
X114886470Y-124255993D01*
X114886849Y-124253600D01*
X114882479Y-124226009D01*
X114882100Y-124221199D01*
X114882100Y-117750035D01*
X121479688Y-117750035D01*
X121479829Y-117751527D01*
X121479829Y-117751530D01*
X121484464Y-117800560D01*
X121484600Y-117803454D01*
X121484600Y-121896484D01*
X121484420Y-121899805D01*
X121479738Y-121942904D01*
X121479869Y-121944399D01*
X121484483Y-121997141D01*
X121484600Y-121999821D01*
X121484600Y-122003757D01*
X121484673Y-122004499D01*
X121484673Y-122004504D01*
X121488869Y-122047295D01*
X121488899Y-122047616D01*
X121492979Y-122094255D01*
X121497112Y-122141492D01*
X121497531Y-122142936D01*
X121497532Y-122142939D01*
X121497816Y-122143916D01*
X121498889Y-122149486D01*
X121499135Y-122151994D01*
X121499569Y-122153431D01*
X121526363Y-122242180D01*
X121526454Y-122242489D01*
X121536142Y-122275833D01*
X121552728Y-122332922D01*
X121553420Y-122334256D01*
X121553422Y-122334262D01*
X121553887Y-122335158D01*
X121556022Y-122340414D01*
X121556752Y-122342832D01*
X121557461Y-122344165D01*
X121600984Y-122426022D01*
X121601133Y-122426307D01*
X121622126Y-122466806D01*
X121644466Y-122509904D01*
X121646039Y-122511874D01*
X121649156Y-122516620D01*
X121650339Y-122518844D01*
X121651294Y-122520015D01*
X121709846Y-122591806D01*
X121710049Y-122592057D01*
X121739769Y-122629286D01*
X121741868Y-122631916D01*
X121744519Y-122634567D01*
X121746594Y-122636864D01*
X121776332Y-122673326D01*
X121812893Y-122703572D01*
X121815424Y-122705666D01*
X121817567Y-122707615D01*
X122441941Y-123331989D01*
X122444162Y-123334465D01*
X122470387Y-123367083D01*
X122470390Y-123367086D01*
X122471325Y-123368249D01*
X122472469Y-123369209D01*
X122472471Y-123369211D01*
X122513027Y-123403241D01*
X122515005Y-123405053D01*
X122517792Y-123407840D01*
X122539340Y-123425540D01*
X122551576Y-123435591D01*
X122551804Y-123435779D01*
X122624033Y-123496386D01*
X122625353Y-123497111D01*
X122625352Y-123497111D01*
X122626247Y-123497604D01*
X122630939Y-123500781D01*
X122631718Y-123501421D01*
X122631724Y-123501425D01*
X122632889Y-123502382D01*
X122673482Y-123524148D01*
X122715939Y-123546914D01*
X122716194Y-123547052D01*
X122798721Y-123592421D01*
X122801116Y-123593180D01*
X122806353Y-123595393D01*
X122807243Y-123595870D01*
X122807246Y-123595871D01*
X122808573Y-123596583D01*
X122810014Y-123597023D01*
X122810015Y-123597024D01*
X122826808Y-123602158D01*
X122898584Y-123624102D01*
X122898836Y-123624180D01*
X122987306Y-123652245D01*
X122987309Y-123652246D01*
X122988735Y-123652698D01*
X122990978Y-123652950D01*
X122991241Y-123652979D01*
X122996806Y-123654131D01*
X122999209Y-123654866D01*
X123000703Y-123655018D01*
X123000704Y-123655018D01*
X123092944Y-123664388D01*
X123093263Y-123664423D01*
X123124088Y-123667880D01*
X123143884Y-123670100D01*
X123147625Y-123670100D01*
X123150731Y-123670257D01*
X123197534Y-123675011D01*
X123199026Y-123674870D01*
X123199029Y-123674870D01*
X123248051Y-123670236D01*
X123250945Y-123670100D01*
X128388850Y-123670100D01*
X128410594Y-123679106D01*
X128419600Y-123700850D01*
X128419600Y-124683757D01*
X128419673Y-124684499D01*
X128419673Y-124684504D01*
X128432282Y-124813091D01*
X128434135Y-124831994D01*
X128434567Y-124833425D01*
X128434568Y-124833430D01*
X128453290Y-124895438D01*
X128454602Y-124904326D01*
X128454602Y-124979912D01*
X128454704Y-124980792D01*
X128459069Y-125018484D01*
X128459392Y-125021274D01*
X128460214Y-125023253D01*
X128460214Y-125023254D01*
X128504812Y-125130658D01*
X128508097Y-125138570D01*
X128533602Y-125170634D01*
X128688293Y-125325325D01*
X128690377Y-125327633D01*
X128711332Y-125353326D01*
X128714168Y-125355672D01*
X128738937Y-125376163D01*
X128741080Y-125378112D01*
X128899079Y-125536111D01*
X128899782Y-125536668D01*
X128899783Y-125536669D01*
X128901258Y-125537838D01*
X128931714Y-125561972D01*
X128933696Y-125562791D01*
X129047115Y-125609655D01*
X129047118Y-125609656D01*
X129049096Y-125610473D01*
X129051229Y-125610716D01*
X129088939Y-125615013D01*
X129088947Y-125615013D01*
X129089803Y-125615111D01*
X129164539Y-125615111D01*
X129173632Y-125616486D01*
X129230715Y-125634156D01*
X129428969Y-125654993D01*
X129430464Y-125654857D01*
X129430466Y-125654857D01*
X129625993Y-125637063D01*
X129625996Y-125637062D01*
X129627495Y-125636926D01*
X129636373Y-125634313D01*
X129697368Y-125616361D01*
X129706050Y-125615110D01*
X129782402Y-125615110D01*
X129789708Y-125614264D01*
X129821635Y-125610567D01*
X129821638Y-125610566D01*
X129823764Y-125610320D01*
X129836593Y-125604993D01*
X129939079Y-125562438D01*
X129939081Y-125562437D01*
X129941060Y-125561615D01*
X129951240Y-125553518D01*
X129972444Y-125536651D01*
X129972445Y-125536650D01*
X129973124Y-125536110D01*
X130124622Y-125384612D01*
X130127098Y-125382391D01*
X130149583Y-125364313D01*
X130149586Y-125364310D01*
X130150749Y-125363375D01*
X130151796Y-125362128D01*
X130175384Y-125334016D01*
X130177196Y-125332038D01*
X130338601Y-125170633D01*
X130339856Y-125169050D01*
X130363128Y-125139681D01*
X130364462Y-125137998D01*
X130369020Y-125126967D01*
X130412145Y-125022597D01*
X130412146Y-125022594D01*
X130412963Y-125020616D01*
X130417483Y-124980944D01*
X130428893Y-124960360D01*
X130451516Y-124953873D01*
X130472100Y-124965283D01*
X130477473Y-124975537D01*
X130491752Y-125022832D01*
X130497981Y-125034547D01*
X130570663Y-125171242D01*
X130585339Y-125198844D01*
X130593906Y-125209348D01*
X130710382Y-125352162D01*
X130710386Y-125352166D01*
X130711332Y-125353326D01*
X130712490Y-125354284D01*
X130712491Y-125354285D01*
X130861020Y-125477159D01*
X130864930Y-125480394D01*
X131040285Y-125575208D01*
X131230715Y-125634156D01*
X131428969Y-125654993D01*
X131430464Y-125654857D01*
X131430466Y-125654857D01*
X131625993Y-125637063D01*
X131625996Y-125637062D01*
X131627495Y-125636926D01*
X131818730Y-125580642D01*
X131820059Y-125579947D01*
X131820062Y-125579946D01*
X131994063Y-125488980D01*
X131995391Y-125488286D01*
X132007590Y-125478478D01*
X132149583Y-125364313D01*
X132149586Y-125364310D01*
X132150749Y-125363375D01*
X132151796Y-125362128D01*
X132180835Y-125327520D01*
X133032095Y-125327520D01*
X133033037Y-125329794D01*
X133070228Y-125354132D01*
X133073278Y-125355672D01*
X133238948Y-125417284D01*
X133242263Y-125418111D01*
X133417473Y-125441489D01*
X133420886Y-125441560D01*
X133596917Y-125425540D01*
X133600262Y-125424853D01*
X133768374Y-125370230D01*
X133771480Y-125368821D01*
X133836685Y-125329952D01*
X133838497Y-125327520D01*
X135032095Y-125327520D01*
X135033037Y-125329794D01*
X135070228Y-125354132D01*
X135073278Y-125355672D01*
X135238948Y-125417284D01*
X135242263Y-125418111D01*
X135417473Y-125441489D01*
X135420886Y-125441560D01*
X135596917Y-125425540D01*
X135600262Y-125424853D01*
X135768374Y-125370230D01*
X135771480Y-125368821D01*
X135836685Y-125329952D01*
X135839483Y-125326197D01*
X135839170Y-125324049D01*
X135440426Y-124925304D01*
X135436101Y-124923513D01*
X135431776Y-124925304D01*
X135033886Y-125323195D01*
X135032095Y-125327520D01*
X133838497Y-125327520D01*
X133839483Y-125326197D01*
X133839170Y-125324049D01*
X133440426Y-124925304D01*
X133436101Y-124923513D01*
X133431776Y-124925304D01*
X133033886Y-125323195D01*
X133032095Y-125327520D01*
X132180835Y-125327520D01*
X132277921Y-125211817D01*
X132278886Y-125210667D01*
X132374921Y-125035979D01*
X132435198Y-124845965D01*
X132452600Y-124690816D01*
X132452600Y-124624037D01*
X132628066Y-124624037D01*
X132645314Y-124799953D01*
X132646024Y-124803291D01*
X132701818Y-124971013D01*
X132703253Y-124974120D01*
X132739678Y-125034264D01*
X132743452Y-125037035D01*
X132745643Y-125036700D01*
X133144408Y-124637936D01*
X133146199Y-124633611D01*
X133726003Y-124633611D01*
X133727794Y-124637936D01*
X134125899Y-125036040D01*
X134130224Y-125037831D01*
X134132547Y-125036869D01*
X134154046Y-125004511D01*
X134155612Y-125001465D01*
X134218378Y-124836230D01*
X134219228Y-124832921D01*
X134243933Y-124657141D01*
X134244082Y-124655207D01*
X134244370Y-124634576D01*
X134244275Y-124632649D01*
X134243309Y-124624037D01*
X134628066Y-124624037D01*
X134645314Y-124799953D01*
X134646024Y-124803291D01*
X134701818Y-124971013D01*
X134703253Y-124974120D01*
X134739678Y-125034264D01*
X134743452Y-125037035D01*
X134745643Y-125036700D01*
X135144408Y-124637936D01*
X135146199Y-124633611D01*
X135726003Y-124633611D01*
X135727794Y-124637936D01*
X136125899Y-125036040D01*
X136130224Y-125037831D01*
X136132547Y-125036869D01*
X136154046Y-125004511D01*
X136155612Y-125001465D01*
X136218378Y-124836230D01*
X136219228Y-124832921D01*
X136243933Y-124657141D01*
X136244082Y-124655207D01*
X136244370Y-124634576D01*
X136244275Y-124632649D01*
X136224489Y-124456249D01*
X136223732Y-124452913D01*
X136165600Y-124285983D01*
X136164125Y-124282906D01*
X136132775Y-124232736D01*
X136128963Y-124230017D01*
X136126683Y-124230398D01*
X135727794Y-124629286D01*
X135726003Y-124633611D01*
X135146199Y-124633611D01*
X135144408Y-124629286D01*
X134746703Y-124231582D01*
X134742378Y-124229791D01*
X134740151Y-124230713D01*
X134713043Y-124272776D01*
X134711526Y-124275833D01*
X134651070Y-124441936D01*
X134650267Y-124445254D01*
X134628113Y-124620623D01*
X134628066Y-124624037D01*
X134243309Y-124624037D01*
X134224489Y-124456249D01*
X134223732Y-124452913D01*
X134165600Y-124285983D01*
X134164125Y-124282906D01*
X134132775Y-124232736D01*
X134128963Y-124230017D01*
X134126683Y-124230398D01*
X133727794Y-124629286D01*
X133726003Y-124633611D01*
X133146199Y-124633611D01*
X133144408Y-124629286D01*
X132746703Y-124231582D01*
X132742378Y-124229791D01*
X132740151Y-124230713D01*
X132713043Y-124272776D01*
X132711526Y-124275833D01*
X132651070Y-124441936D01*
X132650267Y-124445254D01*
X132628113Y-124620623D01*
X132628066Y-124624037D01*
X132452600Y-124624037D01*
X132452600Y-123940869D01*
X133032605Y-123940869D01*
X133032963Y-123943104D01*
X133431776Y-124341918D01*
X133436101Y-124343709D01*
X133440426Y-124341918D01*
X133837971Y-123944372D01*
X133839422Y-123940869D01*
X135032605Y-123940869D01*
X135032963Y-123943104D01*
X135431776Y-124341918D01*
X135436101Y-124343709D01*
X135440426Y-124341918D01*
X135837971Y-123944372D01*
X135839762Y-123940047D01*
X135838859Y-123937866D01*
X135791884Y-123908056D01*
X135788806Y-123906554D01*
X135622294Y-123847262D01*
X135618968Y-123846482D01*
X135443446Y-123825552D01*
X135440040Y-123825528D01*
X135264242Y-123844005D01*
X135260905Y-123844738D01*
X135093578Y-123901702D01*
X135090491Y-123903154D01*
X135035349Y-123937078D01*
X135032605Y-123940869D01*
X133839422Y-123940869D01*
X133839762Y-123940047D01*
X133838859Y-123937866D01*
X133791884Y-123908056D01*
X133788806Y-123906554D01*
X133622294Y-123847262D01*
X133618968Y-123846482D01*
X133443446Y-123825552D01*
X133440040Y-123825528D01*
X133264242Y-123844005D01*
X133260905Y-123844738D01*
X133093578Y-123901702D01*
X133090491Y-123903154D01*
X133035349Y-123937078D01*
X133032605Y-123940869D01*
X132452600Y-123940869D01*
X132452600Y-123327520D01*
X133032095Y-123327520D01*
X133033037Y-123329794D01*
X133070228Y-123354132D01*
X133073278Y-123355672D01*
X133238948Y-123417284D01*
X133242263Y-123418111D01*
X133417473Y-123441489D01*
X133420886Y-123441560D01*
X133596917Y-123425540D01*
X133600262Y-123424853D01*
X133768374Y-123370230D01*
X133771480Y-123368821D01*
X133836685Y-123329952D01*
X133838497Y-123327520D01*
X135032095Y-123327520D01*
X135033037Y-123329794D01*
X135070228Y-123354132D01*
X135073278Y-123355672D01*
X135238948Y-123417284D01*
X135242263Y-123418111D01*
X135417473Y-123441489D01*
X135420886Y-123441560D01*
X135596917Y-123425540D01*
X135600262Y-123424853D01*
X135768374Y-123370230D01*
X135771480Y-123368821D01*
X135836685Y-123329952D01*
X135839483Y-123326197D01*
X135839170Y-123324049D01*
X135440426Y-122925304D01*
X135436101Y-122923513D01*
X135431776Y-122925304D01*
X135033886Y-123323195D01*
X135032095Y-123327520D01*
X133838497Y-123327520D01*
X133839483Y-123326197D01*
X133839170Y-123324049D01*
X133440426Y-122925304D01*
X133436101Y-122923513D01*
X133431776Y-122925304D01*
X133033886Y-123323195D01*
X133032095Y-123327520D01*
X132452600Y-123327520D01*
X132452600Y-122624037D01*
X132628066Y-122624037D01*
X132645314Y-122799953D01*
X132646024Y-122803291D01*
X132701818Y-122971013D01*
X132703253Y-122974120D01*
X132739678Y-123034264D01*
X132743452Y-123037035D01*
X132745643Y-123036700D01*
X133144408Y-122637936D01*
X133146199Y-122633611D01*
X133726003Y-122633611D01*
X133727794Y-122637936D01*
X134125899Y-123036040D01*
X134130224Y-123037831D01*
X134132547Y-123036869D01*
X134154046Y-123004511D01*
X134155612Y-123001465D01*
X134218378Y-122836230D01*
X134219228Y-122832921D01*
X134243933Y-122657141D01*
X134244082Y-122655207D01*
X134244370Y-122634576D01*
X134244275Y-122632649D01*
X134243309Y-122624037D01*
X134628066Y-122624037D01*
X134645314Y-122799953D01*
X134646024Y-122803291D01*
X134701818Y-122971013D01*
X134703253Y-122974120D01*
X134739678Y-123034264D01*
X134743452Y-123037035D01*
X134745643Y-123036700D01*
X135144408Y-122637936D01*
X135146199Y-122633611D01*
X135726003Y-122633611D01*
X135727794Y-122637936D01*
X136125899Y-123036040D01*
X136130224Y-123037831D01*
X136132547Y-123036869D01*
X136154046Y-123004511D01*
X136155612Y-123001465D01*
X136218378Y-122836230D01*
X136219228Y-122832921D01*
X136243933Y-122657141D01*
X136244082Y-122655207D01*
X136244370Y-122634576D01*
X136244275Y-122632649D01*
X136224489Y-122456249D01*
X136223732Y-122452913D01*
X136165600Y-122285983D01*
X136164125Y-122282906D01*
X136132775Y-122232736D01*
X136128963Y-122230017D01*
X136126683Y-122230398D01*
X135727794Y-122629286D01*
X135726003Y-122633611D01*
X135146199Y-122633611D01*
X135144408Y-122629286D01*
X134746703Y-122231582D01*
X134742378Y-122229791D01*
X134740151Y-122230713D01*
X134713043Y-122272776D01*
X134711526Y-122275833D01*
X134651070Y-122441936D01*
X134650267Y-122445254D01*
X134628113Y-122620623D01*
X134628066Y-122624037D01*
X134243309Y-122624037D01*
X134224489Y-122456249D01*
X134223732Y-122452913D01*
X134165600Y-122285983D01*
X134164125Y-122282906D01*
X134132775Y-122232736D01*
X134128963Y-122230017D01*
X134126683Y-122230398D01*
X133727794Y-122629286D01*
X133726003Y-122633611D01*
X133146199Y-122633611D01*
X133144408Y-122629286D01*
X132746703Y-122231582D01*
X132742378Y-122229791D01*
X132740151Y-122230713D01*
X132713043Y-122272776D01*
X132711526Y-122275833D01*
X132651070Y-122441936D01*
X132650267Y-122445254D01*
X132628113Y-122620623D01*
X132628066Y-122624037D01*
X132452600Y-122624037D01*
X132452600Y-121940869D01*
X133032605Y-121940869D01*
X133032963Y-121943104D01*
X133431776Y-122341918D01*
X133436101Y-122343709D01*
X133440426Y-122341918D01*
X133837971Y-121944372D01*
X133839422Y-121940869D01*
X135032605Y-121940869D01*
X135032963Y-121943104D01*
X135431776Y-122341918D01*
X135436101Y-122343709D01*
X135440426Y-122341918D01*
X135837971Y-121944372D01*
X135839762Y-121940047D01*
X135838859Y-121937866D01*
X135791884Y-121908056D01*
X135788806Y-121906554D01*
X135622294Y-121847262D01*
X135618968Y-121846482D01*
X135443446Y-121825552D01*
X135440040Y-121825528D01*
X135264242Y-121844005D01*
X135260905Y-121844738D01*
X135093578Y-121901702D01*
X135090491Y-121903154D01*
X135035349Y-121937078D01*
X135032605Y-121940869D01*
X133839422Y-121940869D01*
X133839762Y-121940047D01*
X133838859Y-121937866D01*
X133791884Y-121908056D01*
X133788806Y-121906554D01*
X133622294Y-121847262D01*
X133618968Y-121846482D01*
X133443446Y-121825552D01*
X133440040Y-121825528D01*
X133264242Y-121844005D01*
X133260905Y-121844738D01*
X133093578Y-121901702D01*
X133090491Y-121903154D01*
X133035349Y-121937078D01*
X133032605Y-121940869D01*
X132452600Y-121940869D01*
X132452600Y-118572103D01*
X138697892Y-118572103D01*
X138698187Y-118575100D01*
X138709091Y-118629916D01*
X138711364Y-118635404D01*
X138752910Y-118697582D01*
X138757112Y-118701784D01*
X138819290Y-118743330D01*
X138824778Y-118745603D01*
X138879594Y-118756507D01*
X138882591Y-118756802D01*
X139791775Y-118756802D01*
X139796100Y-118755010D01*
X139797892Y-118750685D01*
X140204292Y-118750685D01*
X140206084Y-118755010D01*
X140210409Y-118756802D01*
X141119593Y-118756802D01*
X141122590Y-118756507D01*
X141177406Y-118745603D01*
X141182894Y-118743330D01*
X141245072Y-118701784D01*
X141249274Y-118697582D01*
X141290820Y-118635404D01*
X141293093Y-118629916D01*
X141303997Y-118575100D01*
X141304292Y-118572103D01*
X141304292Y-116012919D01*
X141302500Y-116008594D01*
X141298175Y-116006802D01*
X140210409Y-116006802D01*
X140206084Y-116008594D01*
X140204292Y-116012919D01*
X140204292Y-118750685D01*
X139797892Y-118750685D01*
X139797892Y-116012919D01*
X139796100Y-116008594D01*
X139791775Y-116006802D01*
X138704009Y-116006802D01*
X138699684Y-116008594D01*
X138697892Y-116012919D01*
X138697892Y-118572103D01*
X132452600Y-118572103D01*
X132452600Y-118252386D01*
X132461606Y-118230642D01*
X135097963Y-115594285D01*
X138697892Y-115594285D01*
X138699684Y-115598610D01*
X138704009Y-115600402D01*
X139791775Y-115600402D01*
X139796100Y-115598610D01*
X139797892Y-115594285D01*
X140204292Y-115594285D01*
X140206084Y-115598610D01*
X140210409Y-115600402D01*
X141298175Y-115600402D01*
X141302500Y-115598610D01*
X141304292Y-115594285D01*
X141304292Y-113035101D01*
X141303997Y-113032104D01*
X141293093Y-112977288D01*
X141290820Y-112971800D01*
X141249274Y-112909622D01*
X141245072Y-112905420D01*
X141182894Y-112863874D01*
X141177406Y-112861601D01*
X141122590Y-112850697D01*
X141119593Y-112850402D01*
X140210409Y-112850402D01*
X140206084Y-112852194D01*
X140204292Y-112856519D01*
X140204292Y-115594285D01*
X139797892Y-115594285D01*
X139797892Y-112856519D01*
X139796100Y-112852194D01*
X139791775Y-112850402D01*
X138882591Y-112850402D01*
X138879594Y-112850697D01*
X138824778Y-112861601D01*
X138819290Y-112863874D01*
X138757112Y-112905420D01*
X138752910Y-112909622D01*
X138711364Y-112971800D01*
X138709091Y-112977288D01*
X138698187Y-113032104D01*
X138697892Y-113035101D01*
X138697892Y-115594285D01*
X135097963Y-115594285D01*
X138086742Y-112605506D01*
X138108486Y-112596500D01*
X146393714Y-112596500D01*
X146415458Y-112605506D01*
X149704567Y-115894615D01*
X149713573Y-115916359D01*
X149704567Y-115938103D01*
X149682823Y-115947109D01*
X149064934Y-115947109D01*
X149063822Y-115947273D01*
X149063818Y-115947273D01*
X148992316Y-115957798D01*
X148992313Y-115957799D01*
X148989948Y-115958147D01*
X148875941Y-116014122D01*
X148786212Y-116104008D01*
X148730437Y-116218112D01*
X148719592Y-116292451D01*
X148719592Y-118164767D01*
X148719756Y-118165879D01*
X148719756Y-118165883D01*
X148730187Y-118236742D01*
X148730630Y-118239753D01*
X148731684Y-118241899D01*
X148731684Y-118241900D01*
X148785485Y-118351479D01*
X148786605Y-118353760D01*
X148788402Y-118355554D01*
X148831822Y-118398898D01*
X148876491Y-118443489D01*
X148990595Y-118499264D01*
X148992958Y-118499609D01*
X148992959Y-118499609D01*
X149028680Y-118504820D01*
X149064934Y-118510109D01*
X150337250Y-118510109D01*
X150338362Y-118509945D01*
X150338366Y-118509945D01*
X150409868Y-118499420D01*
X150409871Y-118499419D01*
X150412236Y-118499071D01*
X150526243Y-118443096D01*
X150615972Y-118353210D01*
X150671747Y-118239106D01*
X150682592Y-118164767D01*
X150682592Y-116946878D01*
X150691598Y-116925134D01*
X150713342Y-116916128D01*
X150735086Y-116925134D01*
X151305794Y-117495842D01*
X151314800Y-117517586D01*
X151314800Y-118744659D01*
X151305794Y-118766403D01*
X151284050Y-118775409D01*
X151210409Y-118775409D01*
X151206084Y-118777201D01*
X151204292Y-118781526D01*
X151204292Y-119926059D01*
X151195286Y-119947803D01*
X151173542Y-119956809D01*
X150504009Y-119956809D01*
X150499684Y-119958601D01*
X150497892Y-119962926D01*
X150497892Y-120547110D01*
X150498187Y-120550108D01*
X150504720Y-120582951D01*
X150500129Y-120606034D01*
X150480560Y-120619109D01*
X150474561Y-120619700D01*
X147213749Y-120619700D01*
X147212461Y-120619673D01*
X147199005Y-120619109D01*
X147150384Y-120617071D01*
X147148346Y-120617549D01*
X147148336Y-120617550D01*
X147105099Y-120627692D01*
X147102253Y-120628220D01*
X147056174Y-120634532D01*
X147035303Y-120643564D01*
X147030111Y-120645281D01*
X147010006Y-120649996D01*
X147010004Y-120649997D01*
X147007969Y-120650474D01*
X147006133Y-120651483D01*
X147006131Y-120651484D01*
X146967205Y-120672883D01*
X146964603Y-120674158D01*
X146923849Y-120691794D01*
X146923847Y-120691795D01*
X146921925Y-120692627D01*
X146909871Y-120702388D01*
X146904250Y-120706939D01*
X146899716Y-120709986D01*
X146879782Y-120720945D01*
X146871916Y-120727735D01*
X146844724Y-120754927D01*
X146842332Y-120757080D01*
X146813852Y-120780143D01*
X146808244Y-120784684D01*
X146807033Y-120786387D01*
X146807031Y-120786390D01*
X146793229Y-120805812D01*
X146789908Y-120809743D01*
X146032512Y-121567140D01*
X146031582Y-121568031D01*
X145995271Y-121601421D01*
X145985855Y-121610079D01*
X145984750Y-121611860D01*
X145984750Y-121611861D01*
X145961346Y-121649608D01*
X145959705Y-121651996D01*
X145932852Y-121687372D01*
X145932850Y-121687375D01*
X145931585Y-121689042D01*
X145930814Y-121690988D01*
X145930810Y-121690996D01*
X145923210Y-121710191D01*
X145920755Y-121715073D01*
X145908772Y-121734401D01*
X145908378Y-121735758D01*
X145891483Y-121751792D01*
X145865838Y-121750134D01*
X145818288Y-121724424D01*
X145634414Y-121667506D01*
X145442986Y-121647386D01*
X145441491Y-121647522D01*
X145441489Y-121647522D01*
X145252798Y-121664694D01*
X145252795Y-121664695D01*
X145251296Y-121664831D01*
X145246471Y-121666251D01*
X145223069Y-121663750D01*
X145216045Y-121658496D01*
X144558960Y-121001412D01*
X144558069Y-121000482D01*
X144517440Y-120956298D01*
X144517439Y-120956298D01*
X144516021Y-120954755D01*
X144476492Y-120930246D01*
X144474104Y-120928605D01*
X144438728Y-120901752D01*
X144438725Y-120901750D01*
X144437058Y-120900485D01*
X144435112Y-120899714D01*
X144435104Y-120899710D01*
X144415909Y-120892110D01*
X144411026Y-120889655D01*
X144401131Y-120883520D01*
X144391699Y-120877672D01*
X144389690Y-120877088D01*
X144389687Y-120877087D01*
X144347042Y-120864698D01*
X144344301Y-120863760D01*
X144339156Y-120861723D01*
X144301051Y-120846636D01*
X144298974Y-120846418D01*
X144298971Y-120846417D01*
X144287177Y-120845178D01*
X144278428Y-120844258D01*
X144273071Y-120843207D01*
X144251227Y-120836861D01*
X144249622Y-120836743D01*
X144249621Y-120836743D01*
X144248385Y-120836652D01*
X144240864Y-120836100D01*
X144202421Y-120836100D01*
X144199207Y-120835932D01*
X144157657Y-120831565D01*
X144157656Y-120831565D01*
X144155572Y-120831346D01*
X144153503Y-120831696D01*
X144153502Y-120831696D01*
X144130013Y-120835669D01*
X144124885Y-120836100D01*
X137453887Y-120836100D01*
X137432143Y-120827094D01*
X136615158Y-120010109D01*
X136606344Y-119991793D01*
X136590701Y-119852337D01*
X136590509Y-119850625D01*
X136589945Y-119849005D01*
X136589944Y-119849001D01*
X136535021Y-119691286D01*
X136535020Y-119691284D01*
X136534457Y-119689667D01*
X136528462Y-119680073D01*
X136445053Y-119546590D01*
X136445051Y-119546587D01*
X136444139Y-119545128D01*
X136443309Y-119544292D01*
X150497892Y-119544292D01*
X150499684Y-119548617D01*
X150504009Y-119550409D01*
X150791775Y-119550409D01*
X150796100Y-119548617D01*
X150797892Y-119544292D01*
X150797892Y-118781526D01*
X150796100Y-118777201D01*
X150791775Y-118775409D01*
X150682591Y-118775409D01*
X150679594Y-118775704D01*
X150624778Y-118786608D01*
X150619290Y-118788881D01*
X150557112Y-118830427D01*
X150552910Y-118834629D01*
X150511364Y-118896807D01*
X150509091Y-118902295D01*
X150498187Y-118957111D01*
X150497892Y-118960108D01*
X150497892Y-119544292D01*
X136443309Y-119544292D01*
X136324043Y-119424191D01*
X136322594Y-119423272D01*
X136322591Y-119423269D01*
X136181591Y-119333788D01*
X136181590Y-119333788D01*
X136180138Y-119332866D01*
X136165628Y-119327699D01*
X136125341Y-119313353D01*
X136019576Y-119275692D01*
X135850337Y-119255512D01*
X135848634Y-119255691D01*
X135848633Y-119255691D01*
X135823408Y-119258342D01*
X135680833Y-119273327D01*
X135679209Y-119273880D01*
X135679204Y-119273881D01*
X135521116Y-119327699D01*
X135519489Y-119328253D01*
X135424581Y-119386641D01*
X135375781Y-119416662D01*
X135375778Y-119416664D01*
X135374322Y-119417560D01*
X135252550Y-119536809D01*
X135251620Y-119538252D01*
X135244940Y-119548617D01*
X135160222Y-119680073D01*
X135159636Y-119681683D01*
X135159634Y-119681687D01*
X135133460Y-119753600D01*
X135101929Y-119840232D01*
X135080568Y-120009326D01*
X135080736Y-120011037D01*
X135089899Y-120104491D01*
X135097199Y-120178950D01*
X135150998Y-120340674D01*
X135151887Y-120342143D01*
X135151889Y-120342146D01*
X135164248Y-120362553D01*
X135239289Y-120486460D01*
X135240484Y-120487698D01*
X135240486Y-120487700D01*
X135356490Y-120607826D01*
X135357685Y-120609063D01*
X135359123Y-120610004D01*
X135498864Y-120701448D01*
X135498866Y-120701449D01*
X135500301Y-120702388D01*
X135501913Y-120702988D01*
X135501914Y-120702988D01*
X135520734Y-120709987D01*
X135660049Y-120761798D01*
X135828989Y-120784339D01*
X135840848Y-120783260D01*
X135860748Y-120781449D01*
X135883219Y-120788447D01*
X135885279Y-120790328D01*
X136833540Y-121738588D01*
X136834430Y-121739517D01*
X136872805Y-121781249D01*
X136874780Y-121783397D01*
X136882868Y-121805499D01*
X136871414Y-121828175D01*
X136842080Y-121851760D01*
X136747225Y-121928025D01*
X136747222Y-121928028D01*
X136746059Y-121928963D01*
X136745099Y-121930107D01*
X136745097Y-121930109D01*
X136637684Y-122058120D01*
X136622334Y-122076413D01*
X136621609Y-122077732D01*
X136531203Y-122242180D01*
X136529605Y-122245086D01*
X136471404Y-122428558D01*
X136471236Y-122430056D01*
X136453065Y-122592057D01*
X136449948Y-122619841D01*
X136450074Y-122621342D01*
X136465233Y-122801854D01*
X136466055Y-122811648D01*
X136519110Y-122996673D01*
X136607093Y-123167870D01*
X136608027Y-123169048D01*
X136608028Y-123169050D01*
X136725721Y-123317542D01*
X136725725Y-123317546D01*
X136726653Y-123318717D01*
X136873235Y-123443469D01*
X136874541Y-123444199D01*
X136874544Y-123444201D01*
X137039943Y-123536639D01*
X137039946Y-123536640D01*
X137041257Y-123537373D01*
X137224318Y-123596853D01*
X137268807Y-123602158D01*
X137289331Y-123613676D01*
X137295700Y-123636333D01*
X137284182Y-123656857D01*
X137267953Y-123663315D01*
X137252798Y-123664694D01*
X137252795Y-123664695D01*
X137251296Y-123664831D01*
X137066646Y-123719177D01*
X136896067Y-123808353D01*
X136894902Y-123809290D01*
X136894900Y-123809291D01*
X136747225Y-123928025D01*
X136747222Y-123928028D01*
X136746059Y-123928963D01*
X136745099Y-123930107D01*
X136745097Y-123930109D01*
X136673246Y-124015738D01*
X136622334Y-124076413D01*
X136615327Y-124089158D01*
X136538014Y-124229791D01*
X136529605Y-124245086D01*
X136471404Y-124428558D01*
X136449948Y-124619841D01*
X136450074Y-124621342D01*
X136465923Y-124810071D01*
X136466055Y-124811648D01*
X136477232Y-124850627D01*
X136514050Y-124979025D01*
X136519110Y-124996673D01*
X136607093Y-125167870D01*
X136608027Y-125169048D01*
X136608028Y-125169050D01*
X136725721Y-125317542D01*
X136725725Y-125317546D01*
X136726653Y-125318717D01*
X136873235Y-125443469D01*
X136874541Y-125444199D01*
X136874544Y-125444201D01*
X137039943Y-125536639D01*
X137039946Y-125536640D01*
X137041257Y-125537373D01*
X137224318Y-125596853D01*
X137319882Y-125608248D01*
X137413959Y-125619467D01*
X137413963Y-125619467D01*
X137415447Y-125619644D01*
X137416942Y-125619529D01*
X137416945Y-125619529D01*
X137605857Y-125604993D01*
X137605860Y-125604993D01*
X137607361Y-125604877D01*
X137608809Y-125604473D01*
X137608813Y-125604472D01*
X137758094Y-125562791D01*
X137792753Y-125553114D01*
X137943120Y-125477159D01*
X137963212Y-125467010D01*
X137963213Y-125467010D01*
X137964560Y-125466329D01*
X138116238Y-125347825D01*
X138129049Y-125332984D01*
X138241030Y-125203251D01*
X138242009Y-125202117D01*
X138243869Y-125198844D01*
X138336342Y-125036061D01*
X138337084Y-125034755D01*
X138337559Y-125033328D01*
X138397368Y-124853536D01*
X138397369Y-124853532D01*
X138397841Y-124852113D01*
X138399848Y-124836230D01*
X138403152Y-124810068D01*
X138404190Y-124801854D01*
X138415851Y-124781411D01*
X138438552Y-124775200D01*
X138458995Y-124786861D01*
X138465340Y-124803134D01*
X138465923Y-124810071D01*
X138466055Y-124811648D01*
X138477232Y-124850627D01*
X138514050Y-124979025D01*
X138519110Y-124996673D01*
X138607093Y-125167870D01*
X138608027Y-125169048D01*
X138608028Y-125169050D01*
X138725721Y-125317542D01*
X138725725Y-125317546D01*
X138726653Y-125318717D01*
X138873235Y-125443469D01*
X138874541Y-125444199D01*
X138874544Y-125444201D01*
X139039943Y-125536639D01*
X139039946Y-125536640D01*
X139041257Y-125537373D01*
X139224318Y-125596853D01*
X139319882Y-125608248D01*
X139413959Y-125619467D01*
X139413963Y-125619467D01*
X139415447Y-125619644D01*
X139416942Y-125619529D01*
X139416945Y-125619529D01*
X139605857Y-125604993D01*
X139605860Y-125604993D01*
X139607361Y-125604877D01*
X139608809Y-125604473D01*
X139608813Y-125604472D01*
X139758094Y-125562791D01*
X139792753Y-125553114D01*
X139943120Y-125477159D01*
X139963212Y-125467010D01*
X139963213Y-125467010D01*
X139964560Y-125466329D01*
X140116238Y-125347825D01*
X140129049Y-125332984D01*
X140241030Y-125203251D01*
X140242009Y-125202117D01*
X140243869Y-125198844D01*
X140336342Y-125036061D01*
X140337084Y-125034755D01*
X140337559Y-125033328D01*
X140397368Y-124853536D01*
X140397369Y-124853532D01*
X140397841Y-124852113D01*
X140399848Y-124836230D01*
X140403152Y-124810068D01*
X140404190Y-124801854D01*
X140415851Y-124781411D01*
X140438552Y-124775200D01*
X140458995Y-124786861D01*
X140465340Y-124803134D01*
X140465923Y-124810071D01*
X140466055Y-124811648D01*
X140477232Y-124850627D01*
X140514050Y-124979025D01*
X140519110Y-124996673D01*
X140607093Y-125167870D01*
X140608027Y-125169048D01*
X140608028Y-125169050D01*
X140725721Y-125317542D01*
X140725725Y-125317546D01*
X140726653Y-125318717D01*
X140873235Y-125443469D01*
X140874541Y-125444199D01*
X140874544Y-125444201D01*
X141039943Y-125536639D01*
X141039946Y-125536640D01*
X141041257Y-125537373D01*
X141224318Y-125596853D01*
X141319882Y-125608248D01*
X141413959Y-125619467D01*
X141413963Y-125619467D01*
X141415447Y-125619644D01*
X141416942Y-125619529D01*
X141416945Y-125619529D01*
X141605857Y-125604993D01*
X141605860Y-125604993D01*
X141607361Y-125604877D01*
X141608809Y-125604473D01*
X141608813Y-125604472D01*
X141758094Y-125562791D01*
X141792753Y-125553114D01*
X141943120Y-125477159D01*
X141963212Y-125467010D01*
X141963213Y-125467010D01*
X141964560Y-125466329D01*
X142116238Y-125347825D01*
X142129049Y-125332984D01*
X142241030Y-125203251D01*
X142242009Y-125202117D01*
X142243869Y-125198844D01*
X142336342Y-125036061D01*
X142337084Y-125034755D01*
X142337559Y-125033328D01*
X142397368Y-124853536D01*
X142397369Y-124853532D01*
X142397841Y-124852113D01*
X142399848Y-124836230D01*
X142403152Y-124810068D01*
X142404190Y-124801854D01*
X142415851Y-124781411D01*
X142438552Y-124775200D01*
X142458995Y-124786861D01*
X142465340Y-124803134D01*
X142465923Y-124810071D01*
X142466055Y-124811648D01*
X142477232Y-124850627D01*
X142514050Y-124979025D01*
X142519110Y-124996673D01*
X142607093Y-125167870D01*
X142608027Y-125169048D01*
X142608028Y-125169050D01*
X142725721Y-125317542D01*
X142725725Y-125317546D01*
X142726653Y-125318717D01*
X142873235Y-125443469D01*
X142874541Y-125444199D01*
X142874544Y-125444201D01*
X143039943Y-125536639D01*
X143039946Y-125536640D01*
X143041257Y-125537373D01*
X143224318Y-125596853D01*
X143319882Y-125608248D01*
X143413959Y-125619467D01*
X143413963Y-125619467D01*
X143415447Y-125619644D01*
X143416942Y-125619529D01*
X143416945Y-125619529D01*
X143605857Y-125604993D01*
X143605860Y-125604993D01*
X143607361Y-125604877D01*
X143608809Y-125604473D01*
X143608813Y-125604472D01*
X143758094Y-125562791D01*
X143792753Y-125553114D01*
X143943120Y-125477159D01*
X143963212Y-125467010D01*
X143963213Y-125467010D01*
X143964560Y-125466329D01*
X144116238Y-125347825D01*
X144129049Y-125332984D01*
X144241030Y-125203251D01*
X144242009Y-125202117D01*
X144243869Y-125198844D01*
X144336342Y-125036061D01*
X144337084Y-125034755D01*
X144337559Y-125033328D01*
X144397368Y-124853536D01*
X144397369Y-124853532D01*
X144397841Y-124852113D01*
X144399848Y-124836230D01*
X144403152Y-124810068D01*
X144404190Y-124801854D01*
X144415851Y-124781411D01*
X144438552Y-124775200D01*
X144458995Y-124786861D01*
X144465340Y-124803134D01*
X144465923Y-124810071D01*
X144466055Y-124811648D01*
X144477232Y-124850627D01*
X144514050Y-124979025D01*
X144519110Y-124996673D01*
X144607093Y-125167870D01*
X144608027Y-125169048D01*
X144608028Y-125169050D01*
X144725721Y-125317542D01*
X144725725Y-125317546D01*
X144726653Y-125318717D01*
X144873235Y-125443469D01*
X144874541Y-125444199D01*
X144874544Y-125444201D01*
X145039943Y-125536639D01*
X145039946Y-125536640D01*
X145041257Y-125537373D01*
X145224318Y-125596853D01*
X145319882Y-125608248D01*
X145413959Y-125619467D01*
X145413963Y-125619467D01*
X145415447Y-125619644D01*
X145416942Y-125619529D01*
X145416945Y-125619529D01*
X145605857Y-125604993D01*
X145605860Y-125604993D01*
X145607361Y-125604877D01*
X145608809Y-125604473D01*
X145608813Y-125604472D01*
X145758094Y-125562791D01*
X145792753Y-125553114D01*
X145943120Y-125477159D01*
X145963212Y-125467010D01*
X145963213Y-125467010D01*
X145964560Y-125466329D01*
X146116238Y-125347825D01*
X146129049Y-125332984D01*
X146241030Y-125203251D01*
X146242009Y-125202117D01*
X146243869Y-125198844D01*
X146336342Y-125036061D01*
X146337084Y-125034755D01*
X146337559Y-125033328D01*
X146397368Y-124853536D01*
X146397369Y-124853532D01*
X146397841Y-124852113D01*
X146398437Y-124847399D01*
X146399671Y-124837627D01*
X146408437Y-124819736D01*
X146418106Y-124810068D01*
X146439850Y-124801063D01*
X146461593Y-124810071D01*
X146469407Y-124823336D01*
X146485123Y-124878146D01*
X146514050Y-124979025D01*
X146519110Y-124996673D01*
X146607093Y-125167870D01*
X146608027Y-125169048D01*
X146608028Y-125169050D01*
X146725721Y-125317542D01*
X146725725Y-125317546D01*
X146726653Y-125318717D01*
X146873235Y-125443469D01*
X146874541Y-125444199D01*
X146874544Y-125444201D01*
X147039943Y-125536639D01*
X147039946Y-125536640D01*
X147041257Y-125537373D01*
X147224318Y-125596853D01*
X147319882Y-125608248D01*
X147413959Y-125619467D01*
X147413963Y-125619467D01*
X147415447Y-125619644D01*
X147416942Y-125619529D01*
X147416945Y-125619529D01*
X147605857Y-125604993D01*
X147605860Y-125604993D01*
X147607361Y-125604877D01*
X147608809Y-125604473D01*
X147608813Y-125604472D01*
X147758094Y-125562791D01*
X147792753Y-125553114D01*
X147943120Y-125477159D01*
X147963212Y-125467010D01*
X147963213Y-125467010D01*
X147964560Y-125466329D01*
X148116238Y-125347825D01*
X148129049Y-125332984D01*
X148241030Y-125203251D01*
X148242009Y-125202117D01*
X148243869Y-125198844D01*
X148336342Y-125036061D01*
X148337084Y-125034755D01*
X148337559Y-125033328D01*
X148397368Y-124853536D01*
X148397369Y-124853532D01*
X148397841Y-124852113D01*
X148399848Y-124836230D01*
X148403152Y-124810068D01*
X148404190Y-124801854D01*
X148415851Y-124781411D01*
X148438552Y-124775200D01*
X148458995Y-124786861D01*
X148465340Y-124803134D01*
X148465923Y-124810071D01*
X148466055Y-124811648D01*
X148477232Y-124850627D01*
X148514050Y-124979025D01*
X148519110Y-124996673D01*
X148607093Y-125167870D01*
X148608027Y-125169048D01*
X148608028Y-125169050D01*
X148725721Y-125317542D01*
X148725725Y-125317546D01*
X148726653Y-125318717D01*
X148873235Y-125443469D01*
X148874541Y-125444199D01*
X148874544Y-125444201D01*
X149039943Y-125536639D01*
X149039946Y-125536640D01*
X149041257Y-125537373D01*
X149224318Y-125596853D01*
X149319882Y-125608248D01*
X149413959Y-125619467D01*
X149413963Y-125619467D01*
X149415447Y-125619644D01*
X149416942Y-125619529D01*
X149416945Y-125619529D01*
X149605857Y-125604993D01*
X149605860Y-125604993D01*
X149607361Y-125604877D01*
X149608809Y-125604473D01*
X149608813Y-125604472D01*
X149758094Y-125562791D01*
X149792753Y-125553114D01*
X149943120Y-125477159D01*
X149963212Y-125467010D01*
X149963213Y-125467010D01*
X149964560Y-125466329D01*
X150116238Y-125347825D01*
X150129049Y-125332984D01*
X150241030Y-125203251D01*
X150242009Y-125202117D01*
X150243869Y-125198844D01*
X150336342Y-125036061D01*
X150337084Y-125034755D01*
X150337559Y-125033328D01*
X150397368Y-124853536D01*
X150397369Y-124853532D01*
X150397841Y-124852113D01*
X150399848Y-124836230D01*
X150403152Y-124810068D01*
X150404190Y-124801854D01*
X150415851Y-124781411D01*
X150438552Y-124775200D01*
X150458995Y-124786861D01*
X150465340Y-124803134D01*
X150465923Y-124810071D01*
X150466055Y-124811648D01*
X150477232Y-124850627D01*
X150514050Y-124979025D01*
X150519110Y-124996673D01*
X150607093Y-125167870D01*
X150608027Y-125169048D01*
X150608028Y-125169050D01*
X150725721Y-125317542D01*
X150725725Y-125317546D01*
X150726653Y-125318717D01*
X150873235Y-125443469D01*
X150874541Y-125444199D01*
X150874544Y-125444201D01*
X151039943Y-125536639D01*
X151039946Y-125536640D01*
X151041257Y-125537373D01*
X151224318Y-125596853D01*
X151319882Y-125608248D01*
X151413959Y-125619467D01*
X151413963Y-125619467D01*
X151415447Y-125619644D01*
X151416942Y-125619529D01*
X151416945Y-125619529D01*
X151605857Y-125604993D01*
X151605860Y-125604993D01*
X151607361Y-125604877D01*
X151608809Y-125604473D01*
X151608813Y-125604472D01*
X151758094Y-125562791D01*
X151792753Y-125553114D01*
X151943120Y-125477159D01*
X151963212Y-125467010D01*
X151963213Y-125467010D01*
X151964560Y-125466329D01*
X152116238Y-125347825D01*
X152129049Y-125332984D01*
X152241030Y-125203251D01*
X152242009Y-125202117D01*
X152243869Y-125198844D01*
X152336342Y-125036061D01*
X152337084Y-125034755D01*
X152337559Y-125033328D01*
X152397368Y-124853536D01*
X152397369Y-124853532D01*
X152397841Y-124852113D01*
X152399848Y-124836230D01*
X152403152Y-124810068D01*
X152404190Y-124801854D01*
X152415851Y-124781411D01*
X152438552Y-124775200D01*
X152458995Y-124786861D01*
X152465340Y-124803134D01*
X152465923Y-124810071D01*
X152466055Y-124811648D01*
X152477232Y-124850627D01*
X152514050Y-124979025D01*
X152519110Y-124996673D01*
X152607093Y-125167870D01*
X152608027Y-125169048D01*
X152608028Y-125169050D01*
X152725721Y-125317542D01*
X152725725Y-125317546D01*
X152726653Y-125318717D01*
X152873235Y-125443469D01*
X152874541Y-125444199D01*
X152874544Y-125444201D01*
X153039943Y-125536639D01*
X153039946Y-125536640D01*
X153041257Y-125537373D01*
X153224318Y-125596853D01*
X153319882Y-125608248D01*
X153413959Y-125619467D01*
X153413963Y-125619467D01*
X153415447Y-125619644D01*
X153416942Y-125619529D01*
X153416945Y-125619529D01*
X153605857Y-125604993D01*
X153605860Y-125604993D01*
X153607361Y-125604877D01*
X153608809Y-125604473D01*
X153608813Y-125604472D01*
X153758094Y-125562791D01*
X153792753Y-125553114D01*
X153943120Y-125477159D01*
X153963212Y-125467010D01*
X153963213Y-125467010D01*
X153964560Y-125466329D01*
X154116238Y-125347825D01*
X154129049Y-125332984D01*
X154241030Y-125203251D01*
X154242009Y-125202117D01*
X154243869Y-125198844D01*
X154336342Y-125036061D01*
X154337084Y-125034755D01*
X154337559Y-125033328D01*
X154397368Y-124853536D01*
X154397369Y-124853532D01*
X154397841Y-124852113D01*
X154399848Y-124836230D01*
X154403152Y-124810068D01*
X154404190Y-124801854D01*
X154415851Y-124781411D01*
X154438552Y-124775200D01*
X154458995Y-124786861D01*
X154465340Y-124803134D01*
X154465923Y-124810071D01*
X154466055Y-124811648D01*
X154477232Y-124850627D01*
X154514050Y-124979025D01*
X154519110Y-124996673D01*
X154607093Y-125167870D01*
X154608027Y-125169048D01*
X154608028Y-125169050D01*
X154725721Y-125317542D01*
X154725725Y-125317546D01*
X154726653Y-125318717D01*
X154873235Y-125443469D01*
X154874541Y-125444199D01*
X154874544Y-125444201D01*
X155039943Y-125536639D01*
X155039946Y-125536640D01*
X155041257Y-125537373D01*
X155224318Y-125596853D01*
X155319882Y-125608248D01*
X155413959Y-125619467D01*
X155413963Y-125619467D01*
X155415447Y-125619644D01*
X155416942Y-125619529D01*
X155416945Y-125619529D01*
X155605857Y-125604993D01*
X155605860Y-125604993D01*
X155607361Y-125604877D01*
X155608809Y-125604473D01*
X155608813Y-125604472D01*
X155758094Y-125562791D01*
X155792753Y-125553114D01*
X155943120Y-125477159D01*
X155963212Y-125467010D01*
X155963213Y-125467010D01*
X155964560Y-125466329D01*
X156116238Y-125347825D01*
X156129049Y-125332984D01*
X156241030Y-125203251D01*
X156242009Y-125202117D01*
X156243869Y-125198844D01*
X156336342Y-125036061D01*
X156337084Y-125034755D01*
X156337559Y-125033328D01*
X156397368Y-124853536D01*
X156397369Y-124853532D01*
X156397841Y-124852113D01*
X156399848Y-124836230D01*
X156403152Y-124810068D01*
X156404190Y-124801854D01*
X156415851Y-124781411D01*
X156438552Y-124775200D01*
X156458995Y-124786861D01*
X156465340Y-124803134D01*
X156465923Y-124810071D01*
X156466055Y-124811648D01*
X156477232Y-124850627D01*
X156514050Y-124979025D01*
X156519110Y-124996673D01*
X156607093Y-125167870D01*
X156608027Y-125169048D01*
X156608028Y-125169050D01*
X156725721Y-125317542D01*
X156725725Y-125317546D01*
X156726653Y-125318717D01*
X156873235Y-125443469D01*
X156874541Y-125444199D01*
X156874544Y-125444201D01*
X157039943Y-125536639D01*
X157039946Y-125536640D01*
X157041257Y-125537373D01*
X157224318Y-125596853D01*
X157319882Y-125608248D01*
X157413959Y-125619467D01*
X157413963Y-125619467D01*
X157415447Y-125619644D01*
X157416942Y-125619529D01*
X157416945Y-125619529D01*
X157605857Y-125604993D01*
X157605860Y-125604993D01*
X157607361Y-125604877D01*
X157608809Y-125604473D01*
X157608813Y-125604472D01*
X157758094Y-125562791D01*
X157792753Y-125553114D01*
X157943120Y-125477159D01*
X157963212Y-125467010D01*
X157963213Y-125467010D01*
X157964560Y-125466329D01*
X158116238Y-125347825D01*
X158129049Y-125332984D01*
X158241030Y-125203251D01*
X158242009Y-125202117D01*
X158243869Y-125198844D01*
X158336342Y-125036061D01*
X158337084Y-125034755D01*
X158337559Y-125033328D01*
X158397368Y-124853536D01*
X158397369Y-124853532D01*
X158397841Y-124852113D01*
X158399848Y-124836230D01*
X158403152Y-124810068D01*
X158404190Y-124801854D01*
X158415851Y-124781411D01*
X158438552Y-124775200D01*
X158458995Y-124786861D01*
X158465340Y-124803134D01*
X158465923Y-124810071D01*
X158466055Y-124811648D01*
X158477232Y-124850627D01*
X158514050Y-124979025D01*
X158519110Y-124996673D01*
X158607093Y-125167870D01*
X158608027Y-125169048D01*
X158608028Y-125169050D01*
X158725721Y-125317542D01*
X158725725Y-125317546D01*
X158726653Y-125318717D01*
X158873235Y-125443469D01*
X158874541Y-125444199D01*
X158874544Y-125444201D01*
X159039943Y-125536639D01*
X159039946Y-125536640D01*
X159041257Y-125537373D01*
X159224318Y-125596853D01*
X159319882Y-125608248D01*
X159413959Y-125619467D01*
X159413963Y-125619467D01*
X159415447Y-125619644D01*
X159416942Y-125619529D01*
X159416945Y-125619529D01*
X159605857Y-125604993D01*
X159605860Y-125604993D01*
X159607361Y-125604877D01*
X159608809Y-125604473D01*
X159608813Y-125604472D01*
X159758094Y-125562791D01*
X159792753Y-125553114D01*
X159943120Y-125477159D01*
X159963212Y-125467010D01*
X159963213Y-125467010D01*
X159964560Y-125466329D01*
X160116238Y-125347825D01*
X160129049Y-125332984D01*
X160133765Y-125327520D01*
X161032095Y-125327520D01*
X161033037Y-125329794D01*
X161070228Y-125354132D01*
X161073278Y-125355672D01*
X161238948Y-125417284D01*
X161242263Y-125418111D01*
X161417473Y-125441489D01*
X161420886Y-125441560D01*
X161596917Y-125425540D01*
X161600262Y-125424853D01*
X161768374Y-125370230D01*
X161771480Y-125368821D01*
X161836685Y-125329952D01*
X161838497Y-125327520D01*
X163032095Y-125327520D01*
X163033037Y-125329794D01*
X163070228Y-125354132D01*
X163073278Y-125355672D01*
X163238948Y-125417284D01*
X163242263Y-125418111D01*
X163417473Y-125441489D01*
X163420886Y-125441560D01*
X163596917Y-125425540D01*
X163600262Y-125424853D01*
X163768374Y-125370230D01*
X163771480Y-125368821D01*
X163836685Y-125329952D01*
X163839483Y-125326197D01*
X163839170Y-125324049D01*
X163440426Y-124925304D01*
X163436101Y-124923513D01*
X163431776Y-124925304D01*
X163033886Y-125323195D01*
X163032095Y-125327520D01*
X161838497Y-125327520D01*
X161839483Y-125326197D01*
X161839170Y-125324049D01*
X161440426Y-124925304D01*
X161436101Y-124923513D01*
X161431776Y-124925304D01*
X161033886Y-125323195D01*
X161032095Y-125327520D01*
X160133765Y-125327520D01*
X160241030Y-125203251D01*
X160242009Y-125202117D01*
X160243869Y-125198844D01*
X160336342Y-125036061D01*
X160337084Y-125034755D01*
X160337559Y-125033328D01*
X160397368Y-124853536D01*
X160397369Y-124853532D01*
X160397841Y-124852113D01*
X160399848Y-124836230D01*
X160421859Y-124661988D01*
X160421965Y-124661149D01*
X160422350Y-124633611D01*
X160421411Y-124624037D01*
X160628066Y-124624037D01*
X160645314Y-124799953D01*
X160646024Y-124803291D01*
X160701818Y-124971013D01*
X160703253Y-124974120D01*
X160739678Y-125034264D01*
X160743452Y-125037035D01*
X160745643Y-125036700D01*
X161144408Y-124637936D01*
X161146199Y-124633611D01*
X161726003Y-124633611D01*
X161727794Y-124637936D01*
X162125899Y-125036040D01*
X162130224Y-125037831D01*
X162132547Y-125036869D01*
X162154046Y-125004511D01*
X162155612Y-125001465D01*
X162218378Y-124836230D01*
X162219228Y-124832921D01*
X162243933Y-124657141D01*
X162244082Y-124655207D01*
X162244370Y-124634576D01*
X162244275Y-124632649D01*
X162243309Y-124624037D01*
X162628066Y-124624037D01*
X162645314Y-124799953D01*
X162646024Y-124803291D01*
X162701818Y-124971013D01*
X162703253Y-124974120D01*
X162739678Y-125034264D01*
X162743452Y-125037035D01*
X162745643Y-125036700D01*
X163144408Y-124637936D01*
X163146199Y-124633611D01*
X163726003Y-124633611D01*
X163727794Y-124637936D01*
X164125899Y-125036040D01*
X164130224Y-125037831D01*
X164132547Y-125036869D01*
X164154046Y-125004511D01*
X164155612Y-125001465D01*
X164218378Y-124836230D01*
X164219228Y-124832921D01*
X164243933Y-124657141D01*
X164244082Y-124655207D01*
X164244370Y-124634576D01*
X164244275Y-124632649D01*
X164224489Y-124456249D01*
X164223732Y-124452913D01*
X164165600Y-124285983D01*
X164164125Y-124282906D01*
X164132775Y-124232736D01*
X164128963Y-124230017D01*
X164126683Y-124230398D01*
X163727794Y-124629286D01*
X163726003Y-124633611D01*
X163146199Y-124633611D01*
X163144408Y-124629286D01*
X162746703Y-124231582D01*
X162742378Y-124229791D01*
X162740151Y-124230713D01*
X162713043Y-124272776D01*
X162711526Y-124275833D01*
X162651070Y-124441936D01*
X162650267Y-124445254D01*
X162628113Y-124620623D01*
X162628066Y-124624037D01*
X162243309Y-124624037D01*
X162224489Y-124456249D01*
X162223732Y-124452913D01*
X162165600Y-124285983D01*
X162164125Y-124282906D01*
X162132775Y-124232736D01*
X162128963Y-124230017D01*
X162126683Y-124230398D01*
X161727794Y-124629286D01*
X161726003Y-124633611D01*
X161146199Y-124633611D01*
X161144408Y-124629286D01*
X160746703Y-124231582D01*
X160742378Y-124229791D01*
X160740151Y-124230713D01*
X160713043Y-124272776D01*
X160711526Y-124275833D01*
X160651070Y-124441936D01*
X160650267Y-124445254D01*
X160628113Y-124620623D01*
X160628066Y-124624037D01*
X160421411Y-124624037D01*
X160419600Y-124605564D01*
X160403714Y-124443544D01*
X160403713Y-124443541D01*
X160403567Y-124442048D01*
X160403135Y-124440617D01*
X160403134Y-124440612D01*
X160356728Y-124286910D01*
X160347934Y-124257781D01*
X160257569Y-124087829D01*
X160137711Y-123940869D01*
X161032605Y-123940869D01*
X161032963Y-123943104D01*
X161431776Y-124341918D01*
X161436101Y-124343709D01*
X161440426Y-124341918D01*
X161837971Y-123944372D01*
X161839422Y-123940869D01*
X163032605Y-123940869D01*
X163032963Y-123943104D01*
X163431776Y-124341918D01*
X163436101Y-124343709D01*
X163440426Y-124341918D01*
X163837971Y-123944372D01*
X163839762Y-123940047D01*
X163838859Y-123937866D01*
X163791884Y-123908056D01*
X163788806Y-123906554D01*
X163622294Y-123847262D01*
X163618968Y-123846482D01*
X163443446Y-123825552D01*
X163440040Y-123825528D01*
X163264242Y-123844005D01*
X163260905Y-123844738D01*
X163093578Y-123901702D01*
X163090491Y-123903154D01*
X163035349Y-123937078D01*
X163032605Y-123940869D01*
X161839422Y-123940869D01*
X161839762Y-123940047D01*
X161838859Y-123937866D01*
X161791884Y-123908056D01*
X161788806Y-123906554D01*
X161622294Y-123847262D01*
X161618968Y-123846482D01*
X161443446Y-123825552D01*
X161440040Y-123825528D01*
X161264242Y-123844005D01*
X161260905Y-123844738D01*
X161093578Y-123901702D01*
X161090491Y-123903154D01*
X161035349Y-123937078D01*
X161032605Y-123940869D01*
X160137711Y-123940869D01*
X160135914Y-123938666D01*
X159987604Y-123815974D01*
X159986284Y-123815260D01*
X159819611Y-123725139D01*
X159819608Y-123725138D01*
X159818288Y-123724424D01*
X159816856Y-123723981D01*
X159816852Y-123723979D01*
X159658168Y-123674859D01*
X159634414Y-123667506D01*
X159611997Y-123665150D01*
X159591314Y-123653920D01*
X159584629Y-123631354D01*
X159595859Y-123610671D01*
X159607497Y-123605365D01*
X159607361Y-123604877D01*
X159646160Y-123594044D01*
X159792753Y-123553114D01*
X159964560Y-123466329D01*
X160116238Y-123347825D01*
X160131666Y-123329952D01*
X160133765Y-123327520D01*
X161032095Y-123327520D01*
X161033037Y-123329794D01*
X161070228Y-123354132D01*
X161073278Y-123355672D01*
X161238948Y-123417284D01*
X161242263Y-123418111D01*
X161417473Y-123441489D01*
X161420886Y-123441560D01*
X161596917Y-123425540D01*
X161600262Y-123424853D01*
X161768374Y-123370230D01*
X161771480Y-123368821D01*
X161836685Y-123329952D01*
X161838497Y-123327520D01*
X163032095Y-123327520D01*
X163033037Y-123329794D01*
X163070228Y-123354132D01*
X163073278Y-123355672D01*
X163238948Y-123417284D01*
X163242263Y-123418111D01*
X163417473Y-123441489D01*
X163420886Y-123441560D01*
X163596917Y-123425540D01*
X163600262Y-123424853D01*
X163768374Y-123370230D01*
X163771480Y-123368821D01*
X163836685Y-123329952D01*
X163839483Y-123326197D01*
X163839170Y-123324049D01*
X163440426Y-122925304D01*
X163436101Y-122923513D01*
X163431776Y-122925304D01*
X163033886Y-123323195D01*
X163032095Y-123327520D01*
X161838497Y-123327520D01*
X161839483Y-123326197D01*
X161839170Y-123324049D01*
X161440426Y-122925304D01*
X161436101Y-122923513D01*
X161431776Y-122925304D01*
X161033886Y-123323195D01*
X161032095Y-123327520D01*
X160133765Y-123327520D01*
X160241030Y-123203251D01*
X160242009Y-123202117D01*
X160288829Y-123119700D01*
X160336342Y-123036061D01*
X160337084Y-123034755D01*
X160348158Y-123001465D01*
X160397368Y-122853536D01*
X160397369Y-122853532D01*
X160397841Y-122852113D01*
X160399848Y-122836230D01*
X160421859Y-122661988D01*
X160421965Y-122661149D01*
X160422350Y-122633611D01*
X160421411Y-122624037D01*
X160628066Y-122624037D01*
X160645314Y-122799953D01*
X160646024Y-122803291D01*
X160701818Y-122971013D01*
X160703253Y-122974120D01*
X160739678Y-123034264D01*
X160743452Y-123037035D01*
X160745643Y-123036700D01*
X161144408Y-122637936D01*
X161146199Y-122633611D01*
X161726003Y-122633611D01*
X161727794Y-122637936D01*
X162125899Y-123036040D01*
X162130224Y-123037831D01*
X162132547Y-123036869D01*
X162154046Y-123004511D01*
X162155612Y-123001465D01*
X162218378Y-122836230D01*
X162219228Y-122832921D01*
X162243933Y-122657141D01*
X162244082Y-122655207D01*
X162244370Y-122634576D01*
X162244275Y-122632649D01*
X162243309Y-122624037D01*
X162628066Y-122624037D01*
X162645314Y-122799953D01*
X162646024Y-122803291D01*
X162701818Y-122971013D01*
X162703253Y-122974120D01*
X162739678Y-123034264D01*
X162743452Y-123037035D01*
X162745643Y-123036700D01*
X163144408Y-122637936D01*
X163146199Y-122633611D01*
X163726003Y-122633611D01*
X163727794Y-122637936D01*
X164125899Y-123036040D01*
X164130224Y-123037831D01*
X164132547Y-123036869D01*
X164154046Y-123004511D01*
X164155612Y-123001465D01*
X164218378Y-122836230D01*
X164219228Y-122832921D01*
X164243933Y-122657141D01*
X164244082Y-122655207D01*
X164244370Y-122634576D01*
X164244275Y-122632649D01*
X164224489Y-122456249D01*
X164223732Y-122452913D01*
X164165600Y-122285983D01*
X164164125Y-122282906D01*
X164132775Y-122232736D01*
X164128963Y-122230017D01*
X164126683Y-122230398D01*
X163727794Y-122629286D01*
X163726003Y-122633611D01*
X163146199Y-122633611D01*
X163144408Y-122629286D01*
X162746703Y-122231582D01*
X162742378Y-122229791D01*
X162740151Y-122230713D01*
X162713043Y-122272776D01*
X162711526Y-122275833D01*
X162651070Y-122441936D01*
X162650267Y-122445254D01*
X162628113Y-122620623D01*
X162628066Y-122624037D01*
X162243309Y-122624037D01*
X162224489Y-122456249D01*
X162223732Y-122452913D01*
X162165600Y-122285983D01*
X162164125Y-122282906D01*
X162132775Y-122232736D01*
X162128963Y-122230017D01*
X162126683Y-122230398D01*
X161727794Y-122629286D01*
X161726003Y-122633611D01*
X161146199Y-122633611D01*
X161144408Y-122629286D01*
X160746703Y-122231582D01*
X160742378Y-122229791D01*
X160740151Y-122230713D01*
X160713043Y-122272776D01*
X160711526Y-122275833D01*
X160651070Y-122441936D01*
X160650267Y-122445254D01*
X160628113Y-122620623D01*
X160628066Y-122624037D01*
X160421411Y-122624037D01*
X160410413Y-122511870D01*
X160403714Y-122443544D01*
X160403713Y-122443541D01*
X160403567Y-122442048D01*
X160403135Y-122440617D01*
X160403134Y-122440612D01*
X160356728Y-122286910D01*
X160347934Y-122257781D01*
X160287391Y-122143916D01*
X160258276Y-122089158D01*
X160258274Y-122089155D01*
X160257569Y-122087829D01*
X160135914Y-121938666D01*
X159987604Y-121815974D01*
X159986284Y-121815260D01*
X159819611Y-121725139D01*
X159819608Y-121725138D01*
X159818288Y-121724424D01*
X159816854Y-121723980D01*
X159816852Y-121723979D01*
X159647013Y-121671406D01*
X159634414Y-121667506D01*
X159442986Y-121647386D01*
X159441491Y-121647522D01*
X159441489Y-121647522D01*
X159252798Y-121664694D01*
X159252795Y-121664695D01*
X159251296Y-121664831D01*
X159066646Y-121719177D01*
X158896067Y-121808353D01*
X158894902Y-121809290D01*
X158894900Y-121809291D01*
X158747225Y-121928025D01*
X158747222Y-121928028D01*
X158746059Y-121928963D01*
X158745099Y-121930107D01*
X158745097Y-121930109D01*
X158637684Y-122058120D01*
X158622334Y-122076413D01*
X158621609Y-122077732D01*
X158531203Y-122242180D01*
X158529605Y-122245086D01*
X158471404Y-122428558D01*
X158469904Y-122441936D01*
X158467114Y-122466806D01*
X158455740Y-122487410D01*
X158433128Y-122493936D01*
X158412524Y-122482562D01*
X158405953Y-122466379D01*
X158403714Y-122443544D01*
X158403713Y-122443541D01*
X158403567Y-122442048D01*
X158403135Y-122440617D01*
X158403134Y-122440612D01*
X158356728Y-122286910D01*
X158347934Y-122257781D01*
X158287391Y-122143916D01*
X158258276Y-122089158D01*
X158258274Y-122089155D01*
X158257569Y-122087829D01*
X158135914Y-121938666D01*
X157987604Y-121815974D01*
X157986284Y-121815260D01*
X157819611Y-121725139D01*
X157819608Y-121725138D01*
X157818288Y-121724424D01*
X157816854Y-121723980D01*
X157816852Y-121723979D01*
X157647013Y-121671406D01*
X157634414Y-121667506D01*
X157442986Y-121647386D01*
X157441491Y-121647522D01*
X157441489Y-121647522D01*
X157252798Y-121664694D01*
X157252795Y-121664695D01*
X157251296Y-121664831D01*
X157066646Y-121719177D01*
X156896067Y-121808353D01*
X156894902Y-121809290D01*
X156894900Y-121809291D01*
X156747225Y-121928025D01*
X156747222Y-121928028D01*
X156746059Y-121928963D01*
X156745099Y-121930107D01*
X156745097Y-121930109D01*
X156637684Y-122058120D01*
X156622334Y-122076413D01*
X156621609Y-122077732D01*
X156531203Y-122242180D01*
X156529605Y-122245086D01*
X156471404Y-122428558D01*
X156469904Y-122441936D01*
X156467114Y-122466806D01*
X156455740Y-122487410D01*
X156433128Y-122493936D01*
X156412524Y-122482562D01*
X156405953Y-122466379D01*
X156403714Y-122443544D01*
X156403713Y-122443541D01*
X156403567Y-122442048D01*
X156403135Y-122440617D01*
X156403134Y-122440612D01*
X156356728Y-122286910D01*
X156347934Y-122257781D01*
X156287391Y-122143916D01*
X156258276Y-122089158D01*
X156258274Y-122089155D01*
X156257569Y-122087829D01*
X156135914Y-121938666D01*
X155987604Y-121815974D01*
X155986284Y-121815260D01*
X155819611Y-121725139D01*
X155819608Y-121725138D01*
X155818288Y-121724424D01*
X155816854Y-121723980D01*
X155816852Y-121723979D01*
X155647013Y-121671406D01*
X155634414Y-121667506D01*
X155442986Y-121647386D01*
X155441491Y-121647522D01*
X155441489Y-121647522D01*
X155252798Y-121664694D01*
X155252795Y-121664695D01*
X155251296Y-121664831D01*
X155066646Y-121719177D01*
X154896067Y-121808353D01*
X154894902Y-121809290D01*
X154894900Y-121809291D01*
X154747225Y-121928025D01*
X154747222Y-121928028D01*
X154746059Y-121928963D01*
X154745099Y-121930107D01*
X154745097Y-121930109D01*
X154637684Y-122058120D01*
X154622334Y-122076413D01*
X154621609Y-122077732D01*
X154531203Y-122242180D01*
X154529605Y-122245086D01*
X154471404Y-122428558D01*
X154469904Y-122441936D01*
X154467114Y-122466806D01*
X154455740Y-122487410D01*
X154433128Y-122493936D01*
X154412524Y-122482562D01*
X154405953Y-122466379D01*
X154403714Y-122443544D01*
X154403713Y-122443541D01*
X154403567Y-122442048D01*
X154403135Y-122440617D01*
X154403134Y-122440612D01*
X154356728Y-122286910D01*
X154347934Y-122257781D01*
X154294882Y-122158004D01*
X154287308Y-122143759D01*
X154285053Y-122120332D01*
X154299643Y-122102378D01*
X154314418Y-122094255D01*
X154322284Y-122087465D01*
X154349476Y-122060273D01*
X154351868Y-122058120D01*
X154384330Y-122031833D01*
X154384331Y-122031832D01*
X154385956Y-122030516D01*
X154387167Y-122028813D01*
X154387169Y-122028810D01*
X154400971Y-122009388D01*
X154404292Y-122005457D01*
X155169700Y-121240049D01*
X155170630Y-121239158D01*
X155214802Y-121198540D01*
X155214802Y-121198539D01*
X155216345Y-121197121D01*
X155240855Y-121157591D01*
X155242496Y-121155204D01*
X155269348Y-121119828D01*
X155269350Y-121119825D01*
X155270615Y-121118158D01*
X155271385Y-121116213D01*
X155271389Y-121116206D01*
X155278990Y-121097009D01*
X155281445Y-121092126D01*
X155292324Y-121074579D01*
X155293428Y-121072799D01*
X155306406Y-121028131D01*
X155307338Y-121025408D01*
X155324464Y-120982150D01*
X155324692Y-120979987D01*
X155326841Y-120959530D01*
X155327893Y-120954172D01*
X155334239Y-120932327D01*
X155335000Y-120921964D01*
X155335000Y-120883520D01*
X155335168Y-120880306D01*
X155339535Y-120838757D01*
X155339535Y-120838756D01*
X155339754Y-120836672D01*
X155335431Y-120811113D01*
X155335000Y-120805985D01*
X155335000Y-118966235D01*
X155335027Y-118964947D01*
X155335368Y-118956811D01*
X155337628Y-118902883D01*
X155327008Y-118857606D01*
X155326482Y-118854768D01*
X155320452Y-118810750D01*
X155320168Y-118808674D01*
X155311136Y-118787802D01*
X155309420Y-118782612D01*
X155304705Y-118762511D01*
X155304703Y-118762506D01*
X155304225Y-118760468D01*
X155302048Y-118756507D01*
X155281821Y-118719715D01*
X155280546Y-118717113D01*
X155262908Y-118676354D01*
X155262907Y-118676353D01*
X155262073Y-118674425D01*
X155247759Y-118656748D01*
X155244712Y-118652214D01*
X155234529Y-118633692D01*
X155233754Y-118632282D01*
X155228433Y-118626117D01*
X155227328Y-118624836D01*
X155227321Y-118624828D01*
X155226965Y-118624416D01*
X155199773Y-118597224D01*
X155197620Y-118594832D01*
X155170016Y-118560744D01*
X155170851Y-118560068D01*
X155162611Y-118541836D01*
X155170922Y-118519817D01*
X155193345Y-118510109D01*
X155937250Y-118510109D01*
X155938362Y-118509945D01*
X155938366Y-118509945D01*
X156009868Y-118499420D01*
X156009871Y-118499419D01*
X156012236Y-118499071D01*
X156126243Y-118443096D01*
X156215972Y-118353210D01*
X156271747Y-118239106D01*
X156282592Y-118164767D01*
X156282592Y-116292451D01*
X156282428Y-116291335D01*
X156271903Y-116219833D01*
X156271902Y-116219830D01*
X156271554Y-116217465D01*
X156262308Y-116198632D01*
X156216699Y-116105739D01*
X156215579Y-116103458D01*
X156125693Y-116013729D01*
X156011589Y-115957954D01*
X156009226Y-115957609D01*
X156009225Y-115957609D01*
X155971243Y-115952068D01*
X155937250Y-115947109D01*
X154664934Y-115947109D01*
X154663822Y-115947273D01*
X154663818Y-115947273D01*
X154592316Y-115957798D01*
X154592313Y-115957799D01*
X154589948Y-115958147D01*
X154475941Y-116014122D01*
X154386212Y-116104008D01*
X154330437Y-116218112D01*
X154319592Y-116292451D01*
X154319592Y-117988950D01*
X154310586Y-118010694D01*
X154288842Y-118019700D01*
X153313749Y-118019700D01*
X153312461Y-118019673D01*
X153309841Y-118019563D01*
X153250383Y-118017071D01*
X153205093Y-118027694D01*
X153202251Y-118028220D01*
X153156174Y-118034532D01*
X153154255Y-118035362D01*
X153154253Y-118035363D01*
X153135304Y-118043564D01*
X153130112Y-118045281D01*
X153110006Y-118049996D01*
X153110004Y-118049997D01*
X153107969Y-118050474D01*
X153106133Y-118051483D01*
X153106131Y-118051484D01*
X153067205Y-118072883D01*
X153064603Y-118074158D01*
X153023849Y-118091794D01*
X153023847Y-118091795D01*
X153021925Y-118092627D01*
X153009201Y-118102930D01*
X153004250Y-118106939D01*
X152999716Y-118109986D01*
X152979782Y-118120945D01*
X152971916Y-118127735D01*
X152944724Y-118154927D01*
X152942332Y-118157080D01*
X152908244Y-118184684D01*
X152907033Y-118186387D01*
X152907031Y-118186390D01*
X152893227Y-118205815D01*
X152889906Y-118209745D01*
X152739894Y-118359758D01*
X152718150Y-118368765D01*
X152696407Y-118359759D01*
X152687400Y-118338015D01*
X152687400Y-117520558D01*
X152696406Y-117498814D01*
X152698798Y-117496661D01*
X152699810Y-117495842D01*
X152718291Y-117480876D01*
X152845895Y-117327722D01*
X152941320Y-117152699D01*
X152947649Y-117132505D01*
X153000482Y-116963915D01*
X153000933Y-116962476D01*
X153022462Y-116764295D01*
X153005087Y-116565708D01*
X153002501Y-116556805D01*
X152949890Y-116375720D01*
X152949890Y-116375719D01*
X152949471Y-116374278D01*
X152857734Y-116197296D01*
X152760332Y-116075284D01*
X147586659Y-110901611D01*
X147584438Y-110899135D01*
X147558213Y-110866517D01*
X147558210Y-110866514D01*
X147557275Y-110865351D01*
X147546600Y-110856393D01*
X147515573Y-110830359D01*
X147513595Y-110828547D01*
X147510808Y-110825760D01*
X147476976Y-110797969D01*
X147476776Y-110797804D01*
X147405715Y-110738177D01*
X147405713Y-110738176D01*
X147404567Y-110737214D01*
X147403171Y-110736447D01*
X147402353Y-110735996D01*
X147397661Y-110732819D01*
X147396882Y-110732179D01*
X147396876Y-110732175D01*
X147395711Y-110731218D01*
X147379774Y-110722673D01*
X147312680Y-110686697D01*
X147312397Y-110686544D01*
X147229879Y-110641179D01*
X147227478Y-110640417D01*
X147222250Y-110638209D01*
X147221350Y-110637726D01*
X147221342Y-110637723D01*
X147220026Y-110637017D01*
X147129989Y-110609490D01*
X147129737Y-110609412D01*
X147116763Y-110605296D01*
X147092928Y-110597735D01*
X147041300Y-110581357D01*
X147041298Y-110581357D01*
X147039865Y-110580902D01*
X147037359Y-110580621D01*
X147031806Y-110579471D01*
X147031411Y-110579351D01*
X147029391Y-110578733D01*
X146990610Y-110574794D01*
X146935566Y-110569202D01*
X146935247Y-110569167D01*
X146904430Y-110565711D01*
X146884716Y-110563500D01*
X146880984Y-110563500D01*
X146877877Y-110563343D01*
X146877651Y-110563320D01*
X146831065Y-110558588D01*
X146829573Y-110558729D01*
X146829570Y-110558729D01*
X146780540Y-110563364D01*
X146777646Y-110563500D01*
X137731816Y-110563500D01*
X137728495Y-110563320D01*
X137686889Y-110558800D01*
X137686887Y-110558800D01*
X137685396Y-110558638D01*
X137637824Y-110562800D01*
X137631159Y-110563383D01*
X137628479Y-110563500D01*
X137624543Y-110563500D01*
X137623801Y-110563573D01*
X137623796Y-110563573D01*
X137581005Y-110567769D01*
X137580684Y-110567799D01*
X137521673Y-110572962D01*
X137486808Y-110576012D01*
X137485364Y-110576431D01*
X137485361Y-110576432D01*
X137484384Y-110576716D01*
X137478814Y-110577789D01*
X137477802Y-110577888D01*
X137477799Y-110577889D01*
X137476306Y-110578035D01*
X137466810Y-110580902D01*
X137386120Y-110605263D01*
X137385811Y-110605354D01*
X137315869Y-110625675D01*
X137295378Y-110631628D01*
X137294044Y-110632320D01*
X137294038Y-110632322D01*
X137293142Y-110632787D01*
X137287886Y-110634922D01*
X137285468Y-110635652D01*
X137257300Y-110650629D01*
X137202278Y-110679884D01*
X137201993Y-110680033D01*
X137119732Y-110722673D01*
X137119728Y-110722675D01*
X137118396Y-110723366D01*
X137116426Y-110724939D01*
X137111680Y-110728056D01*
X137109456Y-110729239D01*
X137108285Y-110730194D01*
X137036494Y-110788746D01*
X137036243Y-110788949D01*
X137025151Y-110797804D01*
X136996384Y-110820768D01*
X136993733Y-110823419D01*
X136991436Y-110825494D01*
X136954974Y-110855232D01*
X136954014Y-110856393D01*
X136922634Y-110894324D01*
X136920685Y-110896467D01*
X130757711Y-117059441D01*
X130755235Y-117061662D01*
X130722617Y-117087887D01*
X130722614Y-117087890D01*
X130721451Y-117088825D01*
X130720491Y-117089969D01*
X130720489Y-117089971D01*
X130686459Y-117130527D01*
X130684647Y-117132505D01*
X130681860Y-117135292D01*
X130660122Y-117161756D01*
X130654109Y-117169076D01*
X130653921Y-117169304D01*
X130640424Y-117185389D01*
X130604387Y-117228337D01*
X130593314Y-117241533D01*
X130592589Y-117242852D01*
X130592096Y-117243747D01*
X130588919Y-117248439D01*
X130588279Y-117249218D01*
X130588275Y-117249224D01*
X130587318Y-117250389D01*
X130583812Y-117256927D01*
X130542797Y-117333420D01*
X130542659Y-117333675D01*
X130497279Y-117416221D01*
X130496824Y-117417656D01*
X130496517Y-117418623D01*
X130494309Y-117423850D01*
X130493826Y-117424750D01*
X130493823Y-117424758D01*
X130493117Y-117426074D01*
X130476362Y-117480876D01*
X130465607Y-117516055D01*
X130465512Y-117516363D01*
X130441370Y-117592467D01*
X130437002Y-117606235D01*
X130436834Y-117607733D01*
X130436721Y-117608740D01*
X130435571Y-117614294D01*
X130434833Y-117616709D01*
X130434682Y-117618199D01*
X130425302Y-117710534D01*
X130425267Y-117710853D01*
X130424262Y-117719814D01*
X130419600Y-117761384D01*
X130419600Y-117765116D01*
X130419443Y-117768222D01*
X130414688Y-117815035D01*
X130414829Y-117816527D01*
X130414829Y-117816530D01*
X130419464Y-117865560D01*
X130419600Y-117868454D01*
X130419600Y-122194670D01*
X130410594Y-122216414D01*
X130388850Y-122225420D01*
X130367106Y-122216414D01*
X130361699Y-122209106D01*
X130334528Y-122158004D01*
X130334478Y-122157909D01*
X130289534Y-122072666D01*
X130289534Y-122072665D01*
X130288829Y-122071329D01*
X130287881Y-122070159D01*
X130287863Y-122070132D01*
X130287801Y-122070038D01*
X130287564Y-122069678D01*
X130286861Y-122068356D01*
X130224967Y-121992467D01*
X130186020Y-121944372D01*
X130164323Y-121917578D01*
X130164321Y-121917576D01*
X130163376Y-121916409D01*
X130162229Y-121915454D01*
X130161990Y-121915213D01*
X130161935Y-121915157D01*
X130161813Y-121915034D01*
X130160868Y-121913874D01*
X130085352Y-121851401D01*
X130010222Y-121788805D01*
X130008916Y-121788092D01*
X130008752Y-121787982D01*
X130008665Y-121787923D01*
X130008416Y-121787754D01*
X130007270Y-121786806D01*
X129921027Y-121740174D01*
X129835199Y-121693380D01*
X129833777Y-121692935D01*
X129833305Y-121692736D01*
X129833239Y-121692708D01*
X129833238Y-121692708D01*
X129831915Y-121691992D01*
X129806910Y-121684252D01*
X129738362Y-121663032D01*
X129738260Y-121663000D01*
X129646412Y-121634217D01*
X129644976Y-121633767D01*
X129643485Y-121633605D01*
X129643278Y-121633563D01*
X129643165Y-121633539D01*
X129642914Y-121633487D01*
X129641485Y-121633044D01*
X129544131Y-121622812D01*
X129544024Y-121622800D01*
X129448289Y-121612400D01*
X129448287Y-121612400D01*
X129446796Y-121612238D01*
X129445310Y-121612368D01*
X129445036Y-121612366D01*
X129444911Y-121612365D01*
X129444716Y-121612363D01*
X129443231Y-121612207D01*
X129441736Y-121612343D01*
X129441733Y-121612343D01*
X129345726Y-121621080D01*
X129345619Y-121621090D01*
X129249702Y-121629482D01*
X129249699Y-121629483D01*
X129248208Y-121629613D01*
X129246787Y-121630026D01*
X129246223Y-121630133D01*
X129246196Y-121630138D01*
X129244705Y-121630274D01*
X129233493Y-121633574D01*
X129225763Y-121635849D01*
X129217081Y-121637100D01*
X123634886Y-121637100D01*
X123613143Y-121628094D01*
X123526607Y-121541559D01*
X123517600Y-121519815D01*
X123517600Y-120789748D01*
X124469594Y-120789748D01*
X124469758Y-120790860D01*
X124469758Y-120790864D01*
X124480189Y-120861723D01*
X124480632Y-120864734D01*
X124481686Y-120866880D01*
X124481686Y-120866881D01*
X124535487Y-120976460D01*
X124536607Y-120978741D01*
X124626493Y-121068470D01*
X124740597Y-121124245D01*
X124742960Y-121124590D01*
X124742961Y-121124590D01*
X124780943Y-121130131D01*
X124814936Y-121135090D01*
X126987252Y-121135090D01*
X126988364Y-121134926D01*
X126988368Y-121134926D01*
X127059870Y-121124401D01*
X127059873Y-121124400D01*
X127062238Y-121124052D01*
X127078219Y-121116206D01*
X127173964Y-121069197D01*
X127176245Y-121068077D01*
X127265974Y-120978191D01*
X127321749Y-120864087D01*
X127324684Y-120843972D01*
X127332434Y-120790844D01*
X127332594Y-120789748D01*
X127332594Y-120318250D01*
X127341600Y-120296506D01*
X127363344Y-120287500D01*
X128647462Y-120287500D01*
X128669582Y-120296889D01*
X128713785Y-120342663D01*
X128715223Y-120343604D01*
X128854964Y-120435048D01*
X128854966Y-120435049D01*
X128856401Y-120435988D01*
X129016149Y-120495398D01*
X129185089Y-120517939D01*
X129269957Y-120510215D01*
X129353113Y-120502648D01*
X129353115Y-120502648D01*
X129354825Y-120502492D01*
X129516921Y-120449824D01*
X129561718Y-120423120D01*
X129661840Y-120363436D01*
X129661845Y-120363433D01*
X129663320Y-120362553D01*
X129683219Y-120343604D01*
X129785503Y-120246200D01*
X129785504Y-120246198D01*
X129786746Y-120245016D01*
X129881065Y-120103055D01*
X129941589Y-119943725D01*
X129965309Y-119774946D01*
X129965607Y-119753600D01*
X129946609Y-119584225D01*
X129946045Y-119582605D01*
X129946044Y-119582601D01*
X129891121Y-119424886D01*
X129891120Y-119424884D01*
X129890557Y-119423267D01*
X129886430Y-119416662D01*
X129801153Y-119280190D01*
X129801151Y-119280187D01*
X129800239Y-119278728D01*
X129732678Y-119210694D01*
X129681355Y-119159011D01*
X129681353Y-119159009D01*
X129680143Y-119157791D01*
X129678694Y-119156872D01*
X129678691Y-119156869D01*
X129537691Y-119067388D01*
X129537690Y-119067388D01*
X129536238Y-119066466D01*
X129521728Y-119061299D01*
X129377296Y-119009869D01*
X129377297Y-119009869D01*
X129375676Y-119009292D01*
X129206437Y-118989112D01*
X129204734Y-118989291D01*
X129204733Y-118989291D01*
X129179508Y-118991942D01*
X129036933Y-119006927D01*
X129035309Y-119007480D01*
X129035304Y-119007481D01*
X128877216Y-119061299D01*
X128875589Y-119061853D01*
X128780681Y-119120241D01*
X128731881Y-119150262D01*
X128731878Y-119150264D01*
X128730422Y-119151160D01*
X128723651Y-119157791D01*
X128669398Y-119210920D01*
X128647883Y-119219700D01*
X127363344Y-119219700D01*
X127341600Y-119210694D01*
X127332594Y-119188950D01*
X127332594Y-118317432D01*
X127332430Y-118316316D01*
X127321905Y-118244814D01*
X127321904Y-118244811D01*
X127321556Y-118242446D01*
X127318756Y-118236742D01*
X127266701Y-118130720D01*
X127265581Y-118128439D01*
X127175695Y-118038710D01*
X127061591Y-117982935D01*
X127059228Y-117982590D01*
X127059227Y-117982590D01*
X127021245Y-117977049D01*
X126987252Y-117972090D01*
X124814936Y-117972090D01*
X124813824Y-117972254D01*
X124813820Y-117972254D01*
X124742318Y-117982779D01*
X124742315Y-117982780D01*
X124739950Y-117983128D01*
X124737804Y-117984182D01*
X124737803Y-117984182D01*
X124670637Y-118017159D01*
X124625943Y-118039103D01*
X124536214Y-118128989D01*
X124480439Y-118243093D01*
X124480094Y-118245456D01*
X124480094Y-118245457D01*
X124479779Y-118247616D01*
X124469594Y-118317432D01*
X124469594Y-120789748D01*
X123517600Y-120789748D01*
X123517600Y-118187386D01*
X123526606Y-118165642D01*
X124413142Y-117279106D01*
X124434886Y-117270100D01*
X127443984Y-117270100D01*
X127447305Y-117270280D01*
X127488911Y-117274800D01*
X127488913Y-117274800D01*
X127490404Y-117274962D01*
X127544640Y-117270217D01*
X127547321Y-117270100D01*
X127551257Y-117270100D01*
X127551999Y-117270027D01*
X127552004Y-117270027D01*
X127594795Y-117265831D01*
X127595116Y-117265801D01*
X127654312Y-117260622D01*
X127688992Y-117257588D01*
X127690436Y-117257169D01*
X127690439Y-117257168D01*
X127691416Y-117256884D01*
X127696986Y-117255811D01*
X127697998Y-117255712D01*
X127698001Y-117255711D01*
X127699494Y-117255565D01*
X127745971Y-117241533D01*
X127789680Y-117228337D01*
X127789989Y-117228246D01*
X127878976Y-117202392D01*
X127878975Y-117202392D01*
X127880422Y-117201972D01*
X127881756Y-117201280D01*
X127881762Y-117201278D01*
X127882658Y-117200813D01*
X127887914Y-117198678D01*
X127890332Y-117197948D01*
X127926444Y-117178747D01*
X127973522Y-117153716D01*
X127973807Y-117153567D01*
X128056068Y-117110927D01*
X128056072Y-117110925D01*
X128057404Y-117110234D01*
X128059374Y-117108661D01*
X128064120Y-117105544D01*
X128066344Y-117104361D01*
X128139306Y-117044854D01*
X128139557Y-117044651D01*
X128178755Y-117013360D01*
X128178758Y-117013357D01*
X128179416Y-117012832D01*
X128182067Y-117010181D01*
X128184364Y-117008106D01*
X128220826Y-116978368D01*
X128253166Y-116939276D01*
X128255115Y-116937133D01*
X135131742Y-110060506D01*
X135153486Y-110051500D01*
X150398714Y-110051500D01*
X150420458Y-110060506D01*
X151210586Y-110850635D01*
X151219592Y-110872379D01*
X151219592Y-112839766D01*
X151219756Y-112840878D01*
X151219756Y-112840882D01*
X151230187Y-112911741D01*
X151230630Y-112914752D01*
X151231684Y-112916898D01*
X151231684Y-112916899D01*
X151285485Y-113026478D01*
X151286605Y-113028759D01*
X151376491Y-113118488D01*
X151490595Y-113174263D01*
X151492958Y-113174608D01*
X151492959Y-113174608D01*
X151530941Y-113180149D01*
X151564934Y-113185108D01*
X153437250Y-113185108D01*
X153438362Y-113184944D01*
X153438366Y-113184944D01*
X153509868Y-113174419D01*
X153509871Y-113174418D01*
X153512236Y-113174070D01*
X153515913Y-113172265D01*
X153623962Y-113119215D01*
X153626243Y-113118095D01*
X153715972Y-113028209D01*
X153771747Y-112914105D01*
X153782592Y-112839766D01*
X153782592Y-112296878D01*
X153791598Y-112275134D01*
X153813342Y-112266128D01*
X153835086Y-112275134D01*
X156875594Y-115315642D01*
X156884600Y-115337386D01*
X156884600Y-118096484D01*
X156884420Y-118099805D01*
X156881062Y-118130720D01*
X156879738Y-118142904D01*
X156879869Y-118144399D01*
X156884483Y-118197141D01*
X156884600Y-118199821D01*
X156884600Y-118203757D01*
X156884673Y-118204499D01*
X156884673Y-118204504D01*
X156888869Y-118247295D01*
X156888899Y-118247616D01*
X156894062Y-118306627D01*
X156897112Y-118341492D01*
X156897531Y-118342936D01*
X156897532Y-118342939D01*
X156897816Y-118343916D01*
X156898889Y-118349486D01*
X156899135Y-118351994D01*
X156900210Y-118355554D01*
X156926363Y-118442180D01*
X156926454Y-118442489D01*
X156944563Y-118504820D01*
X156952728Y-118532922D01*
X156953420Y-118534256D01*
X156953422Y-118534262D01*
X156953887Y-118535158D01*
X156956022Y-118540414D01*
X156956752Y-118542832D01*
X156966276Y-118560744D01*
X157000984Y-118626022D01*
X157001133Y-118626307D01*
X157043773Y-118708568D01*
X157044466Y-118709904D01*
X157046039Y-118711874D01*
X157049156Y-118716620D01*
X157050339Y-118718844D01*
X157051294Y-118720015D01*
X157109846Y-118791806D01*
X157110049Y-118792057D01*
X157141868Y-118831916D01*
X157144519Y-118834567D01*
X157146594Y-118836864D01*
X157176332Y-118873326D01*
X157209601Y-118900849D01*
X157215424Y-118905666D01*
X157217567Y-118907615D01*
X159741941Y-121431989D01*
X159744162Y-121434465D01*
X159770387Y-121467083D01*
X159770390Y-121467086D01*
X159771325Y-121468249D01*
X159772469Y-121469209D01*
X159772471Y-121469211D01*
X159813027Y-121503241D01*
X159815005Y-121505053D01*
X159817792Y-121507840D01*
X159847876Y-121532552D01*
X159851576Y-121535591D01*
X159851824Y-121535796D01*
X159889179Y-121567140D01*
X159924033Y-121596386D01*
X159925353Y-121597111D01*
X159925352Y-121597111D01*
X159926247Y-121597604D01*
X159930939Y-121600781D01*
X159931718Y-121601421D01*
X159931724Y-121601425D01*
X159932889Y-121602382D01*
X159934219Y-121603095D01*
X160015920Y-121646903D01*
X160016175Y-121647041D01*
X160098721Y-121692421D01*
X160100723Y-121693056D01*
X160101123Y-121693183D01*
X160106350Y-121695391D01*
X160107250Y-121695874D01*
X160107258Y-121695877D01*
X160108574Y-121696583D01*
X160184755Y-121719874D01*
X160198555Y-121724093D01*
X160198845Y-121724182D01*
X160225443Y-121732620D01*
X160287300Y-121752243D01*
X160287302Y-121752243D01*
X160288735Y-121752698D01*
X160291241Y-121752979D01*
X160296794Y-121754129D01*
X160297776Y-121754429D01*
X160299209Y-121754867D01*
X160393043Y-121764398D01*
X160393115Y-121764406D01*
X160443884Y-121770100D01*
X160447623Y-121770100D01*
X160450729Y-121770257D01*
X160497535Y-121775011D01*
X160499027Y-121774870D01*
X160499030Y-121774870D01*
X160548052Y-121770236D01*
X160550946Y-121770100D01*
X161380652Y-121770100D01*
X161402396Y-121779106D01*
X161411402Y-121800850D01*
X161402396Y-121822594D01*
X161383866Y-121831432D01*
X161264242Y-121844005D01*
X161260905Y-121844738D01*
X161093578Y-121901702D01*
X161090491Y-121903154D01*
X161035349Y-121937078D01*
X161032605Y-121940869D01*
X161032963Y-121943104D01*
X161431776Y-122341918D01*
X161436101Y-122343709D01*
X161440426Y-122341918D01*
X161837971Y-121944372D01*
X161839762Y-121940047D01*
X161838859Y-121937866D01*
X161791884Y-121908056D01*
X161788806Y-121906554D01*
X161622294Y-121847262D01*
X161618968Y-121846482D01*
X161492355Y-121831384D01*
X161471831Y-121819866D01*
X161465462Y-121797209D01*
X161476980Y-121776685D01*
X161495996Y-121770100D01*
X163380652Y-121770100D01*
X163402396Y-121779106D01*
X163411402Y-121800850D01*
X163402396Y-121822594D01*
X163383866Y-121831432D01*
X163264242Y-121844005D01*
X163260905Y-121844738D01*
X163093578Y-121901702D01*
X163090491Y-121903154D01*
X163035349Y-121937078D01*
X163032605Y-121940869D01*
X163032963Y-121943104D01*
X163431776Y-122341918D01*
X163436101Y-122343709D01*
X163440426Y-122341918D01*
X163837971Y-121944372D01*
X163839762Y-121940047D01*
X163838859Y-121937866D01*
X163791884Y-121908056D01*
X163788806Y-121906554D01*
X163622294Y-121847262D01*
X163618968Y-121846482D01*
X163492355Y-121831384D01*
X163471831Y-121819866D01*
X163465462Y-121797209D01*
X163476980Y-121776685D01*
X163495996Y-121770100D01*
X164447616Y-121770100D01*
X164450722Y-121770257D01*
X164497535Y-121775012D01*
X164499027Y-121774871D01*
X164499030Y-121774871D01*
X164548060Y-121770236D01*
X164550954Y-121770100D01*
X164856324Y-121770100D01*
X164878068Y-121779106D01*
X164887074Y-121800850D01*
X164878068Y-121822594D01*
X164875592Y-121824815D01*
X164747225Y-121928025D01*
X164747222Y-121928028D01*
X164746059Y-121928963D01*
X164745099Y-121930107D01*
X164745097Y-121930109D01*
X164637684Y-122058120D01*
X164622334Y-122076413D01*
X164621609Y-122077732D01*
X164531203Y-122242180D01*
X164529605Y-122245086D01*
X164471404Y-122428558D01*
X164471236Y-122430056D01*
X164453065Y-122592057D01*
X164449948Y-122619841D01*
X164450074Y-122621342D01*
X164465233Y-122801854D01*
X164466055Y-122811648D01*
X164519110Y-122996673D01*
X164607093Y-123167870D01*
X164608027Y-123169048D01*
X164608028Y-123169050D01*
X164725721Y-123317542D01*
X164725725Y-123317546D01*
X164726653Y-123318717D01*
X164873235Y-123443469D01*
X164874541Y-123444199D01*
X164874544Y-123444201D01*
X165039943Y-123536639D01*
X165039946Y-123536640D01*
X165041257Y-123537373D01*
X165224318Y-123596853D01*
X165268807Y-123602158D01*
X165289331Y-123613676D01*
X165295700Y-123636333D01*
X165284182Y-123656857D01*
X165267953Y-123663315D01*
X165252798Y-123664694D01*
X165252795Y-123664695D01*
X165251296Y-123664831D01*
X165066646Y-123719177D01*
X164896067Y-123808353D01*
X164894902Y-123809290D01*
X164894900Y-123809291D01*
X164747225Y-123928025D01*
X164747222Y-123928028D01*
X164746059Y-123928963D01*
X164745099Y-123930107D01*
X164745097Y-123930109D01*
X164673246Y-124015738D01*
X164622334Y-124076413D01*
X164615327Y-124089158D01*
X164538014Y-124229791D01*
X164529605Y-124245086D01*
X164471404Y-124428558D01*
X164449948Y-124619841D01*
X164450074Y-124621342D01*
X164465923Y-124810071D01*
X164466055Y-124811648D01*
X164477232Y-124850627D01*
X164514050Y-124979025D01*
X164519110Y-124996673D01*
X164607093Y-125167870D01*
X164608027Y-125169048D01*
X164608028Y-125169050D01*
X164725721Y-125317542D01*
X164725725Y-125317546D01*
X164726653Y-125318717D01*
X164873235Y-125443469D01*
X164874541Y-125444199D01*
X164874544Y-125444201D01*
X165039943Y-125536639D01*
X165039946Y-125536640D01*
X165041257Y-125537373D01*
X165224318Y-125596853D01*
X165319882Y-125608248D01*
X165413959Y-125619467D01*
X165413963Y-125619467D01*
X165415447Y-125619644D01*
X165416942Y-125619529D01*
X165416945Y-125619529D01*
X165605857Y-125604993D01*
X165605860Y-125604993D01*
X165607361Y-125604877D01*
X165608809Y-125604473D01*
X165608813Y-125604472D01*
X165758094Y-125562791D01*
X165792753Y-125553114D01*
X165943120Y-125477159D01*
X165963212Y-125467010D01*
X165963213Y-125467010D01*
X165964560Y-125466329D01*
X166116238Y-125347825D01*
X166129049Y-125332984D01*
X166241030Y-125203251D01*
X166242009Y-125202117D01*
X166243869Y-125198844D01*
X166336342Y-125036061D01*
X166337084Y-125034755D01*
X166340611Y-125024154D01*
X166389453Y-124877328D01*
X166404862Y-124859539D01*
X166428337Y-124857856D01*
X166446126Y-124873265D01*
X166448069Y-124878146D01*
X166491752Y-125022832D01*
X166497981Y-125034547D01*
X166570663Y-125171242D01*
X166585339Y-125198844D01*
X166593906Y-125209348D01*
X166710382Y-125352162D01*
X166710386Y-125352166D01*
X166711332Y-125353326D01*
X166712490Y-125354284D01*
X166712491Y-125354285D01*
X166861020Y-125477159D01*
X166864930Y-125480394D01*
X167040285Y-125575208D01*
X167230715Y-125634156D01*
X167428969Y-125654993D01*
X167430464Y-125654857D01*
X167430466Y-125654857D01*
X167625993Y-125637063D01*
X167625996Y-125637062D01*
X167627495Y-125636926D01*
X167818730Y-125580642D01*
X167820059Y-125579947D01*
X167820062Y-125579946D01*
X167994063Y-125488980D01*
X167995391Y-125488286D01*
X168007590Y-125478478D01*
X168149583Y-125364313D01*
X168149586Y-125364310D01*
X168150749Y-125363375D01*
X168151796Y-125362128D01*
X168277921Y-125211817D01*
X168278886Y-125210667D01*
X168374921Y-125035979D01*
X168435198Y-124845965D01*
X168452600Y-124690816D01*
X168452600Y-121302386D01*
X168461606Y-121280642D01*
X174948143Y-114794106D01*
X174969887Y-114785100D01*
X178087258Y-114785100D01*
X178088370Y-114784936D01*
X178088374Y-114784936D01*
X178159876Y-114774411D01*
X178159879Y-114774410D01*
X178162244Y-114774062D01*
X178210428Y-114750405D01*
X178273970Y-114719207D01*
X178276251Y-114718087D01*
X178365980Y-114628201D01*
X178421755Y-114514097D01*
X178422777Y-114507095D01*
X178432440Y-114440854D01*
X178432600Y-114439758D01*
X178432600Y-111167442D01*
X178432436Y-111166326D01*
X178421911Y-111094824D01*
X178421910Y-111094821D01*
X178421562Y-111092456D01*
X178366978Y-110981281D01*
X178366707Y-110980730D01*
X178365587Y-110978449D01*
X178275701Y-110888720D01*
X178161597Y-110832945D01*
X178159234Y-110832600D01*
X178159233Y-110832600D01*
X178096299Y-110823419D01*
X178087258Y-110822100D01*
X172914942Y-110822100D01*
X172913830Y-110822264D01*
X172913826Y-110822264D01*
X172842324Y-110832789D01*
X172842321Y-110832790D01*
X172839956Y-110833138D01*
X172837810Y-110834192D01*
X172837809Y-110834192D01*
X172774346Y-110865351D01*
X172725949Y-110889113D01*
X172724155Y-110890910D01*
X172714646Y-110900436D01*
X172636220Y-110978999D01*
X172580445Y-111093103D01*
X172569600Y-111167442D01*
X172569600Y-114284814D01*
X172560594Y-114306558D01*
X167156788Y-119710364D01*
X167135044Y-119719370D01*
X167113300Y-119710364D01*
X167104294Y-119688620D01*
X167104294Y-118962928D01*
X167102502Y-118958603D01*
X167098177Y-118956811D01*
X165304011Y-118956811D01*
X165299686Y-118958603D01*
X165297894Y-118962928D01*
X165297894Y-119706350D01*
X165288888Y-119728094D01*
X165267144Y-119737100D01*
X165048350Y-119737100D01*
X165026606Y-119728094D01*
X165017600Y-119706350D01*
X165017600Y-118187386D01*
X165026606Y-118165642D01*
X165245400Y-117946848D01*
X165267144Y-117937842D01*
X165288888Y-117946848D01*
X165297894Y-117968592D01*
X165297894Y-118544294D01*
X165299686Y-118548619D01*
X165304011Y-118550411D01*
X165991777Y-118550411D01*
X165996102Y-118548619D01*
X165997894Y-118544294D01*
X166404294Y-118544294D01*
X166406086Y-118548619D01*
X166410411Y-118550411D01*
X167098177Y-118550411D01*
X167102502Y-118548619D01*
X167104294Y-118544294D01*
X167104294Y-117685110D01*
X167103999Y-117682113D01*
X167093095Y-117627297D01*
X167090822Y-117621809D01*
X167049276Y-117559631D01*
X167045074Y-117555429D01*
X166982896Y-117513883D01*
X166977408Y-117511610D01*
X166922592Y-117500706D01*
X166919595Y-117500411D01*
X166410411Y-117500411D01*
X166406086Y-117502203D01*
X166404294Y-117506528D01*
X166404294Y-118544294D01*
X165997894Y-118544294D01*
X165997894Y-117506528D01*
X165996102Y-117502203D01*
X165991777Y-117500411D01*
X165667353Y-117500411D01*
X165645609Y-117491405D01*
X165636603Y-117469661D01*
X165639087Y-117457554D01*
X165639199Y-117457291D01*
X165639921Y-117455979D01*
X165640680Y-117453584D01*
X165642893Y-117448347D01*
X165643370Y-117447457D01*
X165643371Y-117447454D01*
X165644083Y-117446127D01*
X165671657Y-117355937D01*
X165692142Y-117291361D01*
X165699745Y-117267394D01*
X165699746Y-117267391D01*
X165700198Y-117265965D01*
X165700479Y-117263459D01*
X165701632Y-117257890D01*
X165701685Y-117257719D01*
X165702366Y-117255491D01*
X165703784Y-117241533D01*
X165711888Y-117161756D01*
X165711923Y-117161437D01*
X165717503Y-117111678D01*
X165717600Y-117110816D01*
X165717600Y-117107075D01*
X165717757Y-117103968D01*
X165722054Y-117061662D01*
X165722511Y-117057166D01*
X165717736Y-117006649D01*
X165717600Y-117003755D01*
X165717600Y-116549618D01*
X165726606Y-116527874D01*
X165748350Y-116518868D01*
X165765434Y-116524050D01*
X165794293Y-116543333D01*
X165799782Y-116545606D01*
X165854598Y-116556510D01*
X165857595Y-116556805D01*
X166191779Y-116556805D01*
X166196104Y-116555013D01*
X166197896Y-116550688D01*
X166604296Y-116550688D01*
X166606088Y-116555013D01*
X166610413Y-116556805D01*
X166944597Y-116556805D01*
X166947594Y-116556510D01*
X167002410Y-116545606D01*
X167007898Y-116543333D01*
X167070076Y-116501787D01*
X167074278Y-116497585D01*
X167115824Y-116435407D01*
X167118097Y-116429919D01*
X167129001Y-116375103D01*
X167129296Y-116372106D01*
X167129296Y-115162922D01*
X167127504Y-115158597D01*
X167123179Y-115156805D01*
X166610413Y-115156805D01*
X166606088Y-115158597D01*
X166604296Y-115162922D01*
X166604296Y-116550688D01*
X166197896Y-116550688D01*
X166197896Y-114744288D01*
X166604296Y-114744288D01*
X166606088Y-114748613D01*
X166610413Y-114750405D01*
X167123179Y-114750405D01*
X167127504Y-114748613D01*
X167129296Y-114744288D01*
X167129296Y-113535104D01*
X167129001Y-113532107D01*
X167118097Y-113477291D01*
X167115824Y-113471803D01*
X167074278Y-113409625D01*
X167070076Y-113405423D01*
X167007898Y-113363877D01*
X167002410Y-113361604D01*
X166947594Y-113350700D01*
X166944597Y-113350405D01*
X166610413Y-113350405D01*
X166606088Y-113352197D01*
X166604296Y-113356522D01*
X166604296Y-114744288D01*
X166197896Y-114744288D01*
X166197896Y-113356522D01*
X166196104Y-113352197D01*
X166191779Y-113350405D01*
X165857595Y-113350405D01*
X165854598Y-113350700D01*
X165799782Y-113361604D01*
X165794294Y-113363877D01*
X165732116Y-113405423D01*
X165727914Y-113409625D01*
X165686368Y-113471803D01*
X165684095Y-113477291D01*
X165673191Y-113532107D01*
X165672896Y-113535104D01*
X165672896Y-114492658D01*
X165663890Y-114514402D01*
X165642146Y-114523408D01*
X165620402Y-114514402D01*
X165614996Y-114507095D01*
X165611196Y-114499949D01*
X165607596Y-114485512D01*
X165607596Y-113517447D01*
X165601685Y-113477291D01*
X165596907Y-113444829D01*
X165596906Y-113444826D01*
X165596558Y-113442461D01*
X165551361Y-113350405D01*
X165541703Y-113330735D01*
X165540583Y-113328454D01*
X165450697Y-113238725D01*
X165336593Y-113182950D01*
X165334230Y-113182605D01*
X165334229Y-113182605D01*
X165279411Y-113174608D01*
X165262254Y-113172105D01*
X164139938Y-113172105D01*
X164138826Y-113172269D01*
X164138822Y-113172269D01*
X164067320Y-113182794D01*
X164067317Y-113182795D01*
X164064952Y-113183143D01*
X164062806Y-113184197D01*
X164062805Y-113184197D01*
X164060950Y-113185108D01*
X163950945Y-113239118D01*
X163861216Y-113329004D01*
X163805441Y-113443108D01*
X163794596Y-113517447D01*
X163794596Y-114484542D01*
X163790792Y-114499356D01*
X163786992Y-114506268D01*
X163768625Y-114520983D01*
X163745232Y-114518400D01*
X163730517Y-114500033D01*
X163729296Y-114491454D01*
X163729296Y-113535104D01*
X163729001Y-113532107D01*
X163718097Y-113477291D01*
X163715824Y-113471803D01*
X163674278Y-113409625D01*
X163670076Y-113405423D01*
X163607898Y-113363877D01*
X163602410Y-113361604D01*
X163547594Y-113350700D01*
X163544597Y-113350405D01*
X163210413Y-113350405D01*
X163206088Y-113352197D01*
X163204296Y-113356522D01*
X163204296Y-116550688D01*
X163206088Y-116555013D01*
X163210413Y-116556805D01*
X163544597Y-116556805D01*
X163547594Y-116556510D01*
X163602410Y-116545606D01*
X163607898Y-116543333D01*
X163636766Y-116524044D01*
X163659849Y-116519453D01*
X163679418Y-116532528D01*
X163684600Y-116549612D01*
X163684600Y-116619813D01*
X163675594Y-116641557D01*
X163322711Y-116994441D01*
X163320235Y-116996662D01*
X163287617Y-117022887D01*
X163287614Y-117022890D01*
X163286451Y-117023825D01*
X163285491Y-117024969D01*
X163285489Y-117024971D01*
X163251459Y-117065527D01*
X163249647Y-117067505D01*
X163246860Y-117070292D01*
X163219109Y-117104076D01*
X163218921Y-117104304D01*
X163213363Y-117110927D01*
X163177585Y-117153567D01*
X163158314Y-117176533D01*
X163157589Y-117177852D01*
X163157096Y-117178747D01*
X163153919Y-117183439D01*
X163153279Y-117184218D01*
X163153275Y-117184224D01*
X163152318Y-117185389D01*
X163151605Y-117186719D01*
X163107797Y-117268420D01*
X163107659Y-117268675D01*
X163062279Y-117351221D01*
X163061824Y-117352656D01*
X163061517Y-117353623D01*
X163059309Y-117358850D01*
X163058826Y-117359750D01*
X163058823Y-117359758D01*
X163058117Y-117361074D01*
X163030535Y-117451290D01*
X163002002Y-117541235D01*
X163001834Y-117542733D01*
X163001721Y-117543740D01*
X163000571Y-117549294D01*
X162999833Y-117551709D01*
X162995911Y-117590320D01*
X162990302Y-117645534D01*
X162990267Y-117645853D01*
X162987970Y-117666337D01*
X162984600Y-117696384D01*
X162984600Y-117700116D01*
X162984443Y-117703222D01*
X162979688Y-117750035D01*
X162979829Y-117751527D01*
X162979829Y-117751530D01*
X162984464Y-117800560D01*
X162984600Y-117803454D01*
X162984600Y-119706350D01*
X162975594Y-119728094D01*
X162953850Y-119737100D01*
X162913344Y-119737100D01*
X162891600Y-119728094D01*
X162882594Y-119706350D01*
X162882594Y-117667453D01*
X162882430Y-117666337D01*
X162871905Y-117594835D01*
X162871904Y-117594832D01*
X162871556Y-117592467D01*
X162826359Y-117500411D01*
X162816701Y-117480741D01*
X162815581Y-117478460D01*
X162790668Y-117453590D01*
X162727491Y-117390524D01*
X162725695Y-117388731D01*
X162611591Y-117332956D01*
X162609228Y-117332611D01*
X162609227Y-117332611D01*
X162566672Y-117326403D01*
X162537252Y-117322111D01*
X162119750Y-117322111D01*
X162098006Y-117313105D01*
X162089000Y-117291361D01*
X162089000Y-116642995D01*
X162097988Y-116621270D01*
X162139181Y-116580006D01*
X162139186Y-116580000D01*
X162140976Y-116578206D01*
X162196751Y-116464102D01*
X162207596Y-116389763D01*
X162207596Y-116372106D01*
X162272896Y-116372106D01*
X162273191Y-116375103D01*
X162284095Y-116429919D01*
X162286368Y-116435407D01*
X162327914Y-116497585D01*
X162332116Y-116501787D01*
X162394294Y-116543333D01*
X162399782Y-116545606D01*
X162454598Y-116556510D01*
X162457595Y-116556805D01*
X162791779Y-116556805D01*
X162796104Y-116555013D01*
X162797896Y-116550688D01*
X162797896Y-115162922D01*
X162796104Y-115158597D01*
X162791779Y-115156805D01*
X162279013Y-115156805D01*
X162274688Y-115158597D01*
X162272896Y-115162922D01*
X162272896Y-116372106D01*
X162207596Y-116372106D01*
X162207596Y-114744288D01*
X162272896Y-114744288D01*
X162274688Y-114748613D01*
X162279013Y-114750405D01*
X162791779Y-114750405D01*
X162796104Y-114748613D01*
X162797896Y-114744288D01*
X162797896Y-113356522D01*
X162796104Y-113352197D01*
X162791779Y-113350405D01*
X162457595Y-113350405D01*
X162454598Y-113350700D01*
X162399782Y-113361604D01*
X162394294Y-113363877D01*
X162332116Y-113405423D01*
X162327914Y-113409625D01*
X162286368Y-113471803D01*
X162284095Y-113477291D01*
X162273191Y-113532107D01*
X162272896Y-113535104D01*
X162272896Y-114744288D01*
X162207596Y-114744288D01*
X162207596Y-113517447D01*
X162201685Y-113477291D01*
X162196907Y-113444829D01*
X162196906Y-113444826D01*
X162196558Y-113442461D01*
X162151361Y-113350405D01*
X162141703Y-113330735D01*
X162140583Y-113328454D01*
X162050697Y-113238725D01*
X162001381Y-113214619D01*
X161987016Y-113199988D01*
X161977868Y-113180369D01*
X161973400Y-113174608D01*
X161949116Y-113143302D01*
X161947347Y-113140768D01*
X161922479Y-113100970D01*
X161894854Y-113073152D01*
X161893966Y-113072203D01*
X161893528Y-113071638D01*
X161868058Y-113046168D01*
X161852552Y-113030553D01*
X161799137Y-112976764D01*
X161799135Y-112976762D01*
X161797925Y-112975544D01*
X161797005Y-112974960D01*
X161795500Y-112973610D01*
X156868996Y-108047106D01*
X157547896Y-108047106D01*
X157548191Y-108050103D01*
X157559095Y-108104919D01*
X157561368Y-108110407D01*
X157602914Y-108172585D01*
X157607116Y-108176787D01*
X157669294Y-108218333D01*
X157674782Y-108220606D01*
X157729598Y-108231510D01*
X157732595Y-108231805D01*
X162791779Y-108231805D01*
X162796104Y-108230013D01*
X162797896Y-108225688D01*
X163204296Y-108225688D01*
X163206088Y-108230013D01*
X163210413Y-108231805D01*
X168269597Y-108231805D01*
X168272594Y-108231510D01*
X168327410Y-108220606D01*
X168332898Y-108218333D01*
X168395076Y-108176787D01*
X168399278Y-108172585D01*
X168440824Y-108110407D01*
X168443097Y-108104919D01*
X168454001Y-108050103D01*
X168454296Y-108047106D01*
X168454296Y-104812922D01*
X168452504Y-104808597D01*
X168448179Y-104806805D01*
X163210413Y-104806805D01*
X163206088Y-104808597D01*
X163204296Y-104812922D01*
X163204296Y-108225688D01*
X162797896Y-108225688D01*
X162797896Y-104812922D01*
X162796104Y-104808597D01*
X162791779Y-104806805D01*
X157554013Y-104806805D01*
X157549688Y-104808597D01*
X157547896Y-104812922D01*
X157547896Y-108047106D01*
X156868996Y-108047106D01*
X156798006Y-107976116D01*
X156789000Y-107954372D01*
X156789000Y-104394288D01*
X157547896Y-104394288D01*
X157549688Y-104398613D01*
X157554013Y-104400405D01*
X162791779Y-104400405D01*
X162796104Y-104398613D01*
X162797896Y-104394288D01*
X163204296Y-104394288D01*
X163206088Y-104398613D01*
X163210413Y-104400405D01*
X168448179Y-104400405D01*
X168452504Y-104398613D01*
X168454296Y-104394288D01*
X168454296Y-101160104D01*
X168454001Y-101157107D01*
X168443097Y-101102291D01*
X168440824Y-101096803D01*
X168399278Y-101034625D01*
X168395076Y-101030423D01*
X168332898Y-100988877D01*
X168327410Y-100986604D01*
X168272594Y-100975700D01*
X168269597Y-100975405D01*
X163210413Y-100975405D01*
X163206088Y-100977197D01*
X163204296Y-100981522D01*
X163204296Y-104394288D01*
X162797896Y-104394288D01*
X162797896Y-100981522D01*
X162796104Y-100977197D01*
X162791779Y-100975405D01*
X157732595Y-100975405D01*
X157729598Y-100975700D01*
X157674782Y-100986604D01*
X157669294Y-100988877D01*
X157607116Y-101030423D01*
X157602914Y-101034625D01*
X157561368Y-101096803D01*
X157559095Y-101102291D01*
X157548191Y-101157107D01*
X157547896Y-101160104D01*
X157547896Y-104394288D01*
X156789000Y-104394288D01*
X156789000Y-101092697D01*
X156798006Y-101070953D01*
X158318453Y-99550506D01*
X158340197Y-99541500D01*
X171212003Y-99541500D01*
X171233747Y-99550506D01*
X172596407Y-100913166D01*
X172605413Y-100934910D01*
X172602289Y-100948414D01*
X172590891Y-100971733D01*
X172580445Y-100993103D01*
X172569600Y-101067442D01*
X172569600Y-104339758D01*
X172569764Y-104340870D01*
X172569764Y-104340874D01*
X172580195Y-104411733D01*
X172580638Y-104414744D01*
X172581692Y-104416890D01*
X172581692Y-104416891D01*
X172635493Y-104526470D01*
X172636613Y-104528751D01*
X172726499Y-104618480D01*
X172840603Y-104674255D01*
X172842966Y-104674600D01*
X172842967Y-104674600D01*
X172880949Y-104680141D01*
X172914942Y-104685100D01*
X178087258Y-104685100D01*
X178088370Y-104684936D01*
X178088374Y-104684936D01*
X178159876Y-104674411D01*
X178159879Y-104674410D01*
X178162244Y-104674062D01*
X178276251Y-104618087D01*
X178365980Y-104528201D01*
X178421755Y-104414097D01*
X178423753Y-104400405D01*
X178432440Y-104340854D01*
X178432600Y-104339758D01*
X178432600Y-101067442D01*
X178432436Y-101066326D01*
X178421911Y-100994824D01*
X178421910Y-100994821D01*
X178421562Y-100992456D01*
X178365587Y-100878449D01*
X178275701Y-100788720D01*
X178161597Y-100732945D01*
X178159234Y-100732600D01*
X178159233Y-100732600D01*
X178121251Y-100727059D01*
X178087258Y-100722100D01*
X174646597Y-100722100D01*
X174624853Y-100713094D01*
X172114196Y-98202437D01*
X172113970Y-98202208D01*
X172098727Y-98186642D01*
X172052227Y-98139158D01*
X172012793Y-98113744D01*
X172010267Y-98111929D01*
X171974957Y-98083742D01*
X171974955Y-98083741D01*
X171973610Y-98082667D01*
X171939121Y-98065995D01*
X171935849Y-98064158D01*
X171927611Y-98058849D01*
X171903645Y-98043404D01*
X171902035Y-98042818D01*
X171902031Y-98042816D01*
X171859564Y-98027360D01*
X171856698Y-98026149D01*
X171816016Y-98006482D01*
X171816010Y-98006480D01*
X171814465Y-98005733D01*
X171777135Y-97997114D01*
X171773540Y-97996049D01*
X171739163Y-97983537D01*
X171739160Y-97983536D01*
X171737541Y-97982947D01*
X171690999Y-97977067D01*
X171687946Y-97976523D01*
X171642232Y-97965969D01*
X171640515Y-97965963D01*
X171603013Y-97965832D01*
X171601723Y-97965789D01*
X171601020Y-97965700D01*
X171565042Y-97965700D01*
X171564468Y-97965698D01*
X171465469Y-97965353D01*
X171464407Y-97965590D01*
X171462384Y-97965700D01*
X158009530Y-97965700D01*
X158009208Y-97965698D01*
X157922693Y-97964792D01*
X157920974Y-97964774D01*
X157875111Y-97974690D01*
X157872055Y-97975190D01*
X157849100Y-97977765D01*
X157825438Y-97980419D01*
X157789254Y-97993020D01*
X157785653Y-97994032D01*
X157749883Y-98001765D01*
X157749878Y-98001767D01*
X157748202Y-98002129D01*
X157746638Y-98002858D01*
X157746639Y-98002858D01*
X157705688Y-98021953D01*
X157702806Y-98023124D01*
X157660125Y-98037987D01*
X157660123Y-98037988D01*
X157658506Y-98038551D01*
X157657049Y-98039462D01*
X157657048Y-98039462D01*
X157626023Y-98058849D01*
X157622723Y-98060641D01*
X157588000Y-98076832D01*
X157586641Y-98077886D01*
X157586638Y-98077888D01*
X157550933Y-98105584D01*
X157548399Y-98107353D01*
X157508601Y-98132221D01*
X157500381Y-98140384D01*
X157480785Y-98159844D01*
X157479834Y-98160734D01*
X157479269Y-98161172D01*
X157453799Y-98186642D01*
X157453723Y-98186717D01*
X157385559Y-98254408D01*
X157383175Y-98256775D01*
X157382591Y-98257695D01*
X157381241Y-98259200D01*
X155449937Y-100190504D01*
X155449709Y-100190729D01*
X155386658Y-100252473D01*
X155385728Y-100253916D01*
X155361244Y-100291907D01*
X155359429Y-100294433D01*
X155330167Y-100331090D01*
X155313495Y-100365578D01*
X155311658Y-100368851D01*
X155290904Y-100401055D01*
X155290318Y-100402665D01*
X155290316Y-100402669D01*
X155274860Y-100445136D01*
X155273649Y-100448002D01*
X155253982Y-100488684D01*
X155253980Y-100488690D01*
X155253233Y-100490235D01*
X155252846Y-100491911D01*
X155244616Y-100527560D01*
X155243549Y-100531160D01*
X155231037Y-100565537D01*
X155230447Y-100567159D01*
X155230232Y-100568863D01*
X155224568Y-100613697D01*
X155224023Y-100616754D01*
X155213469Y-100662468D01*
X155213463Y-100664185D01*
X155213332Y-100701687D01*
X155213289Y-100702977D01*
X155213200Y-100703680D01*
X155213200Y-100739658D01*
X155212853Y-100839231D01*
X155213090Y-100840293D01*
X155213200Y-100842316D01*
X155213200Y-107253913D01*
X155204194Y-107275657D01*
X155182450Y-107284663D01*
X155160706Y-107275657D01*
X154710259Y-106825211D01*
X154708038Y-106822735D01*
X154681813Y-106790117D01*
X154681810Y-106790114D01*
X154680875Y-106788951D01*
X154639172Y-106753958D01*
X154637195Y-106752147D01*
X154634408Y-106749360D01*
X154600576Y-106721569D01*
X154600376Y-106721404D01*
X154529315Y-106661777D01*
X154529313Y-106661776D01*
X154528167Y-106660814D01*
X154526771Y-106660047D01*
X154525953Y-106659596D01*
X154521261Y-106656419D01*
X154520482Y-106655779D01*
X154520476Y-106655775D01*
X154519311Y-106654818D01*
X154505634Y-106647485D01*
X154436280Y-106610297D01*
X154435997Y-106610144D01*
X154353479Y-106564779D01*
X154351078Y-106564017D01*
X154345850Y-106561809D01*
X154344950Y-106561326D01*
X154344942Y-106561323D01*
X154343626Y-106560617D01*
X154253589Y-106533090D01*
X154253337Y-106533012D01*
X154164900Y-106504957D01*
X154164898Y-106504957D01*
X154163465Y-106504502D01*
X154160959Y-106504221D01*
X154155406Y-106503071D01*
X154155011Y-106502951D01*
X154152991Y-106502333D01*
X154114210Y-106498394D01*
X154059166Y-106492802D01*
X154058847Y-106492767D01*
X154028030Y-106489311D01*
X154008316Y-106487100D01*
X154004584Y-106487100D01*
X154001477Y-106486943D01*
X153954665Y-106482188D01*
X153953173Y-106482329D01*
X153953170Y-106482329D01*
X153904140Y-106486964D01*
X153901246Y-106487100D01*
X146265850Y-106487100D01*
X146244106Y-106478094D01*
X146235100Y-106456350D01*
X146235100Y-106336890D01*
X146225181Y-106280635D01*
X146224831Y-106277975D01*
X146219969Y-106222410D01*
X146219852Y-106221068D01*
X146218250Y-106215089D01*
X146205068Y-106165890D01*
X146204487Y-106163272D01*
X146194800Y-106108337D01*
X146194800Y-106108336D01*
X146194567Y-106107016D01*
X146175032Y-106053344D01*
X146174225Y-106050786D01*
X146159788Y-105996903D01*
X146159786Y-105996899D01*
X146159439Y-105995602D01*
X146135299Y-105943833D01*
X146134273Y-105941355D01*
X146127268Y-105922109D01*
X151397892Y-105922109D01*
X151398187Y-105925106D01*
X151409091Y-105979922D01*
X151411364Y-105985410D01*
X151452910Y-106047588D01*
X151457112Y-106051790D01*
X151519290Y-106093336D01*
X151524778Y-106095609D01*
X151579594Y-106106513D01*
X151582591Y-106106808D01*
X152291775Y-106106808D01*
X152296100Y-106105016D01*
X152297892Y-106100691D01*
X152704292Y-106100691D01*
X152706084Y-106105016D01*
X152710409Y-106106808D01*
X153419593Y-106106808D01*
X153422590Y-106106513D01*
X153477406Y-106095609D01*
X153482894Y-106093336D01*
X153545072Y-106051790D01*
X153549274Y-106047588D01*
X153590820Y-105985410D01*
X153593093Y-105979922D01*
X153603997Y-105925106D01*
X153604292Y-105922109D01*
X153604292Y-104012925D01*
X153602500Y-104008600D01*
X153598175Y-104006808D01*
X152710409Y-104006808D01*
X152706084Y-104008600D01*
X152704292Y-104012925D01*
X152704292Y-106100691D01*
X152297892Y-106100691D01*
X152297892Y-104012925D01*
X152296100Y-104008600D01*
X152291775Y-104006808D01*
X151404009Y-104006808D01*
X151399684Y-104008600D01*
X151397892Y-104012925D01*
X151397892Y-105922109D01*
X146127268Y-105922109D01*
X146115195Y-105888939D01*
X146115189Y-105888927D01*
X146114733Y-105887673D01*
X146086171Y-105838201D01*
X146084935Y-105835828D01*
X146061357Y-105785266D01*
X146060791Y-105784052D01*
X146028027Y-105737259D01*
X146026586Y-105734997D01*
X145998697Y-105686693D01*
X145998696Y-105686691D01*
X145998023Y-105685526D01*
X145997162Y-105684499D01*
X145997155Y-105684490D01*
X145961305Y-105641765D01*
X145959672Y-105639638D01*
X145927677Y-105593945D01*
X145927674Y-105593942D01*
X145926907Y-105592846D01*
X145344106Y-105010045D01*
X145335100Y-104988301D01*
X145335100Y-103594291D01*
X151397892Y-103594291D01*
X151399684Y-103598616D01*
X151404009Y-103600408D01*
X152291775Y-103600408D01*
X152296100Y-103598616D01*
X152297892Y-103594291D01*
X152704292Y-103594291D01*
X152706084Y-103598616D01*
X152710409Y-103600408D01*
X153598175Y-103600408D01*
X153602500Y-103598616D01*
X153604292Y-103594291D01*
X153604292Y-101685107D01*
X153603997Y-101682110D01*
X153593093Y-101627294D01*
X153590820Y-101621806D01*
X153549274Y-101559628D01*
X153545072Y-101555426D01*
X153482894Y-101513880D01*
X153477406Y-101511607D01*
X153422590Y-101500703D01*
X153419593Y-101500408D01*
X152710409Y-101500408D01*
X152706084Y-101502200D01*
X152704292Y-101506525D01*
X152704292Y-103594291D01*
X152297892Y-103594291D01*
X152297892Y-101506525D01*
X152296100Y-101502200D01*
X152291775Y-101500408D01*
X151582591Y-101500408D01*
X151579594Y-101500703D01*
X151524778Y-101511607D01*
X151519290Y-101513880D01*
X151457112Y-101555426D01*
X151452910Y-101559628D01*
X151411364Y-101621806D01*
X151409091Y-101627294D01*
X151398187Y-101682110D01*
X151397892Y-101685107D01*
X151397892Y-103594291D01*
X145335100Y-103594291D01*
X145335100Y-99109160D01*
X145344106Y-99087416D01*
X145365850Y-99078410D01*
X145387594Y-99087416D01*
X145821478Y-99521300D01*
X145854113Y-99547161D01*
X145856095Y-99547980D01*
X145969514Y-99594844D01*
X145969517Y-99594845D01*
X145971495Y-99595662D01*
X145973628Y-99595905D01*
X146011338Y-99600202D01*
X146011346Y-99600202D01*
X146012202Y-99600300D01*
X146535071Y-99600300D01*
X147070001Y-99600299D01*
X147077307Y-99599453D01*
X147109234Y-99595756D01*
X147109237Y-99595755D01*
X147111363Y-99595509D01*
X147130326Y-99587635D01*
X147226678Y-99547627D01*
X147226680Y-99547626D01*
X147228659Y-99546804D01*
X147260723Y-99521299D01*
X147808800Y-98973222D01*
X147834661Y-98940587D01*
X147835480Y-98938605D01*
X147882344Y-98825186D01*
X147882345Y-98825183D01*
X147883162Y-98823205D01*
X147883643Y-98818982D01*
X147887702Y-98783362D01*
X147887702Y-98783354D01*
X147887800Y-98782498D01*
X147887799Y-97724699D01*
X147883009Y-97683337D01*
X147877451Y-97669952D01*
X147875100Y-97658160D01*
X147875100Y-96176890D01*
X147865181Y-96120635D01*
X147864831Y-96117975D01*
X147861753Y-96082793D01*
X147859852Y-96061068D01*
X147854084Y-96039540D01*
X147845068Y-96005890D01*
X147844487Y-96003272D01*
X147834800Y-95948337D01*
X147834800Y-95948336D01*
X147834567Y-95947016D01*
X147815032Y-95893344D01*
X147814225Y-95890786D01*
X147799788Y-95836903D01*
X147799786Y-95836899D01*
X147799439Y-95835602D01*
X147775299Y-95783833D01*
X147774273Y-95781355D01*
X147755195Y-95728939D01*
X147755189Y-95728927D01*
X147754733Y-95727673D01*
X147726171Y-95678201D01*
X147724935Y-95675828D01*
X147717933Y-95660811D01*
X147714570Y-95653600D01*
X158115351Y-95653600D01*
X158115730Y-95655990D01*
X158116114Y-95658416D01*
X158116397Y-95660811D01*
X158126670Y-95791341D01*
X158132885Y-95870304D01*
X158183630Y-96081672D01*
X158184093Y-96082789D01*
X158184094Y-96082793D01*
X158248916Y-96239288D01*
X158266815Y-96282499D01*
X158267445Y-96283527D01*
X158346965Y-96413291D01*
X158380393Y-96467841D01*
X158521566Y-96633134D01*
X158686859Y-96774307D01*
X158687883Y-96774934D01*
X158687885Y-96774936D01*
X158789417Y-96837155D01*
X158872201Y-96887885D01*
X158878258Y-96890394D01*
X159071907Y-96970606D01*
X159071911Y-96970607D01*
X159073028Y-96971070D01*
X159284396Y-97021815D01*
X159285599Y-97021910D01*
X159285601Y-97021910D01*
X159430994Y-97033353D01*
X159433600Y-97033734D01*
X159434689Y-97034116D01*
X159440277Y-97034600D01*
X159445638Y-97034600D01*
X159448051Y-97034695D01*
X159493889Y-97038303D01*
X159496278Y-97038585D01*
X159501100Y-97039349D01*
X159528691Y-97034979D01*
X159533501Y-97034600D01*
X163468699Y-97034600D01*
X163473509Y-97034979D01*
X163501100Y-97039349D01*
X163505922Y-97038585D01*
X163508311Y-97038303D01*
X163716599Y-97021910D01*
X163716601Y-97021910D01*
X163717804Y-97021815D01*
X163929172Y-96971070D01*
X163930289Y-96970607D01*
X163930293Y-96970606D01*
X164123942Y-96890394D01*
X164129999Y-96887885D01*
X164212783Y-96837155D01*
X164314315Y-96774936D01*
X164314317Y-96774934D01*
X164315341Y-96774307D01*
X164480634Y-96633134D01*
X164621807Y-96467841D01*
X164655236Y-96413291D01*
X164734755Y-96283527D01*
X164735385Y-96282499D01*
X164753284Y-96239288D01*
X164818106Y-96082793D01*
X164818107Y-96082789D01*
X164818570Y-96081672D01*
X164869315Y-95870304D01*
X164875530Y-95791341D01*
X164885803Y-95660811D01*
X164886086Y-95658416D01*
X164886470Y-95655990D01*
X164886849Y-95653600D01*
X164886085Y-95648778D01*
X164885803Y-95646389D01*
X164869410Y-95438101D01*
X164869410Y-95438099D01*
X164869315Y-95436896D01*
X164818570Y-95225528D01*
X164796843Y-95173073D01*
X164735848Y-95025819D01*
X164735385Y-95024701D01*
X164621807Y-94839359D01*
X164480634Y-94674066D01*
X164315341Y-94532893D01*
X164129999Y-94419315D01*
X164086788Y-94401416D01*
X163930293Y-94336594D01*
X163930289Y-94336593D01*
X163929172Y-94336130D01*
X163717804Y-94285385D01*
X163716601Y-94285290D01*
X163716599Y-94285290D01*
X163571206Y-94273847D01*
X163568600Y-94273466D01*
X163567511Y-94273084D01*
X163561923Y-94272600D01*
X163556562Y-94272600D01*
X163554149Y-94272505D01*
X163508311Y-94268897D01*
X163505922Y-94268615D01*
X163501100Y-94267851D01*
X163498707Y-94268230D01*
X163473509Y-94272221D01*
X163468699Y-94272600D01*
X159533501Y-94272600D01*
X159528691Y-94272221D01*
X159503493Y-94268230D01*
X159501100Y-94267851D01*
X159496278Y-94268615D01*
X159493889Y-94268897D01*
X159285601Y-94285290D01*
X159285599Y-94285290D01*
X159284396Y-94285385D01*
X159073028Y-94336130D01*
X159071911Y-94336593D01*
X159071907Y-94336594D01*
X158915412Y-94401416D01*
X158872201Y-94419315D01*
X158686859Y-94532893D01*
X158521566Y-94674066D01*
X158380393Y-94839359D01*
X158266815Y-95024701D01*
X158266352Y-95025819D01*
X158205358Y-95173073D01*
X158183630Y-95225528D01*
X158132885Y-95436896D01*
X158132790Y-95438099D01*
X158132790Y-95438101D01*
X158116397Y-95646389D01*
X158116115Y-95648778D01*
X158115351Y-95653600D01*
X147714570Y-95653600D01*
X147700791Y-95624052D01*
X147668027Y-95577259D01*
X147666586Y-95574997D01*
X147638697Y-95526693D01*
X147638696Y-95526691D01*
X147638023Y-95525526D01*
X147637162Y-95524499D01*
X147637155Y-95524490D01*
X147601305Y-95481765D01*
X147599672Y-95479638D01*
X147567677Y-95433945D01*
X147567674Y-95433942D01*
X147566907Y-95432846D01*
X146361854Y-94227793D01*
X146360758Y-94227026D01*
X146360755Y-94227023D01*
X146315062Y-94195028D01*
X146312935Y-94193395D01*
X146270210Y-94157545D01*
X146270201Y-94157538D01*
X146269174Y-94156677D01*
X146268007Y-94156003D01*
X146219701Y-94128113D01*
X146217439Y-94126672D01*
X146179054Y-94099795D01*
X146170648Y-94093909D01*
X146118883Y-94069771D01*
X146116504Y-94068532D01*
X146068188Y-94040636D01*
X146068185Y-94040635D01*
X146067027Y-94039966D01*
X146013339Y-94020425D01*
X146010861Y-94019398D01*
X145960310Y-93995826D01*
X145960308Y-93995825D01*
X145959098Y-93995261D01*
X145903918Y-93980475D01*
X145901363Y-93979670D01*
X145848937Y-93960589D01*
X145848933Y-93960588D01*
X145847683Y-93960133D01*
X145846370Y-93959901D01*
X145846368Y-93959901D01*
X145791430Y-93950214D01*
X145788811Y-93949633D01*
X145734934Y-93935197D01*
X145734935Y-93935197D01*
X145733632Y-93934848D01*
X145696991Y-93931642D01*
X145676725Y-93929869D01*
X145674065Y-93929519D01*
X145630536Y-93921844D01*
X145617810Y-93919600D01*
X140366399Y-93919600D01*
X140344655Y-93910594D01*
X139495280Y-93061219D01*
X140283049Y-93061219D01*
X140285281Y-93066146D01*
X140359237Y-93131004D01*
X140360833Y-93132229D01*
X140616630Y-93303147D01*
X140618365Y-93304149D01*
X140894279Y-93440214D01*
X140896139Y-93440985D01*
X141187450Y-93539871D01*
X141189392Y-93540391D01*
X141491118Y-93600409D01*
X141493114Y-93600672D01*
X141800091Y-93620792D01*
X141802105Y-93620792D01*
X142109082Y-93600672D01*
X142111078Y-93600409D01*
X142412804Y-93540391D01*
X142414746Y-93539871D01*
X142706057Y-93440985D01*
X142707917Y-93440214D01*
X142983831Y-93304149D01*
X142985566Y-93303147D01*
X143241363Y-93132229D01*
X143242959Y-93131004D01*
X143317309Y-93065800D01*
X143319118Y-93062133D01*
X143317213Y-93057072D01*
X141805423Y-91545282D01*
X141801098Y-91543491D01*
X141796773Y-91545282D01*
X140284613Y-93057442D01*
X140283049Y-93061219D01*
X139495280Y-93061219D01*
X138286819Y-91852758D01*
X138277813Y-91831014D01*
X138278358Y-91825252D01*
X138326369Y-91573574D01*
X138326370Y-91573567D01*
X138326549Y-91572628D01*
X138346558Y-91254596D01*
X139433895Y-91254596D01*
X139454015Y-91561573D01*
X139454278Y-91563569D01*
X139514296Y-91865295D01*
X139514816Y-91867237D01*
X139613702Y-92158548D01*
X139614473Y-92160408D01*
X139750538Y-92436321D01*
X139751540Y-92438056D01*
X139922458Y-92693854D01*
X139923683Y-92695450D01*
X139988887Y-92769800D01*
X139992554Y-92771609D01*
X139997615Y-92769704D01*
X141509405Y-91257914D01*
X141511196Y-91253589D01*
X142091000Y-91253589D01*
X142092791Y-91257914D01*
X143604951Y-92770074D01*
X143608728Y-92771638D01*
X143613655Y-92769406D01*
X143678513Y-92695450D01*
X143679738Y-92693854D01*
X143850656Y-92438056D01*
X143851658Y-92436321D01*
X143987723Y-92160408D01*
X143988494Y-92158548D01*
X144087380Y-91867237D01*
X144087900Y-91865295D01*
X144147918Y-91563569D01*
X144148181Y-91561573D01*
X144168301Y-91254596D01*
X144168301Y-91252582D01*
X144148181Y-90945605D01*
X144147918Y-90943609D01*
X144087900Y-90641883D01*
X144087380Y-90639941D01*
X143988494Y-90348630D01*
X143987723Y-90346770D01*
X143851658Y-90070857D01*
X143850656Y-90069122D01*
X143679738Y-89813324D01*
X143678513Y-89811728D01*
X143613309Y-89737378D01*
X143609642Y-89735569D01*
X143604581Y-89737474D01*
X142092791Y-91249264D01*
X142091000Y-91253589D01*
X141511196Y-91253589D01*
X141509405Y-91249264D01*
X139997245Y-89737104D01*
X139993468Y-89735540D01*
X139988541Y-89737772D01*
X139923683Y-89811728D01*
X139922458Y-89813324D01*
X139751540Y-90069122D01*
X139750538Y-90070857D01*
X139614473Y-90346770D01*
X139613702Y-90348630D01*
X139514816Y-90639941D01*
X139514296Y-90641883D01*
X139454278Y-90943609D01*
X139454015Y-90945605D01*
X139433895Y-91252582D01*
X139433895Y-91254596D01*
X138346558Y-91254596D01*
X138346621Y-91253589D01*
X138326549Y-90934550D01*
X138266649Y-90620543D01*
X138212299Y-90453271D01*
X138168164Y-90317438D01*
X138168162Y-90317432D01*
X138167865Y-90316519D01*
X138154851Y-90288863D01*
X138032173Y-90028157D01*
X138032170Y-90028151D01*
X138031757Y-90027274D01*
X137860469Y-89757368D01*
X137656704Y-89511059D01*
X137613899Y-89470862D01*
X137586407Y-89445045D01*
X140283078Y-89445045D01*
X140284983Y-89450106D01*
X141796773Y-90961896D01*
X141801098Y-90963687D01*
X141805423Y-90961896D01*
X143317583Y-89449736D01*
X143319147Y-89445959D01*
X143316915Y-89441032D01*
X143242959Y-89376174D01*
X143241363Y-89374949D01*
X142985566Y-89204031D01*
X142983831Y-89203029D01*
X142707917Y-89066964D01*
X142706057Y-89066193D01*
X142414746Y-88967307D01*
X142412804Y-88966787D01*
X142111078Y-88906769D01*
X142109082Y-88906506D01*
X141802105Y-88886386D01*
X141800091Y-88886386D01*
X141493114Y-88906506D01*
X141491118Y-88906769D01*
X141189392Y-88966787D01*
X141187450Y-88967307D01*
X140896139Y-89066193D01*
X140894279Y-89066964D01*
X140618366Y-89203029D01*
X140616631Y-89204031D01*
X140360833Y-89374949D01*
X140359237Y-89376174D01*
X140284887Y-89441378D01*
X140283078Y-89445045D01*
X137586407Y-89445045D01*
X137424376Y-89292888D01*
X137424373Y-89292886D01*
X137423675Y-89292230D01*
X137404603Y-89278373D01*
X137372842Y-89255298D01*
X137165057Y-89104333D01*
X137018812Y-89023934D01*
X136885779Y-88950798D01*
X136885775Y-88950796D01*
X136884929Y-88950331D01*
X136884036Y-88949978D01*
X136884033Y-88949976D01*
X136774240Y-88906506D01*
X136587708Y-88832653D01*
X136586777Y-88832414D01*
X136586774Y-88832413D01*
X136348369Y-88771201D01*
X136278081Y-88753154D01*
X136277126Y-88753033D01*
X136277124Y-88753033D01*
X135961893Y-88713210D01*
X135961889Y-88713210D01*
X135960933Y-88713089D01*
X135641263Y-88713089D01*
X135640307Y-88713210D01*
X135640303Y-88713210D01*
X135325072Y-88753033D01*
X135325070Y-88753033D01*
X135324115Y-88753154D01*
X135253827Y-88771201D01*
X135015422Y-88832413D01*
X135015419Y-88832414D01*
X135014488Y-88832653D01*
X134827956Y-88906506D01*
X134718163Y-88949976D01*
X134718160Y-88949978D01*
X134717267Y-88950331D01*
X134716421Y-88950796D01*
X134716417Y-88950798D01*
X134583384Y-89023934D01*
X134437139Y-89104333D01*
X134229354Y-89255298D01*
X134197594Y-89278373D01*
X134178521Y-89292230D01*
X134177823Y-89292886D01*
X134177820Y-89292888D01*
X133988297Y-89470862D01*
X133945492Y-89511059D01*
X133741727Y-89757368D01*
X133570439Y-90027274D01*
X133570026Y-90028151D01*
X133570023Y-90028157D01*
X133447345Y-90288863D01*
X133434331Y-90316519D01*
X133434034Y-90317432D01*
X133434032Y-90317438D01*
X133389897Y-90453271D01*
X133335547Y-90620543D01*
X133275647Y-90934550D01*
X133255575Y-91253589D01*
X133255636Y-91254559D01*
X133267627Y-91445152D01*
X133260004Y-91467418D01*
X133238869Y-91477772D01*
X133215194Y-91468827D01*
X131974160Y-90227793D01*
X131973064Y-90227026D01*
X131973061Y-90227023D01*
X131927368Y-90195028D01*
X131925241Y-90193395D01*
X131882516Y-90157545D01*
X131882507Y-90157538D01*
X131881480Y-90156677D01*
X131880313Y-90156003D01*
X131832007Y-90128113D01*
X131829745Y-90126672D01*
X131806899Y-90110675D01*
X131782954Y-90093909D01*
X131731189Y-90069771D01*
X131728810Y-90068532D01*
X131680494Y-90040636D01*
X131680491Y-90040635D01*
X131679333Y-90039966D01*
X131625645Y-90020425D01*
X131623167Y-90019398D01*
X131572616Y-89995826D01*
X131572614Y-89995825D01*
X131571404Y-89995261D01*
X131516224Y-89980475D01*
X131513669Y-89979670D01*
X131461243Y-89960589D01*
X131461239Y-89960588D01*
X131459989Y-89960133D01*
X131458676Y-89959901D01*
X131458674Y-89959901D01*
X131403736Y-89950214D01*
X131401117Y-89949633D01*
X131347240Y-89935197D01*
X131347241Y-89935197D01*
X131345938Y-89934848D01*
X131309297Y-89931642D01*
X131289031Y-89929869D01*
X131286371Y-89929519D01*
X131258903Y-89924676D01*
X131230116Y-89919600D01*
X127566399Y-89919600D01*
X127544655Y-89910594D01*
X126979106Y-89345045D01*
X126970100Y-89323301D01*
X126970100Y-89179165D01*
X127690437Y-89179165D01*
X127691527Y-89181798D01*
X127715076Y-89198908D01*
X127717853Y-89200511D01*
X127890506Y-89277382D01*
X127893557Y-89278373D01*
X128078411Y-89317664D01*
X128081610Y-89318000D01*
X128270590Y-89318000D01*
X128273789Y-89317664D01*
X128458643Y-89278373D01*
X128461694Y-89277382D01*
X128634347Y-89200511D01*
X128637124Y-89198908D01*
X128659349Y-89182760D01*
X128661795Y-89178769D01*
X128661130Y-89175998D01*
X128180425Y-88695293D01*
X128176100Y-88693502D01*
X128171775Y-88695293D01*
X127692228Y-89174840D01*
X127690437Y-89179165D01*
X126970100Y-89179165D01*
X126970100Y-88504237D01*
X126970433Y-88499726D01*
X126972594Y-88485156D01*
X126972594Y-88485152D01*
X126972790Y-88483832D01*
X126972192Y-88461925D01*
X126970642Y-88405198D01*
X127256831Y-88405198D01*
X127276587Y-88593159D01*
X127277254Y-88596297D01*
X127335655Y-88776036D01*
X127336959Y-88778965D01*
X127398471Y-88885506D01*
X127402184Y-88888355D01*
X127404248Y-88888084D01*
X127884407Y-88407925D01*
X127886198Y-88403600D01*
X128466002Y-88403600D01*
X128467793Y-88407925D01*
X128946346Y-88886478D01*
X128950671Y-88888269D01*
X128952594Y-88887473D01*
X129015241Y-88778965D01*
X129016545Y-88776036D01*
X129074946Y-88596297D01*
X129075613Y-88593159D01*
X129095369Y-88405198D01*
X129095369Y-88402002D01*
X129091082Y-88361219D01*
X137283049Y-88361219D01*
X137285281Y-88366146D01*
X137359237Y-88431004D01*
X137360833Y-88432229D01*
X137616630Y-88603147D01*
X137618365Y-88604149D01*
X137894279Y-88740214D01*
X137896139Y-88740985D01*
X138187450Y-88839871D01*
X138189392Y-88840391D01*
X138491118Y-88900409D01*
X138493114Y-88900672D01*
X138800091Y-88920792D01*
X138802105Y-88920792D01*
X139109082Y-88900672D01*
X139111078Y-88900409D01*
X139412804Y-88840391D01*
X139414746Y-88839871D01*
X139706057Y-88740985D01*
X139707917Y-88740214D01*
X139983831Y-88604149D01*
X139985566Y-88603147D01*
X140241363Y-88432229D01*
X140242959Y-88431004D01*
X140317309Y-88365800D01*
X140319118Y-88362133D01*
X140317213Y-88357072D01*
X138805423Y-86845282D01*
X138801098Y-86843491D01*
X138796773Y-86845282D01*
X137284613Y-88357442D01*
X137283049Y-88361219D01*
X129091082Y-88361219D01*
X129075613Y-88214041D01*
X129074946Y-88210903D01*
X129016545Y-88031164D01*
X129015241Y-88028235D01*
X128953729Y-87921694D01*
X128950016Y-87918845D01*
X128947952Y-87919116D01*
X128467793Y-88399275D01*
X128466002Y-88403600D01*
X127886198Y-88403600D01*
X127884407Y-88399275D01*
X127405854Y-87920722D01*
X127401529Y-87918931D01*
X127399606Y-87919727D01*
X127336959Y-88028235D01*
X127335655Y-88031164D01*
X127277254Y-88210903D01*
X127276587Y-88214041D01*
X127256831Y-88402002D01*
X127256831Y-88405198D01*
X126970642Y-88405198D01*
X126970111Y-88385778D01*
X126970100Y-88384938D01*
X126970100Y-88345353D01*
X126968591Y-88328105D01*
X126968485Y-88326266D01*
X126966451Y-88251834D01*
X126966415Y-88250499D01*
X126958709Y-88212840D01*
X126958202Y-88209355D01*
X126955357Y-88176840D01*
X126954852Y-88171068D01*
X126939000Y-88111907D01*
X126935238Y-88097866D01*
X126934814Y-88096072D01*
X126919888Y-88023133D01*
X126919888Y-88023132D01*
X126919619Y-88021819D01*
X126909198Y-87995450D01*
X126905490Y-87986069D01*
X126904386Y-87982726D01*
X126904104Y-87981672D01*
X126894439Y-87945602D01*
X126862407Y-87876911D01*
X126861682Y-87875225D01*
X126855563Y-87859741D01*
X126855561Y-87859737D01*
X126855315Y-87859114D01*
X126837605Y-87823695D01*
X126837239Y-87822938D01*
X126796358Y-87735268D01*
X126795791Y-87734052D01*
X126786577Y-87720892D01*
X126784262Y-87717008D01*
X126739973Y-87628431D01*
X127690405Y-87628431D01*
X127691071Y-87631203D01*
X128171775Y-88111907D01*
X128176100Y-88113698D01*
X128180425Y-88111907D01*
X128659972Y-87632360D01*
X128661763Y-87628035D01*
X128660673Y-87625402D01*
X128637124Y-87608292D01*
X128634347Y-87606689D01*
X128461694Y-87529818D01*
X128458643Y-87528827D01*
X128273789Y-87489536D01*
X128270590Y-87489200D01*
X128081610Y-87489200D01*
X128078411Y-87489536D01*
X127893553Y-87528828D01*
X127890506Y-87529819D01*
X127717864Y-87606684D01*
X127715070Y-87608297D01*
X127692851Y-87624440D01*
X127690405Y-87628431D01*
X126739973Y-87628431D01*
X126365663Y-86879810D01*
X126363995Y-86856334D01*
X126379415Y-86838554D01*
X126402891Y-86836886D01*
X126405295Y-86837801D01*
X126503074Y-86879810D01*
X126565701Y-86906717D01*
X126565703Y-86906718D01*
X126566991Y-86907271D01*
X126762863Y-86951593D01*
X126834444Y-86954405D01*
X126962121Y-86959422D01*
X126962126Y-86959422D01*
X126963532Y-86959477D01*
X126964924Y-86959275D01*
X126964927Y-86959275D01*
X127062906Y-86945068D01*
X127162279Y-86930660D01*
X127163610Y-86930208D01*
X127163615Y-86930207D01*
X127312077Y-86879810D01*
X127352445Y-86866107D01*
X127353673Y-86865420D01*
X127353676Y-86865418D01*
X127526434Y-86768669D01*
X127526440Y-86768665D01*
X127527663Y-86767980D01*
X127682066Y-86639566D01*
X127682400Y-86639165D01*
X128960437Y-86639165D01*
X128961527Y-86641798D01*
X128985076Y-86658908D01*
X128987853Y-86660511D01*
X129160506Y-86737382D01*
X129163557Y-86738373D01*
X129348411Y-86777664D01*
X129351610Y-86778000D01*
X129540590Y-86778000D01*
X129543789Y-86777664D01*
X129728643Y-86738373D01*
X129731694Y-86737382D01*
X129904347Y-86660511D01*
X129907124Y-86658908D01*
X129929349Y-86642760D01*
X129931795Y-86638769D01*
X129931130Y-86635998D01*
X129849728Y-86554596D01*
X136433895Y-86554596D01*
X136454015Y-86861573D01*
X136454278Y-86863569D01*
X136514296Y-87165295D01*
X136514816Y-87167237D01*
X136613702Y-87458548D01*
X136614473Y-87460408D01*
X136750538Y-87736321D01*
X136751540Y-87738056D01*
X136922458Y-87993854D01*
X136923683Y-87995450D01*
X136988887Y-88069800D01*
X136992554Y-88071609D01*
X136997615Y-88069704D01*
X138509405Y-86557914D01*
X138511196Y-86553589D01*
X139091000Y-86553589D01*
X139092791Y-86557914D01*
X140604951Y-88070074D01*
X140608728Y-88071638D01*
X140613655Y-88069406D01*
X140678513Y-87995450D01*
X140679738Y-87993854D01*
X140850656Y-87738056D01*
X140851658Y-87736321D01*
X140941766Y-87553600D01*
X158115351Y-87553600D01*
X158115730Y-87555990D01*
X158116114Y-87558416D01*
X158116397Y-87560811D01*
X158130210Y-87736321D01*
X158132885Y-87770304D01*
X158183630Y-87981672D01*
X158184093Y-87982789D01*
X158184094Y-87982793D01*
X158237575Y-88111907D01*
X158266815Y-88182499D01*
X158267445Y-88183527D01*
X158373794Y-88357072D01*
X158380393Y-88367841D01*
X158521566Y-88533134D01*
X158686859Y-88674307D01*
X158687883Y-88674934D01*
X158687885Y-88674936D01*
X158840633Y-88768540D01*
X158872201Y-88787885D01*
X158873320Y-88788348D01*
X158873319Y-88788348D01*
X159071907Y-88870606D01*
X159071911Y-88870607D01*
X159073028Y-88871070D01*
X159284396Y-88921815D01*
X159285599Y-88921910D01*
X159285601Y-88921910D01*
X159430994Y-88933353D01*
X159433600Y-88933734D01*
X159434689Y-88934116D01*
X159440277Y-88934600D01*
X159445638Y-88934600D01*
X159448051Y-88934695D01*
X159493889Y-88938303D01*
X159496278Y-88938585D01*
X159501100Y-88939349D01*
X159528691Y-88934979D01*
X159533501Y-88934600D01*
X163468699Y-88934600D01*
X163473509Y-88934979D01*
X163501100Y-88939349D01*
X163505922Y-88938585D01*
X163508311Y-88938303D01*
X163716599Y-88921910D01*
X163716601Y-88921910D01*
X163717804Y-88921815D01*
X163929172Y-88871070D01*
X163930289Y-88870607D01*
X163930293Y-88870606D01*
X164128881Y-88788348D01*
X164128880Y-88788348D01*
X164129999Y-88787885D01*
X164161567Y-88768540D01*
X164314315Y-88674936D01*
X164314317Y-88674934D01*
X164315341Y-88674307D01*
X164480634Y-88533134D01*
X164621807Y-88367841D01*
X164628407Y-88357072D01*
X164734755Y-88183527D01*
X164735385Y-88182499D01*
X164764625Y-88111907D01*
X164818106Y-87982793D01*
X164818107Y-87982789D01*
X164818570Y-87981672D01*
X164869315Y-87770304D01*
X164871990Y-87736321D01*
X164885803Y-87560811D01*
X164886086Y-87558416D01*
X164886470Y-87555990D01*
X164886849Y-87553600D01*
X164886085Y-87548778D01*
X164885803Y-87546389D01*
X164869410Y-87338101D01*
X164869410Y-87338099D01*
X164869315Y-87336896D01*
X164818570Y-87125528D01*
X164764877Y-86995900D01*
X164735848Y-86925819D01*
X164735385Y-86924701D01*
X164699756Y-86866560D01*
X164622436Y-86740385D01*
X164622434Y-86740383D01*
X164621807Y-86739359D01*
X164480634Y-86574066D01*
X164315341Y-86432893D01*
X164283594Y-86413438D01*
X164131027Y-86319945D01*
X164129999Y-86319315D01*
X163991377Y-86261896D01*
X163930293Y-86236594D01*
X163930289Y-86236593D01*
X163929172Y-86236130D01*
X163717804Y-86185385D01*
X163716601Y-86185290D01*
X163716599Y-86185290D01*
X163571206Y-86173847D01*
X163568600Y-86173466D01*
X163567511Y-86173084D01*
X163561923Y-86172600D01*
X163556562Y-86172600D01*
X163554149Y-86172505D01*
X163508311Y-86168897D01*
X163505922Y-86168615D01*
X163501100Y-86167851D01*
X163498707Y-86168230D01*
X163473509Y-86172221D01*
X163468699Y-86172600D01*
X159533501Y-86172600D01*
X159528691Y-86172221D01*
X159503493Y-86168230D01*
X159501100Y-86167851D01*
X159496278Y-86168615D01*
X159493889Y-86168897D01*
X159285601Y-86185290D01*
X159285599Y-86185290D01*
X159284396Y-86185385D01*
X159073028Y-86236130D01*
X159071911Y-86236593D01*
X159071907Y-86236594D01*
X159010823Y-86261896D01*
X158872201Y-86319315D01*
X158871173Y-86319945D01*
X158718607Y-86413438D01*
X158686859Y-86432893D01*
X158521566Y-86574066D01*
X158380393Y-86739359D01*
X158379766Y-86740383D01*
X158379764Y-86740385D01*
X158302444Y-86866560D01*
X158266815Y-86924701D01*
X158266352Y-86925819D01*
X158237324Y-86995900D01*
X158183630Y-87125528D01*
X158132885Y-87336896D01*
X158132790Y-87338099D01*
X158132790Y-87338101D01*
X158116397Y-87546389D01*
X158116115Y-87548778D01*
X158115351Y-87553600D01*
X140941766Y-87553600D01*
X140987723Y-87460408D01*
X140988494Y-87458548D01*
X141087380Y-87167237D01*
X141087900Y-87165295D01*
X141147918Y-86863569D01*
X141148181Y-86861573D01*
X141168301Y-86554596D01*
X141168301Y-86552582D01*
X141148181Y-86245605D01*
X141147918Y-86243609D01*
X141087900Y-85941883D01*
X141087380Y-85939941D01*
X140988494Y-85648630D01*
X140987723Y-85646770D01*
X140851658Y-85370857D01*
X140850656Y-85369122D01*
X140679738Y-85113324D01*
X140678513Y-85111728D01*
X140613309Y-85037378D01*
X140609642Y-85035569D01*
X140604581Y-85037474D01*
X139092791Y-86549264D01*
X139091000Y-86553589D01*
X138511196Y-86553589D01*
X138509405Y-86549264D01*
X136997245Y-85037104D01*
X136993468Y-85035540D01*
X136988541Y-85037772D01*
X136923683Y-85111728D01*
X136922458Y-85113324D01*
X136751540Y-85369122D01*
X136750538Y-85370857D01*
X136614473Y-85646770D01*
X136613702Y-85648630D01*
X136514816Y-85939941D01*
X136514296Y-85941883D01*
X136454278Y-86243609D01*
X136454015Y-86245605D01*
X136433895Y-86552582D01*
X136433895Y-86554596D01*
X129849728Y-86554596D01*
X129450425Y-86155293D01*
X129446100Y-86153502D01*
X129441775Y-86155293D01*
X128962228Y-86634840D01*
X128960437Y-86639165D01*
X127682400Y-86639165D01*
X127810480Y-86485163D01*
X127811165Y-86483940D01*
X127811169Y-86483934D01*
X127907918Y-86311176D01*
X127907920Y-86311173D01*
X127908607Y-86309945D01*
X127950922Y-86185290D01*
X127972707Y-86121115D01*
X127972708Y-86121110D01*
X127973160Y-86119779D01*
X127998954Y-85941883D01*
X128001848Y-85921925D01*
X128001849Y-85921917D01*
X128001977Y-85921032D01*
X128003439Y-85865198D01*
X128526831Y-85865198D01*
X128546587Y-86053159D01*
X128547254Y-86056297D01*
X128605655Y-86236036D01*
X128606959Y-86238965D01*
X128668471Y-86345506D01*
X128672184Y-86348355D01*
X128674248Y-86348084D01*
X129154407Y-85867925D01*
X129156198Y-85863600D01*
X129736002Y-85863600D01*
X129737793Y-85867925D01*
X130216346Y-86346478D01*
X130220671Y-86348269D01*
X130222594Y-86347473D01*
X130285241Y-86238965D01*
X130286545Y-86236036D01*
X130344946Y-86056297D01*
X130345613Y-86053159D01*
X130365369Y-85865198D01*
X130365369Y-85862002D01*
X130345613Y-85674041D01*
X130344946Y-85670903D01*
X130286545Y-85491164D01*
X130285241Y-85488235D01*
X130223729Y-85381694D01*
X130220016Y-85378845D01*
X130217952Y-85379116D01*
X129737793Y-85859275D01*
X129736002Y-85863600D01*
X129156198Y-85863600D01*
X129154407Y-85859275D01*
X128675854Y-85380722D01*
X128671529Y-85378931D01*
X128669606Y-85379727D01*
X128606959Y-85488235D01*
X128605655Y-85491164D01*
X128547254Y-85670903D01*
X128546587Y-85674041D01*
X128526831Y-85862002D01*
X128526831Y-85865198D01*
X128003439Y-85865198D01*
X128003481Y-85863600D01*
X127985105Y-85663618D01*
X127930593Y-85470334D01*
X127841771Y-85290220D01*
X127721613Y-85129309D01*
X127720579Y-85128353D01*
X127677392Y-85088431D01*
X128960405Y-85088431D01*
X128961071Y-85091203D01*
X129441775Y-85571907D01*
X129446100Y-85573698D01*
X129450425Y-85571907D01*
X129929972Y-85092360D01*
X129931763Y-85088035D01*
X129930673Y-85085402D01*
X129907124Y-85068292D01*
X129904347Y-85066689D01*
X129731694Y-84989818D01*
X129728643Y-84988827D01*
X129543789Y-84949536D01*
X129540590Y-84949200D01*
X129351610Y-84949200D01*
X129348411Y-84949536D01*
X129163553Y-84988828D01*
X129160506Y-84989819D01*
X128987864Y-85066684D01*
X128985070Y-85068297D01*
X128962851Y-85084440D01*
X128960405Y-85088431D01*
X127677392Y-85088431D01*
X127575183Y-84993950D01*
X127575181Y-84993948D01*
X127574143Y-84992989D01*
X127414424Y-84892213D01*
X127405492Y-84886577D01*
X127405488Y-84886575D01*
X127404301Y-84885826D01*
X127311037Y-84848618D01*
X127219080Y-84811930D01*
X127219076Y-84811929D01*
X127217773Y-84811409D01*
X127216392Y-84811134D01*
X127216391Y-84811134D01*
X127022196Y-84772507D01*
X127022195Y-84772507D01*
X127020808Y-84772231D01*
X127019397Y-84772213D01*
X127019392Y-84772212D01*
X126821408Y-84769620D01*
X126821403Y-84769620D01*
X126820000Y-84769602D01*
X126818615Y-84769840D01*
X126623472Y-84803371D01*
X126623469Y-84803372D01*
X126622077Y-84803611D01*
X126433665Y-84873120D01*
X126261076Y-84975800D01*
X126260018Y-84976728D01*
X126260015Y-84976730D01*
X126111148Y-85107283D01*
X126110088Y-85108213D01*
X125985759Y-85265923D01*
X125892252Y-85443650D01*
X125891836Y-85444989D01*
X125891835Y-85444992D01*
X125858462Y-85552473D01*
X125832699Y-85635442D01*
X125832534Y-85636839D01*
X125827701Y-85677668D01*
X125816201Y-85698202D01*
X125793549Y-85704590D01*
X125773015Y-85693090D01*
X125769660Y-85687805D01*
X125764592Y-85677668D01*
X125533217Y-85214919D01*
X125441636Y-85065853D01*
X125440751Y-85064855D01*
X125440748Y-85064851D01*
X125287661Y-84892213D01*
X125286770Y-84891208D01*
X125285718Y-84890373D01*
X125104981Y-84746943D01*
X125104976Y-84746940D01*
X125103928Y-84746108D01*
X125102749Y-84745469D01*
X125102745Y-84745467D01*
X124899853Y-84635604D01*
X124899852Y-84635604D01*
X124898669Y-84634963D01*
X124734023Y-84580081D01*
X124678503Y-84561574D01*
X124678499Y-84561573D01*
X124677227Y-84561149D01*
X124675900Y-84560952D01*
X124675895Y-84560951D01*
X124447656Y-84527106D01*
X124447652Y-84527106D01*
X124446332Y-84526910D01*
X124445003Y-84526946D01*
X124444998Y-84526946D01*
X124333129Y-84530002D01*
X124213000Y-84533284D01*
X124087386Y-84558990D01*
X123985633Y-84579812D01*
X123985632Y-84579812D01*
X123984319Y-84580081D01*
X123767238Y-84665876D01*
X123766101Y-84666574D01*
X123766098Y-84666576D01*
X123598374Y-84769620D01*
X123568353Y-84788064D01*
X123567355Y-84788949D01*
X123567351Y-84788952D01*
X123468575Y-84876542D01*
X123393708Y-84942930D01*
X123392874Y-84943981D01*
X123392873Y-84943982D01*
X123249443Y-85124719D01*
X123249440Y-85124724D01*
X123248608Y-85125772D01*
X123247969Y-85126951D01*
X123247967Y-85126955D01*
X123155633Y-85297475D01*
X123137463Y-85331031D01*
X123063649Y-85552473D01*
X123063452Y-85553800D01*
X123063451Y-85553805D01*
X123029606Y-85782044D01*
X123029410Y-85783368D01*
X123029446Y-85784697D01*
X123029446Y-85784702D01*
X123031558Y-85862002D01*
X123035784Y-86016700D01*
X123056878Y-86119779D01*
X123064146Y-86155293D01*
X123082581Y-86245381D01*
X123146885Y-86408085D01*
X123147179Y-86408673D01*
X123147183Y-86408682D01*
X123635078Y-87384470D01*
X123636746Y-87407946D01*
X123621326Y-87425726D01*
X123597850Y-87427394D01*
X123594688Y-87426070D01*
X123594301Y-87425826D01*
X123490641Y-87384470D01*
X123409080Y-87351930D01*
X123409076Y-87351929D01*
X123407773Y-87351409D01*
X123406392Y-87351134D01*
X123406391Y-87351134D01*
X123212196Y-87312507D01*
X123212195Y-87312507D01*
X123210808Y-87312231D01*
X123209397Y-87312213D01*
X123209392Y-87312212D01*
X123011408Y-87309620D01*
X123011403Y-87309620D01*
X123010000Y-87309602D01*
X123008615Y-87309840D01*
X122813472Y-87343371D01*
X122813469Y-87343372D01*
X122812077Y-87343611D01*
X122623665Y-87413120D01*
X122451076Y-87515800D01*
X122450018Y-87516728D01*
X122450015Y-87516730D01*
X122301148Y-87647283D01*
X122300088Y-87648213D01*
X122299213Y-87649323D01*
X122266089Y-87691341D01*
X122175759Y-87805923D01*
X122082252Y-87983650D01*
X122081836Y-87984989D01*
X122081835Y-87984992D01*
X122024462Y-88169765D01*
X122022699Y-88175442D01*
X121999095Y-88374874D01*
X122004683Y-88460125D01*
X122012080Y-88572976D01*
X122012230Y-88575268D01*
X122012578Y-88576638D01*
X122047232Y-88713089D01*
X122061663Y-88769913D01*
X122145740Y-88952290D01*
X122146550Y-88953435D01*
X122146551Y-88953438D01*
X122226783Y-89066964D01*
X122261645Y-89116292D01*
X122405496Y-89256425D01*
X122406660Y-89257203D01*
X122406664Y-89257206D01*
X122571301Y-89367213D01*
X122571305Y-89367215D01*
X122572475Y-89367997D01*
X122573775Y-89368555D01*
X122573774Y-89368555D01*
X122755701Y-89446717D01*
X122755703Y-89446718D01*
X122756991Y-89447271D01*
X122952863Y-89491593D01*
X123024444Y-89494405D01*
X123152121Y-89499422D01*
X123152126Y-89499422D01*
X123153532Y-89499477D01*
X123154924Y-89499275D01*
X123154927Y-89499275D01*
X123252905Y-89485069D01*
X123352279Y-89470660D01*
X123353610Y-89470208D01*
X123353615Y-89470207D01*
X123447362Y-89438383D01*
X123542445Y-89406107D01*
X123543673Y-89405420D01*
X123543676Y-89405418D01*
X123716434Y-89308669D01*
X123716440Y-89308665D01*
X123717663Y-89307980D01*
X123872066Y-89179566D01*
X124000480Y-89025163D01*
X124001165Y-89023940D01*
X124001169Y-89023934D01*
X124097918Y-88851176D01*
X124097920Y-88851173D01*
X124098607Y-88849945D01*
X124158015Y-88674936D01*
X124162707Y-88661115D01*
X124162708Y-88661110D01*
X124163160Y-88659779D01*
X124173718Y-88586962D01*
X124185752Y-88566735D01*
X124208562Y-88560942D01*
X124228789Y-88572976D01*
X124231654Y-88577622D01*
X124298854Y-88712022D01*
X124302100Y-88725774D01*
X124302100Y-90005310D01*
X124302333Y-90006630D01*
X124312019Y-90061565D01*
X124312369Y-90064225D01*
X124312805Y-90069204D01*
X124317348Y-90121132D01*
X124319039Y-90127442D01*
X124332133Y-90176311D01*
X124332714Y-90178930D01*
X124341194Y-90227023D01*
X124342633Y-90235183D01*
X124343088Y-90236433D01*
X124343089Y-90236437D01*
X124362170Y-90288863D01*
X124362975Y-90291418D01*
X124377761Y-90346598D01*
X124378325Y-90347808D01*
X124378326Y-90347810D01*
X124401898Y-90398361D01*
X124402925Y-90400839D01*
X124422466Y-90454527D01*
X124423135Y-90455685D01*
X124423136Y-90455688D01*
X124451032Y-90504004D01*
X124452271Y-90506383D01*
X124476409Y-90558148D01*
X124477179Y-90559247D01*
X124509172Y-90604939D01*
X124510613Y-90607201D01*
X124529516Y-90639941D01*
X124539177Y-90656674D01*
X124540038Y-90657701D01*
X124540045Y-90657710D01*
X124575895Y-90700435D01*
X124577528Y-90702562D01*
X124609523Y-90748255D01*
X124610293Y-90749354D01*
X126140346Y-92279407D01*
X126141446Y-92280177D01*
X126187131Y-92312166D01*
X126189257Y-92313796D01*
X126233027Y-92350524D01*
X126234193Y-92351197D01*
X126282495Y-92379084D01*
X126284757Y-92380525D01*
X126331552Y-92413291D01*
X126332763Y-92413856D01*
X126332767Y-92413858D01*
X126383324Y-92437433D01*
X126385698Y-92438669D01*
X126435174Y-92467234D01*
X126488875Y-92486780D01*
X126491326Y-92487796D01*
X126543102Y-92511939D01*
X126598273Y-92526722D01*
X126600831Y-92527528D01*
X126653263Y-92546612D01*
X126653267Y-92546613D01*
X126654517Y-92547068D01*
X126655831Y-92547300D01*
X126655832Y-92547300D01*
X126710779Y-92556989D01*
X126713397Y-92557570D01*
X126762417Y-92570704D01*
X126768568Y-92572352D01*
X126817954Y-92576673D01*
X126825475Y-92577331D01*
X126828136Y-92577681D01*
X126884390Y-92587600D01*
X130548107Y-92587600D01*
X130569851Y-92596606D01*
X131160106Y-93186861D01*
X131169112Y-93208605D01*
X131160106Y-93230349D01*
X131138362Y-93239355D01*
X131130949Y-93238448D01*
X131112143Y-93233777D01*
X131062060Y-93221336D01*
X131060980Y-93221225D01*
X131060978Y-93221225D01*
X130956962Y-93210568D01*
X130819655Y-93196500D01*
X130643690Y-93196500D01*
X130643143Y-93196539D01*
X130643135Y-93196539D01*
X130433660Y-93211371D01*
X130433658Y-93211371D01*
X130432575Y-93211448D01*
X130154707Y-93271271D01*
X130153682Y-93271649D01*
X130153679Y-93271650D01*
X130105032Y-93289597D01*
X129888040Y-93369650D01*
X129887087Y-93370164D01*
X129887083Y-93370166D01*
X129837140Y-93397114D01*
X129637895Y-93504621D01*
X129409263Y-93673491D01*
X129206706Y-93872890D01*
X129034266Y-94098841D01*
X128895383Y-94346835D01*
X128792827Y-94611924D01*
X128792584Y-94612973D01*
X128792582Y-94612979D01*
X128778606Y-94673276D01*
X128728647Y-94888818D01*
X128704121Y-95171993D01*
X128704180Y-95173067D01*
X128704180Y-95173073D01*
X128718700Y-95436896D01*
X128719740Y-95455799D01*
X128719951Y-95456861D01*
X128719952Y-95456867D01*
X128758610Y-95651210D01*
X128775192Y-95734572D01*
X128775552Y-95735596D01*
X128775553Y-95735601D01*
X128830948Y-95893345D01*
X128869369Y-96002752D01*
X129000394Y-96254986D01*
X129001027Y-96255872D01*
X129001029Y-96255875D01*
X129037853Y-96307405D01*
X129165652Y-96486242D01*
X129361846Y-96691906D01*
X129362695Y-96692575D01*
X129362698Y-96692578D01*
X129414873Y-96733709D01*
X129585061Y-96867874D01*
X129585986Y-96868412D01*
X129585993Y-96868416D01*
X129674114Y-96919600D01*
X129830843Y-97010635D01*
X130094288Y-97117342D01*
X130095336Y-97117602D01*
X130095338Y-97117603D01*
X130167589Y-97135550D01*
X130370140Y-97185864D01*
X130371220Y-97185975D01*
X130371222Y-97185975D01*
X130464414Y-97195523D01*
X130612545Y-97210700D01*
X130788510Y-97210700D01*
X130789057Y-97210661D01*
X130789065Y-97210661D01*
X130998540Y-97195829D01*
X130998542Y-97195829D01*
X130999625Y-97195752D01*
X131277493Y-97135929D01*
X131278518Y-97135551D01*
X131278521Y-97135550D01*
X131379513Y-97098292D01*
X131544160Y-97037550D01*
X131545113Y-97037036D01*
X131545117Y-97037034D01*
X131793345Y-96903097D01*
X131794305Y-96902579D01*
X132022937Y-96733709D01*
X132225494Y-96534310D01*
X132397934Y-96308359D01*
X132536817Y-96060365D01*
X132639373Y-95795276D01*
X132640286Y-95791341D01*
X132690430Y-95574997D01*
X132703553Y-95518382D01*
X132728079Y-95235207D01*
X132728020Y-95234127D01*
X132712520Y-94952483D01*
X132712519Y-94952477D01*
X132712460Y-94951401D01*
X132700012Y-94888818D01*
X132679550Y-94785951D01*
X132684141Y-94762868D01*
X132703710Y-94749793D01*
X132726793Y-94754384D01*
X132731453Y-94758208D01*
X137252652Y-99279407D01*
X137253748Y-99280174D01*
X137253751Y-99280177D01*
X137299454Y-99312179D01*
X137301581Y-99313812D01*
X137345333Y-99350523D01*
X137346501Y-99351198D01*
X137346502Y-99351198D01*
X137394802Y-99379085D01*
X137397064Y-99380526D01*
X137419912Y-99396524D01*
X137443858Y-99413291D01*
X137445072Y-99413857D01*
X137495628Y-99437432D01*
X137498007Y-99438671D01*
X137546318Y-99466564D01*
X137546321Y-99466565D01*
X137547479Y-99467234D01*
X137548735Y-99467691D01*
X137601167Y-99486775D01*
X137603645Y-99487802D01*
X137655408Y-99511939D01*
X137696881Y-99523052D01*
X137710585Y-99526724D01*
X137713143Y-99527530D01*
X137765569Y-99546611D01*
X137765573Y-99546612D01*
X137766823Y-99547067D01*
X137768136Y-99547299D01*
X137768138Y-99547299D01*
X137823076Y-99556986D01*
X137825695Y-99557567D01*
X137866577Y-99568521D01*
X137880874Y-99572352D01*
X137917515Y-99575558D01*
X137937781Y-99577331D01*
X137940441Y-99577681D01*
X137967908Y-99582524D01*
X137996696Y-99587600D01*
X140865880Y-99587600D01*
X140877622Y-99589930D01*
X140889517Y-99594845D01*
X140889519Y-99594845D01*
X140891495Y-99595662D01*
X140912803Y-99598090D01*
X140931338Y-99600202D01*
X140931346Y-99600202D01*
X140932202Y-99600300D01*
X141455071Y-99600300D01*
X141990001Y-99600299D01*
X141997307Y-99599453D01*
X142029234Y-99595756D01*
X142029237Y-99595755D01*
X142031363Y-99595509D01*
X142050326Y-99587635D01*
X142146678Y-99547627D01*
X142146680Y-99547626D01*
X142148659Y-99546804D01*
X142180723Y-99521299D01*
X142614606Y-99087416D01*
X142636350Y-99078410D01*
X142658094Y-99087416D01*
X142667100Y-99109160D01*
X142667100Y-103656350D01*
X142658094Y-103678094D01*
X142636350Y-103687100D01*
X141513342Y-103687100D01*
X141491598Y-103678094D01*
X141482592Y-103656350D01*
X141482592Y-101917444D01*
X141482428Y-101916328D01*
X141471903Y-101844826D01*
X141471902Y-101844823D01*
X141471554Y-101842458D01*
X141416970Y-101731283D01*
X141416699Y-101730732D01*
X141415579Y-101728451D01*
X141325693Y-101638722D01*
X141211589Y-101582947D01*
X141209226Y-101582602D01*
X141209225Y-101582602D01*
X141171243Y-101577061D01*
X141137250Y-101572102D01*
X138864934Y-101572102D01*
X138863822Y-101572266D01*
X138863818Y-101572266D01*
X138792316Y-101582791D01*
X138792313Y-101582792D01*
X138789948Y-101583140D01*
X138675941Y-101639115D01*
X138586212Y-101729001D01*
X138530437Y-101843105D01*
X138519592Y-101917444D01*
X138519592Y-107489760D01*
X138519756Y-107490872D01*
X138519756Y-107490876D01*
X138530187Y-107561735D01*
X138530630Y-107564746D01*
X138531684Y-107566892D01*
X138531684Y-107566893D01*
X138585485Y-107676472D01*
X138586605Y-107678753D01*
X138676491Y-107768482D01*
X138790595Y-107824257D01*
X138792958Y-107824602D01*
X138792959Y-107824602D01*
X138830941Y-107830143D01*
X138864934Y-107835102D01*
X141137250Y-107835102D01*
X141138362Y-107834938D01*
X141138366Y-107834938D01*
X141209868Y-107824413D01*
X141209871Y-107824412D01*
X141212236Y-107824064D01*
X141326243Y-107768089D01*
X141329972Y-107764354D01*
X141414179Y-107679999D01*
X141415972Y-107678203D01*
X141471747Y-107564099D01*
X141482592Y-107489760D01*
X141482592Y-105750850D01*
X141491598Y-105729106D01*
X141513342Y-105720100D01*
X142267314Y-105720100D01*
X142289058Y-105729106D01*
X143563530Y-107003579D01*
X143572419Y-107022642D01*
X143582348Y-107136132D01*
X143642761Y-107361598D01*
X143741409Y-107573148D01*
X143875293Y-107764354D01*
X144040346Y-107929407D01*
X144041446Y-107930177D01*
X144087695Y-107962561D01*
X144100341Y-107982410D01*
X144095247Y-108005387D01*
X144075398Y-108018033D01*
X144070058Y-108018500D01*
X134776816Y-108018500D01*
X134773495Y-108018320D01*
X134731889Y-108013800D01*
X134731887Y-108013800D01*
X134730396Y-108013638D01*
X134682824Y-108017800D01*
X134676159Y-108018383D01*
X134673479Y-108018500D01*
X134669543Y-108018500D01*
X134668801Y-108018573D01*
X134668796Y-108018573D01*
X134626005Y-108022769D01*
X134625684Y-108022799D01*
X134566673Y-108027962D01*
X134531808Y-108031012D01*
X134530364Y-108031431D01*
X134530361Y-108031432D01*
X134529384Y-108031716D01*
X134523814Y-108032789D01*
X134522802Y-108032888D01*
X134522799Y-108032889D01*
X134521306Y-108033035D01*
X134519868Y-108033469D01*
X134519869Y-108033469D01*
X134431120Y-108060263D01*
X134430811Y-108060354D01*
X134360869Y-108080675D01*
X134340378Y-108086628D01*
X134339044Y-108087320D01*
X134339038Y-108087322D01*
X134338142Y-108087787D01*
X134332886Y-108089922D01*
X134330468Y-108090652D01*
X134329135Y-108091361D01*
X134247278Y-108134884D01*
X134246993Y-108135033D01*
X134164732Y-108177673D01*
X134164728Y-108177675D01*
X134163396Y-108178366D01*
X134161426Y-108179939D01*
X134156680Y-108183056D01*
X134154456Y-108184239D01*
X134153285Y-108185194D01*
X134081494Y-108243746D01*
X134081243Y-108243949D01*
X134041384Y-108275768D01*
X134038733Y-108278419D01*
X134036436Y-108280494D01*
X133999974Y-108310232D01*
X133999014Y-108311393D01*
X133967634Y-108349324D01*
X133965685Y-108351467D01*
X127089058Y-115228094D01*
X127067314Y-115237100D01*
X124058213Y-115237100D01*
X124054892Y-115236920D01*
X124013288Y-115232400D01*
X124013286Y-115232400D01*
X124011795Y-115232238D01*
X123962742Y-115236530D01*
X123957562Y-115236983D01*
X123954882Y-115237100D01*
X123950943Y-115237100D01*
X123950204Y-115237172D01*
X123950193Y-115237173D01*
X123907358Y-115241373D01*
X123907038Y-115241403D01*
X123872584Y-115244418D01*
X123813208Y-115249613D01*
X123811761Y-115250034D01*
X123811753Y-115250035D01*
X123810789Y-115250315D01*
X123805217Y-115251389D01*
X123802706Y-115251635D01*
X123801273Y-115252068D01*
X123801271Y-115252068D01*
X123712432Y-115278890D01*
X123712123Y-115278981D01*
X123667440Y-115291963D01*
X123621778Y-115305229D01*
X123619542Y-115306388D01*
X123614290Y-115308521D01*
X123611868Y-115309252D01*
X123582912Y-115324648D01*
X123528603Y-115353524D01*
X123528318Y-115353673D01*
X123492322Y-115372332D01*
X123444796Y-115396967D01*
X123442824Y-115398541D01*
X123438086Y-115401653D01*
X123435856Y-115402839D01*
X123434694Y-115403787D01*
X123434692Y-115403788D01*
X123362817Y-115462408D01*
X123362566Y-115462610D01*
X123322784Y-115494368D01*
X123320133Y-115497019D01*
X123317836Y-115499094D01*
X123281374Y-115528832D01*
X123280414Y-115529993D01*
X123249034Y-115567924D01*
X123247085Y-115570067D01*
X121822711Y-116994441D01*
X121820235Y-116996662D01*
X121787617Y-117022887D01*
X121787614Y-117022890D01*
X121786451Y-117023825D01*
X121785491Y-117024969D01*
X121785489Y-117024971D01*
X121751459Y-117065527D01*
X121749647Y-117067505D01*
X121746860Y-117070292D01*
X121719109Y-117104076D01*
X121718921Y-117104304D01*
X121713363Y-117110927D01*
X121677585Y-117153567D01*
X121658314Y-117176533D01*
X121657589Y-117177852D01*
X121657096Y-117178747D01*
X121653919Y-117183439D01*
X121653279Y-117184218D01*
X121653275Y-117184224D01*
X121652318Y-117185389D01*
X121651605Y-117186719D01*
X121607797Y-117268420D01*
X121607659Y-117268675D01*
X121562279Y-117351221D01*
X121561824Y-117352656D01*
X121561517Y-117353623D01*
X121559309Y-117358850D01*
X121558826Y-117359750D01*
X121558823Y-117359758D01*
X121558117Y-117361074D01*
X121530535Y-117451290D01*
X121502002Y-117541235D01*
X121501834Y-117542733D01*
X121501721Y-117543740D01*
X121500571Y-117549294D01*
X121499833Y-117551709D01*
X121495911Y-117590320D01*
X121490302Y-117645534D01*
X121490267Y-117645853D01*
X121487970Y-117666337D01*
X121484600Y-117696384D01*
X121484600Y-117700116D01*
X121484443Y-117703222D01*
X121479688Y-117750035D01*
X114882100Y-117750035D01*
X114882100Y-114172091D01*
X124647894Y-114172091D01*
X124648189Y-114175088D01*
X124659093Y-114229904D01*
X124661366Y-114235392D01*
X124702912Y-114297570D01*
X124707114Y-114301772D01*
X124769292Y-114343318D01*
X124774780Y-114345591D01*
X124829596Y-114356495D01*
X124832593Y-114356790D01*
X125691777Y-114356790D01*
X125696102Y-114354998D01*
X125697894Y-114350673D01*
X126104294Y-114350673D01*
X126106086Y-114354998D01*
X126110411Y-114356790D01*
X126969595Y-114356790D01*
X126972592Y-114356495D01*
X127027408Y-114345591D01*
X127032896Y-114343318D01*
X127095074Y-114301772D01*
X127099276Y-114297570D01*
X127140822Y-114235392D01*
X127143095Y-114229904D01*
X127153999Y-114175088D01*
X127154294Y-114172091D01*
X127154294Y-113162907D01*
X127152502Y-113158582D01*
X127148177Y-113156790D01*
X126110411Y-113156790D01*
X126106086Y-113158582D01*
X126104294Y-113162907D01*
X126104294Y-114350673D01*
X125697894Y-114350673D01*
X125697894Y-113162907D01*
X125696102Y-113158582D01*
X125691777Y-113156790D01*
X124654011Y-113156790D01*
X124649686Y-113158582D01*
X124647894Y-113162907D01*
X124647894Y-114172091D01*
X114882100Y-114172091D01*
X114882100Y-112744273D01*
X124647894Y-112744273D01*
X124649686Y-112748598D01*
X124654011Y-112750390D01*
X125691777Y-112750390D01*
X125696102Y-112748598D01*
X125697894Y-112744273D01*
X126104294Y-112744273D01*
X126106086Y-112748598D01*
X126110411Y-112750390D01*
X127148177Y-112750390D01*
X127152502Y-112748598D01*
X127154294Y-112744273D01*
X127154294Y-111735089D01*
X127153999Y-111732092D01*
X127143095Y-111677276D01*
X127140822Y-111671788D01*
X127099276Y-111609610D01*
X127095074Y-111605408D01*
X127032896Y-111563862D01*
X127027408Y-111561589D01*
X126972592Y-111550685D01*
X126969595Y-111550390D01*
X126110411Y-111550390D01*
X126106086Y-111552182D01*
X126104294Y-111556507D01*
X126104294Y-112744273D01*
X125697894Y-112744273D01*
X125697894Y-111556507D01*
X125696102Y-111552182D01*
X125691777Y-111550390D01*
X124832593Y-111550390D01*
X124829596Y-111550685D01*
X124774780Y-111561589D01*
X124769292Y-111563862D01*
X124707114Y-111605408D01*
X124702912Y-111609610D01*
X124661366Y-111671788D01*
X124659093Y-111677276D01*
X124648189Y-111732092D01*
X124647894Y-111735089D01*
X124647894Y-112744273D01*
X114882100Y-112744273D01*
X114882100Y-98217471D01*
X115607790Y-98217471D01*
X115621740Y-98459402D01*
X115675016Y-98695807D01*
X115675487Y-98696968D01*
X115675489Y-98696973D01*
X115710568Y-98783362D01*
X115766188Y-98920336D01*
X115892807Y-99126959D01*
X116051472Y-99310127D01*
X116237923Y-99464922D01*
X116447153Y-99587186D01*
X116448325Y-99587633D01*
X116448328Y-99587635D01*
X116481495Y-99600300D01*
X116673542Y-99673635D01*
X116911010Y-99721949D01*
X117153181Y-99730829D01*
X117224460Y-99721698D01*
X117392296Y-99700198D01*
X117392300Y-99700197D01*
X117393550Y-99700037D01*
X117480716Y-99673886D01*
X117624457Y-99630762D01*
X117624462Y-99630760D01*
X117625662Y-99630400D01*
X117843284Y-99523788D01*
X117846774Y-99521299D01*
X117925811Y-99464922D01*
X118040571Y-99383064D01*
X118212226Y-99212008D01*
X118212954Y-99210995D01*
X118212959Y-99210989D01*
X118352902Y-99016236D01*
X118352902Y-99016235D01*
X118353637Y-99015213D01*
X118354194Y-99014086D01*
X118354197Y-99014081D01*
X118460451Y-98799092D01*
X118461008Y-98797965D01*
X118531455Y-98566097D01*
X118563086Y-98325837D01*
X118564851Y-98253600D01*
X118561881Y-98217471D01*
X131437790Y-98217471D01*
X131451740Y-98459402D01*
X131505016Y-98695807D01*
X131505487Y-98696968D01*
X131505489Y-98696973D01*
X131540568Y-98783362D01*
X131596188Y-98920336D01*
X131722807Y-99126959D01*
X131881472Y-99310127D01*
X132067923Y-99464922D01*
X132277153Y-99587186D01*
X132278325Y-99587633D01*
X132278328Y-99587635D01*
X132311495Y-99600300D01*
X132503542Y-99673635D01*
X132741010Y-99721949D01*
X132983181Y-99730829D01*
X133054460Y-99721698D01*
X133222296Y-99700198D01*
X133222300Y-99700197D01*
X133223550Y-99700037D01*
X133310716Y-99673886D01*
X133454457Y-99630762D01*
X133454462Y-99630760D01*
X133455662Y-99630400D01*
X133673284Y-99523788D01*
X133676774Y-99521299D01*
X133755811Y-99464922D01*
X133870571Y-99383064D01*
X134042226Y-99212008D01*
X134042954Y-99210995D01*
X134042959Y-99210989D01*
X134182902Y-99016236D01*
X134182902Y-99016235D01*
X134183637Y-99015213D01*
X134184194Y-99014086D01*
X134184197Y-99014081D01*
X134290451Y-98799092D01*
X134291008Y-98797965D01*
X134361455Y-98566097D01*
X134393086Y-98325837D01*
X134394851Y-98253600D01*
X134374995Y-98012082D01*
X134373589Y-98006482D01*
X134316266Y-97778272D01*
X134315959Y-97777049D01*
X134293582Y-97725586D01*
X134219830Y-97555969D01*
X134219829Y-97555967D01*
X134219328Y-97554815D01*
X134087699Y-97351347D01*
X134086853Y-97350418D01*
X134086849Y-97350412D01*
X133959720Y-97210700D01*
X133924606Y-97172110D01*
X133734428Y-97021917D01*
X133712997Y-97010086D01*
X133523388Y-96905416D01*
X133522274Y-96904801D01*
X133516000Y-96902579D01*
X133356679Y-96846161D01*
X133293841Y-96823909D01*
X133292599Y-96823688D01*
X133292596Y-96823687D01*
X133207211Y-96808478D01*
X133055263Y-96781412D01*
X132937799Y-96779977D01*
X132814209Y-96778466D01*
X132814204Y-96778466D01*
X132812948Y-96778451D01*
X132811701Y-96778642D01*
X132811698Y-96778642D01*
X132607182Y-96809938D01*
X132573403Y-96815107D01*
X132343061Y-96890394D01*
X132314204Y-96905416D01*
X132129226Y-97001709D01*
X132129221Y-97001712D01*
X132128109Y-97002291D01*
X132127099Y-97003050D01*
X132127098Y-97003050D01*
X132081836Y-97037034D01*
X131934318Y-97147793D01*
X131766895Y-97322992D01*
X131766185Y-97324032D01*
X131766184Y-97324034D01*
X131665059Y-97472278D01*
X131630334Y-97523183D01*
X131528303Y-97742990D01*
X131463542Y-97976510D01*
X131458685Y-98021953D01*
X131439406Y-98202353D01*
X131437790Y-98217471D01*
X118561881Y-98217471D01*
X118544995Y-98012082D01*
X118543589Y-98006482D01*
X118486266Y-97778272D01*
X118485959Y-97777049D01*
X118463582Y-97725586D01*
X118389830Y-97555969D01*
X118389829Y-97555967D01*
X118389328Y-97554815D01*
X118257699Y-97351347D01*
X118256853Y-97350418D01*
X118256849Y-97350412D01*
X118129720Y-97210700D01*
X118094606Y-97172110D01*
X117904428Y-97021917D01*
X117882997Y-97010086D01*
X117693388Y-96905416D01*
X117692274Y-96904801D01*
X117686000Y-96902579D01*
X117526679Y-96846161D01*
X117463841Y-96823909D01*
X117462599Y-96823688D01*
X117462596Y-96823687D01*
X117377211Y-96808478D01*
X117225263Y-96781412D01*
X117107799Y-96779977D01*
X116984209Y-96778466D01*
X116984204Y-96778466D01*
X116982948Y-96778451D01*
X116981701Y-96778642D01*
X116981698Y-96778642D01*
X116777182Y-96809938D01*
X116743403Y-96815107D01*
X116513061Y-96890394D01*
X116484204Y-96905416D01*
X116299226Y-97001709D01*
X116299221Y-97001712D01*
X116298109Y-97002291D01*
X116297099Y-97003050D01*
X116297098Y-97003050D01*
X116251836Y-97037034D01*
X116104318Y-97147793D01*
X115936895Y-97322992D01*
X115936185Y-97324032D01*
X115936184Y-97324034D01*
X115835059Y-97472278D01*
X115800334Y-97523183D01*
X115698303Y-97742990D01*
X115633542Y-97976510D01*
X115628685Y-98021953D01*
X115609406Y-98202353D01*
X115607790Y-98217471D01*
X114882100Y-98217471D01*
X114882100Y-95171993D01*
X117274121Y-95171993D01*
X117274180Y-95173067D01*
X117274180Y-95173073D01*
X117288700Y-95436896D01*
X117289740Y-95455799D01*
X117289951Y-95456861D01*
X117289952Y-95456867D01*
X117328610Y-95651210D01*
X117345192Y-95734572D01*
X117345552Y-95735596D01*
X117345553Y-95735601D01*
X117400948Y-95893345D01*
X117439369Y-96002752D01*
X117570394Y-96254986D01*
X117571027Y-96255872D01*
X117571029Y-96255875D01*
X117607853Y-96307405D01*
X117735652Y-96486242D01*
X117931846Y-96691906D01*
X117932695Y-96692575D01*
X117932698Y-96692578D01*
X117984873Y-96733709D01*
X118155061Y-96867874D01*
X118155986Y-96868412D01*
X118155993Y-96868416D01*
X118244114Y-96919600D01*
X118400843Y-97010635D01*
X118664288Y-97117342D01*
X118665336Y-97117602D01*
X118665338Y-97117603D01*
X118737589Y-97135550D01*
X118940140Y-97185864D01*
X118941220Y-97185975D01*
X118941222Y-97185975D01*
X119034414Y-97195523D01*
X119182545Y-97210700D01*
X119358510Y-97210700D01*
X119359057Y-97210661D01*
X119359065Y-97210661D01*
X119568540Y-97195829D01*
X119568542Y-97195829D01*
X119569625Y-97195752D01*
X119847493Y-97135929D01*
X119848518Y-97135551D01*
X119848521Y-97135550D01*
X119949513Y-97098292D01*
X120114160Y-97037550D01*
X120115113Y-97037036D01*
X120115117Y-97037034D01*
X120363345Y-96903097D01*
X120364305Y-96902579D01*
X120592937Y-96733709D01*
X120795494Y-96534310D01*
X120967934Y-96308359D01*
X121106817Y-96060365D01*
X121209373Y-95795276D01*
X121210286Y-95791341D01*
X121260430Y-95574997D01*
X121273553Y-95518382D01*
X121298079Y-95235207D01*
X121298020Y-95234127D01*
X121282520Y-94952483D01*
X121282519Y-94952477D01*
X121282460Y-94951401D01*
X121270012Y-94888818D01*
X121227221Y-94673699D01*
X121227008Y-94672628D01*
X121132831Y-94404448D01*
X121001806Y-94152214D01*
X120983554Y-94126672D01*
X120837181Y-93921844D01*
X120836548Y-93920958D01*
X120657948Y-93733737D01*
X120641104Y-93716080D01*
X120641103Y-93716079D01*
X120640354Y-93715294D01*
X120588293Y-93674252D01*
X120417985Y-93539993D01*
X120417986Y-93539993D01*
X120417139Y-93539326D01*
X120416214Y-93538788D01*
X120416207Y-93538784D01*
X120296979Y-93469532D01*
X120171357Y-93396565D01*
X119907912Y-93289858D01*
X119906864Y-93289598D01*
X119906862Y-93289597D01*
X119827797Y-93269957D01*
X119632060Y-93221336D01*
X119630980Y-93221225D01*
X119630978Y-93221225D01*
X119526962Y-93210568D01*
X119389655Y-93196500D01*
X119213690Y-93196500D01*
X119213143Y-93196539D01*
X119213135Y-93196539D01*
X119003660Y-93211371D01*
X119003658Y-93211371D01*
X119002575Y-93211448D01*
X118724707Y-93271271D01*
X118723682Y-93271649D01*
X118723679Y-93271650D01*
X118675032Y-93289597D01*
X118458040Y-93369650D01*
X118457087Y-93370164D01*
X118457083Y-93370166D01*
X118407140Y-93397114D01*
X118207895Y-93504621D01*
X117979263Y-93673491D01*
X117776706Y-93872890D01*
X117604266Y-94098841D01*
X117465383Y-94346835D01*
X117362827Y-94611924D01*
X117362584Y-94612973D01*
X117362582Y-94612979D01*
X117348606Y-94673276D01*
X117298647Y-94888818D01*
X117274121Y-95171993D01*
X114882100Y-95171993D01*
X114882100Y-88374874D01*
X119459095Y-88374874D01*
X119464683Y-88460125D01*
X119472080Y-88572976D01*
X119472230Y-88575268D01*
X119472578Y-88576638D01*
X119507232Y-88713089D01*
X119521663Y-88769913D01*
X119605740Y-88952290D01*
X119606550Y-88953435D01*
X119606551Y-88953438D01*
X119686783Y-89066964D01*
X119721645Y-89116292D01*
X119865496Y-89256425D01*
X119866660Y-89257203D01*
X119866664Y-89257206D01*
X120031301Y-89367213D01*
X120031305Y-89367215D01*
X120032475Y-89367997D01*
X120033775Y-89368555D01*
X120033774Y-89368555D01*
X120215701Y-89446717D01*
X120215703Y-89446718D01*
X120216991Y-89447271D01*
X120412863Y-89491593D01*
X120484444Y-89494405D01*
X120612121Y-89499422D01*
X120612126Y-89499422D01*
X120613532Y-89499477D01*
X120614924Y-89499275D01*
X120614927Y-89499275D01*
X120712905Y-89485069D01*
X120812279Y-89470660D01*
X120813610Y-89470208D01*
X120813615Y-89470207D01*
X120907362Y-89438383D01*
X121002445Y-89406107D01*
X121003673Y-89405420D01*
X121003676Y-89405418D01*
X121176434Y-89308669D01*
X121176440Y-89308665D01*
X121177663Y-89307980D01*
X121332066Y-89179566D01*
X121460480Y-89025163D01*
X121461165Y-89023940D01*
X121461169Y-89023934D01*
X121557918Y-88851176D01*
X121557920Y-88851173D01*
X121558607Y-88849945D01*
X121618015Y-88674936D01*
X121622707Y-88661115D01*
X121622708Y-88661110D01*
X121623160Y-88659779D01*
X121647792Y-88489898D01*
X121651848Y-88461925D01*
X121651849Y-88461917D01*
X121651977Y-88461032D01*
X121653481Y-88403600D01*
X121635105Y-88203618D01*
X121597883Y-88071638D01*
X121580976Y-88011691D01*
X121580975Y-88011688D01*
X121580593Y-88010334D01*
X121491771Y-87830220D01*
X121371613Y-87669309D01*
X121370579Y-87668353D01*
X121225183Y-87533950D01*
X121225181Y-87533948D01*
X121224143Y-87532989D01*
X121106162Y-87458548D01*
X121055492Y-87426577D01*
X121055488Y-87426575D01*
X121054301Y-87425826D01*
X120950641Y-87384470D01*
X120869080Y-87351930D01*
X120869076Y-87351929D01*
X120867773Y-87351409D01*
X120866392Y-87351134D01*
X120866391Y-87351134D01*
X120672196Y-87312507D01*
X120672195Y-87312507D01*
X120670808Y-87312231D01*
X120669397Y-87312213D01*
X120669392Y-87312212D01*
X120471408Y-87309620D01*
X120471403Y-87309620D01*
X120470000Y-87309602D01*
X120468615Y-87309840D01*
X120273472Y-87343371D01*
X120273469Y-87343372D01*
X120272077Y-87343611D01*
X120083665Y-87413120D01*
X119911076Y-87515800D01*
X119910018Y-87516728D01*
X119910015Y-87516730D01*
X119761148Y-87647283D01*
X119760088Y-87648213D01*
X119759213Y-87649323D01*
X119726089Y-87691341D01*
X119635759Y-87805923D01*
X119542252Y-87983650D01*
X119541836Y-87984989D01*
X119541835Y-87984992D01*
X119484462Y-88169765D01*
X119482699Y-88175442D01*
X119459095Y-88374874D01*
X114882100Y-88374874D01*
X114882100Y-85834874D01*
X120729095Y-85834874D01*
X120734683Y-85920125D01*
X120741099Y-86018009D01*
X120742230Y-86035268D01*
X120742578Y-86036638D01*
X120777108Y-86172600D01*
X120791663Y-86229913D01*
X120875740Y-86412290D01*
X120876550Y-86413435D01*
X120876551Y-86413438D01*
X120990832Y-86575142D01*
X120991645Y-86576292D01*
X121135496Y-86716425D01*
X121136660Y-86717203D01*
X121136664Y-86717206D01*
X121301301Y-86827213D01*
X121301305Y-86827215D01*
X121302475Y-86827997D01*
X121303775Y-86828555D01*
X121303774Y-86828555D01*
X121485701Y-86906717D01*
X121485703Y-86906718D01*
X121486991Y-86907271D01*
X121682863Y-86951593D01*
X121754444Y-86954405D01*
X121882121Y-86959422D01*
X121882126Y-86959422D01*
X121883532Y-86959477D01*
X121884924Y-86959275D01*
X121884927Y-86959275D01*
X121982906Y-86945068D01*
X122082279Y-86930660D01*
X122083610Y-86930208D01*
X122083615Y-86930207D01*
X122232077Y-86879810D01*
X122272445Y-86866107D01*
X122273673Y-86865420D01*
X122273676Y-86865418D01*
X122446434Y-86768669D01*
X122446440Y-86768665D01*
X122447663Y-86767980D01*
X122602066Y-86639566D01*
X122730480Y-86485163D01*
X122731165Y-86483940D01*
X122731169Y-86483934D01*
X122827918Y-86311176D01*
X122827920Y-86311173D01*
X122828607Y-86309945D01*
X122870922Y-86185290D01*
X122892707Y-86121115D01*
X122892708Y-86121110D01*
X122893160Y-86119779D01*
X122918954Y-85941883D01*
X122921848Y-85921925D01*
X122921849Y-85921917D01*
X122921977Y-85921032D01*
X122923481Y-85863600D01*
X122905105Y-85663618D01*
X122850593Y-85470334D01*
X122761771Y-85290220D01*
X122641613Y-85129309D01*
X122640579Y-85128353D01*
X122495183Y-84993950D01*
X122495181Y-84993948D01*
X122494143Y-84992989D01*
X122334424Y-84892213D01*
X122325492Y-84886577D01*
X122325488Y-84886575D01*
X122324301Y-84885826D01*
X122231037Y-84848618D01*
X122139080Y-84811930D01*
X122139076Y-84811929D01*
X122137773Y-84811409D01*
X122136392Y-84811134D01*
X122136391Y-84811134D01*
X121942196Y-84772507D01*
X121942195Y-84772507D01*
X121940808Y-84772231D01*
X121939397Y-84772213D01*
X121939392Y-84772212D01*
X121741408Y-84769620D01*
X121741403Y-84769620D01*
X121740000Y-84769602D01*
X121738615Y-84769840D01*
X121543472Y-84803371D01*
X121543469Y-84803372D01*
X121542077Y-84803611D01*
X121353665Y-84873120D01*
X121181076Y-84975800D01*
X121180018Y-84976728D01*
X121180015Y-84976730D01*
X121031148Y-85107283D01*
X121030088Y-85108213D01*
X120905759Y-85265923D01*
X120812252Y-85443650D01*
X120811836Y-85444989D01*
X120811835Y-85444992D01*
X120778462Y-85552473D01*
X120752699Y-85635442D01*
X120729095Y-85834874D01*
X114882100Y-85834874D01*
X114882100Y-85786001D01*
X114882479Y-85781191D01*
X114886470Y-85755993D01*
X114886849Y-85753600D01*
X114886207Y-85749545D01*
X114884130Y-85736431D01*
X114883829Y-85729427D01*
X114890721Y-85633065D01*
X114898423Y-85525373D01*
X114899046Y-85521046D01*
X114947214Y-85299621D01*
X114948449Y-85295415D01*
X114958984Y-85267171D01*
X115027637Y-85083105D01*
X115029458Y-85079116D01*
X115035369Y-85068292D01*
X115100397Y-84949200D01*
X115138056Y-84880233D01*
X115140428Y-84876542D01*
X115276222Y-84695142D01*
X115279095Y-84691826D01*
X115439326Y-84531595D01*
X115442642Y-84528722D01*
X115624042Y-84392928D01*
X115627733Y-84390556D01*
X115826616Y-84281958D01*
X115830607Y-84280136D01*
X115866397Y-84266787D01*
X116042919Y-84200948D01*
X116047121Y-84199714D01*
X116268546Y-84151546D01*
X116272873Y-84150923D01*
X116380565Y-84143221D01*
X116476927Y-84136329D01*
X116483931Y-84136630D01*
X116498706Y-84138970D01*
X116498707Y-84138970D01*
X116501100Y-84139349D01*
X116528691Y-84134979D01*
X116533501Y-84134600D01*
X138650878Y-84134600D01*
X138672622Y-84143606D01*
G37*
%TD.AperFunction*%
%TD*%
M02*
