M48
; DRILL file {KiCad (6.0.0)} date Tue May 10 23:47:53 2022
; FORMAT={-:-/ absolute / metric / decimal}
; #@! TF.CreationDate,2022-05-10T23:47:53-04:00
; #@! TF.GenerationSoftware,Kicad,Pcbnew,(6.0.0)
; #@! TF.FileFunction,Plated,1,2,PTH
FMAT,2
METRIC
; #@! TA.AperFunction,Plated,PTH,ViaDrill
T1C0.350
; #@! TA.AperFunction,Plated,PTH,ViaDrill
T2C0.610
; #@! TA.AperFunction,Plated,PTH,ComponentDrill
T3C0.800
; #@! TA.AperFunction,Plated,PTH,ComponentDrill
T4C0.889
; #@! TA.AperFunction,Plated,PTH,ComponentDrill
T5C1.016
; #@! TA.AperFunction,Plated,PTH,ComponentDrill
T6C1.600
; #@! TA.AperFunction,Plated,PTH,ComponentDrill
T7C2.997
%
G90
G05
T1
X129.201Y-119.754
X135.845Y-120.02
X137.501Y-117.754
X142.501Y-117.754
X149.501Y-120.254
X150.501Y-102.254
X154.501Y-102.254
X159.001Y-100.254
X163.001Y-100.254
X167.001Y-100.254
T2
X152.001Y-116.754
T3
X129.436Y-122.634
X129.436Y-124.634
X131.436Y-122.634
X131.436Y-124.634
X133.436Y-122.634
X133.436Y-124.634
X135.436Y-122.634
X135.436Y-124.634
X137.436Y-122.634
X137.436Y-124.634
X139.436Y-122.634
X139.436Y-124.634
X141.436Y-122.634
X141.436Y-124.634
X143.436Y-122.634
X143.436Y-124.634
X145.436Y-122.634
X145.436Y-124.634
X147.436Y-122.634
X147.436Y-124.634
X149.436Y-122.634
X149.436Y-124.634
X151.436Y-122.634
X151.436Y-124.634
X153.436Y-122.634
X153.436Y-124.634
X155.436Y-122.634
X155.436Y-124.634
X157.436Y-122.634
X157.436Y-124.634
X159.436Y-122.634
X159.436Y-124.634
X161.436Y-122.634
X161.436Y-124.634
X163.436Y-122.634
X163.436Y-124.634
X165.436Y-122.634
X165.436Y-124.634
X167.436Y-122.634
X167.436Y-124.634
T4
X120.556Y-88.404
X121.826Y-85.864
X123.096Y-88.404
X124.366Y-85.864
X125.636Y-88.404
X126.906Y-85.864
X128.176Y-88.404
X129.446Y-85.864
T5
X141.461Y-98.254
X144.001Y-98.254
X146.541Y-98.254
T6
X117.086Y-98.254
X132.916Y-98.254
T7
X135.801Y-91.254
X138.801Y-86.554
X141.801Y-91.254
T0
M30
