%TF.GenerationSoftware,KiCad,Pcbnew,(6.0.0)*%
%TF.CreationDate,2022-05-10T23:47:17-04:00*%
%TF.ProjectId,WT32SC01 wifi poe,57543332-5343-4303-9120-776966692070,rev?*%
%TF.SameCoordinates,Original*%
%TF.FileFunction,Soldermask,Top*%
%TF.FilePolarity,Negative*%
%FSLAX46Y46*%
G04 Gerber Fmt 4.6, Leading zero omitted, Abs format (unit mm)*
G04 Created by KiCad (PCBNEW (6.0.0)) date 2022-05-10 23:47:17*
%MOMM*%
%LPD*%
G01*
G04 APERTURE LIST*
G04 Aperture macros list*
%AMRoundRect*
0 Rectangle with rounded corners*
0 $1 Rounding radius*
0 $2 $3 $4 $5 $6 $7 $8 $9 X,Y pos of 4 corners*
0 Add a 4 corners polygon primitive as box body*
4,1,4,$2,$3,$4,$5,$6,$7,$8,$9,$2,$3,0*
0 Add four circle primitives for the rounded corners*
1,1,$1+$1,$2,$3*
1,1,$1+$1,$4,$5*
1,1,$1+$1,$6,$7*
1,1,$1+$1,$8,$9*
0 Add four rect primitives between the rounded corners*
20,1,$1+$1,$2,$3,$4,$5,0*
20,1,$1+$1,$4,$5,$6,$7,0*
20,1,$1+$1,$6,$7,$8,$9,0*
20,1,$1+$1,$8,$9,$2,$3,0*%
%AMFreePoly0*
4,1,25,0.542319,1.047396,0.554442,1.037042,1.037042,0.554442,1.065549,0.498494,1.066800,0.482600,1.066800,-0.482600,1.047396,-0.542319,1.037042,-0.554442,0.554442,-1.037042,0.498494,-1.065549,0.482600,-1.066800,-0.482600,-1.066800,-0.542319,-1.047396,-0.554442,-1.037042,-1.037042,-0.554442,-1.065549,-0.498494,-1.066800,-0.482600,-1.066800,0.482600,-1.047396,0.542319,-1.037042,0.554442,
-0.554442,1.037042,-0.498494,1.065549,-0.482600,1.066800,0.482600,1.066800,0.542319,1.047396,0.542319,1.047396,$1*%
%AMFreePoly1*
4,1,25,0.359719,0.682196,0.371842,0.671842,0.671842,0.371842,0.700349,0.315894,0.701600,0.300000,0.701600,-0.300000,0.682196,-0.359719,0.671842,-0.371842,0.371842,-0.671842,0.315894,-0.700349,0.300000,-0.701600,-0.300000,-0.701600,-0.359719,-0.682196,-0.371842,-0.671842,-0.671842,-0.371842,-0.700349,-0.315894,-0.701600,-0.300000,-0.701600,0.300000,-0.682196,0.359719,-0.671842,0.371842,
-0.371842,0.671842,-0.315894,0.700349,-0.300000,0.701600,0.300000,0.701600,0.359719,0.682196,0.359719,0.682196,$1*%
G04 Aperture macros list end*
%ADD10RoundRect,0.101600X-1.050000X1.200000X-1.050000X-1.200000X1.050000X-1.200000X1.050000X1.200000X0*%
%ADD11C,3.251200*%
%ADD12C,1.625600*%
%ADD13C,2.387600*%
%ADD14FreePoly0,270.000000*%
%ADD15FreePoly1,0.000000*%
%ADD16C,1.403200*%
%ADD17RoundRect,0.101600X0.525000X-1.400000X0.525000X1.400000X-0.525000X1.400000X-0.525000X-1.400000X0*%
%ADD18RoundRect,0.101600X5.250000X3.425000X-5.250000X3.425000X-5.250000X-3.425000X5.250000X-3.425000X0*%
%ADD19RoundRect,0.101600X0.900000X-2.100000X0.900000X2.100000X-0.900000X2.100000X-0.900000X-2.100000X0*%
%ADD20RoundRect,0.101600X0.300000X0.775000X-0.300000X0.775000X-0.300000X-0.775000X0.300000X-0.775000X0*%
%ADD21RoundRect,0.101600X0.600000X0.900000X-0.600000X0.900000X-0.600000X-0.900000X0.600000X-0.900000X0*%
%ADD22C,4.521200*%
%ADD23RoundRect,0.101600X-1.100000X2.750000X-1.100000X-2.750000X1.100000X-2.750000X1.100000X2.750000X0*%
%ADD24RoundRect,0.101600X-2.550000X-1.600000X2.550000X-1.600000X2.550000X1.600000X-2.550000X1.600000X0*%
%ADD25RoundRect,0.101600X0.700000X-1.050000X0.700000X1.050000X-0.700000X1.050000X-0.700000X-1.050000X0*%
G04 APERTURE END LIST*
D10*
%TO.C,J1*%
X125901094Y-112953590D03*
X125901094Y-119553590D03*
%TD*%
D11*
%TO.C,U$2*%
X119286100Y-95203600D03*
X130716100Y-95203600D03*
D12*
X120556100Y-88403600D03*
X121826100Y-85863600D03*
X123096100Y-88403600D03*
X124366100Y-85863600D03*
X125636100Y-88403600D03*
X126906100Y-85863600D03*
X128176100Y-88403600D03*
X129446100Y-85863600D03*
D13*
X132916100Y-98253600D03*
X117086100Y-98253600D03*
%TD*%
D14*
%TO.C,JP1*%
X146541100Y-98253600D03*
X144001100Y-98253600D03*
X141461100Y-98253600D03*
%TD*%
D15*
%TO.C,H2*%
X129436101Y-124633611D03*
D16*
X129436101Y-122633611D03*
X131436101Y-124633611D03*
X131436101Y-122633611D03*
X133436101Y-124633611D03*
X133436101Y-122633611D03*
X135436101Y-124633611D03*
X135436101Y-122633611D03*
X137436101Y-124633611D03*
X137436101Y-122633611D03*
X139436101Y-124633611D03*
X139436101Y-122633611D03*
X141436101Y-124633611D03*
X141436101Y-122633611D03*
X143436101Y-124633611D03*
X143436101Y-122633611D03*
X145436101Y-124633611D03*
X145436101Y-122633611D03*
X147436101Y-124633611D03*
X147436101Y-122633611D03*
X149436101Y-124633611D03*
X149436101Y-122633611D03*
X151436101Y-124633611D03*
X151436101Y-122633611D03*
X153436101Y-124633611D03*
X153436101Y-122633611D03*
X155436101Y-124633611D03*
X155436101Y-122633611D03*
X157436101Y-124633611D03*
X157436101Y-122633611D03*
X159436101Y-124633611D03*
X159436101Y-122633611D03*
X161436101Y-124633611D03*
X161436101Y-122633611D03*
X163436101Y-124633611D03*
X163436101Y-122633611D03*
X165436101Y-124633611D03*
X165436101Y-122633611D03*
X167436101Y-124633611D03*
X167436101Y-122633611D03*
%TD*%
D17*
%TO.C,IC2*%
X159601096Y-114953605D03*
X161301096Y-114953605D03*
X163001096Y-114953605D03*
X164701096Y-114953605D03*
X166401096Y-114953605D03*
D18*
X163001096Y-104603605D03*
%TD*%
D19*
%TO.C,C6*%
X152501092Y-110703608D03*
X152501092Y-103803608D03*
%TD*%
D20*
%TO.C,QWIIC1*%
X151001092Y-119753609D03*
X152001092Y-119753609D03*
X153001092Y-119753609D03*
X154001092Y-119753609D03*
D21*
X149701092Y-117228609D03*
X155301092Y-117228609D03*
%TD*%
D22*
%TO.C,J4*%
X141801098Y-91253589D03*
X138801098Y-86553589D03*
X135801098Y-91253589D03*
%TD*%
D23*
%TO.C,C5*%
X140001092Y-104703602D03*
X140001092Y-115803602D03*
%TD*%
D24*
%TO.C,L1*%
X175501100Y-102703600D03*
X175501100Y-112803600D03*
%TD*%
D25*
%TO.C,D8*%
X161801094Y-118753611D03*
X166201094Y-118753611D03*
%TD*%
M02*
