%TF.GenerationSoftware,KiCad,Pcbnew,(6.0.0)*%
%TF.CreationDate,2022-05-10T23:47:17-04:00*%
%TF.ProjectId,WT32SC01 wifi poe,57543332-5343-4303-9120-776966692070,rev?*%
%TF.SameCoordinates,Original*%
%TF.FileFunction,Soldermask,Bot*%
%TF.FilePolarity,Negative*%
%FSLAX46Y46*%
G04 Gerber Fmt 4.6, Leading zero omitted, Abs format (unit mm)*
G04 Created by KiCad (PCBNEW (6.0.0)) date 2022-05-10 23:47:17*
%MOMM*%
%LPD*%
G01*
G04 APERTURE LIST*
G04 Aperture macros list*
%AMFreePoly0*
4,1,25,0.542319,1.047396,0.554442,1.037042,1.037042,0.554442,1.065549,0.498494,1.066800,0.482600,1.066800,-0.482600,1.047396,-0.542319,1.037042,-0.554442,0.554442,-1.037042,0.498494,-1.065549,0.482600,-1.066800,-0.482600,-1.066800,-0.542319,-1.047396,-0.554442,-1.037042,-1.037042,-0.554442,-1.065549,-0.498494,-1.066800,-0.482600,-1.066800,0.482600,-1.047396,0.542319,-1.037042,0.554442,
-0.554442,1.037042,-0.498494,1.065549,-0.482600,1.066800,0.482600,1.066800,0.542319,1.047396,0.542319,1.047396,$1*%
%AMFreePoly1*
4,1,25,0.359719,0.682196,0.371842,0.671842,0.671842,0.371842,0.700349,0.315894,0.701600,0.300000,0.701600,-0.300000,0.682196,-0.359719,0.671842,-0.371842,0.371842,-0.671842,0.315894,-0.700349,0.300000,-0.701600,-0.300000,-0.701600,-0.359719,-0.682196,-0.371842,-0.671842,-0.671842,-0.371842,-0.700349,-0.315894,-0.701600,-0.300000,-0.701600,0.300000,-0.682196,0.359719,-0.671842,0.371842,
-0.371842,0.671842,-0.315894,0.700349,-0.300000,0.701600,0.300000,0.701600,0.359719,0.682196,0.359719,0.682196,$1*%
G04 Aperture macros list end*
%ADD10C,3.251200*%
%ADD11C,1.625600*%
%ADD12C,2.387600*%
%ADD13FreePoly0,270.000000*%
%ADD14FreePoly1,0.000000*%
%ADD15C,1.403200*%
%ADD16C,4.521200*%
G04 APERTURE END LIST*
D10*
%TO.C,U$2*%
X119286100Y-95203600D03*
X130716100Y-95203600D03*
D11*
X120556100Y-88403600D03*
X121826100Y-85863600D03*
X123096100Y-88403600D03*
X124366100Y-85863600D03*
X125636100Y-88403600D03*
X126906100Y-85863600D03*
X128176100Y-88403600D03*
X129446100Y-85863600D03*
D12*
X132916100Y-98253600D03*
X117086100Y-98253600D03*
%TD*%
D13*
%TO.C,JP1*%
X146541100Y-98253600D03*
X144001100Y-98253600D03*
X141461100Y-98253600D03*
%TD*%
D14*
%TO.C,H2*%
X129436101Y-124633611D03*
D15*
X129436101Y-122633611D03*
X131436101Y-124633611D03*
X131436101Y-122633611D03*
X133436101Y-124633611D03*
X133436101Y-122633611D03*
X135436101Y-124633611D03*
X135436101Y-122633611D03*
X137436101Y-124633611D03*
X137436101Y-122633611D03*
X139436101Y-124633611D03*
X139436101Y-122633611D03*
X141436101Y-124633611D03*
X141436101Y-122633611D03*
X143436101Y-124633611D03*
X143436101Y-122633611D03*
X145436101Y-124633611D03*
X145436101Y-122633611D03*
X147436101Y-124633611D03*
X147436101Y-122633611D03*
X149436101Y-124633611D03*
X149436101Y-122633611D03*
X151436101Y-124633611D03*
X151436101Y-122633611D03*
X153436101Y-124633611D03*
X153436101Y-122633611D03*
X155436101Y-124633611D03*
X155436101Y-122633611D03*
X157436101Y-124633611D03*
X157436101Y-122633611D03*
X159436101Y-124633611D03*
X159436101Y-122633611D03*
X161436101Y-124633611D03*
X161436101Y-122633611D03*
X163436101Y-124633611D03*
X163436101Y-122633611D03*
X165436101Y-124633611D03*
X165436101Y-122633611D03*
X167436101Y-124633611D03*
X167436101Y-122633611D03*
%TD*%
D16*
%TO.C,J4*%
X141801098Y-91253589D03*
X138801098Y-86553589D03*
X135801098Y-91253589D03*
%TD*%
M02*
