%FSLAX45Y45*%
G04 Gerber Fmt 4.5, Leading zero omitted, Abs format (unit mm)*
G04 Created by KiCad (PCBNEW (6.0.0)) date 2022-05-10 23:48:08*
%MOMM*%
%LPD*%
G01*
G04 APERTURE LIST*
%TA.AperFunction,Profile*%
%ADD10C,0.050000*%
%TD*%
%ADD11C,0.200000*%
%ADD12C,0.325120*%
G04 APERTURE END LIST*
D10*
X15950110Y-8655360D02*
G75*
G03*
X15850110Y-8755360I0J-100000D01*
G01*
X18250110Y-8575360D02*
G75*
G03*
X18050110Y-8375360I-200000J0D01*
G01*
X16450110Y-8755360D02*
G75*
G03*
X16350110Y-8655360I-100000J0D01*
G01*
X16350110Y-8855360D02*
G75*
G03*
X16450110Y-8755360I0J100000D01*
G01*
X18050110Y-12625360D02*
G75*
G03*
X18250110Y-12425360I0J200000D01*
G01*
X16350110Y-8655360D02*
X15950110Y-8655360D01*
X11650110Y-12625360D02*
X18050110Y-12625360D01*
X18250110Y-8575360D02*
X18250110Y-12425360D01*
X16350110Y-9465360D02*
X15950110Y-9465360D01*
X11450110Y-12425360D02*
G75*
G03*
X11650110Y-12625360I200000J0D01*
G01*
X15950110Y-9465360D02*
G75*
G03*
X15850110Y-9565360I0J-100000D01*
G01*
X16350110Y-9665360D02*
G75*
G03*
X16450110Y-9565360I0J100000D01*
G01*
X11650110Y-8375360D02*
X18050110Y-8375360D01*
X15850110Y-9565360D02*
G75*
G03*
X15950110Y-9665360I100000J0D01*
G01*
X11450110Y-12425360D02*
X11450110Y-8575360D01*
X15950110Y-8855360D02*
X16350110Y-8855360D01*
X15950110Y-9665360D02*
X16350110Y-9665360D01*
X16450110Y-9565360D02*
G75*
G03*
X16350110Y-9465360I-100000J0D01*
G01*
X15850110Y-8755360D02*
G75*
G03*
X15950110Y-8855360I100000J0D01*
G01*
X11650110Y-8375360D02*
G75*
G03*
X11450110Y-8575360I0J-200000D01*
G01*
D11*
D12*
X11766050Y-9357800D02*
X12091170Y-9682920D01*
X12091170Y-9357800D02*
X11766050Y-9682920D01*
X12909050Y-9357800D02*
X13234170Y-9682920D01*
X13234170Y-9357800D02*
X12909050Y-9682920D01*
D11*
X11705229Y-12938336D02*
X11705229Y-12738336D01*
X11752848Y-12738336D01*
X11781419Y-12747860D01*
X11800467Y-12766908D01*
X11809991Y-12785955D01*
X11819515Y-12824050D01*
X11819515Y-12852622D01*
X11809991Y-12890717D01*
X11800467Y-12909765D01*
X11781419Y-12928812D01*
X11752848Y-12938336D01*
X11705229Y-12938336D01*
X11905229Y-12938336D02*
X11905229Y-12805003D01*
X11905229Y-12843098D02*
X11914753Y-12824050D01*
X11924277Y-12814527D01*
X11943324Y-12805003D01*
X11962372Y-12805003D01*
X12029038Y-12938336D02*
X12029038Y-12805003D01*
X12029038Y-12738336D02*
X12019515Y-12747860D01*
X12029038Y-12757384D01*
X12038562Y-12747860D01*
X12029038Y-12738336D01*
X12029038Y-12757384D01*
X12152848Y-12938336D02*
X12133800Y-12928812D01*
X12124277Y-12909765D01*
X12124277Y-12738336D01*
X12257610Y-12938336D02*
X12238562Y-12928812D01*
X12229038Y-12909765D01*
X12229038Y-12738336D01*
X12486181Y-12938336D02*
X12486181Y-12738336D01*
X12552848Y-12881193D01*
X12619515Y-12738336D01*
X12619515Y-12938336D01*
X12800467Y-12938336D02*
X12800467Y-12833574D01*
X12790943Y-12814527D01*
X12771896Y-12805003D01*
X12733800Y-12805003D01*
X12714753Y-12814527D01*
X12800467Y-12928812D02*
X12781419Y-12938336D01*
X12733800Y-12938336D01*
X12714753Y-12928812D01*
X12705229Y-12909765D01*
X12705229Y-12890717D01*
X12714753Y-12871669D01*
X12733800Y-12862146D01*
X12781419Y-12862146D01*
X12800467Y-12852622D01*
X12895705Y-12805003D02*
X12895705Y-13005003D01*
X12895705Y-12814527D02*
X12914753Y-12805003D01*
X12952848Y-12805003D01*
X12971896Y-12814527D01*
X12981419Y-12824050D01*
X12990943Y-12843098D01*
X12990943Y-12900241D01*
X12981419Y-12919288D01*
X12971896Y-12928812D01*
X12952848Y-12938336D01*
X12914753Y-12938336D01*
X12895705Y-12928812D01*
X13076658Y-12919288D02*
X13086181Y-12928812D01*
X13076658Y-12938336D01*
X13067134Y-12928812D01*
X13076658Y-12919288D01*
X13076658Y-12938336D01*
X13076658Y-12814527D02*
X13086181Y-12824050D01*
X13076658Y-12833574D01*
X13067134Y-12824050D01*
X13076658Y-12814527D01*
X13076658Y-12833574D01*
X11247610Y-13167860D02*
X11447610Y-13367860D01*
X11447610Y-13167860D02*
X11247610Y-13367860D01*
X11686181Y-13158336D02*
X11809991Y-13158336D01*
X11743324Y-13234527D01*
X11771896Y-13234527D01*
X11790943Y-13244050D01*
X11800467Y-13253574D01*
X11809991Y-13272622D01*
X11809991Y-13320241D01*
X11800467Y-13339288D01*
X11790943Y-13348812D01*
X11771896Y-13358336D01*
X11714753Y-13358336D01*
X11695705Y-13348812D01*
X11686181Y-13339288D01*
X11895705Y-13339288D02*
X11905229Y-13348812D01*
X11895705Y-13358336D01*
X11886181Y-13348812D01*
X11895705Y-13339288D01*
X11895705Y-13358336D01*
X11981419Y-13177384D02*
X11990943Y-13167860D01*
X12009991Y-13158336D01*
X12057610Y-13158336D01*
X12076658Y-13167860D01*
X12086181Y-13177384D01*
X12095705Y-13196431D01*
X12095705Y-13215479D01*
X12086181Y-13244050D01*
X11971896Y-13358336D01*
X12095705Y-13358336D01*
X12276658Y-13158336D02*
X12181419Y-13158336D01*
X12171896Y-13253574D01*
X12181419Y-13244050D01*
X12200467Y-13234527D01*
X12248086Y-13234527D01*
X12267134Y-13244050D01*
X12276658Y-13253574D01*
X12286181Y-13272622D01*
X12286181Y-13320241D01*
X12276658Y-13339288D01*
X12267134Y-13348812D01*
X12248086Y-13358336D01*
X12200467Y-13358336D01*
X12181419Y-13348812D01*
X12171896Y-13339288D01*
X12476658Y-13358336D02*
X12362372Y-13358336D01*
X12419515Y-13358336D02*
X12419515Y-13158336D01*
X12400467Y-13186908D01*
X12381419Y-13205955D01*
X12362372Y-13215479D01*
X12562372Y-13358336D02*
X12562372Y-13225003D01*
X12562372Y-13244050D02*
X12571896Y-13234527D01*
X12590943Y-13225003D01*
X12619515Y-13225003D01*
X12638562Y-13234527D01*
X12648086Y-13253574D01*
X12648086Y-13358336D01*
X12648086Y-13253574D02*
X12657610Y-13234527D01*
X12676658Y-13225003D01*
X12705229Y-13225003D01*
X12724277Y-13234527D01*
X12733800Y-13253574D01*
X12733800Y-13358336D01*
X12829038Y-13358336D02*
X12829038Y-13225003D01*
X12829038Y-13244050D02*
X12838562Y-13234527D01*
X12857610Y-13225003D01*
X12886181Y-13225003D01*
X12905229Y-13234527D01*
X12914753Y-13253574D01*
X12914753Y-13358336D01*
X12914753Y-13253574D02*
X12924277Y-13234527D01*
X12943324Y-13225003D01*
X12971896Y-13225003D01*
X12990943Y-13234527D01*
X13000467Y-13253574D01*
X13000467Y-13358336D01*
X13390943Y-13148812D02*
X13219515Y-13405955D01*
X13648086Y-13158336D02*
X13667134Y-13158336D01*
X13686181Y-13167860D01*
X13695705Y-13177384D01*
X13705229Y-13196431D01*
X13714753Y-13234527D01*
X13714753Y-13282146D01*
X13705229Y-13320241D01*
X13695705Y-13339288D01*
X13686181Y-13348812D01*
X13667134Y-13358336D01*
X13648086Y-13358336D01*
X13629038Y-13348812D01*
X13619515Y-13339288D01*
X13609991Y-13320241D01*
X13600467Y-13282146D01*
X13600467Y-13234527D01*
X13609991Y-13196431D01*
X13619515Y-13177384D01*
X13629038Y-13167860D01*
X13648086Y-13158336D01*
X13800467Y-13339288D02*
X13809991Y-13348812D01*
X13800467Y-13358336D01*
X13790943Y-13348812D01*
X13800467Y-13339288D01*
X13800467Y-13358336D01*
X14000467Y-13358336D02*
X13886181Y-13358336D01*
X13943324Y-13358336D02*
X13943324Y-13158336D01*
X13924277Y-13186908D01*
X13905229Y-13205955D01*
X13886181Y-13215479D01*
X14076658Y-13177384D02*
X14086181Y-13167860D01*
X14105229Y-13158336D01*
X14152848Y-13158336D01*
X14171896Y-13167860D01*
X14181419Y-13177384D01*
X14190943Y-13196431D01*
X14190943Y-13215479D01*
X14181419Y-13244050D01*
X14067134Y-13358336D01*
X14190943Y-13358336D01*
X14305229Y-13244050D02*
X14286181Y-13234527D01*
X14276658Y-13225003D01*
X14267134Y-13205955D01*
X14267134Y-13196431D01*
X14276658Y-13177384D01*
X14286181Y-13167860D01*
X14305229Y-13158336D01*
X14343324Y-13158336D01*
X14362372Y-13167860D01*
X14371896Y-13177384D01*
X14381419Y-13196431D01*
X14381419Y-13205955D01*
X14371896Y-13225003D01*
X14362372Y-13234527D01*
X14343324Y-13244050D01*
X14305229Y-13244050D01*
X14286181Y-13253574D01*
X14276658Y-13263098D01*
X14267134Y-13282146D01*
X14267134Y-13320241D01*
X14276658Y-13339288D01*
X14286181Y-13348812D01*
X14305229Y-13358336D01*
X14343324Y-13358336D01*
X14362372Y-13348812D01*
X14371896Y-13339288D01*
X14381419Y-13320241D01*
X14381419Y-13282146D01*
X14371896Y-13263098D01*
X14362372Y-13253574D01*
X14343324Y-13244050D01*
X14505229Y-13158336D02*
X14524277Y-13158336D01*
X14543324Y-13167860D01*
X14552848Y-13177384D01*
X14562372Y-13196431D01*
X14571896Y-13234527D01*
X14571896Y-13282146D01*
X14562372Y-13320241D01*
X14552848Y-13339288D01*
X14543324Y-13348812D01*
X14524277Y-13358336D01*
X14505229Y-13358336D01*
X14486181Y-13348812D01*
X14476658Y-13339288D01*
X14467134Y-13320241D01*
X14457610Y-13282146D01*
X14457610Y-13234527D01*
X14467134Y-13196431D01*
X14476658Y-13177384D01*
X14486181Y-13167860D01*
X14505229Y-13158336D01*
X14648086Y-13158336D02*
X14648086Y-13196431D01*
X14724277Y-13158336D02*
X14724277Y-13196431D01*
X15019515Y-13434527D02*
X15009991Y-13425003D01*
X14990943Y-13396431D01*
X14981419Y-13377384D01*
X14971896Y-13348812D01*
X14962372Y-13301193D01*
X14962372Y-13263098D01*
X14971896Y-13215479D01*
X14981419Y-13186908D01*
X14990943Y-13167860D01*
X15009991Y-13139288D01*
X15019515Y-13129765D01*
X15086181Y-13177384D02*
X15095705Y-13167860D01*
X15114753Y-13158336D01*
X15162372Y-13158336D01*
X15181419Y-13167860D01*
X15190943Y-13177384D01*
X15200467Y-13196431D01*
X15200467Y-13215479D01*
X15190943Y-13244050D01*
X15076658Y-13358336D01*
X15200467Y-13358336D01*
X15438562Y-13358336D02*
X15438562Y-13158336D01*
X15524277Y-13358336D02*
X15524277Y-13253574D01*
X15514753Y-13234527D01*
X15495705Y-13225003D01*
X15467134Y-13225003D01*
X15448086Y-13234527D01*
X15438562Y-13244050D01*
X15648086Y-13358336D02*
X15629038Y-13348812D01*
X15619515Y-13339288D01*
X15609991Y-13320241D01*
X15609991Y-13263098D01*
X15619515Y-13244050D01*
X15629038Y-13234527D01*
X15648086Y-13225003D01*
X15676658Y-13225003D01*
X15695705Y-13234527D01*
X15705229Y-13244050D01*
X15714753Y-13263098D01*
X15714753Y-13320241D01*
X15705229Y-13339288D01*
X15695705Y-13348812D01*
X15676658Y-13358336D01*
X15648086Y-13358336D01*
X15829038Y-13358336D02*
X15809991Y-13348812D01*
X15800467Y-13329765D01*
X15800467Y-13158336D01*
X15981419Y-13348812D02*
X15962372Y-13358336D01*
X15924277Y-13358336D01*
X15905229Y-13348812D01*
X15895705Y-13329765D01*
X15895705Y-13253574D01*
X15905229Y-13234527D01*
X15924277Y-13225003D01*
X15962372Y-13225003D01*
X15981419Y-13234527D01*
X15990943Y-13253574D01*
X15990943Y-13272622D01*
X15895705Y-13291669D01*
X16067134Y-13348812D02*
X16086181Y-13358336D01*
X16124277Y-13358336D01*
X16143324Y-13348812D01*
X16152848Y-13329765D01*
X16152848Y-13320241D01*
X16143324Y-13301193D01*
X16124277Y-13291669D01*
X16095705Y-13291669D01*
X16076658Y-13282146D01*
X16067134Y-13263098D01*
X16067134Y-13253574D01*
X16076658Y-13234527D01*
X16095705Y-13225003D01*
X16124277Y-13225003D01*
X16143324Y-13234527D01*
X16219515Y-13434527D02*
X16229038Y-13425003D01*
X16248086Y-13396431D01*
X16257610Y-13377384D01*
X16267134Y-13348812D01*
X16276658Y-13301193D01*
X16276658Y-13263098D01*
X16267134Y-13215479D01*
X16257610Y-13186908D01*
X16248086Y-13167860D01*
X16229038Y-13139288D01*
X16219515Y-13129765D01*
X16581419Y-13434527D02*
X16571896Y-13425003D01*
X16552848Y-13396431D01*
X16543324Y-13377384D01*
X16533800Y-13348812D01*
X16524277Y-13301193D01*
X16524277Y-13263098D01*
X16533800Y-13215479D01*
X16543324Y-13186908D01*
X16552848Y-13167860D01*
X16571896Y-13139288D01*
X16581419Y-13129765D01*
X16657610Y-13225003D02*
X16657610Y-13358336D01*
X16657610Y-13244050D02*
X16667134Y-13234527D01*
X16686181Y-13225003D01*
X16714753Y-13225003D01*
X16733800Y-13234527D01*
X16743324Y-13253574D01*
X16743324Y-13358336D01*
X16867134Y-13358336D02*
X16848086Y-13348812D01*
X16838562Y-13339288D01*
X16829039Y-13320241D01*
X16829039Y-13263098D01*
X16838562Y-13244050D01*
X16848086Y-13234527D01*
X16867134Y-13225003D01*
X16895705Y-13225003D01*
X16914753Y-13234527D01*
X16924277Y-13244050D01*
X16933800Y-13263098D01*
X16933800Y-13320241D01*
X16924277Y-13339288D01*
X16914753Y-13348812D01*
X16895705Y-13358336D01*
X16867134Y-13358336D01*
X16990943Y-13225003D02*
X17067134Y-13225003D01*
X17019515Y-13158336D02*
X17019515Y-13329765D01*
X17029039Y-13348812D01*
X17048086Y-13358336D01*
X17067134Y-13358336D01*
X17286181Y-13225003D02*
X17286181Y-13425003D01*
X17286181Y-13234527D02*
X17305229Y-13225003D01*
X17343324Y-13225003D01*
X17362372Y-13234527D01*
X17371896Y-13244050D01*
X17381420Y-13263098D01*
X17381420Y-13320241D01*
X17371896Y-13339288D01*
X17362372Y-13348812D01*
X17343324Y-13358336D01*
X17305229Y-13358336D01*
X17286181Y-13348812D01*
X17495705Y-13358336D02*
X17476658Y-13348812D01*
X17467134Y-13329765D01*
X17467134Y-13158336D01*
X17657610Y-13358336D02*
X17657610Y-13253574D01*
X17648086Y-13234527D01*
X17629039Y-13225003D01*
X17590943Y-13225003D01*
X17571896Y-13234527D01*
X17657610Y-13348812D02*
X17638562Y-13358336D01*
X17590943Y-13358336D01*
X17571896Y-13348812D01*
X17562372Y-13329765D01*
X17562372Y-13310717D01*
X17571896Y-13291669D01*
X17590943Y-13282146D01*
X17638562Y-13282146D01*
X17657610Y-13272622D01*
X17724277Y-13225003D02*
X17800467Y-13225003D01*
X17752848Y-13158336D02*
X17752848Y-13329765D01*
X17762372Y-13348812D01*
X17781420Y-13358336D01*
X17800467Y-13358336D01*
X17943324Y-13348812D02*
X17924277Y-13358336D01*
X17886181Y-13358336D01*
X17867134Y-13348812D01*
X17857610Y-13329765D01*
X17857610Y-13253574D01*
X17867134Y-13234527D01*
X17886181Y-13225003D01*
X17924277Y-13225003D01*
X17943324Y-13234527D01*
X17952848Y-13253574D01*
X17952848Y-13272622D01*
X17857610Y-13291669D01*
X18124277Y-13358336D02*
X18124277Y-13158336D01*
X18124277Y-13348812D02*
X18105229Y-13358336D01*
X18067134Y-13358336D01*
X18048086Y-13348812D01*
X18038562Y-13339288D01*
X18029039Y-13320241D01*
X18029039Y-13263098D01*
X18038562Y-13244050D01*
X18048086Y-13234527D01*
X18067134Y-13225003D01*
X18105229Y-13225003D01*
X18124277Y-13234527D01*
X18200467Y-13434527D02*
X18209991Y-13425003D01*
X18229039Y-13396431D01*
X18238562Y-13377384D01*
X18248086Y-13348812D01*
X18257610Y-13301193D01*
X18257610Y-13263098D01*
X18248086Y-13215479D01*
X18238562Y-13186908D01*
X18229039Y-13167860D01*
X18209991Y-13139288D01*
X18200467Y-13129765D01*
M02*
