%FSLAX45Y45*%
G04 Gerber Fmt 4.5, Leading zero omitted, Abs format (unit mm)*
G04 Created by KiCad (PCBNEW (6.0.0)) date 2022-05-10 23:48:08*
%MOMM*%
%LPD*%
G01*
G04 APERTURE LIST*
%TA.AperFunction,Profile*%
%ADD10C,0.050000*%
%TD*%
%ADD11C,0.200000*%
%ADD12C,0.035000*%
%ADD13C,0.060960*%
%ADD14C,0.080000*%
%ADD15C,0.088900*%
%ADD16C,0.101600*%
%ADD17C,0.160000*%
%ADD18C,0.299720*%
G04 APERTURE END LIST*
D10*
X15950110Y-8655360D02*
G75*
G03*
X15850110Y-8755360I0J-100000D01*
G01*
X18250110Y-8575360D02*
G75*
G03*
X18050110Y-8375360I-200000J0D01*
G01*
X16450110Y-8755360D02*
G75*
G03*
X16350110Y-8655360I-100000J0D01*
G01*
X16350110Y-8855360D02*
G75*
G03*
X16450110Y-8755360I0J100000D01*
G01*
X18050110Y-12625360D02*
G75*
G03*
X18250110Y-12425360I0J200000D01*
G01*
X16350110Y-8655360D02*
X15950110Y-8655360D01*
X11650110Y-12625360D02*
X18050110Y-12625360D01*
X18250110Y-8575360D02*
X18250110Y-12425360D01*
X16350110Y-9465360D02*
X15950110Y-9465360D01*
X11450110Y-12425360D02*
G75*
G03*
X11650110Y-12625360I200000J0D01*
G01*
X15950110Y-9465360D02*
G75*
G03*
X15850110Y-9565360I0J-100000D01*
G01*
X16350110Y-9665360D02*
G75*
G03*
X16450110Y-9565360I0J100000D01*
G01*
X11650110Y-8375360D02*
X18050110Y-8375360D01*
X15850110Y-9565360D02*
G75*
G03*
X15950110Y-9665360I100000J0D01*
G01*
X11450110Y-12425360D02*
X11450110Y-8575360D01*
X15950110Y-8855360D02*
X16350110Y-8855360D01*
X15950110Y-9665360D02*
X16350110Y-9665360D01*
X16450110Y-9565360D02*
G75*
G03*
X16350110Y-9465360I-100000J0D01*
G01*
X15850110Y-8755360D02*
G75*
G03*
X15950110Y-8855360I100000J0D01*
G01*
X11650110Y-8375360D02*
G75*
G03*
X11450110Y-8575360I0J-200000D01*
G01*
D11*
D12*
X12902610Y-11957860D02*
X12937610Y-11992860D01*
X12937610Y-11957860D02*
X12902610Y-11992860D01*
X13567000Y-11984500D02*
X13602000Y-12019500D01*
X13602000Y-11984500D02*
X13567000Y-12019500D01*
X13732610Y-11757860D02*
X13767610Y-11792860D01*
X13767610Y-11757860D02*
X13732610Y-11792860D01*
X14232610Y-11757860D02*
X14267610Y-11792860D01*
X14267610Y-11757860D02*
X14232610Y-11792860D01*
X14932610Y-12007860D02*
X14967610Y-12042860D01*
X14967610Y-12007860D02*
X14932610Y-12042860D01*
X15032610Y-10207860D02*
X15067610Y-10242860D01*
X15067610Y-10207860D02*
X15032610Y-10242860D01*
X15432610Y-10207860D02*
X15467610Y-10242860D01*
X15467610Y-10207860D02*
X15432610Y-10242860D01*
X15882610Y-10007860D02*
X15917610Y-10042860D01*
X15917610Y-10007860D02*
X15882610Y-10042860D01*
X16282610Y-10007860D02*
X16317610Y-10042860D01*
X16317610Y-10007860D02*
X16282610Y-10042860D01*
X16682610Y-10007860D02*
X16717610Y-10042860D01*
X16717610Y-10007860D02*
X16682610Y-10042860D01*
D13*
X15230590Y-11675360D02*
G75*
G03*
X15230590Y-11675360I-30480J0D01*
G01*
D14*
X12943610Y-12223361D02*
X12943610Y-12303361D01*
X12903610Y-12263361D02*
X12983610Y-12263361D01*
X12943610Y-12423361D02*
X12943610Y-12503361D01*
X12903610Y-12463361D02*
X12983610Y-12463361D01*
X13143610Y-12223361D02*
X13143610Y-12303361D01*
X13103610Y-12263361D02*
X13183610Y-12263361D01*
X13143610Y-12423361D02*
X13143610Y-12503361D01*
X13103610Y-12463361D02*
X13183610Y-12463361D01*
X13343610Y-12223361D02*
X13343610Y-12303361D01*
X13303610Y-12263361D02*
X13383610Y-12263361D01*
X13343610Y-12423361D02*
X13343610Y-12503361D01*
X13303610Y-12463361D02*
X13383610Y-12463361D01*
X13543610Y-12223361D02*
X13543610Y-12303361D01*
X13503610Y-12263361D02*
X13583610Y-12263361D01*
X13543610Y-12423361D02*
X13543610Y-12503361D01*
X13503610Y-12463361D02*
X13583610Y-12463361D01*
X13743610Y-12223361D02*
X13743610Y-12303361D01*
X13703610Y-12263361D02*
X13783610Y-12263361D01*
X13743610Y-12423361D02*
X13743610Y-12503361D01*
X13703610Y-12463361D02*
X13783610Y-12463361D01*
X13943610Y-12223361D02*
X13943610Y-12303361D01*
X13903610Y-12263361D02*
X13983610Y-12263361D01*
X13943610Y-12423361D02*
X13943610Y-12503361D01*
X13903610Y-12463361D02*
X13983610Y-12463361D01*
X14143610Y-12223361D02*
X14143610Y-12303361D01*
X14103610Y-12263361D02*
X14183610Y-12263361D01*
X14143610Y-12423361D02*
X14143610Y-12503361D01*
X14103610Y-12463361D02*
X14183610Y-12463361D01*
X14343610Y-12223361D02*
X14343610Y-12303361D01*
X14303610Y-12263361D02*
X14383610Y-12263361D01*
X14343610Y-12423361D02*
X14343610Y-12503361D01*
X14303610Y-12463361D02*
X14383610Y-12463361D01*
X14543610Y-12223361D02*
X14543610Y-12303361D01*
X14503610Y-12263361D02*
X14583610Y-12263361D01*
X14543610Y-12423361D02*
X14543610Y-12503361D01*
X14503610Y-12463361D02*
X14583610Y-12463361D01*
X14743610Y-12223361D02*
X14743610Y-12303361D01*
X14703610Y-12263361D02*
X14783610Y-12263361D01*
X14743610Y-12423361D02*
X14743610Y-12503361D01*
X14703610Y-12463361D02*
X14783610Y-12463361D01*
X14943610Y-12223361D02*
X14943610Y-12303361D01*
X14903610Y-12263361D02*
X14983610Y-12263361D01*
X14943610Y-12423361D02*
X14943610Y-12503361D01*
X14903610Y-12463361D02*
X14983610Y-12463361D01*
X15143610Y-12223361D02*
X15143610Y-12303361D01*
X15103610Y-12263361D02*
X15183610Y-12263361D01*
X15143610Y-12423361D02*
X15143610Y-12503361D01*
X15103610Y-12463361D02*
X15183610Y-12463361D01*
X15343610Y-12223361D02*
X15343610Y-12303361D01*
X15303610Y-12263361D02*
X15383610Y-12263361D01*
X15343610Y-12423361D02*
X15343610Y-12503361D01*
X15303610Y-12463361D02*
X15383610Y-12463361D01*
X15543610Y-12223361D02*
X15543610Y-12303361D01*
X15503610Y-12263361D02*
X15583610Y-12263361D01*
X15543610Y-12423361D02*
X15543610Y-12503361D01*
X15503610Y-12463361D02*
X15583610Y-12463361D01*
X15743610Y-12223361D02*
X15743610Y-12303361D01*
X15703610Y-12263361D02*
X15783610Y-12263361D01*
X15743610Y-12423361D02*
X15743610Y-12503361D01*
X15703610Y-12463361D02*
X15783610Y-12463361D01*
X15943610Y-12223361D02*
X15943610Y-12303361D01*
X15903610Y-12263361D02*
X15983610Y-12263361D01*
X15943610Y-12423361D02*
X15943610Y-12503361D01*
X15903610Y-12463361D02*
X15983610Y-12463361D01*
X16143610Y-12223361D02*
X16143610Y-12303361D01*
X16103610Y-12263361D02*
X16183610Y-12263361D01*
X16143610Y-12423361D02*
X16143610Y-12503361D01*
X16103610Y-12463361D02*
X16183610Y-12463361D01*
X16343610Y-12223361D02*
X16343610Y-12303361D01*
X16303610Y-12263361D02*
X16383610Y-12263361D01*
X16343610Y-12423361D02*
X16343610Y-12503361D01*
X16303610Y-12463361D02*
X16383610Y-12463361D01*
X16543610Y-12223361D02*
X16543610Y-12303361D01*
X16503610Y-12263361D02*
X16583610Y-12263361D01*
X16543610Y-12423361D02*
X16543610Y-12503361D01*
X16503610Y-12463361D02*
X16583610Y-12463361D01*
X16743610Y-12223361D02*
X16743610Y-12303361D01*
X16703610Y-12263361D02*
X16783610Y-12263361D01*
X16743610Y-12423361D02*
X16743610Y-12503361D01*
X16703610Y-12463361D02*
X16783610Y-12463361D01*
D15*
X12087041Y-8871791D02*
X12087041Y-8808929D01*
X12024179Y-8808929D01*
X12024179Y-8871791D01*
X12087041Y-8871791D01*
X12214041Y-8617791D02*
X12214041Y-8554929D01*
X12151179Y-8554929D01*
X12151179Y-8617791D01*
X12214041Y-8617791D01*
X12341041Y-8871791D02*
X12341041Y-8808929D01*
X12278179Y-8808929D01*
X12278179Y-8871791D01*
X12341041Y-8871791D01*
X12468041Y-8617791D02*
X12468041Y-8554929D01*
X12405179Y-8554929D01*
X12405179Y-8617791D01*
X12468041Y-8617791D01*
X12595041Y-8871791D02*
X12595041Y-8808929D01*
X12532179Y-8808929D01*
X12532179Y-8871791D01*
X12595041Y-8871791D01*
X12722041Y-8617791D02*
X12722041Y-8554929D01*
X12659179Y-8554929D01*
X12659179Y-8617791D01*
X12722041Y-8617791D01*
X12849041Y-8871791D02*
X12849041Y-8808929D01*
X12786179Y-8808929D01*
X12786179Y-8871791D01*
X12849041Y-8871791D01*
X12976041Y-8617791D02*
X12976041Y-8554929D01*
X12913179Y-8554929D01*
X12913179Y-8617791D01*
X12976041Y-8617791D01*
D16*
X14146110Y-9876160D02*
X14196910Y-9825360D01*
X14146110Y-9774560D01*
X14095310Y-9825360D01*
X14146110Y-9876160D01*
X14400110Y-9876160D02*
X14450910Y-9825360D01*
X14400110Y-9774560D01*
X14349310Y-9825360D01*
X14400110Y-9876160D01*
X14654110Y-9876160D02*
X14704910Y-9825360D01*
X14654110Y-9774560D01*
X14603310Y-9825360D01*
X14654110Y-9876160D01*
D17*
X11628610Y-9745360D02*
X11788610Y-9905360D01*
X11788610Y-9745360D02*
X11628610Y-9905360D01*
X11788610Y-9825360D02*
G75*
G03*
X11788610Y-9825360I-80000J0D01*
G01*
X13211610Y-9745360D02*
X13371610Y-9905360D01*
X13371610Y-9745360D02*
X13211610Y-9905360D01*
X13371610Y-9825360D02*
G75*
G03*
X13371610Y-9825360I-80000J0D01*
G01*
D18*
X13430250Y-8975499D02*
X13729970Y-9275219D01*
X13729970Y-8975499D02*
X13430250Y-9275219D01*
X13580110Y-8975499D02*
X13580110Y-9275219D01*
X13430250Y-9125359D02*
X13729970Y-9125359D01*
X13730250Y-8505499D02*
X14029970Y-8805219D01*
X14029970Y-8505499D02*
X13730250Y-8805219D01*
X13880110Y-8505499D02*
X13880110Y-8805219D01*
X13730250Y-8655359D02*
X14029970Y-8655359D01*
X14030250Y-8975499D02*
X14329970Y-9275219D01*
X14329970Y-8975499D02*
X14030250Y-9275219D01*
X14180110Y-8975499D02*
X14180110Y-9275219D01*
X14030250Y-9125359D02*
X14329970Y-9125359D01*
D11*
X11705229Y-12938336D02*
X11705229Y-12738336D01*
X11752848Y-12738336D01*
X11781419Y-12747860D01*
X11800467Y-12766908D01*
X11809991Y-12785955D01*
X11819515Y-12824050D01*
X11819515Y-12852622D01*
X11809991Y-12890717D01*
X11800467Y-12909765D01*
X11781419Y-12928812D01*
X11752848Y-12938336D01*
X11705229Y-12938336D01*
X11905229Y-12938336D02*
X11905229Y-12805003D01*
X11905229Y-12843098D02*
X11914753Y-12824050D01*
X11924277Y-12814527D01*
X11943324Y-12805003D01*
X11962372Y-12805003D01*
X12029038Y-12938336D02*
X12029038Y-12805003D01*
X12029038Y-12738336D02*
X12019515Y-12747860D01*
X12029038Y-12757384D01*
X12038562Y-12747860D01*
X12029038Y-12738336D01*
X12029038Y-12757384D01*
X12152848Y-12938336D02*
X12133800Y-12928812D01*
X12124277Y-12909765D01*
X12124277Y-12738336D01*
X12257610Y-12938336D02*
X12238562Y-12928812D01*
X12229038Y-12909765D01*
X12229038Y-12738336D01*
X12486181Y-12938336D02*
X12486181Y-12738336D01*
X12552848Y-12881193D01*
X12619515Y-12738336D01*
X12619515Y-12938336D01*
X12800467Y-12938336D02*
X12800467Y-12833574D01*
X12790943Y-12814527D01*
X12771896Y-12805003D01*
X12733800Y-12805003D01*
X12714753Y-12814527D01*
X12800467Y-12928812D02*
X12781419Y-12938336D01*
X12733800Y-12938336D01*
X12714753Y-12928812D01*
X12705229Y-12909765D01*
X12705229Y-12890717D01*
X12714753Y-12871669D01*
X12733800Y-12862146D01*
X12781419Y-12862146D01*
X12800467Y-12852622D01*
X12895705Y-12805003D02*
X12895705Y-13005003D01*
X12895705Y-12814527D02*
X12914753Y-12805003D01*
X12952848Y-12805003D01*
X12971896Y-12814527D01*
X12981419Y-12824050D01*
X12990943Y-12843098D01*
X12990943Y-12900241D01*
X12981419Y-12919288D01*
X12971896Y-12928812D01*
X12952848Y-12938336D01*
X12914753Y-12938336D01*
X12895705Y-12928812D01*
X13076658Y-12919288D02*
X13086181Y-12928812D01*
X13076658Y-12938336D01*
X13067134Y-12928812D01*
X13076658Y-12919288D01*
X13076658Y-12938336D01*
X13076658Y-12814527D02*
X13086181Y-12824050D01*
X13076658Y-12833574D01*
X13067134Y-12824050D01*
X13076658Y-12814527D01*
X13076658Y-12833574D01*
D12*
X11412610Y-13250360D02*
X11447610Y-13285360D01*
X11447610Y-13250360D02*
X11412610Y-13285360D01*
D11*
X11743324Y-13158336D02*
X11762372Y-13158336D01*
X11781419Y-13167860D01*
X11790943Y-13177384D01*
X11800467Y-13196431D01*
X11809991Y-13234527D01*
X11809991Y-13282146D01*
X11800467Y-13320241D01*
X11790943Y-13339288D01*
X11781419Y-13348812D01*
X11762372Y-13358336D01*
X11743324Y-13358336D01*
X11724277Y-13348812D01*
X11714753Y-13339288D01*
X11705229Y-13320241D01*
X11695705Y-13282146D01*
X11695705Y-13234527D01*
X11705229Y-13196431D01*
X11714753Y-13177384D01*
X11724277Y-13167860D01*
X11743324Y-13158336D01*
X11895705Y-13339288D02*
X11905229Y-13348812D01*
X11895705Y-13358336D01*
X11886181Y-13348812D01*
X11895705Y-13339288D01*
X11895705Y-13358336D01*
X11971896Y-13158336D02*
X12095705Y-13158336D01*
X12029038Y-13234527D01*
X12057610Y-13234527D01*
X12076658Y-13244050D01*
X12086181Y-13253574D01*
X12095705Y-13272622D01*
X12095705Y-13320241D01*
X12086181Y-13339288D01*
X12076658Y-13348812D01*
X12057610Y-13358336D01*
X12000467Y-13358336D01*
X11981419Y-13348812D01*
X11971896Y-13339288D01*
X12276658Y-13158336D02*
X12181419Y-13158336D01*
X12171896Y-13253574D01*
X12181419Y-13244050D01*
X12200467Y-13234527D01*
X12248086Y-13234527D01*
X12267134Y-13244050D01*
X12276658Y-13253574D01*
X12286181Y-13272622D01*
X12286181Y-13320241D01*
X12276658Y-13339288D01*
X12267134Y-13348812D01*
X12248086Y-13358336D01*
X12200467Y-13358336D01*
X12181419Y-13348812D01*
X12171896Y-13339288D01*
X12409991Y-13158336D02*
X12429038Y-13158336D01*
X12448086Y-13167860D01*
X12457610Y-13177384D01*
X12467134Y-13196431D01*
X12476658Y-13234527D01*
X12476658Y-13282146D01*
X12467134Y-13320241D01*
X12457610Y-13339288D01*
X12448086Y-13348812D01*
X12429038Y-13358336D01*
X12409991Y-13358336D01*
X12390943Y-13348812D01*
X12381419Y-13339288D01*
X12371896Y-13320241D01*
X12362372Y-13282146D01*
X12362372Y-13234527D01*
X12371896Y-13196431D01*
X12381419Y-13177384D01*
X12390943Y-13167860D01*
X12409991Y-13158336D01*
X12562372Y-13358336D02*
X12562372Y-13225003D01*
X12562372Y-13244050D02*
X12571896Y-13234527D01*
X12590943Y-13225003D01*
X12619515Y-13225003D01*
X12638562Y-13234527D01*
X12648086Y-13253574D01*
X12648086Y-13358336D01*
X12648086Y-13253574D02*
X12657610Y-13234527D01*
X12676658Y-13225003D01*
X12705229Y-13225003D01*
X12724277Y-13234527D01*
X12733800Y-13253574D01*
X12733800Y-13358336D01*
X12829038Y-13358336D02*
X12829038Y-13225003D01*
X12829038Y-13244050D02*
X12838562Y-13234527D01*
X12857610Y-13225003D01*
X12886181Y-13225003D01*
X12905229Y-13234527D01*
X12914753Y-13253574D01*
X12914753Y-13358336D01*
X12914753Y-13253574D02*
X12924277Y-13234527D01*
X12943324Y-13225003D01*
X12971896Y-13225003D01*
X12990943Y-13234527D01*
X13000467Y-13253574D01*
X13000467Y-13358336D01*
X13390943Y-13148812D02*
X13219515Y-13405955D01*
X13648086Y-13158336D02*
X13667134Y-13158336D01*
X13686181Y-13167860D01*
X13695705Y-13177384D01*
X13705229Y-13196431D01*
X13714753Y-13234527D01*
X13714753Y-13282146D01*
X13705229Y-13320241D01*
X13695705Y-13339288D01*
X13686181Y-13348812D01*
X13667134Y-13358336D01*
X13648086Y-13358336D01*
X13629038Y-13348812D01*
X13619515Y-13339288D01*
X13609991Y-13320241D01*
X13600467Y-13282146D01*
X13600467Y-13234527D01*
X13609991Y-13196431D01*
X13619515Y-13177384D01*
X13629038Y-13167860D01*
X13648086Y-13158336D01*
X13800467Y-13339288D02*
X13809991Y-13348812D01*
X13800467Y-13358336D01*
X13790943Y-13348812D01*
X13800467Y-13339288D01*
X13800467Y-13358336D01*
X13933800Y-13158336D02*
X13952848Y-13158336D01*
X13971896Y-13167860D01*
X13981419Y-13177384D01*
X13990943Y-13196431D01*
X14000467Y-13234527D01*
X14000467Y-13282146D01*
X13990943Y-13320241D01*
X13981419Y-13339288D01*
X13971896Y-13348812D01*
X13952848Y-13358336D01*
X13933800Y-13358336D01*
X13914753Y-13348812D01*
X13905229Y-13339288D01*
X13895705Y-13320241D01*
X13886181Y-13282146D01*
X13886181Y-13234527D01*
X13895705Y-13196431D01*
X13905229Y-13177384D01*
X13914753Y-13167860D01*
X13933800Y-13158336D01*
X14190943Y-13358336D02*
X14076658Y-13358336D01*
X14133800Y-13358336D02*
X14133800Y-13158336D01*
X14114753Y-13186908D01*
X14095705Y-13205955D01*
X14076658Y-13215479D01*
X14257610Y-13158336D02*
X14381419Y-13158336D01*
X14314753Y-13234527D01*
X14343324Y-13234527D01*
X14362372Y-13244050D01*
X14371896Y-13253574D01*
X14381419Y-13272622D01*
X14381419Y-13320241D01*
X14371896Y-13339288D01*
X14362372Y-13348812D01*
X14343324Y-13358336D01*
X14286181Y-13358336D01*
X14267134Y-13348812D01*
X14257610Y-13339288D01*
X14495705Y-13244050D02*
X14476658Y-13234527D01*
X14467134Y-13225003D01*
X14457610Y-13205955D01*
X14457610Y-13196431D01*
X14467134Y-13177384D01*
X14476658Y-13167860D01*
X14495705Y-13158336D01*
X14533800Y-13158336D01*
X14552848Y-13167860D01*
X14562372Y-13177384D01*
X14571896Y-13196431D01*
X14571896Y-13205955D01*
X14562372Y-13225003D01*
X14552848Y-13234527D01*
X14533800Y-13244050D01*
X14495705Y-13244050D01*
X14476658Y-13253574D01*
X14467134Y-13263098D01*
X14457610Y-13282146D01*
X14457610Y-13320241D01*
X14467134Y-13339288D01*
X14476658Y-13348812D01*
X14495705Y-13358336D01*
X14533800Y-13358336D01*
X14552848Y-13348812D01*
X14562372Y-13339288D01*
X14571896Y-13320241D01*
X14571896Y-13282146D01*
X14562372Y-13263098D01*
X14552848Y-13253574D01*
X14533800Y-13244050D01*
X14648086Y-13158336D02*
X14648086Y-13196431D01*
X14724277Y-13158336D02*
X14724277Y-13196431D01*
X15019515Y-13434527D02*
X15009991Y-13425003D01*
X14990943Y-13396431D01*
X14981419Y-13377384D01*
X14971896Y-13348812D01*
X14962372Y-13301193D01*
X14962372Y-13263098D01*
X14971896Y-13215479D01*
X14981419Y-13186908D01*
X14990943Y-13167860D01*
X15009991Y-13139288D01*
X15019515Y-13129765D01*
X15200467Y-13358336D02*
X15086181Y-13358336D01*
X15143324Y-13358336D02*
X15143324Y-13158336D01*
X15124277Y-13186908D01*
X15105229Y-13205955D01*
X15086181Y-13215479D01*
X15324277Y-13158336D02*
X15343324Y-13158336D01*
X15362372Y-13167860D01*
X15371896Y-13177384D01*
X15381419Y-13196431D01*
X15390943Y-13234527D01*
X15390943Y-13282146D01*
X15381419Y-13320241D01*
X15371896Y-13339288D01*
X15362372Y-13348812D01*
X15343324Y-13358336D01*
X15324277Y-13358336D01*
X15305229Y-13348812D01*
X15295705Y-13339288D01*
X15286181Y-13320241D01*
X15276658Y-13282146D01*
X15276658Y-13234527D01*
X15286181Y-13196431D01*
X15295705Y-13177384D01*
X15305229Y-13167860D01*
X15324277Y-13158336D01*
X15629038Y-13358336D02*
X15629038Y-13158336D01*
X15714753Y-13358336D02*
X15714753Y-13253574D01*
X15705229Y-13234527D01*
X15686181Y-13225003D01*
X15657610Y-13225003D01*
X15638562Y-13234527D01*
X15629038Y-13244050D01*
X15838562Y-13358336D02*
X15819515Y-13348812D01*
X15809991Y-13339288D01*
X15800467Y-13320241D01*
X15800467Y-13263098D01*
X15809991Y-13244050D01*
X15819515Y-13234527D01*
X15838562Y-13225003D01*
X15867134Y-13225003D01*
X15886181Y-13234527D01*
X15895705Y-13244050D01*
X15905229Y-13263098D01*
X15905229Y-13320241D01*
X15895705Y-13339288D01*
X15886181Y-13348812D01*
X15867134Y-13358336D01*
X15838562Y-13358336D01*
X16019515Y-13358336D02*
X16000467Y-13348812D01*
X15990943Y-13329765D01*
X15990943Y-13158336D01*
X16171896Y-13348812D02*
X16152848Y-13358336D01*
X16114753Y-13358336D01*
X16095705Y-13348812D01*
X16086181Y-13329765D01*
X16086181Y-13253574D01*
X16095705Y-13234527D01*
X16114753Y-13225003D01*
X16152848Y-13225003D01*
X16171896Y-13234527D01*
X16181419Y-13253574D01*
X16181419Y-13272622D01*
X16086181Y-13291669D01*
X16257610Y-13348812D02*
X16276658Y-13358336D01*
X16314753Y-13358336D01*
X16333800Y-13348812D01*
X16343324Y-13329765D01*
X16343324Y-13320241D01*
X16333800Y-13301193D01*
X16314753Y-13291669D01*
X16286181Y-13291669D01*
X16267134Y-13282146D01*
X16257610Y-13263098D01*
X16257610Y-13253574D01*
X16267134Y-13234527D01*
X16286181Y-13225003D01*
X16314753Y-13225003D01*
X16333800Y-13234527D01*
X16409991Y-13434527D02*
X16419515Y-13425003D01*
X16438562Y-13396431D01*
X16448086Y-13377384D01*
X16457610Y-13348812D01*
X16467134Y-13301193D01*
X16467134Y-13263098D01*
X16457610Y-13215479D01*
X16448086Y-13186908D01*
X16438562Y-13167860D01*
X16419515Y-13139288D01*
X16409991Y-13129765D01*
D13*
X11447610Y-13531860D02*
G75*
G03*
X11447610Y-13531860I-30480J0D01*
G01*
D11*
X11743324Y-13422336D02*
X11762372Y-13422336D01*
X11781419Y-13431860D01*
X11790943Y-13441384D01*
X11800467Y-13460431D01*
X11809991Y-13498527D01*
X11809991Y-13546146D01*
X11800467Y-13584241D01*
X11790943Y-13603288D01*
X11781419Y-13612812D01*
X11762372Y-13622336D01*
X11743324Y-13622336D01*
X11724277Y-13612812D01*
X11714753Y-13603288D01*
X11705229Y-13584241D01*
X11695705Y-13546146D01*
X11695705Y-13498527D01*
X11705229Y-13460431D01*
X11714753Y-13441384D01*
X11724277Y-13431860D01*
X11743324Y-13422336D01*
X11895705Y-13603288D02*
X11905229Y-13612812D01*
X11895705Y-13622336D01*
X11886181Y-13612812D01*
X11895705Y-13603288D01*
X11895705Y-13622336D01*
X12076658Y-13422336D02*
X12038562Y-13422336D01*
X12019515Y-13431860D01*
X12009991Y-13441384D01*
X11990943Y-13469955D01*
X11981419Y-13508050D01*
X11981419Y-13584241D01*
X11990943Y-13603288D01*
X12000467Y-13612812D01*
X12019515Y-13622336D01*
X12057610Y-13622336D01*
X12076658Y-13612812D01*
X12086181Y-13603288D01*
X12095705Y-13584241D01*
X12095705Y-13536622D01*
X12086181Y-13517574D01*
X12076658Y-13508050D01*
X12057610Y-13498527D01*
X12019515Y-13498527D01*
X12000467Y-13508050D01*
X11990943Y-13517574D01*
X11981419Y-13536622D01*
X12286181Y-13622336D02*
X12171896Y-13622336D01*
X12229038Y-13622336D02*
X12229038Y-13422336D01*
X12209991Y-13450908D01*
X12190943Y-13469955D01*
X12171896Y-13479479D01*
X12409991Y-13422336D02*
X12429038Y-13422336D01*
X12448086Y-13431860D01*
X12457610Y-13441384D01*
X12467134Y-13460431D01*
X12476658Y-13498527D01*
X12476658Y-13546146D01*
X12467134Y-13584241D01*
X12457610Y-13603288D01*
X12448086Y-13612812D01*
X12429038Y-13622336D01*
X12409991Y-13622336D01*
X12390943Y-13612812D01*
X12381419Y-13603288D01*
X12371896Y-13584241D01*
X12362372Y-13546146D01*
X12362372Y-13498527D01*
X12371896Y-13460431D01*
X12381419Y-13441384D01*
X12390943Y-13431860D01*
X12409991Y-13422336D01*
X12562372Y-13622336D02*
X12562372Y-13489003D01*
X12562372Y-13508050D02*
X12571896Y-13498527D01*
X12590943Y-13489003D01*
X12619515Y-13489003D01*
X12638562Y-13498527D01*
X12648086Y-13517574D01*
X12648086Y-13622336D01*
X12648086Y-13517574D02*
X12657610Y-13498527D01*
X12676658Y-13489003D01*
X12705229Y-13489003D01*
X12724277Y-13498527D01*
X12733800Y-13517574D01*
X12733800Y-13622336D01*
X12829038Y-13622336D02*
X12829038Y-13489003D01*
X12829038Y-13508050D02*
X12838562Y-13498527D01*
X12857610Y-13489003D01*
X12886181Y-13489003D01*
X12905229Y-13498527D01*
X12914753Y-13517574D01*
X12914753Y-13622336D01*
X12914753Y-13517574D02*
X12924277Y-13498527D01*
X12943324Y-13489003D01*
X12971896Y-13489003D01*
X12990943Y-13498527D01*
X13000467Y-13517574D01*
X13000467Y-13622336D01*
X13390943Y-13412812D02*
X13219515Y-13669955D01*
X13648086Y-13422336D02*
X13667134Y-13422336D01*
X13686181Y-13431860D01*
X13695705Y-13441384D01*
X13705229Y-13460431D01*
X13714753Y-13498527D01*
X13714753Y-13546146D01*
X13705229Y-13584241D01*
X13695705Y-13603288D01*
X13686181Y-13612812D01*
X13667134Y-13622336D01*
X13648086Y-13622336D01*
X13629038Y-13612812D01*
X13619515Y-13603288D01*
X13609991Y-13584241D01*
X13600467Y-13546146D01*
X13600467Y-13498527D01*
X13609991Y-13460431D01*
X13619515Y-13441384D01*
X13629038Y-13431860D01*
X13648086Y-13422336D01*
X13800467Y-13603288D02*
X13809991Y-13612812D01*
X13800467Y-13622336D01*
X13790943Y-13612812D01*
X13800467Y-13603288D01*
X13800467Y-13622336D01*
X13933800Y-13422336D02*
X13952848Y-13422336D01*
X13971896Y-13431860D01*
X13981419Y-13441384D01*
X13990943Y-13460431D01*
X14000467Y-13498527D01*
X14000467Y-13546146D01*
X13990943Y-13584241D01*
X13981419Y-13603288D01*
X13971896Y-13612812D01*
X13952848Y-13622336D01*
X13933800Y-13622336D01*
X13914753Y-13612812D01*
X13905229Y-13603288D01*
X13895705Y-13584241D01*
X13886181Y-13546146D01*
X13886181Y-13498527D01*
X13895705Y-13460431D01*
X13905229Y-13441384D01*
X13914753Y-13431860D01*
X13933800Y-13422336D01*
X14076658Y-13441384D02*
X14086181Y-13431860D01*
X14105229Y-13422336D01*
X14152848Y-13422336D01*
X14171896Y-13431860D01*
X14181419Y-13441384D01*
X14190943Y-13460431D01*
X14190943Y-13479479D01*
X14181419Y-13508050D01*
X14067134Y-13622336D01*
X14190943Y-13622336D01*
X14362372Y-13489003D02*
X14362372Y-13622336D01*
X14314753Y-13412812D02*
X14267134Y-13555669D01*
X14390943Y-13555669D01*
X14505229Y-13422336D02*
X14524277Y-13422336D01*
X14543324Y-13431860D01*
X14552848Y-13441384D01*
X14562372Y-13460431D01*
X14571896Y-13498527D01*
X14571896Y-13546146D01*
X14562372Y-13584241D01*
X14552848Y-13603288D01*
X14543324Y-13612812D01*
X14524277Y-13622336D01*
X14505229Y-13622336D01*
X14486181Y-13612812D01*
X14476658Y-13603288D01*
X14467134Y-13584241D01*
X14457610Y-13546146D01*
X14457610Y-13498527D01*
X14467134Y-13460431D01*
X14476658Y-13441384D01*
X14486181Y-13431860D01*
X14505229Y-13422336D01*
X14648086Y-13422336D02*
X14648086Y-13460431D01*
X14724277Y-13422336D02*
X14724277Y-13460431D01*
X15019515Y-13698527D02*
X15009991Y-13689003D01*
X14990943Y-13660431D01*
X14981419Y-13641384D01*
X14971896Y-13612812D01*
X14962372Y-13565193D01*
X14962372Y-13527098D01*
X14971896Y-13479479D01*
X14981419Y-13450908D01*
X14990943Y-13431860D01*
X15009991Y-13403288D01*
X15019515Y-13393765D01*
X15200467Y-13622336D02*
X15086181Y-13622336D01*
X15143324Y-13622336D02*
X15143324Y-13422336D01*
X15124277Y-13450908D01*
X15105229Y-13469955D01*
X15086181Y-13479479D01*
X15438562Y-13622336D02*
X15438562Y-13422336D01*
X15524277Y-13622336D02*
X15524277Y-13517574D01*
X15514753Y-13498527D01*
X15495705Y-13489003D01*
X15467134Y-13489003D01*
X15448086Y-13498527D01*
X15438562Y-13508050D01*
X15648086Y-13622336D02*
X15629038Y-13612812D01*
X15619515Y-13603288D01*
X15609991Y-13584241D01*
X15609991Y-13527098D01*
X15619515Y-13508050D01*
X15629038Y-13498527D01*
X15648086Y-13489003D01*
X15676658Y-13489003D01*
X15695705Y-13498527D01*
X15705229Y-13508050D01*
X15714753Y-13527098D01*
X15714753Y-13584241D01*
X15705229Y-13603288D01*
X15695705Y-13612812D01*
X15676658Y-13622336D01*
X15648086Y-13622336D01*
X15829038Y-13622336D02*
X15809991Y-13612812D01*
X15800467Y-13593765D01*
X15800467Y-13422336D01*
X15981419Y-13612812D02*
X15962372Y-13622336D01*
X15924277Y-13622336D01*
X15905229Y-13612812D01*
X15895705Y-13593765D01*
X15895705Y-13517574D01*
X15905229Y-13498527D01*
X15924277Y-13489003D01*
X15962372Y-13489003D01*
X15981419Y-13498527D01*
X15990943Y-13517574D01*
X15990943Y-13536622D01*
X15895705Y-13555669D01*
X16057610Y-13698527D02*
X16067134Y-13689003D01*
X16086181Y-13660431D01*
X16095705Y-13641384D01*
X16105229Y-13612812D01*
X16114753Y-13565193D01*
X16114753Y-13527098D01*
X16105229Y-13479479D01*
X16095705Y-13450908D01*
X16086181Y-13431860D01*
X16067134Y-13403288D01*
X16057610Y-13393765D01*
D14*
X11407610Y-13755860D02*
X11407610Y-13835860D01*
X11367610Y-13795860D02*
X11447610Y-13795860D01*
D11*
X11743324Y-13686336D02*
X11762372Y-13686336D01*
X11781419Y-13695860D01*
X11790943Y-13705384D01*
X11800467Y-13724431D01*
X11809991Y-13762527D01*
X11809991Y-13810146D01*
X11800467Y-13848241D01*
X11790943Y-13867288D01*
X11781419Y-13876812D01*
X11762372Y-13886336D01*
X11743324Y-13886336D01*
X11724277Y-13876812D01*
X11714753Y-13867288D01*
X11705229Y-13848241D01*
X11695705Y-13810146D01*
X11695705Y-13762527D01*
X11705229Y-13724431D01*
X11714753Y-13705384D01*
X11724277Y-13695860D01*
X11743324Y-13686336D01*
X11895705Y-13867288D02*
X11905229Y-13876812D01*
X11895705Y-13886336D01*
X11886181Y-13876812D01*
X11895705Y-13867288D01*
X11895705Y-13886336D01*
X12019515Y-13772050D02*
X12000467Y-13762527D01*
X11990943Y-13753003D01*
X11981419Y-13733955D01*
X11981419Y-13724431D01*
X11990943Y-13705384D01*
X12000467Y-13695860D01*
X12019515Y-13686336D01*
X12057610Y-13686336D01*
X12076658Y-13695860D01*
X12086181Y-13705384D01*
X12095705Y-13724431D01*
X12095705Y-13733955D01*
X12086181Y-13753003D01*
X12076658Y-13762527D01*
X12057610Y-13772050D01*
X12019515Y-13772050D01*
X12000467Y-13781574D01*
X11990943Y-13791098D01*
X11981419Y-13810146D01*
X11981419Y-13848241D01*
X11990943Y-13867288D01*
X12000467Y-13876812D01*
X12019515Y-13886336D01*
X12057610Y-13886336D01*
X12076658Y-13876812D01*
X12086181Y-13867288D01*
X12095705Y-13848241D01*
X12095705Y-13810146D01*
X12086181Y-13791098D01*
X12076658Y-13781574D01*
X12057610Y-13772050D01*
X12219515Y-13686336D02*
X12238562Y-13686336D01*
X12257610Y-13695860D01*
X12267134Y-13705384D01*
X12276658Y-13724431D01*
X12286181Y-13762527D01*
X12286181Y-13810146D01*
X12276658Y-13848241D01*
X12267134Y-13867288D01*
X12257610Y-13876812D01*
X12238562Y-13886336D01*
X12219515Y-13886336D01*
X12200467Y-13876812D01*
X12190943Y-13867288D01*
X12181419Y-13848241D01*
X12171896Y-13810146D01*
X12171896Y-13762527D01*
X12181419Y-13724431D01*
X12190943Y-13705384D01*
X12200467Y-13695860D01*
X12219515Y-13686336D01*
X12409991Y-13686336D02*
X12429038Y-13686336D01*
X12448086Y-13695860D01*
X12457610Y-13705384D01*
X12467134Y-13724431D01*
X12476658Y-13762527D01*
X12476658Y-13810146D01*
X12467134Y-13848241D01*
X12457610Y-13867288D01*
X12448086Y-13876812D01*
X12429038Y-13886336D01*
X12409991Y-13886336D01*
X12390943Y-13876812D01*
X12381419Y-13867288D01*
X12371896Y-13848241D01*
X12362372Y-13810146D01*
X12362372Y-13762527D01*
X12371896Y-13724431D01*
X12381419Y-13705384D01*
X12390943Y-13695860D01*
X12409991Y-13686336D01*
X12562372Y-13886336D02*
X12562372Y-13753003D01*
X12562372Y-13772050D02*
X12571896Y-13762527D01*
X12590943Y-13753003D01*
X12619515Y-13753003D01*
X12638562Y-13762527D01*
X12648086Y-13781574D01*
X12648086Y-13886336D01*
X12648086Y-13781574D02*
X12657610Y-13762527D01*
X12676658Y-13753003D01*
X12705229Y-13753003D01*
X12724277Y-13762527D01*
X12733800Y-13781574D01*
X12733800Y-13886336D01*
X12829038Y-13886336D02*
X12829038Y-13753003D01*
X12829038Y-13772050D02*
X12838562Y-13762527D01*
X12857610Y-13753003D01*
X12886181Y-13753003D01*
X12905229Y-13762527D01*
X12914753Y-13781574D01*
X12914753Y-13886336D01*
X12914753Y-13781574D02*
X12924277Y-13762527D01*
X12943324Y-13753003D01*
X12971896Y-13753003D01*
X12990943Y-13762527D01*
X13000467Y-13781574D01*
X13000467Y-13886336D01*
X13390943Y-13676812D02*
X13219515Y-13933955D01*
X13648086Y-13686336D02*
X13667134Y-13686336D01*
X13686181Y-13695860D01*
X13695705Y-13705384D01*
X13705229Y-13724431D01*
X13714753Y-13762527D01*
X13714753Y-13810146D01*
X13705229Y-13848241D01*
X13695705Y-13867288D01*
X13686181Y-13876812D01*
X13667134Y-13886336D01*
X13648086Y-13886336D01*
X13629038Y-13876812D01*
X13619515Y-13867288D01*
X13609991Y-13848241D01*
X13600467Y-13810146D01*
X13600467Y-13762527D01*
X13609991Y-13724431D01*
X13619515Y-13705384D01*
X13629038Y-13695860D01*
X13648086Y-13686336D01*
X13800467Y-13867288D02*
X13809991Y-13876812D01*
X13800467Y-13886336D01*
X13790943Y-13876812D01*
X13800467Y-13867288D01*
X13800467Y-13886336D01*
X13933800Y-13686336D02*
X13952848Y-13686336D01*
X13971896Y-13695860D01*
X13981419Y-13705384D01*
X13990943Y-13724431D01*
X14000467Y-13762527D01*
X14000467Y-13810146D01*
X13990943Y-13848241D01*
X13981419Y-13867288D01*
X13971896Y-13876812D01*
X13952848Y-13886336D01*
X13933800Y-13886336D01*
X13914753Y-13876812D01*
X13905229Y-13867288D01*
X13895705Y-13848241D01*
X13886181Y-13810146D01*
X13886181Y-13762527D01*
X13895705Y-13724431D01*
X13905229Y-13705384D01*
X13914753Y-13695860D01*
X13933800Y-13686336D01*
X14067134Y-13686336D02*
X14190943Y-13686336D01*
X14124277Y-13762527D01*
X14152848Y-13762527D01*
X14171896Y-13772050D01*
X14181419Y-13781574D01*
X14190943Y-13800622D01*
X14190943Y-13848241D01*
X14181419Y-13867288D01*
X14171896Y-13876812D01*
X14152848Y-13886336D01*
X14095705Y-13886336D01*
X14076658Y-13876812D01*
X14067134Y-13867288D01*
X14381419Y-13886336D02*
X14267134Y-13886336D01*
X14324277Y-13886336D02*
X14324277Y-13686336D01*
X14305229Y-13714908D01*
X14286181Y-13733955D01*
X14267134Y-13743479D01*
X14562372Y-13686336D02*
X14467134Y-13686336D01*
X14457610Y-13781574D01*
X14467134Y-13772050D01*
X14486181Y-13762527D01*
X14533800Y-13762527D01*
X14552848Y-13772050D01*
X14562372Y-13781574D01*
X14571896Y-13800622D01*
X14571896Y-13848241D01*
X14562372Y-13867288D01*
X14552848Y-13876812D01*
X14533800Y-13886336D01*
X14486181Y-13886336D01*
X14467134Y-13876812D01*
X14457610Y-13867288D01*
X14648086Y-13686336D02*
X14648086Y-13724431D01*
X14724277Y-13686336D02*
X14724277Y-13724431D01*
X15019515Y-13962527D02*
X15009991Y-13953003D01*
X14990943Y-13924431D01*
X14981419Y-13905384D01*
X14971896Y-13876812D01*
X14962372Y-13829193D01*
X14962372Y-13791098D01*
X14971896Y-13743479D01*
X14981419Y-13714908D01*
X14990943Y-13695860D01*
X15009991Y-13667288D01*
X15019515Y-13657765D01*
X15181419Y-13753003D02*
X15181419Y-13886336D01*
X15133800Y-13676812D02*
X15086181Y-13819669D01*
X15209991Y-13819669D01*
X15324277Y-13686336D02*
X15343324Y-13686336D01*
X15362372Y-13695860D01*
X15371896Y-13705384D01*
X15381419Y-13724431D01*
X15390943Y-13762527D01*
X15390943Y-13810146D01*
X15381419Y-13848241D01*
X15371896Y-13867288D01*
X15362372Y-13876812D01*
X15343324Y-13886336D01*
X15324277Y-13886336D01*
X15305229Y-13876812D01*
X15295705Y-13867288D01*
X15286181Y-13848241D01*
X15276658Y-13810146D01*
X15276658Y-13762527D01*
X15286181Y-13724431D01*
X15295705Y-13705384D01*
X15305229Y-13695860D01*
X15324277Y-13686336D01*
X15629038Y-13886336D02*
X15629038Y-13686336D01*
X15714753Y-13886336D02*
X15714753Y-13781574D01*
X15705229Y-13762527D01*
X15686181Y-13753003D01*
X15657610Y-13753003D01*
X15638562Y-13762527D01*
X15629038Y-13772050D01*
X15838562Y-13886336D02*
X15819515Y-13876812D01*
X15809991Y-13867288D01*
X15800467Y-13848241D01*
X15800467Y-13791098D01*
X15809991Y-13772050D01*
X15819515Y-13762527D01*
X15838562Y-13753003D01*
X15867134Y-13753003D01*
X15886181Y-13762527D01*
X15895705Y-13772050D01*
X15905229Y-13791098D01*
X15905229Y-13848241D01*
X15895705Y-13867288D01*
X15886181Y-13876812D01*
X15867134Y-13886336D01*
X15838562Y-13886336D01*
X16019515Y-13886336D02*
X16000467Y-13876812D01*
X15990943Y-13857765D01*
X15990943Y-13686336D01*
X16171896Y-13876812D02*
X16152848Y-13886336D01*
X16114753Y-13886336D01*
X16095705Y-13876812D01*
X16086181Y-13857765D01*
X16086181Y-13781574D01*
X16095705Y-13762527D01*
X16114753Y-13753003D01*
X16152848Y-13753003D01*
X16171896Y-13762527D01*
X16181419Y-13781574D01*
X16181419Y-13800622D01*
X16086181Y-13819669D01*
X16257610Y-13876812D02*
X16276658Y-13886336D01*
X16314753Y-13886336D01*
X16333800Y-13876812D01*
X16343324Y-13857765D01*
X16343324Y-13848241D01*
X16333800Y-13829193D01*
X16314753Y-13819669D01*
X16286181Y-13819669D01*
X16267134Y-13810146D01*
X16257610Y-13791098D01*
X16257610Y-13781574D01*
X16267134Y-13762527D01*
X16286181Y-13753003D01*
X16314753Y-13753003D01*
X16333800Y-13762527D01*
X16409991Y-13962527D02*
X16419515Y-13953003D01*
X16438562Y-13924431D01*
X16448086Y-13905384D01*
X16457610Y-13876812D01*
X16467134Y-13829193D01*
X16467134Y-13791098D01*
X16457610Y-13743479D01*
X16448086Y-13714908D01*
X16438562Y-13695860D01*
X16419515Y-13667288D01*
X16409991Y-13657765D01*
D15*
X11434591Y-14091291D02*
X11434591Y-14028429D01*
X11371729Y-14028429D01*
X11371729Y-14091291D01*
X11434591Y-14091291D01*
D11*
X11743324Y-13950336D02*
X11762372Y-13950336D01*
X11781419Y-13959860D01*
X11790943Y-13969384D01*
X11800467Y-13988431D01*
X11809991Y-14026527D01*
X11809991Y-14074146D01*
X11800467Y-14112241D01*
X11790943Y-14131288D01*
X11781419Y-14140812D01*
X11762372Y-14150336D01*
X11743324Y-14150336D01*
X11724277Y-14140812D01*
X11714753Y-14131288D01*
X11705229Y-14112241D01*
X11695705Y-14074146D01*
X11695705Y-14026527D01*
X11705229Y-13988431D01*
X11714753Y-13969384D01*
X11724277Y-13959860D01*
X11743324Y-13950336D01*
X11895705Y-14131288D02*
X11905229Y-14140812D01*
X11895705Y-14150336D01*
X11886181Y-14140812D01*
X11895705Y-14131288D01*
X11895705Y-14150336D01*
X12019515Y-14036050D02*
X12000467Y-14026527D01*
X11990943Y-14017003D01*
X11981419Y-13997955D01*
X11981419Y-13988431D01*
X11990943Y-13969384D01*
X12000467Y-13959860D01*
X12019515Y-13950336D01*
X12057610Y-13950336D01*
X12076658Y-13959860D01*
X12086181Y-13969384D01*
X12095705Y-13988431D01*
X12095705Y-13997955D01*
X12086181Y-14017003D01*
X12076658Y-14026527D01*
X12057610Y-14036050D01*
X12019515Y-14036050D01*
X12000467Y-14045574D01*
X11990943Y-14055098D01*
X11981419Y-14074146D01*
X11981419Y-14112241D01*
X11990943Y-14131288D01*
X12000467Y-14140812D01*
X12019515Y-14150336D01*
X12057610Y-14150336D01*
X12076658Y-14140812D01*
X12086181Y-14131288D01*
X12095705Y-14112241D01*
X12095705Y-14074146D01*
X12086181Y-14055098D01*
X12076658Y-14045574D01*
X12057610Y-14036050D01*
X12209991Y-14036050D02*
X12190943Y-14026527D01*
X12181419Y-14017003D01*
X12171896Y-13997955D01*
X12171896Y-13988431D01*
X12181419Y-13969384D01*
X12190943Y-13959860D01*
X12209991Y-13950336D01*
X12248086Y-13950336D01*
X12267134Y-13959860D01*
X12276658Y-13969384D01*
X12286181Y-13988431D01*
X12286181Y-13997955D01*
X12276658Y-14017003D01*
X12267134Y-14026527D01*
X12248086Y-14036050D01*
X12209991Y-14036050D01*
X12190943Y-14045574D01*
X12181419Y-14055098D01*
X12171896Y-14074146D01*
X12171896Y-14112241D01*
X12181419Y-14131288D01*
X12190943Y-14140812D01*
X12209991Y-14150336D01*
X12248086Y-14150336D01*
X12267134Y-14140812D01*
X12276658Y-14131288D01*
X12286181Y-14112241D01*
X12286181Y-14074146D01*
X12276658Y-14055098D01*
X12267134Y-14045574D01*
X12248086Y-14036050D01*
X12381419Y-14150336D02*
X12419515Y-14150336D01*
X12438562Y-14140812D01*
X12448086Y-14131288D01*
X12467134Y-14102717D01*
X12476658Y-14064622D01*
X12476658Y-13988431D01*
X12467134Y-13969384D01*
X12457610Y-13959860D01*
X12438562Y-13950336D01*
X12400467Y-13950336D01*
X12381419Y-13959860D01*
X12371896Y-13969384D01*
X12362372Y-13988431D01*
X12362372Y-14036050D01*
X12371896Y-14055098D01*
X12381419Y-14064622D01*
X12400467Y-14074146D01*
X12438562Y-14074146D01*
X12457610Y-14064622D01*
X12467134Y-14055098D01*
X12476658Y-14036050D01*
X12562372Y-14150336D02*
X12562372Y-14017003D01*
X12562372Y-14036050D02*
X12571896Y-14026527D01*
X12590943Y-14017003D01*
X12619515Y-14017003D01*
X12638562Y-14026527D01*
X12648086Y-14045574D01*
X12648086Y-14150336D01*
X12648086Y-14045574D02*
X12657610Y-14026527D01*
X12676658Y-14017003D01*
X12705229Y-14017003D01*
X12724277Y-14026527D01*
X12733800Y-14045574D01*
X12733800Y-14150336D01*
X12829038Y-14150336D02*
X12829038Y-14017003D01*
X12829038Y-14036050D02*
X12838562Y-14026527D01*
X12857610Y-14017003D01*
X12886181Y-14017003D01*
X12905229Y-14026527D01*
X12914753Y-14045574D01*
X12914753Y-14150336D01*
X12914753Y-14045574D02*
X12924277Y-14026527D01*
X12943324Y-14017003D01*
X12971896Y-14017003D01*
X12990943Y-14026527D01*
X13000467Y-14045574D01*
X13000467Y-14150336D01*
X13390943Y-13940812D02*
X13219515Y-14197955D01*
X13648086Y-13950336D02*
X13667134Y-13950336D01*
X13686181Y-13959860D01*
X13695705Y-13969384D01*
X13705229Y-13988431D01*
X13714753Y-14026527D01*
X13714753Y-14074146D01*
X13705229Y-14112241D01*
X13695705Y-14131288D01*
X13686181Y-14140812D01*
X13667134Y-14150336D01*
X13648086Y-14150336D01*
X13629038Y-14140812D01*
X13619515Y-14131288D01*
X13609991Y-14112241D01*
X13600467Y-14074146D01*
X13600467Y-14026527D01*
X13609991Y-13988431D01*
X13619515Y-13969384D01*
X13629038Y-13959860D01*
X13648086Y-13950336D01*
X13800467Y-14131288D02*
X13809991Y-14140812D01*
X13800467Y-14150336D01*
X13790943Y-14140812D01*
X13800467Y-14131288D01*
X13800467Y-14150336D01*
X13933800Y-13950336D02*
X13952848Y-13950336D01*
X13971896Y-13959860D01*
X13981419Y-13969384D01*
X13990943Y-13988431D01*
X14000467Y-14026527D01*
X14000467Y-14074146D01*
X13990943Y-14112241D01*
X13981419Y-14131288D01*
X13971896Y-14140812D01*
X13952848Y-14150336D01*
X13933800Y-14150336D01*
X13914753Y-14140812D01*
X13905229Y-14131288D01*
X13895705Y-14112241D01*
X13886181Y-14074146D01*
X13886181Y-14026527D01*
X13895705Y-13988431D01*
X13905229Y-13969384D01*
X13914753Y-13959860D01*
X13933800Y-13950336D01*
X14067134Y-13950336D02*
X14190943Y-13950336D01*
X14124277Y-14026527D01*
X14152848Y-14026527D01*
X14171896Y-14036050D01*
X14181419Y-14045574D01*
X14190943Y-14064622D01*
X14190943Y-14112241D01*
X14181419Y-14131288D01*
X14171896Y-14140812D01*
X14152848Y-14150336D01*
X14095705Y-14150336D01*
X14076658Y-14140812D01*
X14067134Y-14131288D01*
X14371896Y-13950336D02*
X14276658Y-13950336D01*
X14267134Y-14045574D01*
X14276658Y-14036050D01*
X14295705Y-14026527D01*
X14343324Y-14026527D01*
X14362372Y-14036050D01*
X14371896Y-14045574D01*
X14381419Y-14064622D01*
X14381419Y-14112241D01*
X14371896Y-14131288D01*
X14362372Y-14140812D01*
X14343324Y-14150336D01*
X14295705Y-14150336D01*
X14276658Y-14140812D01*
X14267134Y-14131288D01*
X14505229Y-13950336D02*
X14524277Y-13950336D01*
X14543324Y-13959860D01*
X14552848Y-13969384D01*
X14562372Y-13988431D01*
X14571896Y-14026527D01*
X14571896Y-14074146D01*
X14562372Y-14112241D01*
X14552848Y-14131288D01*
X14543324Y-14140812D01*
X14524277Y-14150336D01*
X14505229Y-14150336D01*
X14486181Y-14140812D01*
X14476658Y-14131288D01*
X14467134Y-14112241D01*
X14457610Y-14074146D01*
X14457610Y-14026527D01*
X14467134Y-13988431D01*
X14476658Y-13969384D01*
X14486181Y-13959860D01*
X14505229Y-13950336D01*
X14648086Y-13950336D02*
X14648086Y-13988431D01*
X14724277Y-13950336D02*
X14724277Y-13988431D01*
X15019515Y-14226527D02*
X15009991Y-14217003D01*
X14990943Y-14188431D01*
X14981419Y-14169384D01*
X14971896Y-14140812D01*
X14962372Y-14093193D01*
X14962372Y-14055098D01*
X14971896Y-14007479D01*
X14981419Y-13978908D01*
X14990943Y-13959860D01*
X15009991Y-13931288D01*
X15019515Y-13921765D01*
X15124277Y-14036050D02*
X15105229Y-14026527D01*
X15095705Y-14017003D01*
X15086181Y-13997955D01*
X15086181Y-13988431D01*
X15095705Y-13969384D01*
X15105229Y-13959860D01*
X15124277Y-13950336D01*
X15162372Y-13950336D01*
X15181419Y-13959860D01*
X15190943Y-13969384D01*
X15200467Y-13988431D01*
X15200467Y-13997955D01*
X15190943Y-14017003D01*
X15181419Y-14026527D01*
X15162372Y-14036050D01*
X15124277Y-14036050D01*
X15105229Y-14045574D01*
X15095705Y-14055098D01*
X15086181Y-14074146D01*
X15086181Y-14112241D01*
X15095705Y-14131288D01*
X15105229Y-14140812D01*
X15124277Y-14150336D01*
X15162372Y-14150336D01*
X15181419Y-14140812D01*
X15190943Y-14131288D01*
X15200467Y-14112241D01*
X15200467Y-14074146D01*
X15190943Y-14055098D01*
X15181419Y-14045574D01*
X15162372Y-14036050D01*
X15438562Y-14150336D02*
X15438562Y-13950336D01*
X15524277Y-14150336D02*
X15524277Y-14045574D01*
X15514753Y-14026527D01*
X15495705Y-14017003D01*
X15467134Y-14017003D01*
X15448086Y-14026527D01*
X15438562Y-14036050D01*
X15648086Y-14150336D02*
X15629038Y-14140812D01*
X15619515Y-14131288D01*
X15609991Y-14112241D01*
X15609991Y-14055098D01*
X15619515Y-14036050D01*
X15629038Y-14026527D01*
X15648086Y-14017003D01*
X15676658Y-14017003D01*
X15695705Y-14026527D01*
X15705229Y-14036050D01*
X15714753Y-14055098D01*
X15714753Y-14112241D01*
X15705229Y-14131288D01*
X15695705Y-14140812D01*
X15676658Y-14150336D01*
X15648086Y-14150336D01*
X15829038Y-14150336D02*
X15809991Y-14140812D01*
X15800467Y-14121765D01*
X15800467Y-13950336D01*
X15981419Y-14140812D02*
X15962372Y-14150336D01*
X15924277Y-14150336D01*
X15905229Y-14140812D01*
X15895705Y-14121765D01*
X15895705Y-14045574D01*
X15905229Y-14026527D01*
X15924277Y-14017003D01*
X15962372Y-14017003D01*
X15981419Y-14026527D01*
X15990943Y-14045574D01*
X15990943Y-14064622D01*
X15895705Y-14083669D01*
X16067134Y-14140812D02*
X16086181Y-14150336D01*
X16124277Y-14150336D01*
X16143324Y-14140812D01*
X16152848Y-14121765D01*
X16152848Y-14112241D01*
X16143324Y-14093193D01*
X16124277Y-14083669D01*
X16095705Y-14083669D01*
X16076658Y-14074146D01*
X16067134Y-14055098D01*
X16067134Y-14045574D01*
X16076658Y-14026527D01*
X16095705Y-14017003D01*
X16124277Y-14017003D01*
X16143324Y-14026527D01*
X16219515Y-14226527D02*
X16229038Y-14217003D01*
X16248086Y-14188431D01*
X16257610Y-14169384D01*
X16267134Y-14140812D01*
X16276658Y-14093193D01*
X16276658Y-14055098D01*
X16267134Y-14007479D01*
X16257610Y-13978908D01*
X16248086Y-13959860D01*
X16229038Y-13931288D01*
X16219515Y-13921765D01*
D16*
X11396810Y-14374660D02*
X11447610Y-14323860D01*
X11396810Y-14273060D01*
X11346010Y-14323860D01*
X11396810Y-14374660D01*
D11*
X11809991Y-14414336D02*
X11695705Y-14414336D01*
X11752848Y-14414336D02*
X11752848Y-14214336D01*
X11733800Y-14242908D01*
X11714753Y-14261955D01*
X11695705Y-14271479D01*
X11895705Y-14395288D02*
X11905229Y-14404812D01*
X11895705Y-14414336D01*
X11886181Y-14404812D01*
X11895705Y-14395288D01*
X11895705Y-14414336D01*
X12029038Y-14214336D02*
X12048086Y-14214336D01*
X12067134Y-14223860D01*
X12076658Y-14233384D01*
X12086181Y-14252431D01*
X12095705Y-14290527D01*
X12095705Y-14338146D01*
X12086181Y-14376241D01*
X12076658Y-14395288D01*
X12067134Y-14404812D01*
X12048086Y-14414336D01*
X12029038Y-14414336D01*
X12009991Y-14404812D01*
X12000467Y-14395288D01*
X11990943Y-14376241D01*
X11981419Y-14338146D01*
X11981419Y-14290527D01*
X11990943Y-14252431D01*
X12000467Y-14233384D01*
X12009991Y-14223860D01*
X12029038Y-14214336D01*
X12286181Y-14414336D02*
X12171896Y-14414336D01*
X12229038Y-14414336D02*
X12229038Y-14214336D01*
X12209991Y-14242908D01*
X12190943Y-14261955D01*
X12171896Y-14271479D01*
X12457610Y-14214336D02*
X12419515Y-14214336D01*
X12400467Y-14223860D01*
X12390943Y-14233384D01*
X12371896Y-14261955D01*
X12362372Y-14300050D01*
X12362372Y-14376241D01*
X12371896Y-14395288D01*
X12381419Y-14404812D01*
X12400467Y-14414336D01*
X12438562Y-14414336D01*
X12457610Y-14404812D01*
X12467134Y-14395288D01*
X12476658Y-14376241D01*
X12476658Y-14328622D01*
X12467134Y-14309574D01*
X12457610Y-14300050D01*
X12438562Y-14290527D01*
X12400467Y-14290527D01*
X12381419Y-14300050D01*
X12371896Y-14309574D01*
X12362372Y-14328622D01*
X12562372Y-14414336D02*
X12562372Y-14281003D01*
X12562372Y-14300050D02*
X12571896Y-14290527D01*
X12590943Y-14281003D01*
X12619515Y-14281003D01*
X12638562Y-14290527D01*
X12648086Y-14309574D01*
X12648086Y-14414336D01*
X12648086Y-14309574D02*
X12657610Y-14290527D01*
X12676658Y-14281003D01*
X12705229Y-14281003D01*
X12724277Y-14290527D01*
X12733800Y-14309574D01*
X12733800Y-14414336D01*
X12829038Y-14414336D02*
X12829038Y-14281003D01*
X12829038Y-14300050D02*
X12838562Y-14290527D01*
X12857610Y-14281003D01*
X12886181Y-14281003D01*
X12905229Y-14290527D01*
X12914753Y-14309574D01*
X12914753Y-14414336D01*
X12914753Y-14309574D02*
X12924277Y-14290527D01*
X12943324Y-14281003D01*
X12971896Y-14281003D01*
X12990943Y-14290527D01*
X13000467Y-14309574D01*
X13000467Y-14414336D01*
X13390943Y-14204812D02*
X13219515Y-14461955D01*
X13648086Y-14214336D02*
X13667134Y-14214336D01*
X13686181Y-14223860D01*
X13695705Y-14233384D01*
X13705229Y-14252431D01*
X13714753Y-14290527D01*
X13714753Y-14338146D01*
X13705229Y-14376241D01*
X13695705Y-14395288D01*
X13686181Y-14404812D01*
X13667134Y-14414336D01*
X13648086Y-14414336D01*
X13629038Y-14404812D01*
X13619515Y-14395288D01*
X13609991Y-14376241D01*
X13600467Y-14338146D01*
X13600467Y-14290527D01*
X13609991Y-14252431D01*
X13619515Y-14233384D01*
X13629038Y-14223860D01*
X13648086Y-14214336D01*
X13800467Y-14395288D02*
X13809991Y-14404812D01*
X13800467Y-14414336D01*
X13790943Y-14404812D01*
X13800467Y-14395288D01*
X13800467Y-14414336D01*
X13933800Y-14214336D02*
X13952848Y-14214336D01*
X13971896Y-14223860D01*
X13981419Y-14233384D01*
X13990943Y-14252431D01*
X14000467Y-14290527D01*
X14000467Y-14338146D01*
X13990943Y-14376241D01*
X13981419Y-14395288D01*
X13971896Y-14404812D01*
X13952848Y-14414336D01*
X13933800Y-14414336D01*
X13914753Y-14404812D01*
X13905229Y-14395288D01*
X13895705Y-14376241D01*
X13886181Y-14338146D01*
X13886181Y-14290527D01*
X13895705Y-14252431D01*
X13905229Y-14233384D01*
X13914753Y-14223860D01*
X13933800Y-14214336D01*
X14171896Y-14281003D02*
X14171896Y-14414336D01*
X14124277Y-14204812D02*
X14076658Y-14347669D01*
X14200467Y-14347669D01*
X14314753Y-14214336D02*
X14333800Y-14214336D01*
X14352848Y-14223860D01*
X14362372Y-14233384D01*
X14371896Y-14252431D01*
X14381419Y-14290527D01*
X14381419Y-14338146D01*
X14371896Y-14376241D01*
X14362372Y-14395288D01*
X14352848Y-14404812D01*
X14333800Y-14414336D01*
X14314753Y-14414336D01*
X14295705Y-14404812D01*
X14286181Y-14395288D01*
X14276658Y-14376241D01*
X14267134Y-14338146D01*
X14267134Y-14290527D01*
X14276658Y-14252431D01*
X14286181Y-14233384D01*
X14295705Y-14223860D01*
X14314753Y-14214336D01*
X14505229Y-14214336D02*
X14524277Y-14214336D01*
X14543324Y-14223860D01*
X14552848Y-14233384D01*
X14562372Y-14252431D01*
X14571896Y-14290527D01*
X14571896Y-14338146D01*
X14562372Y-14376241D01*
X14552848Y-14395288D01*
X14543324Y-14404812D01*
X14524277Y-14414336D01*
X14505229Y-14414336D01*
X14486181Y-14404812D01*
X14476658Y-14395288D01*
X14467134Y-14376241D01*
X14457610Y-14338146D01*
X14457610Y-14290527D01*
X14467134Y-14252431D01*
X14476658Y-14233384D01*
X14486181Y-14223860D01*
X14505229Y-14214336D01*
X14648086Y-14214336D02*
X14648086Y-14252431D01*
X14724277Y-14214336D02*
X14724277Y-14252431D01*
X15019515Y-14490527D02*
X15009991Y-14481003D01*
X14990943Y-14452431D01*
X14981419Y-14433384D01*
X14971896Y-14404812D01*
X14962372Y-14357193D01*
X14962372Y-14319098D01*
X14971896Y-14271479D01*
X14981419Y-14242908D01*
X14990943Y-14223860D01*
X15009991Y-14195288D01*
X15019515Y-14185765D01*
X15076658Y-14214336D02*
X15200467Y-14214336D01*
X15133800Y-14290527D01*
X15162372Y-14290527D01*
X15181419Y-14300050D01*
X15190943Y-14309574D01*
X15200467Y-14328622D01*
X15200467Y-14376241D01*
X15190943Y-14395288D01*
X15181419Y-14404812D01*
X15162372Y-14414336D01*
X15105229Y-14414336D01*
X15086181Y-14404812D01*
X15076658Y-14395288D01*
X15438562Y-14414336D02*
X15438562Y-14214336D01*
X15524277Y-14414336D02*
X15524277Y-14309574D01*
X15514753Y-14290527D01*
X15495705Y-14281003D01*
X15467134Y-14281003D01*
X15448086Y-14290527D01*
X15438562Y-14300050D01*
X15648086Y-14414336D02*
X15629038Y-14404812D01*
X15619515Y-14395288D01*
X15609991Y-14376241D01*
X15609991Y-14319098D01*
X15619515Y-14300050D01*
X15629038Y-14290527D01*
X15648086Y-14281003D01*
X15676658Y-14281003D01*
X15695705Y-14290527D01*
X15705229Y-14300050D01*
X15714753Y-14319098D01*
X15714753Y-14376241D01*
X15705229Y-14395288D01*
X15695705Y-14404812D01*
X15676658Y-14414336D01*
X15648086Y-14414336D01*
X15829038Y-14414336D02*
X15809991Y-14404812D01*
X15800467Y-14385765D01*
X15800467Y-14214336D01*
X15981419Y-14404812D02*
X15962372Y-14414336D01*
X15924277Y-14414336D01*
X15905229Y-14404812D01*
X15895705Y-14385765D01*
X15895705Y-14309574D01*
X15905229Y-14290527D01*
X15924277Y-14281003D01*
X15962372Y-14281003D01*
X15981419Y-14290527D01*
X15990943Y-14309574D01*
X15990943Y-14328622D01*
X15895705Y-14347669D01*
X16067134Y-14404812D02*
X16086181Y-14414336D01*
X16124277Y-14414336D01*
X16143324Y-14404812D01*
X16152848Y-14385765D01*
X16152848Y-14376241D01*
X16143324Y-14357193D01*
X16124277Y-14347669D01*
X16095705Y-14347669D01*
X16076658Y-14338146D01*
X16067134Y-14319098D01*
X16067134Y-14309574D01*
X16076658Y-14290527D01*
X16095705Y-14281003D01*
X16124277Y-14281003D01*
X16143324Y-14290527D01*
X16219515Y-14490527D02*
X16229038Y-14481003D01*
X16248086Y-14452431D01*
X16257610Y-14433384D01*
X16267134Y-14404812D01*
X16276658Y-14357193D01*
X16276658Y-14319098D01*
X16267134Y-14271479D01*
X16257610Y-14242908D01*
X16248086Y-14223860D01*
X16229038Y-14195288D01*
X16219515Y-14185765D01*
D17*
X11287610Y-14507860D02*
X11447610Y-14667860D01*
X11447610Y-14507860D02*
X11287610Y-14667860D01*
X11447610Y-14587860D02*
G75*
G03*
X11447610Y-14587860I-80000J0D01*
G01*
D11*
X11809991Y-14678336D02*
X11695705Y-14678336D01*
X11752848Y-14678336D02*
X11752848Y-14478336D01*
X11733800Y-14506908D01*
X11714753Y-14525955D01*
X11695705Y-14535479D01*
X11895705Y-14659288D02*
X11905229Y-14668812D01*
X11895705Y-14678336D01*
X11886181Y-14668812D01*
X11895705Y-14659288D01*
X11895705Y-14678336D01*
X12076658Y-14478336D02*
X12038562Y-14478336D01*
X12019515Y-14487860D01*
X12009991Y-14497384D01*
X11990943Y-14525955D01*
X11981419Y-14564050D01*
X11981419Y-14640241D01*
X11990943Y-14659288D01*
X12000467Y-14668812D01*
X12019515Y-14678336D01*
X12057610Y-14678336D01*
X12076658Y-14668812D01*
X12086181Y-14659288D01*
X12095705Y-14640241D01*
X12095705Y-14592622D01*
X12086181Y-14573574D01*
X12076658Y-14564050D01*
X12057610Y-14554527D01*
X12019515Y-14554527D01*
X12000467Y-14564050D01*
X11990943Y-14573574D01*
X11981419Y-14592622D01*
X12219515Y-14478336D02*
X12238562Y-14478336D01*
X12257610Y-14487860D01*
X12267134Y-14497384D01*
X12276658Y-14516431D01*
X12286181Y-14554527D01*
X12286181Y-14602146D01*
X12276658Y-14640241D01*
X12267134Y-14659288D01*
X12257610Y-14668812D01*
X12238562Y-14678336D01*
X12219515Y-14678336D01*
X12200467Y-14668812D01*
X12190943Y-14659288D01*
X12181419Y-14640241D01*
X12171896Y-14602146D01*
X12171896Y-14554527D01*
X12181419Y-14516431D01*
X12190943Y-14497384D01*
X12200467Y-14487860D01*
X12219515Y-14478336D01*
X12409991Y-14478336D02*
X12429038Y-14478336D01*
X12448086Y-14487860D01*
X12457610Y-14497384D01*
X12467134Y-14516431D01*
X12476658Y-14554527D01*
X12476658Y-14602146D01*
X12467134Y-14640241D01*
X12457610Y-14659288D01*
X12448086Y-14668812D01*
X12429038Y-14678336D01*
X12409991Y-14678336D01*
X12390943Y-14668812D01*
X12381419Y-14659288D01*
X12371896Y-14640241D01*
X12362372Y-14602146D01*
X12362372Y-14554527D01*
X12371896Y-14516431D01*
X12381419Y-14497384D01*
X12390943Y-14487860D01*
X12409991Y-14478336D01*
X12562372Y-14678336D02*
X12562372Y-14545003D01*
X12562372Y-14564050D02*
X12571896Y-14554527D01*
X12590943Y-14545003D01*
X12619515Y-14545003D01*
X12638562Y-14554527D01*
X12648086Y-14573574D01*
X12648086Y-14678336D01*
X12648086Y-14573574D02*
X12657610Y-14554527D01*
X12676658Y-14545003D01*
X12705229Y-14545003D01*
X12724277Y-14554527D01*
X12733800Y-14573574D01*
X12733800Y-14678336D01*
X12829038Y-14678336D02*
X12829038Y-14545003D01*
X12829038Y-14564050D02*
X12838562Y-14554527D01*
X12857610Y-14545003D01*
X12886181Y-14545003D01*
X12905229Y-14554527D01*
X12914753Y-14573574D01*
X12914753Y-14678336D01*
X12914753Y-14573574D02*
X12924277Y-14554527D01*
X12943324Y-14545003D01*
X12971896Y-14545003D01*
X12990943Y-14554527D01*
X13000467Y-14573574D01*
X13000467Y-14678336D01*
X13390943Y-14468812D02*
X13219515Y-14725955D01*
X13648086Y-14478336D02*
X13667134Y-14478336D01*
X13686181Y-14487860D01*
X13695705Y-14497384D01*
X13705229Y-14516431D01*
X13714753Y-14554527D01*
X13714753Y-14602146D01*
X13705229Y-14640241D01*
X13695705Y-14659288D01*
X13686181Y-14668812D01*
X13667134Y-14678336D01*
X13648086Y-14678336D01*
X13629038Y-14668812D01*
X13619515Y-14659288D01*
X13609991Y-14640241D01*
X13600467Y-14602146D01*
X13600467Y-14554527D01*
X13609991Y-14516431D01*
X13619515Y-14497384D01*
X13629038Y-14487860D01*
X13648086Y-14478336D01*
X13800467Y-14659288D02*
X13809991Y-14668812D01*
X13800467Y-14678336D01*
X13790943Y-14668812D01*
X13800467Y-14659288D01*
X13800467Y-14678336D01*
X13933800Y-14478336D02*
X13952848Y-14478336D01*
X13971896Y-14487860D01*
X13981419Y-14497384D01*
X13990943Y-14516431D01*
X14000467Y-14554527D01*
X14000467Y-14602146D01*
X13990943Y-14640241D01*
X13981419Y-14659288D01*
X13971896Y-14668812D01*
X13952848Y-14678336D01*
X13933800Y-14678336D01*
X13914753Y-14668812D01*
X13905229Y-14659288D01*
X13895705Y-14640241D01*
X13886181Y-14602146D01*
X13886181Y-14554527D01*
X13895705Y-14516431D01*
X13905229Y-14497384D01*
X13914753Y-14487860D01*
X13933800Y-14478336D01*
X14171896Y-14478336D02*
X14133800Y-14478336D01*
X14114753Y-14487860D01*
X14105229Y-14497384D01*
X14086181Y-14525955D01*
X14076658Y-14564050D01*
X14076658Y-14640241D01*
X14086181Y-14659288D01*
X14095705Y-14668812D01*
X14114753Y-14678336D01*
X14152848Y-14678336D01*
X14171896Y-14668812D01*
X14181419Y-14659288D01*
X14190943Y-14640241D01*
X14190943Y-14592622D01*
X14181419Y-14573574D01*
X14171896Y-14564050D01*
X14152848Y-14554527D01*
X14114753Y-14554527D01*
X14095705Y-14564050D01*
X14086181Y-14573574D01*
X14076658Y-14592622D01*
X14257610Y-14478336D02*
X14381419Y-14478336D01*
X14314753Y-14554527D01*
X14343324Y-14554527D01*
X14362372Y-14564050D01*
X14371896Y-14573574D01*
X14381419Y-14592622D01*
X14381419Y-14640241D01*
X14371896Y-14659288D01*
X14362372Y-14668812D01*
X14343324Y-14678336D01*
X14286181Y-14678336D01*
X14267134Y-14668812D01*
X14257610Y-14659288D01*
X14505229Y-14478336D02*
X14524277Y-14478336D01*
X14543324Y-14487860D01*
X14552848Y-14497384D01*
X14562372Y-14516431D01*
X14571896Y-14554527D01*
X14571896Y-14602146D01*
X14562372Y-14640241D01*
X14552848Y-14659288D01*
X14543324Y-14668812D01*
X14524277Y-14678336D01*
X14505229Y-14678336D01*
X14486181Y-14668812D01*
X14476658Y-14659288D01*
X14467134Y-14640241D01*
X14457610Y-14602146D01*
X14457610Y-14554527D01*
X14467134Y-14516431D01*
X14476658Y-14497384D01*
X14486181Y-14487860D01*
X14505229Y-14478336D01*
X14648086Y-14478336D02*
X14648086Y-14516431D01*
X14724277Y-14478336D02*
X14724277Y-14516431D01*
X15019515Y-14754527D02*
X15009991Y-14745003D01*
X14990943Y-14716431D01*
X14981419Y-14697384D01*
X14971896Y-14668812D01*
X14962372Y-14621193D01*
X14962372Y-14583098D01*
X14971896Y-14535479D01*
X14981419Y-14506908D01*
X14990943Y-14487860D01*
X15009991Y-14459288D01*
X15019515Y-14449765D01*
X15086181Y-14497384D02*
X15095705Y-14487860D01*
X15114753Y-14478336D01*
X15162372Y-14478336D01*
X15181419Y-14487860D01*
X15190943Y-14497384D01*
X15200467Y-14516431D01*
X15200467Y-14535479D01*
X15190943Y-14564050D01*
X15076658Y-14678336D01*
X15200467Y-14678336D01*
X15438562Y-14678336D02*
X15438562Y-14478336D01*
X15524277Y-14678336D02*
X15524277Y-14573574D01*
X15514753Y-14554527D01*
X15495705Y-14545003D01*
X15467134Y-14545003D01*
X15448086Y-14554527D01*
X15438562Y-14564050D01*
X15648086Y-14678336D02*
X15629038Y-14668812D01*
X15619515Y-14659288D01*
X15609991Y-14640241D01*
X15609991Y-14583098D01*
X15619515Y-14564050D01*
X15629038Y-14554527D01*
X15648086Y-14545003D01*
X15676658Y-14545003D01*
X15695705Y-14554527D01*
X15705229Y-14564050D01*
X15714753Y-14583098D01*
X15714753Y-14640241D01*
X15705229Y-14659288D01*
X15695705Y-14668812D01*
X15676658Y-14678336D01*
X15648086Y-14678336D01*
X15829038Y-14678336D02*
X15809991Y-14668812D01*
X15800467Y-14649765D01*
X15800467Y-14478336D01*
X15981419Y-14668812D02*
X15962372Y-14678336D01*
X15924277Y-14678336D01*
X15905229Y-14668812D01*
X15895705Y-14649765D01*
X15895705Y-14573574D01*
X15905229Y-14554527D01*
X15924277Y-14545003D01*
X15962372Y-14545003D01*
X15981419Y-14554527D01*
X15990943Y-14573574D01*
X15990943Y-14592622D01*
X15895705Y-14611669D01*
X16067134Y-14668812D02*
X16086181Y-14678336D01*
X16124277Y-14678336D01*
X16143324Y-14668812D01*
X16152848Y-14649765D01*
X16152848Y-14640241D01*
X16143324Y-14621193D01*
X16124277Y-14611669D01*
X16095705Y-14611669D01*
X16076658Y-14602146D01*
X16067134Y-14583098D01*
X16067134Y-14573574D01*
X16076658Y-14554527D01*
X16095705Y-14545003D01*
X16124277Y-14545003D01*
X16143324Y-14554527D01*
X16219515Y-14754527D02*
X16229038Y-14745003D01*
X16248086Y-14716431D01*
X16257610Y-14697384D01*
X16267134Y-14668812D01*
X16276658Y-14621193D01*
X16276658Y-14583098D01*
X16267134Y-14535479D01*
X16257610Y-14506908D01*
X16248086Y-14487860D01*
X16229038Y-14459288D01*
X16219515Y-14449765D01*
X11247610Y-14767860D02*
X11447610Y-14967860D01*
X11447610Y-14767860D02*
X11247610Y-14967860D01*
X11347610Y-14767860D02*
X11347610Y-14967860D01*
X11247610Y-14867860D02*
X11447610Y-14867860D01*
X11695705Y-14777384D02*
X11705229Y-14767860D01*
X11724277Y-14758336D01*
X11771896Y-14758336D01*
X11790943Y-14767860D01*
X11800467Y-14777384D01*
X11809991Y-14796431D01*
X11809991Y-14815479D01*
X11800467Y-14844050D01*
X11686181Y-14958336D01*
X11809991Y-14958336D01*
X11895705Y-14939288D02*
X11905229Y-14948812D01*
X11895705Y-14958336D01*
X11886181Y-14948812D01*
X11895705Y-14939288D01*
X11895705Y-14958336D01*
X12000467Y-14958336D02*
X12038562Y-14958336D01*
X12057610Y-14948812D01*
X12067134Y-14939288D01*
X12086181Y-14910717D01*
X12095705Y-14872622D01*
X12095705Y-14796431D01*
X12086181Y-14777384D01*
X12076658Y-14767860D01*
X12057610Y-14758336D01*
X12019515Y-14758336D01*
X12000467Y-14767860D01*
X11990943Y-14777384D01*
X11981419Y-14796431D01*
X11981419Y-14844050D01*
X11990943Y-14863098D01*
X12000467Y-14872622D01*
X12019515Y-14882146D01*
X12057610Y-14882146D01*
X12076658Y-14872622D01*
X12086181Y-14863098D01*
X12095705Y-14844050D01*
X12190943Y-14958336D02*
X12229038Y-14958336D01*
X12248086Y-14948812D01*
X12257610Y-14939288D01*
X12276658Y-14910717D01*
X12286181Y-14872622D01*
X12286181Y-14796431D01*
X12276658Y-14777384D01*
X12267134Y-14767860D01*
X12248086Y-14758336D01*
X12209991Y-14758336D01*
X12190943Y-14767860D01*
X12181419Y-14777384D01*
X12171896Y-14796431D01*
X12171896Y-14844050D01*
X12181419Y-14863098D01*
X12190943Y-14872622D01*
X12209991Y-14882146D01*
X12248086Y-14882146D01*
X12267134Y-14872622D01*
X12276658Y-14863098D01*
X12286181Y-14844050D01*
X12352848Y-14758336D02*
X12486181Y-14758336D01*
X12400467Y-14958336D01*
X12562372Y-14958336D02*
X12562372Y-14825003D01*
X12562372Y-14844050D02*
X12571896Y-14834527D01*
X12590943Y-14825003D01*
X12619515Y-14825003D01*
X12638562Y-14834527D01*
X12648086Y-14853574D01*
X12648086Y-14958336D01*
X12648086Y-14853574D02*
X12657610Y-14834527D01*
X12676658Y-14825003D01*
X12705229Y-14825003D01*
X12724277Y-14834527D01*
X12733800Y-14853574D01*
X12733800Y-14958336D01*
X12829038Y-14958336D02*
X12829038Y-14825003D01*
X12829038Y-14844050D02*
X12838562Y-14834527D01*
X12857610Y-14825003D01*
X12886181Y-14825003D01*
X12905229Y-14834527D01*
X12914753Y-14853574D01*
X12914753Y-14958336D01*
X12914753Y-14853574D02*
X12924277Y-14834527D01*
X12943324Y-14825003D01*
X12971896Y-14825003D01*
X12990943Y-14834527D01*
X13000467Y-14853574D01*
X13000467Y-14958336D01*
X13390943Y-14748812D02*
X13219515Y-15005955D01*
X13648086Y-14758336D02*
X13667134Y-14758336D01*
X13686181Y-14767860D01*
X13695705Y-14777384D01*
X13705229Y-14796431D01*
X13714753Y-14834527D01*
X13714753Y-14882146D01*
X13705229Y-14920241D01*
X13695705Y-14939288D01*
X13686181Y-14948812D01*
X13667134Y-14958336D01*
X13648086Y-14958336D01*
X13629038Y-14948812D01*
X13619515Y-14939288D01*
X13609991Y-14920241D01*
X13600467Y-14882146D01*
X13600467Y-14834527D01*
X13609991Y-14796431D01*
X13619515Y-14777384D01*
X13629038Y-14767860D01*
X13648086Y-14758336D01*
X13800467Y-14939288D02*
X13809991Y-14948812D01*
X13800467Y-14958336D01*
X13790943Y-14948812D01*
X13800467Y-14939288D01*
X13800467Y-14958336D01*
X14000467Y-14958336D02*
X13886181Y-14958336D01*
X13943324Y-14958336D02*
X13943324Y-14758336D01*
X13924277Y-14786908D01*
X13905229Y-14805955D01*
X13886181Y-14815479D01*
X14190943Y-14958336D02*
X14076658Y-14958336D01*
X14133800Y-14958336D02*
X14133800Y-14758336D01*
X14114753Y-14786908D01*
X14095705Y-14805955D01*
X14076658Y-14815479D01*
X14305229Y-14844050D02*
X14286181Y-14834527D01*
X14276658Y-14825003D01*
X14267134Y-14805955D01*
X14267134Y-14796431D01*
X14276658Y-14777384D01*
X14286181Y-14767860D01*
X14305229Y-14758336D01*
X14343324Y-14758336D01*
X14362372Y-14767860D01*
X14371896Y-14777384D01*
X14381419Y-14796431D01*
X14381419Y-14805955D01*
X14371896Y-14825003D01*
X14362372Y-14834527D01*
X14343324Y-14844050D01*
X14305229Y-14844050D01*
X14286181Y-14853574D01*
X14276658Y-14863098D01*
X14267134Y-14882146D01*
X14267134Y-14920241D01*
X14276658Y-14939288D01*
X14286181Y-14948812D01*
X14305229Y-14958336D01*
X14343324Y-14958336D01*
X14362372Y-14948812D01*
X14371896Y-14939288D01*
X14381419Y-14920241D01*
X14381419Y-14882146D01*
X14371896Y-14863098D01*
X14362372Y-14853574D01*
X14343324Y-14844050D01*
X14505229Y-14758336D02*
X14524277Y-14758336D01*
X14543324Y-14767860D01*
X14552848Y-14777384D01*
X14562372Y-14796431D01*
X14571896Y-14834527D01*
X14571896Y-14882146D01*
X14562372Y-14920241D01*
X14552848Y-14939288D01*
X14543324Y-14948812D01*
X14524277Y-14958336D01*
X14505229Y-14958336D01*
X14486181Y-14948812D01*
X14476658Y-14939288D01*
X14467134Y-14920241D01*
X14457610Y-14882146D01*
X14457610Y-14834527D01*
X14467134Y-14796431D01*
X14476658Y-14777384D01*
X14486181Y-14767860D01*
X14505229Y-14758336D01*
X14648086Y-14758336D02*
X14648086Y-14796431D01*
X14724277Y-14758336D02*
X14724277Y-14796431D01*
X15019515Y-15034527D02*
X15009991Y-15025003D01*
X14990943Y-14996431D01*
X14981419Y-14977384D01*
X14971896Y-14948812D01*
X14962372Y-14901193D01*
X14962372Y-14863098D01*
X14971896Y-14815479D01*
X14981419Y-14786908D01*
X14990943Y-14767860D01*
X15009991Y-14739288D01*
X15019515Y-14729765D01*
X15076658Y-14758336D02*
X15200467Y-14758336D01*
X15133800Y-14834527D01*
X15162372Y-14834527D01*
X15181419Y-14844050D01*
X15190943Y-14853574D01*
X15200467Y-14872622D01*
X15200467Y-14920241D01*
X15190943Y-14939288D01*
X15181419Y-14948812D01*
X15162372Y-14958336D01*
X15105229Y-14958336D01*
X15086181Y-14948812D01*
X15076658Y-14939288D01*
X15438562Y-14958336D02*
X15438562Y-14758336D01*
X15524277Y-14958336D02*
X15524277Y-14853574D01*
X15514753Y-14834527D01*
X15495705Y-14825003D01*
X15467134Y-14825003D01*
X15448086Y-14834527D01*
X15438562Y-14844050D01*
X15648086Y-14958336D02*
X15629038Y-14948812D01*
X15619515Y-14939288D01*
X15609991Y-14920241D01*
X15609991Y-14863098D01*
X15619515Y-14844050D01*
X15629038Y-14834527D01*
X15648086Y-14825003D01*
X15676658Y-14825003D01*
X15695705Y-14834527D01*
X15705229Y-14844050D01*
X15714753Y-14863098D01*
X15714753Y-14920241D01*
X15705229Y-14939288D01*
X15695705Y-14948812D01*
X15676658Y-14958336D01*
X15648086Y-14958336D01*
X15829038Y-14958336D02*
X15809991Y-14948812D01*
X15800467Y-14929765D01*
X15800467Y-14758336D01*
X15981419Y-14948812D02*
X15962372Y-14958336D01*
X15924277Y-14958336D01*
X15905229Y-14948812D01*
X15895705Y-14929765D01*
X15895705Y-14853574D01*
X15905229Y-14834527D01*
X15924277Y-14825003D01*
X15962372Y-14825003D01*
X15981419Y-14834527D01*
X15990943Y-14853574D01*
X15990943Y-14872622D01*
X15895705Y-14891669D01*
X16067134Y-14948812D02*
X16086181Y-14958336D01*
X16124277Y-14958336D01*
X16143324Y-14948812D01*
X16152848Y-14929765D01*
X16152848Y-14920241D01*
X16143324Y-14901193D01*
X16124277Y-14891669D01*
X16095705Y-14891669D01*
X16076658Y-14882146D01*
X16067134Y-14863098D01*
X16067134Y-14853574D01*
X16076658Y-14834527D01*
X16095705Y-14825003D01*
X16124277Y-14825003D01*
X16143324Y-14834527D01*
X16219515Y-15034527D02*
X16229038Y-15025003D01*
X16248086Y-14996431D01*
X16257610Y-14977384D01*
X16267134Y-14948812D01*
X16276658Y-14901193D01*
X16276658Y-14863098D01*
X16267134Y-14815479D01*
X16257610Y-14786908D01*
X16248086Y-14767860D01*
X16229038Y-14739288D01*
X16219515Y-14729765D01*
M02*
