solid WT32-SC01 wifi case
facet normal 4.2987293941278645e-17 0.0 -1.0
  outer loop
    vertex 155.67057084963483 158.23720389670416 -3.0
    vertex 149.47057084963475 154.23720389670416 -3.0
    vertex 149.47057084963475 158.23720389670416 -3.0
  endloop
endfacet
facet normal 4.2987293941278645e-17 0.0 -1.0
  outer loop
    vertex 149.47057084963475 154.23720389670416 -3.0
    vertex 155.67057084963483 158.23720389670416 -3.0
    vertex 155.67057084963483 154.23720389670416 -3.0
  endloop
endfacet
facet normal 1.0 0.0 0.0
  outer loop
    vertex 155.67057084963483 158.23720389670416 -3.0
    vertex 155.67057084963483 154.23720389670416 5.000000000000001
    vertex 155.67057084963483 154.23720389670416 -3.0
  endloop
endfacet
facet normal 1.0 0.0 0.0
  outer loop
    vertex 155.67057084963483 154.23720389670416 5.000000000000001
    vertex 155.67057084963483 158.23720389670416 -3.0
    vertex 155.67057084963483 158.23720389670416 5.000000000000001
  endloop
endfacet
facet normal 0.0 0.0 1.0
  outer loop
    vertex 147.62057084963482 154.23720389670416 1.9999999999999998
    vertex 145.92057084963483 158.23720389670416 1.9999999999999998
    vertex 145.92057084963483 154.23720389670416 1.9999999999999998
  endloop
endfacet
facet normal 0.0 0.0 1.0
  outer loop
    vertex 145.92057084963483 158.23720389670416 1.9999999999999998
    vertex 147.62057084963482 154.23720389670416 1.9999999999999998
    vertex 147.62057084963482 158.23720389670416 1.9999999999999998
  endloop
endfacet
facet normal -1.0 0.0 0.0
  outer loop
    vertex 145.92057084963483 158.23720389670416 1.9999999999999998
    vertex 145.92057084963483 154.23720389670416 -3.0
    vertex 145.92057084963483 154.23720389670416 1.9999999999999998
  endloop
endfacet
facet normal -1.0 0.0 0.0
  outer loop
    vertex 145.92057084963483 154.23720389670416 -3.0
    vertex 145.92057084963483 158.23720389670416 1.9999999999999998
    vertex 145.92057084963483 158.23720389670416 -3.0
  endloop
endfacet
facet normal 1.0 0.0 0.0
  outer loop
    vertex 147.62057084963482 158.23720389670416 0.0
    vertex 147.62057084963482 154.23720389670416 1.9999999999999998
    vertex 147.62057084963482 154.23720389670416 0.0
  endloop
endfacet
facet normal 1.0 0.0 0.0
  outer loop
    vertex 147.62057084963482 154.23720389670416 1.9999999999999998
    vertex 147.62057084963482 158.23720389670416 0.0
    vertex 147.62057084963482 158.23720389670416 1.9999999999999998
  endloop
endfacet
facet normal 0.0 0.0 1.0
  outer loop
    vertex 155.67057084963483 154.23720389670416 5.000000000000001
    vertex 149.4705708496348 158.23720389670416 5.000000000000001
    vertex 149.4705708496348 154.23720389670416 5.000000000000001
  endloop
endfacet
facet normal 0.0 0.0 1.0
  outer loop
    vertex 149.4705708496348 158.23720389670416 5.000000000000001
    vertex 155.67057084963483 154.23720389670416 5.000000000000001
    vertex 155.67057084963483 158.23720389670416 5.000000000000001
  endloop
endfacet
facet normal -1.0 0.0 0.0
  outer loop
    vertex 149.4705708496348 158.23720389670416 5.000000000000001
    vertex 149.4705708496348 154.23720389670416 0.0
    vertex 149.4705708496348 154.23720389670416 5.000000000000001
  endloop
endfacet
facet normal -1.0 0.0 0.0
  outer loop
    vertex 149.4705708496348 154.23720389670416 0.0
    vertex 149.4705708496348 158.23720389670416 5.000000000000001
    vertex 149.4705708496348 158.23720389670416 0.0
  endloop
endfacet
facet normal -0.0 -0.0 1.0
  outer loop
    vertex 149.4705708496348 154.23720389670416 0.0
    vertex 147.62057084963482 158.23720389670416 0.0
    vertex 147.62057084963482 154.23720389670416 0.0
  endloop
endfacet
facet normal -0.0 -0.0 1.0
  outer loop
    vertex 147.62057084963482 158.23720389670416 0.0
    vertex 149.4705708496348 154.23720389670416 0.0
    vertex 149.4705708496348 158.23720389670416 0.0
  endloop
endfacet
facet normal 0.0 0.0 -1.0
  outer loop
    vertex 149.47057084963475 158.23720389670416 -3.0
    vertex 145.92057084963483 154.23720389670416 -3.0
    vertex 145.92057084963483 158.23720389670416 -3.0
  endloop
endfacet
facet normal 0.0 0.0 -1.0
  outer loop
    vertex 145.92057084963483 154.23720389670416 -3.0
    vertex 149.47057084963475 158.23720389670416 -3.0
    vertex 149.47057084963475 154.23720389670416 -3.0
  endloop
endfacet
facet normal 0.0 -1.0 0.0
  outer loop
    vertex 155.67057084963483 154.23720389670416 5.000000000000001
    vertex 149.4705708496348 154.23720389670416 0.0
    vertex 155.67057084963483 154.23720389670416 -3.0
  endloop
endfacet
facet normal 0.0 -1.0 0.0
  outer loop
    vertex 149.4705708496348 154.23720389670416 0.0
    vertex 155.67057084963483 154.23720389670416 5.000000000000001
    vertex 149.4705708496348 154.23720389670416 5.000000000000001
  endloop
endfacet
facet normal 0.0 -1.0 0.0
  outer loop
    vertex 155.67057084963483 154.23720389670416 -3.0
    vertex 145.92057084963483 154.23720389670416 -3.0
    vertex 149.47057084963475 154.23720389670416 -3.0
  endloop
endfacet
facet normal 0.0 -1.0 0.0
  outer loop
    vertex 145.92057084963483 154.23720389670416 -3.0
    vertex 155.67057084963483 154.23720389670416 -3.0
    vertex 147.62057084963482 154.23720389670416 0.0
  endloop
endfacet
facet normal 0.0 -1.0 0.0
  outer loop
    vertex 145.92057084963483 154.23720389670416 -3.0
    vertex 147.62057084963482 154.23720389670416 0.0
    vertex 145.92057084963483 154.23720389670416 1.9999999999999998
  endloop
endfacet
facet normal 0.0 -1.0 0.0
  outer loop
    vertex 147.62057084963482 154.23720389670416 0.0
    vertex 155.67057084963483 154.23720389670416 -3.0
    vertex 149.4705708496348 154.23720389670416 0.0
  endloop
endfacet
facet normal 0.0 -1.0 0.0
  outer loop
    vertex 145.92057084963483 154.23720389670416 1.9999999999999998
    vertex 147.62057084963482 154.23720389670416 0.0
    vertex 147.62057084963482 154.23720389670416 1.9999999999999998
  endloop
endfacet
facet normal -0.0 1.0 -0.0
  outer loop
    vertex 155.67057084963483 158.23720389670416 -3.0
    vertex 149.4705708496348 158.23720389670416 0.0
    vertex 155.67057084963483 158.23720389670416 5.000000000000001
  endloop
endfacet
facet normal -0.0 1.0 -0.0
  outer loop
    vertex 149.4705708496348 158.23720389670416 0.0
    vertex 155.67057084963483 158.23720389670416 -3.0
    vertex 147.62057084963482 158.23720389670416 0.0
  endloop
endfacet
facet normal -0.0 1.0 -0.0
  outer loop
    vertex 155.67057084963483 158.23720389670416 5.000000000000001
    vertex 149.4705708496348 158.23720389670416 0.0
    vertex 149.4705708496348 158.23720389670416 5.000000000000001
  endloop
endfacet
facet normal -0.0 1.0 -0.0
  outer loop
    vertex 145.92057084963483 158.23720389670416 1.9999999999999998
    vertex 149.47057084963475 158.23720389670416 -3.0
    vertex 145.92057084963483 158.23720389670416 -3.0
  endloop
endfacet
facet normal -0.0 1.0 -0.0
  outer loop
    vertex 149.47057084963475 158.23720389670416 -3.0
    vertex 145.92057084963483 158.23720389670416 1.9999999999999998
    vertex 147.62057084963482 158.23720389670416 0.0
  endloop
endfacet
facet normal -0.0 1.0 -0.0
  outer loop
    vertex 149.47057084963475 158.23720389670416 -3.0
    vertex 147.62057084963482 158.23720389670416 0.0
    vertex 155.67057084963483 158.23720389670416 -3.0
  endloop
endfacet
facet normal -0.0 1.0 -0.0
  outer loop
    vertex 147.62057084963482 158.23720389670416 0.0
    vertex 145.92057084963483 158.23720389670416 1.9999999999999998
    vertex 147.62057084963482 158.23720389670416 1.9999999999999998
  endloop
endfacet
endsolid WT32-SC01 wifi case
